  0
SECTION
  2
HEADER
  9
$ANGBASE
  50
0.0
  9
$ANGDIR
  70
  1
  9
$MEASUREMENT
  70
0
  0
ENDSEC
  0
SECTION
  2
TABLES
  0
TABLE
  2
LTYPE
  70
4
  0
LTYPE
  5
40F
  2
CONTINUOUS
  70
0
  3
Solid line
  72
65
  73
0
  40
0.0
  0
LTYPE
  5
410
  2
DASHDOT
 70
0
  3
Dash Dot ____ _ ____ _
 72
65
 73
4
 40
2.0
 49
1.25
 49
-0.25
 49
0.25
 49
-0.25
  0
LTYPE
  5
411
  2
DASHED
 70
0
  3
Dashed __ __ __ __ __
 72
65
 73
2
 40
0.75
 49
0.5
 49
-0.25
  0
LTYPE
  5
43B
  2
DOTTED
 70
0
  3
Dotted .  .  .  .
 72
65
 73
2
 40
0.2
 49
0.0
 49
-0.2
  0
ENDTAB
  0
TABLE
  2
STYLE
  70
4
  0
STYLE
  2
KICAD
  70
0
  40
0
  41
1
  42
1
  50
0
  71
0
  3
isocp.shx
  0
STYLE
  2
KICADB
  70
0
  40
0
  41
1
  42
1
  50
0
  71
0
  3
isocp.shx
  0
STYLE
  2
KICADI
  70
0
  40
0
  41
1
  42
1
  50
15
  71
0
  3
isocp.shx
  0
STYLE
  2
KICADBI
  70
0
  40
0
  41
1
  42
1
  50
15
  71
0
  3
isocp.shx
  0
ENDTAB
  0
TABLE
  2
LAYER
  70
30
  0
LAYER
  2
BLACK
  70
0
  62
7
  6
CONTINUOUS
  0
LAYER
  2
GRAY1
  70
0
  62
251
  6
CONTINUOUS
  0
LAYER
  2
GRAY2
  70
0
  62
8
  6
CONTINUOUS
  0
LAYER
  2
GRAY3
  70
0
  62
9
  6
CONTINUOUS
  0
LAYER
  2
WHITE
  70
0
  62
7
  6
CONTINUOUS
  0
LAYER
  2
LYELLOW
  70
0
  62
51
  6
CONTINUOUS
  0
LAYER
  2
BLUE1
  70
0
  62
178
  6
CONTINUOUS
  0
LAYER
  2
GREEN1
  70
0
  62
98
  6
CONTINUOUS
  0
LAYER
  2
CYAN1
  70
0
  62
138
  6
CONTINUOUS
  0
LAYER
  2
RED1
  70
0
  62
18
  6
CONTINUOUS
  0
LAYER
  2
MAGENTA1
  70
0
  62
228
  6
CONTINUOUS
  0
LAYER
  2
BROWN1
  70
0
  62
58
  6
CONTINUOUS
  0
LAYER
  2
BLUE2
  70
0
  62
5
  6
CONTINUOUS
  0
LAYER
  2
GREEN2
  70
0
  62
3
  6
CONTINUOUS
  0
LAYER
  2
CYAN2
  70
0
  62
4
  6
CONTINUOUS
  0
LAYER
  2
RED2
  70
0
  62
1
  6
CONTINUOUS
  0
LAYER
  2
MAGENTA2
  70
0
  62
6
  6
CONTINUOUS
  0
LAYER
  2
BROWN2
  70
0
  62
54
  6
CONTINUOUS
  0
LAYER
  2
BLUE3
  70
0
  62
171
  6
CONTINUOUS
  0
LAYER
  2
GREEN3
  70
0
  62
91
  6
CONTINUOUS
  0
LAYER
  2
CYAN3
  70
0
  62
131
  6
CONTINUOUS
  0
LAYER
  2
RED3
  70
0
  62
11
  6
CONTINUOUS
  0
LAYER
  2
MAGENTA3
  70
0
  62
221
  6
CONTINUOUS
  0
LAYER
  2
YELLOW3
  70
0
  62
2
  6
CONTINUOUS
  0
LAYER
  2
BLUE4
  70
0
  62
5
  6
CONTINUOUS
  0
LAYER
  2
GREEN4
  70
0
  62
3
  6
CONTINUOUS
  0
LAYER
  2
CYAN4
  70
0
  62
4
  6
CONTINUOUS
  0
LAYER
  2
RED4
  70
0
  62
1
  6
CONTINUOUS
  0
LAYER
  2
MAGENTA4
  70
0
  62
6
  6
CONTINUOUS
  0
LAYER
  2
YELLOW4
  70
0
  62
2
  6
CONTINUOUS
  0
ENDTAB
  0
ENDSEC
  0
SECTION
  2
ENTITIES
0
LINE
8
BLACK
6
CONTINUOUS
10
313.91
20
-102.5
11
314.193
21
-102.838
0
LINE
8
BLACK
6
CONTINUOUS
10
314.193
20
-102.838
11
314.193
21
-102.838
0
LINE
8
BLACK
6
CONTINUOUS
10
314.193
20
-102.838
11
314.202
21
-102.853
0
LINE
8
BLACK
6
CONTINUOUS
10
314.202
20
-102.853
11
314.353
21
-103.267
0
LINE
8
BLACK
6
CONTINUOUS
10
314.353
20
-103.267
11
314.354
21
-103.274
0
LINE
8
BLACK
6
CONTINUOUS
10
314.354
20
-103.274
11
314.356
21
-103.28
0
LINE
8
BLACK
6
CONTINUOUS
10
314.356
20
-103.28
11
314.375
21
-103.498
0
LINE
8
BLACK
6
CONTINUOUS
10
314.375
20
-103.498
11
314.375
21
-103.501
0
LINE
8
BLACK
6
CONTINUOUS
10
314.375
20
-103.501
11
314.375
21
-104.646
0
LINE
8
BLACK
6
CONTINUOUS
10
314.375
20
-104.646
11
314.392
21
-104.836
0
LINE
8
BLACK
6
CONTINUOUS
10
314.392
20
-104.836
11
314.522
21
-105.194
0
LINE
8
BLACK
6
CONTINUOUS
10
314.522
20
-105.194
11
314.766
21
-105.485
0
LINE
8
BLACK
6
CONTINUOUS
10
314.766
20
-105.485
11
315.094
21
-105.674
0
LINE
8
BLACK
6
CONTINUOUS
10
315.094
20
-105.674
11
315.472
21
-105.741
0
LINE
8
BLACK
6
CONTINUOUS
10
315.472
20
-105.741
11
315.477
21
-105.741
0
LINE
8
BLACK
6
CONTINUOUS
10
315.477
20
-105.741
11
315.493
21
-105.747
0
LINE
8
BLACK
6
CONTINUOUS
10
315.493
20
-105.747
11
315.507
21
-105.758
0
LINE
8
BLACK
6
CONTINUOUS
10
315.507
20
-105.758
11
315.516
21
-105.774
0
LINE
8
BLACK
6
CONTINUOUS
10
315.516
20
-105.774
11
315.518
21
-105.787
0
LINE
8
BLACK
6
CONTINUOUS
10
315.518
20
-105.787
11
315.518
21
-109.224
0
LINE
8
BLACK
6
CONTINUOUS
10
315.518
20
-109.224
11
315.516
21
-109.237
0
LINE
8
BLACK
6
CONTINUOUS
10
315.516
20
-109.237
11
315.507
21
-109.253
0
LINE
8
BLACK
6
CONTINUOUS
10
315.507
20
-109.253
11
315.493
21
-109.264
0
LINE
8
BLACK
6
CONTINUOUS
10
315.493
20
-109.264
11
315.477
21
-109.27
0
LINE
8
BLACK
6
CONTINUOUS
10
315.477
20
-109.27
11
315.47
21
-109.27
0
LINE
8
BLACK
6
CONTINUOUS
10
315.47
20
-109.27
11
315.258
21
-109.289
0
LINE
8
BLACK
6
CONTINUOUS
10
315.258
20
-109.289
11
314.858
21
-109.434
0
LINE
8
BLACK
6
CONTINUOUS
10
314.858
20
-109.434
11
314.534
21
-109.706
0
LINE
8
BLACK
6
CONTINUOUS
10
314.534
20
-109.706
11
314.322
21
-110.073
0
LINE
8
BLACK
6
CONTINUOUS
10
314.322
20
-110.073
11
314.248
21
-110.492
0
LINE
8
BLACK
6
CONTINUOUS
10
314.248
20
-110.492
11
314.267
21
-110.7
0
LINE
8
BLACK
6
CONTINUOUS
10
314.267
20
-110.7
11
314.412
21
-111.1
0
LINE
8
BLACK
6
CONTINUOUS
10
314.412
20
-111.1
11
314.684
21
-111.424
0
LINE
8
BLACK
6
CONTINUOUS
10
314.684
20
-111.424
11
315.051
21
-111.636
0
LINE
8
BLACK
6
CONTINUOUS
10
315.051
20
-111.636
11
315.472
21
-111.71
0
LINE
8
BLACK
6
CONTINUOUS
10
315.472
20
-111.71
11
315.477
21
-111.71
0
LINE
8
BLACK
6
CONTINUOUS
10
315.477
20
-111.71
11
315.493
21
-111.716
0
LINE
8
BLACK
6
CONTINUOUS
10
315.493
20
-111.716
11
315.507
21
-111.727
0
LINE
8
BLACK
6
CONTINUOUS
10
315.507
20
-111.727
11
315.516
21
-111.743
0
LINE
8
BLACK
6
CONTINUOUS
10
315.516
20
-111.743
11
315.518
21
-111.756
0
LINE
8
BLACK
6
CONTINUOUS
10
315.518
20
-111.756
11
315.518
21
-115.066
0
LINE
8
BLACK
6
CONTINUOUS
10
315.518
20
-115.066
11
315.516
21
-115.079
0
LINE
8
BLACK
6
CONTINUOUS
10
315.516
20
-115.079
11
315.507
21
-115.095
0
LINE
8
BLACK
6
CONTINUOUS
10
315.507
20
-115.095
11
315.493
21
-115.106
0
LINE
8
BLACK
6
CONTINUOUS
10
315.493
20
-115.106
11
315.477
21
-115.112
0
LINE
8
BLACK
6
CONTINUOUS
10
315.477
20
-115.112
11
315.47
21
-115.112
0
LINE
8
BLACK
6
CONTINUOUS
10
315.47
20
-115.112
11
315.28
21
-115.129
0
LINE
8
BLACK
6
CONTINUOUS
10
315.28
20
-115.129
11
314.922
21
-115.259
0
LINE
8
BLACK
6
CONTINUOUS
10
314.922
20
-115.259
11
314.631
21
-115.503
0
LINE
8
BLACK
6
CONTINUOUS
10
314.631
20
-115.503
11
314.442
21
-115.831
0
LINE
8
BLACK
6
CONTINUOUS
10
314.442
20
-115.831
11
314.375
21
-116.209
0
LINE
8
BLACK
6
CONTINUOUS
10
314.375
20
-116.209
11
314.375
21
-123.696
0
LINE
8
BLACK
6
CONTINUOUS
10
314.375
20
-123.696
11
314.392
21
-123.886
0
LINE
8
BLACK
6
CONTINUOUS
10
314.392
20
-123.886
11
314.522
21
-124.244
0
LINE
8
BLACK
6
CONTINUOUS
10
314.522
20
-124.244
11
314.766
21
-124.535
0
LINE
8
BLACK
6
CONTINUOUS
10
314.766
20
-124.535
11
315.094
21
-124.724
0
LINE
8
BLACK
6
CONTINUOUS
10
315.094
20
-124.724
11
315.472
21
-124.791
0
LINE
8
BLACK
6
CONTINUOUS
10
315.472
20
-124.791
11
315.477
21
-124.791
0
LINE
8
BLACK
6
CONTINUOUS
10
315.477
20
-124.791
11
315.493
21
-124.797
0
LINE
8
BLACK
6
CONTINUOUS
10
315.493
20
-124.797
11
315.507
21
-124.808
0
LINE
8
BLACK
6
CONTINUOUS
10
315.507
20
-124.808
11
315.516
21
-124.824
0
LINE
8
BLACK
6
CONTINUOUS
10
315.516
20
-124.824
11
315.518
21
-124.837
0
LINE
8
BLACK
6
CONTINUOUS
10
315.518
20
-124.837
11
315.518
21
-128.274
0
LINE
8
BLACK
6
CONTINUOUS
10
315.518
20
-128.274
11
315.516
21
-128.287
0
LINE
8
BLACK
6
CONTINUOUS
10
315.516
20
-128.287
11
315.507
21
-128.303
0
LINE
8
BLACK
6
CONTINUOUS
10
315.507
20
-128.303
11
315.493
21
-128.314
0
LINE
8
BLACK
6
CONTINUOUS
10
315.493
20
-128.314
11
315.477
21
-128.32
0
LINE
8
BLACK
6
CONTINUOUS
10
315.477
20
-128.32
11
315.47
21
-128.32
0
LINE
8
BLACK
6
CONTINUOUS
10
315.47
20
-128.32
11
315.258
21
-128.339
0
LINE
8
BLACK
6
CONTINUOUS
10
315.258
20
-128.339
11
314.858
21
-128.484
0
LINE
8
BLACK
6
CONTINUOUS
10
314.858
20
-128.484
11
314.534
21
-128.756
0
LINE
8
BLACK
6
CONTINUOUS
10
314.534
20
-128.756
11
314.322
21
-129.123
0
LINE
8
BLACK
6
CONTINUOUS
10
314.322
20
-129.123
11
314.248
21
-129.542
0
LINE
8
BLACK
6
CONTINUOUS
10
314.248
20
-129.542
11
314.267
21
-129.75
0
LINE
8
BLACK
6
CONTINUOUS
10
314.267
20
-129.75
11
314.412
21
-130.15
0
LINE
8
BLACK
6
CONTINUOUS
10
314.412
20
-130.15
11
314.684
21
-130.474
0
LINE
8
BLACK
6
CONTINUOUS
10
314.684
20
-130.474
11
315.051
21
-130.686
0
LINE
8
BLACK
6
CONTINUOUS
10
315.051
20
-130.686
11
315.472
21
-130.76
0
LINE
8
BLACK
6
CONTINUOUS
10
315.472
20
-130.76
11
315.477
21
-130.76
0
LINE
8
BLACK
6
CONTINUOUS
10
315.477
20
-130.76
11
315.493
21
-130.766
0
LINE
8
BLACK
6
CONTINUOUS
10
315.493
20
-130.766
11
315.507
21
-130.777
0
LINE
8
BLACK
6
CONTINUOUS
10
315.507
20
-130.777
11
315.516
21
-130.793
0
LINE
8
BLACK
6
CONTINUOUS
10
315.516
20
-130.793
11
315.518
21
-130.806
0
LINE
8
BLACK
6
CONTINUOUS
10
315.518
20
-130.806
11
315.518
21
-134.116
0
LINE
8
BLACK
6
CONTINUOUS
10
315.518
20
-134.116
11
315.516
21
-134.129
0
LINE
8
BLACK
6
CONTINUOUS
10
315.516
20
-134.129
11
315.507
21
-134.145
0
LINE
8
BLACK
6
CONTINUOUS
10
315.507
20
-134.145
11
315.493
21
-134.156
0
LINE
8
BLACK
6
CONTINUOUS
10
315.493
20
-134.156
11
315.477
21
-134.162
0
LINE
8
BLACK
6
CONTINUOUS
10
315.477
20
-134.162
11
315.47
21
-134.162
0
LINE
8
BLACK
6
CONTINUOUS
10
315.47
20
-134.162
11
315.28
21
-134.179
0
LINE
8
BLACK
6
CONTINUOUS
10
315.28
20
-134.179
11
314.922
21
-134.309
0
LINE
8
BLACK
6
CONTINUOUS
10
314.922
20
-134.309
11
314.631
21
-134.553
0
LINE
8
BLACK
6
CONTINUOUS
10
314.631
20
-134.553
11
314.442
21
-134.881
0
LINE
8
BLACK
6
CONTINUOUS
10
314.442
20
-134.881
11
314.375
21
-135.259
0
LINE
8
BLACK
6
CONTINUOUS
10
314.375
20
-135.259
11
314.375
21
-142.746
0
LINE
8
BLACK
6
CONTINUOUS
10
314.375
20
-142.746
11
314.392
21
-142.936
0
LINE
8
BLACK
6
CONTINUOUS
10
314.392
20
-142.936
11
314.522
21
-143.294
0
LINE
8
BLACK
6
CONTINUOUS
10
314.522
20
-143.294
11
314.766
21
-143.585
0
LINE
8
BLACK
6
CONTINUOUS
10
314.766
20
-143.585
11
315.094
21
-143.774
0
LINE
8
BLACK
6
CONTINUOUS
10
315.094
20
-143.774
11
315.472
21
-143.841
0
LINE
8
BLACK
6
CONTINUOUS
10
315.472
20
-143.841
11
315.477
21
-143.841
0
LINE
8
BLACK
6
CONTINUOUS
10
315.477
20
-143.841
11
315.493
21
-143.847
0
LINE
8
BLACK
6
CONTINUOUS
10
315.493
20
-143.847
11
315.507
21
-143.858
0
LINE
8
BLACK
6
CONTINUOUS
10
315.507
20
-143.858
11
315.516
21
-143.874
0
LINE
8
BLACK
6
CONTINUOUS
10
315.516
20
-143.874
11
315.518
21
-143.887
0
LINE
8
BLACK
6
CONTINUOUS
10
315.518
20
-143.887
11
315.518
21
-147.324
0
LINE
8
BLACK
6
CONTINUOUS
10
315.518
20
-147.324
11
315.516
21
-147.337
0
LINE
8
BLACK
6
CONTINUOUS
10
315.516
20
-147.337
11
315.507
21
-147.353
0
LINE
8
BLACK
6
CONTINUOUS
10
315.507
20
-147.353
11
315.493
21
-147.364
0
LINE
8
BLACK
6
CONTINUOUS
10
315.493
20
-147.364
11
315.477
21
-147.37
0
LINE
8
BLACK
6
CONTINUOUS
10
315.477
20
-147.37
11
315.47
21
-147.37
0
LINE
8
BLACK
6
CONTINUOUS
10
315.47
20
-147.37
11
315.258
21
-147.389
0
LINE
8
BLACK
6
CONTINUOUS
10
315.258
20
-147.389
11
314.858
21
-147.534
0
LINE
8
BLACK
6
CONTINUOUS
10
314.858
20
-147.534
11
314.534
21
-147.806
0
LINE
8
BLACK
6
CONTINUOUS
10
314.534
20
-147.806
11
314.322
21
-148.173
0
LINE
8
BLACK
6
CONTINUOUS
10
314.322
20
-148.173
11
314.248
21
-148.592
0
LINE
8
BLACK
6
CONTINUOUS
10
314.248
20
-148.592
11
314.267
21
-148.8
0
LINE
8
BLACK
6
CONTINUOUS
10
314.267
20
-148.8
11
314.412
21
-149.2
0
LINE
8
BLACK
6
CONTINUOUS
10
314.412
20
-149.2
11
314.684
21
-149.524
0
LINE
8
BLACK
6
CONTINUOUS
10
314.684
20
-149.524
11
315.051
21
-149.736
0
LINE
8
BLACK
6
CONTINUOUS
10
315.051
20
-149.736
11
315.472
21
-149.81
0
LINE
8
BLACK
6
CONTINUOUS
10
315.472
20
-149.81
11
315.477
21
-149.81
0
LINE
8
BLACK
6
CONTINUOUS
10
315.477
20
-149.81
11
315.493
21
-149.816
0
LINE
8
BLACK
6
CONTINUOUS
10
315.493
20
-149.816
11
315.507
21
-149.827
0
LINE
8
BLACK
6
CONTINUOUS
10
315.507
20
-149.827
11
315.516
21
-149.843
0
LINE
8
BLACK
6
CONTINUOUS
10
315.516
20
-149.843
11
315.518
21
-149.856
0
LINE
8
BLACK
6
CONTINUOUS
10
315.518
20
-149.856
11
315.518
21
-153.166
0
LINE
8
BLACK
6
CONTINUOUS
10
315.518
20
-153.166
11
315.516
21
-153.179
0
LINE
8
BLACK
6
CONTINUOUS
10
315.516
20
-153.179
11
315.507
21
-153.195
0
LINE
8
BLACK
6
CONTINUOUS
10
315.507
20
-153.195
11
315.493
21
-153.206
0
LINE
8
BLACK
6
CONTINUOUS
10
315.493
20
-153.206
11
315.477
21
-153.212
0
LINE
8
BLACK
6
CONTINUOUS
10
315.477
20
-153.212
11
315.47
21
-153.212
0
LINE
8
BLACK
6
CONTINUOUS
10
315.47
20
-153.212
11
315.28
21
-153.229
0
LINE
8
BLACK
6
CONTINUOUS
10
315.28
20
-153.229
11
314.922
21
-153.359
0
LINE
8
BLACK
6
CONTINUOUS
10
314.922
20
-153.359
11
314.631
21
-153.603
0
LINE
8
BLACK
6
CONTINUOUS
10
314.631
20
-153.603
11
314.442
21
-153.931
0
LINE
8
BLACK
6
CONTINUOUS
10
314.442
20
-153.931
11
314.375
21
-154.309
0
LINE
8
BLACK
6
CONTINUOUS
10
314.375
20
-154.309
11
314.375
21
-161.796
0
LINE
8
BLACK
6
CONTINUOUS
10
314.375
20
-161.796
11
314.392
21
-161.986
0
LINE
8
BLACK
6
CONTINUOUS
10
314.392
20
-161.986
11
314.522
21
-162.344
0
LINE
8
BLACK
6
CONTINUOUS
10
314.522
20
-162.344
11
314.766
21
-162.635
0
LINE
8
BLACK
6
CONTINUOUS
10
314.766
20
-162.635
11
315.094
21
-162.824
0
LINE
8
BLACK
6
CONTINUOUS
10
315.094
20
-162.824
11
315.472
21
-162.891
0
LINE
8
BLACK
6
CONTINUOUS
10
315.472
20
-162.891
11
315.477
21
-162.891
0
LINE
8
BLACK
6
CONTINUOUS
10
315.477
20
-162.891
11
315.493
21
-162.897
0
LINE
8
BLACK
6
CONTINUOUS
10
315.493
20
-162.897
11
315.507
21
-162.908
0
LINE
8
BLACK
6
CONTINUOUS
10
315.507
20
-162.908
11
315.516
21
-162.924
0
LINE
8
BLACK
6
CONTINUOUS
10
315.516
20
-162.924
11
315.518
21
-162.937
0
LINE
8
BLACK
6
CONTINUOUS
10
315.518
20
-162.937
11
315.518
21
-166.374
0
LINE
8
BLACK
6
CONTINUOUS
10
315.518
20
-166.374
11
315.516
21
-166.387
0
LINE
8
BLACK
6
CONTINUOUS
10
315.516
20
-166.387
11
315.507
21
-166.403
0
LINE
8
BLACK
6
CONTINUOUS
10
315.507
20
-166.403
11
315.493
21
-166.414
0
LINE
8
BLACK
6
CONTINUOUS
10
315.493
20
-166.414
11
315.477
21
-166.42
0
LINE
8
BLACK
6
CONTINUOUS
10
315.477
20
-166.42
11
315.47
21
-166.42
0
LINE
8
BLACK
6
CONTINUOUS
10
315.47
20
-166.42
11
315.258
21
-166.439
0
LINE
8
BLACK
6
CONTINUOUS
10
315.258
20
-166.439
11
314.858
21
-166.584
0
LINE
8
BLACK
6
CONTINUOUS
10
314.858
20
-166.584
11
314.534
21
-166.856
0
LINE
8
BLACK
6
CONTINUOUS
10
314.534
20
-166.856
11
314.322
21
-167.223
0
LINE
8
BLACK
6
CONTINUOUS
10
314.322
20
-167.223
11
314.248
21
-167.642
0
LINE
8
BLACK
6
CONTINUOUS
10
314.248
20
-167.642
11
314.267
21
-167.85
0
LINE
8
BLACK
6
CONTINUOUS
10
314.267
20
-167.85
11
314.412
21
-168.25
0
LINE
8
BLACK
6
CONTINUOUS
10
314.412
20
-168.25
11
314.684
21
-168.574
0
LINE
8
BLACK
6
CONTINUOUS
10
314.684
20
-168.574
11
315.051
21
-168.786
0
LINE
8
BLACK
6
CONTINUOUS
10
315.051
20
-168.786
11
315.472
21
-168.86
0
LINE
8
BLACK
6
CONTINUOUS
10
315.472
20
-168.86
11
315.477
21
-168.86
0
LINE
8
BLACK
6
CONTINUOUS
10
315.477
20
-168.86
11
315.493
21
-168.866
0
LINE
8
BLACK
6
CONTINUOUS
10
315.493
20
-168.866
11
315.507
21
-168.877
0
LINE
8
BLACK
6
CONTINUOUS
10
315.507
20
-168.877
11
315.516
21
-168.893
0
LINE
8
BLACK
6
CONTINUOUS
10
315.516
20
-168.893
11
315.518
21
-168.906
0
LINE
8
BLACK
6
CONTINUOUS
10
315.518
20
-168.906
11
315.518
21
-172.216
0
LINE
8
BLACK
6
CONTINUOUS
10
315.518
20
-172.216
11
315.516
21
-172.229
0
LINE
8
BLACK
6
CONTINUOUS
10
315.516
20
-172.229
11
315.507
21
-172.245
0
LINE
8
BLACK
6
CONTINUOUS
10
315.507
20
-172.245
11
315.493
21
-172.256
0
LINE
8
BLACK
6
CONTINUOUS
10
315.493
20
-172.256
11
315.477
21
-172.262
0
LINE
8
BLACK
6
CONTINUOUS
10
315.477
20
-172.262
11
315.47
21
-172.262
0
LINE
8
BLACK
6
CONTINUOUS
10
315.47
20
-172.262
11
315.28
21
-172.279
0
LINE
8
BLACK
6
CONTINUOUS
10
315.28
20
-172.279
11
314.922
21
-172.409
0
LINE
8
BLACK
6
CONTINUOUS
10
314.922
20
-172.409
11
314.631
21
-172.653
0
LINE
8
BLACK
6
CONTINUOUS
10
314.631
20
-172.653
11
314.442
21
-172.981
0
LINE
8
BLACK
6
CONTINUOUS
10
314.442
20
-172.981
11
314.375
21
-173.359
0
LINE
8
BLACK
6
CONTINUOUS
10
314.375
20
-173.359
11
314.375
21
-175.518
0
LINE
8
BLACK
6
CONTINUOUS
10
314.375
20
-175.518
11
314.374
21
-175.523
0
LINE
8
BLACK
6
CONTINUOUS
10
314.374
20
-175.523
11
314.298
21
-175.957
0
LINE
8
BLACK
6
CONTINUOUS
10
314.298
20
-175.957
11
314.298
21
-175.957
0
LINE
8
BLACK
6
CONTINUOUS
10
314.298
20
-175.957
11
314.294
21
-175.966
0
LINE
8
BLACK
6
CONTINUOUS
10
314.294
20
-175.966
11
314.292
21
-175.973
0
LINE
8
BLACK
6
CONTINUOUS
10
314.292
20
-175.973
11
314.292
21
-175.973
0
LINE
8
BLACK
6
CONTINUOUS
10
314.292
20
-175.973
11
314.071
21
-176.355
0
LINE
8
BLACK
6
CONTINUOUS
10
314.071
20
-176.355
11
314.06
21
-176.369
0
LINE
8
BLACK
6
CONTINUOUS
10
314.06
20
-176.369
11
314.06
21
-176.369
0
LINE
8
BLACK
6
CONTINUOUS
10
314.06
20
-176.369
11
313.722
21
-176.652
0
LINE
8
BLACK
6
CONTINUOUS
10
313.722
20
-176.652
11
313.722
21
-176.652
0
LINE
8
BLACK
6
CONTINUOUS
10
313.722
20
-176.652
11
313.707
21
-176.661
0
LINE
8
BLACK
6
CONTINUOUS
10
313.707
20
-176.661
11
313.293
21
-176.812
0
LINE
8
BLACK
6
CONTINUOUS
10
313.293
20
-176.812
11
313.286
21
-176.813
0
LINE
8
BLACK
6
CONTINUOUS
10
313.286
20
-176.813
11
313.28
21
-176.815
0
LINE
8
BLACK
6
CONTINUOUS
10
313.28
20
-176.815
11
313.062
21
-176.834
0
LINE
8
BLACK
6
CONTINUOUS
10
313.062
20
-176.834
11
313.059
21
-176.834
0
LINE
8
BLACK
6
CONTINUOUS
10
313.059
20
-176.834
11
241.804
21
-176.834
0
LINE
8
BLACK
6
CONTINUOUS
10
241.804
20
-176.834
11
241.791
21
-176.832
0
LINE
8
BLACK
6
CONTINUOUS
10
241.791
20
-176.832
11
241.408
21
-176.764
0
LINE
8
BLACK
6
CONTINUOUS
10
241.408
20
-176.764
11
241.408
21
-176.764
0
LINE
8
BLACK
6
CONTINUOUS
10
241.408
20
-176.764
11
241.4
21
-176.761
0
LINE
8
BLACK
6
CONTINUOUS
10
241.4
20
-176.761
11
241.392
21
-176.758
0
LINE
8
BLACK
6
CONTINUOUS
10
241.392
20
-176.758
11
241.392
21
-176.758
0
LINE
8
BLACK
6
CONTINUOUS
10
241.392
20
-176.758
11
241.048
21
-176.56
0
LINE
8
BLACK
6
CONTINUOUS
10
241.048
20
-176.56
11
241.035
21
-176.549
0
LINE
8
BLACK
6
CONTINUOUS
10
241.035
20
-176.549
11
241.035
21
-176.549
0
LINE
8
BLACK
6
CONTINUOUS
10
241.035
20
-176.549
11
240.78
21
-176.245
0
LINE
8
BLACK
6
CONTINUOUS
10
240.78
20
-176.245
11
240.78
21
-176.245
0
LINE
8
BLACK
6
CONTINUOUS
10
240.78
20
-176.245
11
240.777
21
-176.239
0
LINE
8
BLACK
6
CONTINUOUS
10
240.777
20
-176.239
11
240.771
21
-176.23
0
LINE
8
BLACK
6
CONTINUOUS
10
240.771
20
-176.23
11
240.771
21
-176.23
0
LINE
8
BLACK
6
CONTINUOUS
10
240.771
20
-176.23
11
240.635
21
-175.857
0
LINE
8
BLACK
6
CONTINUOUS
10
240.635
20
-175.857
11
240.634
21
-175.85
0
LINE
8
BLACK
6
CONTINUOUS
10
240.634
20
-175.85
11
240.633
21
-175.844
0
LINE
8
BLACK
6
CONTINUOUS
10
240.633
20
-175.844
11
240.615
21
-175.648
0
LINE
8
BLACK
6
CONTINUOUS
10
240.615
20
-175.648
11
240.615
21
-175.645
0
LINE
8
BLACK
6
CONTINUOUS
10
240.615
20
-175.645
11
240.615
21
-173.484
0
LINE
8
BLACK
6
CONTINUOUS
10
240.615
20
-173.484
11
240.598
21
-173.294
0
LINE
8
BLACK
6
CONTINUOUS
10
240.598
20
-173.294
11
240.468
21
-172.936
0
LINE
8
BLACK
6
CONTINUOUS
10
240.468
20
-172.936
11
240.224
21
-172.645
0
LINE
8
BLACK
6
CONTINUOUS
10
240.224
20
-172.645
11
239.896
21
-172.456
0
LINE
8
BLACK
6
CONTINUOUS
10
239.896
20
-172.456
11
239.518
21
-172.389
0
LINE
8
BLACK
6
CONTINUOUS
10
239.518
20
-172.389
11
239.513
21
-172.389
0
LINE
8
BLACK
6
CONTINUOUS
10
239.513
20
-172.389
11
239.497
21
-172.383
0
LINE
8
BLACK
6
CONTINUOUS
10
239.497
20
-172.383
11
239.483
21
-172.372
0
LINE
8
BLACK
6
CONTINUOUS
10
239.483
20
-172.372
11
239.474
21
-172.356
0
LINE
8
BLACK
6
CONTINUOUS
10
239.474
20
-172.356
11
239.472
21
-172.343
0
LINE
8
BLACK
6
CONTINUOUS
10
239.472
20
-172.343
11
239.472
21
-172.339
0
LINE
8
BLACK
6
CONTINUOUS
10
239.472
20
-172.339
11
239.472
21
-172.339
0
LINE
8
BLACK
6
CONTINUOUS
10
239.472
20
-172.339
11
239.472
21
-172.339
0
LINE
8
BLACK
6
CONTINUOUS
10
239.472
20
-172.339
11
239.472
21
-168.906
0
LINE
8
BLACK
6
CONTINUOUS
10
239.472
20
-168.906
11
239.474
21
-168.893
0
LINE
8
BLACK
6
CONTINUOUS
10
239.474
20
-168.893
11
239.483
21
-168.877
0
LINE
8
BLACK
6
CONTINUOUS
10
239.483
20
-168.877
11
239.497
21
-168.866
0
LINE
8
BLACK
6
CONTINUOUS
10
239.497
20
-168.866
11
239.513
21
-168.86
0
LINE
8
BLACK
6
CONTINUOUS
10
239.513
20
-168.86
11
239.52
21
-168.86
0
LINE
8
BLACK
6
CONTINUOUS
10
239.52
20
-168.86
11
239.732
21
-168.841
0
LINE
8
BLACK
6
CONTINUOUS
10
239.732
20
-168.841
11
240.132
21
-168.696
0
LINE
8
BLACK
6
CONTINUOUS
10
240.132
20
-168.696
11
240.456
21
-168.424
0
LINE
8
BLACK
6
CONTINUOUS
10
240.456
20
-168.424
11
240.668
21
-168.057
0
LINE
8
BLACK
6
CONTINUOUS
10
240.668
20
-168.057
11
240.742
21
-167.638
0
LINE
8
BLACK
6
CONTINUOUS
10
240.742
20
-167.638
11
240.723
21
-167.43
0
LINE
8
BLACK
6
CONTINUOUS
10
240.723
20
-167.43
11
240.578
21
-167.03
0
LINE
8
BLACK
6
CONTINUOUS
10
240.578
20
-167.03
11
240.306
21
-166.706
0
LINE
8
BLACK
6
CONTINUOUS
10
240.306
20
-166.706
11
239.939
21
-166.494
0
LINE
8
BLACK
6
CONTINUOUS
10
239.939
20
-166.494
11
239.518
21
-166.42
0
LINE
8
BLACK
6
CONTINUOUS
10
239.518
20
-166.42
11
239.513
21
-166.42
0
LINE
8
BLACK
6
CONTINUOUS
10
239.513
20
-166.42
11
239.497
21
-166.414
0
LINE
8
BLACK
6
CONTINUOUS
10
239.497
20
-166.414
11
239.483
21
-166.403
0
LINE
8
BLACK
6
CONTINUOUS
10
239.483
20
-166.403
11
239.474
21
-166.387
0
LINE
8
BLACK
6
CONTINUOUS
10
239.474
20
-166.387
11
239.472
21
-166.374
0
LINE
8
BLACK
6
CONTINUOUS
10
239.472
20
-166.374
11
239.472
21
-166.37
0
LINE
8
BLACK
6
CONTINUOUS
10
239.472
20
-166.37
11
239.472
21
-166.37
0
LINE
8
BLACK
6
CONTINUOUS
10
239.472
20
-166.37
11
239.472
21
-166.37
0
LINE
8
BLACK
6
CONTINUOUS
10
239.472
20
-166.37
11
239.472
21
-162.81
0
LINE
8
BLACK
6
CONTINUOUS
10
239.472
20
-162.81
11
239.474
21
-162.797
0
LINE
8
BLACK
6
CONTINUOUS
10
239.474
20
-162.797
11
239.483
21
-162.781
0
LINE
8
BLACK
6
CONTINUOUS
10
239.483
20
-162.781
11
239.497
21
-162.77
0
LINE
8
BLACK
6
CONTINUOUS
10
239.497
20
-162.77
11
239.513
21
-162.764
0
LINE
8
BLACK
6
CONTINUOUS
10
239.513
20
-162.764
11
239.52
21
-162.764
0
LINE
8
BLACK
6
CONTINUOUS
10
239.52
20
-162.764
11
239.71
21
-162.747
0
LINE
8
BLACK
6
CONTINUOUS
10
239.71
20
-162.747
11
240.068
21
-162.617
0
LINE
8
BLACK
6
CONTINUOUS
10
240.068
20
-162.617
11
240.359
21
-162.373
0
LINE
8
BLACK
6
CONTINUOUS
10
240.359
20
-162.373
11
240.548
21
-162.045
0
LINE
8
BLACK
6
CONTINUOUS
10
240.548
20
-162.045
11
240.615
21
-161.667
0
LINE
8
BLACK
6
CONTINUOUS
10
240.615
20
-161.667
11
240.615
21
-154.434
0
LINE
8
BLACK
6
CONTINUOUS
10
240.615
20
-154.434
11
240.598
21
-154.244
0
LINE
8
BLACK
6
CONTINUOUS
10
240.598
20
-154.244
11
240.468
21
-153.886
0
LINE
8
BLACK
6
CONTINUOUS
10
240.468
20
-153.886
11
240.224
21
-153.595
0
LINE
8
BLACK
6
CONTINUOUS
10
240.224
20
-153.595
11
239.896
21
-153.406
0
LINE
8
BLACK
6
CONTINUOUS
10
239.896
20
-153.406
11
239.518
21
-153.339
0
LINE
8
BLACK
6
CONTINUOUS
10
239.518
20
-153.339
11
239.513
21
-153.339
0
LINE
8
BLACK
6
CONTINUOUS
10
239.513
20
-153.339
11
239.497
21
-153.333
0
LINE
8
BLACK
6
CONTINUOUS
10
239.497
20
-153.333
11
239.483
21
-153.322
0
LINE
8
BLACK
6
CONTINUOUS
10
239.483
20
-153.322
11
239.474
21
-153.306
0
LINE
8
BLACK
6
CONTINUOUS
10
239.474
20
-153.306
11
239.472
21
-153.293
0
LINE
8
BLACK
6
CONTINUOUS
10
239.472
20
-153.293
11
239.472
21
-153.289
0
LINE
8
BLACK
6
CONTINUOUS
10
239.472
20
-153.289
11
239.472
21
-153.289
0
LINE
8
BLACK
6
CONTINUOUS
10
239.472
20
-153.289
11
239.472
21
-153.289
0
LINE
8
BLACK
6
CONTINUOUS
10
239.472
20
-153.289
11
239.472
21
-149.856
0
LINE
8
BLACK
6
CONTINUOUS
10
239.472
20
-149.856
11
239.474
21
-149.843
0
LINE
8
BLACK
6
CONTINUOUS
10
239.474
20
-149.843
11
239.483
21
-149.827
0
LINE
8
BLACK
6
CONTINUOUS
10
239.483
20
-149.827
11
239.497
21
-149.816
0
LINE
8
BLACK
6
CONTINUOUS
10
239.497
20
-149.816
11
239.513
21
-149.81
0
LINE
8
BLACK
6
CONTINUOUS
10
239.513
20
-149.81
11
239.52
21
-149.81
0
LINE
8
BLACK
6
CONTINUOUS
10
239.52
20
-149.81
11
239.732
21
-149.791
0
LINE
8
BLACK
6
CONTINUOUS
10
239.732
20
-149.791
11
240.132
21
-149.646
0
LINE
8
BLACK
6
CONTINUOUS
10
240.132
20
-149.646
11
240.456
21
-149.374
0
LINE
8
BLACK
6
CONTINUOUS
10
240.456
20
-149.374
11
240.668
21
-149.007
0
LINE
8
BLACK
6
CONTINUOUS
10
240.668
20
-149.007
11
240.742
21
-148.588
0
LINE
8
BLACK
6
CONTINUOUS
10
240.742
20
-148.588
11
240.723
21
-148.38
0
LINE
8
BLACK
6
CONTINUOUS
10
240.723
20
-148.38
11
240.578
21
-147.98
0
LINE
8
BLACK
6
CONTINUOUS
10
240.578
20
-147.98
11
240.306
21
-147.656
0
LINE
8
BLACK
6
CONTINUOUS
10
240.306
20
-147.656
11
239.939
21
-147.444
0
LINE
8
BLACK
6
CONTINUOUS
10
239.939
20
-147.444
11
239.518
21
-147.37
0
LINE
8
BLACK
6
CONTINUOUS
10
239.518
20
-147.37
11
239.513
21
-147.37
0
LINE
8
BLACK
6
CONTINUOUS
10
239.513
20
-147.37
11
239.497
21
-147.364
0
LINE
8
BLACK
6
CONTINUOUS
10
239.497
20
-147.364
11
239.483
21
-147.353
0
LINE
8
BLACK
6
CONTINUOUS
10
239.483
20
-147.353
11
239.474
21
-147.337
0
LINE
8
BLACK
6
CONTINUOUS
10
239.474
20
-147.337
11
239.472
21
-147.324
0
LINE
8
BLACK
6
CONTINUOUS
10
239.472
20
-147.324
11
239.472
21
-147.32
0
LINE
8
BLACK
6
CONTINUOUS
10
239.472
20
-147.32
11
239.472
21
-147.32
0
LINE
8
BLACK
6
CONTINUOUS
10
239.472
20
-147.32
11
239.472
21
-147.32
0
LINE
8
BLACK
6
CONTINUOUS
10
239.472
20
-147.32
11
239.472
21
-143.76
0
LINE
8
BLACK
6
CONTINUOUS
10
239.472
20
-143.76
11
239.474
21
-143.747
0
LINE
8
BLACK
6
CONTINUOUS
10
239.474
20
-143.747
11
239.483
21
-143.731
0
LINE
8
BLACK
6
CONTINUOUS
10
239.483
20
-143.731
11
239.497
21
-143.72
0
LINE
8
BLACK
6
CONTINUOUS
10
239.497
20
-143.72
11
239.513
21
-143.714
0
LINE
8
BLACK
6
CONTINUOUS
10
239.513
20
-143.714
11
239.52
21
-143.714
0
LINE
8
BLACK
6
CONTINUOUS
10
239.52
20
-143.714
11
239.71
21
-143.697
0
LINE
8
BLACK
6
CONTINUOUS
10
239.71
20
-143.697
11
240.068
21
-143.567
0
LINE
8
BLACK
6
CONTINUOUS
10
240.068
20
-143.567
11
240.359
21
-143.323
0
LINE
8
BLACK
6
CONTINUOUS
10
240.359
20
-143.323
11
240.548
21
-142.995
0
LINE
8
BLACK
6
CONTINUOUS
10
240.548
20
-142.995
11
240.615
21
-142.617
0
LINE
8
BLACK
6
CONTINUOUS
10
240.615
20
-142.617
11
240.615
21
-135.384
0
LINE
8
BLACK
6
CONTINUOUS
10
240.615
20
-135.384
11
240.598
21
-135.194
0
LINE
8
BLACK
6
CONTINUOUS
10
240.598
20
-135.194
11
240.468
21
-134.836
0
LINE
8
BLACK
6
CONTINUOUS
10
240.468
20
-134.836
11
240.224
21
-134.545
0
LINE
8
BLACK
6
CONTINUOUS
10
240.224
20
-134.545
11
239.896
21
-134.356
0
LINE
8
BLACK
6
CONTINUOUS
10
239.896
20
-134.356
11
239.518
21
-134.289
0
LINE
8
BLACK
6
CONTINUOUS
10
239.518
20
-134.289
11
239.513
21
-134.289
0
LINE
8
BLACK
6
CONTINUOUS
10
239.513
20
-134.289
11
239.497
21
-134.283
0
LINE
8
BLACK
6
CONTINUOUS
10
239.497
20
-134.283
11
239.483
21
-134.272
0
LINE
8
BLACK
6
CONTINUOUS
10
239.483
20
-134.272
11
239.474
21
-134.256
0
LINE
8
BLACK
6
CONTINUOUS
10
239.474
20
-134.256
11
239.472
21
-134.243
0
LINE
8
BLACK
6
CONTINUOUS
10
239.472
20
-134.243
11
239.472
21
-134.239
0
LINE
8
BLACK
6
CONTINUOUS
10
239.472
20
-134.239
11
239.472
21
-134.239
0
LINE
8
BLACK
6
CONTINUOUS
10
239.472
20
-134.239
11
239.472
21
-134.239
0
LINE
8
BLACK
6
CONTINUOUS
10
239.472
20
-134.239
11
239.472
21
-130.806
0
LINE
8
BLACK
6
CONTINUOUS
10
239.472
20
-130.806
11
239.474
21
-130.793
0
LINE
8
BLACK
6
CONTINUOUS
10
239.474
20
-130.793
11
239.483
21
-130.777
0
LINE
8
BLACK
6
CONTINUOUS
10
239.483
20
-130.777
11
239.497
21
-130.766
0
LINE
8
BLACK
6
CONTINUOUS
10
239.497
20
-130.766
11
239.513
21
-130.76
0
LINE
8
BLACK
6
CONTINUOUS
10
239.513
20
-130.76
11
239.52
21
-130.76
0
LINE
8
BLACK
6
CONTINUOUS
10
239.52
20
-130.76
11
239.732
21
-130.741
0
LINE
8
BLACK
6
CONTINUOUS
10
239.732
20
-130.741
11
240.132
21
-130.596
0
LINE
8
BLACK
6
CONTINUOUS
10
240.132
20
-130.596
11
240.456
21
-130.324
0
LINE
8
BLACK
6
CONTINUOUS
10
240.456
20
-130.324
11
240.668
21
-129.957
0
LINE
8
BLACK
6
CONTINUOUS
10
240.668
20
-129.957
11
240.742
21
-129.538
0
LINE
8
BLACK
6
CONTINUOUS
10
240.742
20
-129.538
11
240.723
21
-129.33
0
LINE
8
BLACK
6
CONTINUOUS
10
240.723
20
-129.33
11
240.578
21
-128.93
0
LINE
8
BLACK
6
CONTINUOUS
10
240.578
20
-128.93
11
240.306
21
-128.606
0
LINE
8
BLACK
6
CONTINUOUS
10
240.306
20
-128.606
11
239.939
21
-128.394
0
LINE
8
BLACK
6
CONTINUOUS
10
239.939
20
-128.394
11
239.518
21
-128.32
0
LINE
8
BLACK
6
CONTINUOUS
10
239.518
20
-128.32
11
239.513
21
-128.32
0
LINE
8
BLACK
6
CONTINUOUS
10
239.513
20
-128.32
11
239.497
21
-128.314
0
LINE
8
BLACK
6
CONTINUOUS
10
239.497
20
-128.314
11
239.483
21
-128.303
0
LINE
8
BLACK
6
CONTINUOUS
10
239.483
20
-128.303
11
239.474
21
-128.287
0
LINE
8
BLACK
6
CONTINUOUS
10
239.474
20
-128.287
11
239.472
21
-128.274
0
LINE
8
BLACK
6
CONTINUOUS
10
239.472
20
-128.274
11
239.472
21
-128.27
0
LINE
8
BLACK
6
CONTINUOUS
10
239.472
20
-128.27
11
239.472
21
-128.27
0
LINE
8
BLACK
6
CONTINUOUS
10
239.472
20
-128.27
11
239.472
21
-128.27
0
LINE
8
BLACK
6
CONTINUOUS
10
239.472
20
-128.27
11
239.472
21
-124.71
0
LINE
8
BLACK
6
CONTINUOUS
10
239.472
20
-124.71
11
239.474
21
-124.697
0
LINE
8
BLACK
6
CONTINUOUS
10
239.474
20
-124.697
11
239.483
21
-124.681
0
LINE
8
BLACK
6
CONTINUOUS
10
239.483
20
-124.681
11
239.497
21
-124.67
0
LINE
8
BLACK
6
CONTINUOUS
10
239.497
20
-124.67
11
239.513
21
-124.664
0
LINE
8
BLACK
6
CONTINUOUS
10
239.513
20
-124.664
11
239.52
21
-124.664
0
LINE
8
BLACK
6
CONTINUOUS
10
239.52
20
-124.664
11
239.71
21
-124.647
0
LINE
8
BLACK
6
CONTINUOUS
10
239.71
20
-124.647
11
240.068
21
-124.517
0
LINE
8
BLACK
6
CONTINUOUS
10
240.068
20
-124.517
11
240.359
21
-124.273
0
LINE
8
BLACK
6
CONTINUOUS
10
240.359
20
-124.273
11
240.548
21
-123.945
0
LINE
8
BLACK
6
CONTINUOUS
10
240.548
20
-123.945
11
240.615
21
-123.567
0
LINE
8
BLACK
6
CONTINUOUS
10
240.615
20
-123.567
11
240.615
21
-116.334
0
LINE
8
BLACK
6
CONTINUOUS
10
240.615
20
-116.334
11
240.598
21
-116.144
0
LINE
8
BLACK
6
CONTINUOUS
10
240.598
20
-116.144
11
240.468
21
-115.786
0
LINE
8
BLACK
6
CONTINUOUS
10
240.468
20
-115.786
11
240.224
21
-115.495
0
LINE
8
BLACK
6
CONTINUOUS
10
240.224
20
-115.495
11
239.896
21
-115.306
0
LINE
8
BLACK
6
CONTINUOUS
10
239.896
20
-115.306
11
239.518
21
-115.239
0
LINE
8
BLACK
6
CONTINUOUS
10
239.518
20
-115.239
11
239.513
21
-115.239
0
LINE
8
BLACK
6
CONTINUOUS
10
239.513
20
-115.239
11
239.497
21
-115.233
0
LINE
8
BLACK
6
CONTINUOUS
10
239.497
20
-115.233
11
239.483
21
-115.222
0
LINE
8
BLACK
6
CONTINUOUS
10
239.483
20
-115.222
11
239.474
21
-115.206
0
LINE
8
BLACK
6
CONTINUOUS
10
239.474
20
-115.206
11
239.472
21
-115.193
0
LINE
8
BLACK
6
CONTINUOUS
10
239.472
20
-115.193
11
239.472
21
-115.189
0
LINE
8
BLACK
6
CONTINUOUS
10
239.472
20
-115.189
11
239.472
21
-115.189
0
LINE
8
BLACK
6
CONTINUOUS
10
239.472
20
-115.189
11
239.472
21
-115.189
0
LINE
8
BLACK
6
CONTINUOUS
10
239.472
20
-115.189
11
239.472
21
-111.756
0
LINE
8
BLACK
6
CONTINUOUS
10
239.472
20
-111.756
11
239.474
21
-111.743
0
LINE
8
BLACK
6
CONTINUOUS
10
239.474
20
-111.743
11
239.483
21
-111.727
0
LINE
8
BLACK
6
CONTINUOUS
10
239.483
20
-111.727
11
239.497
21
-111.716
0
LINE
8
BLACK
6
CONTINUOUS
10
239.497
20
-111.716
11
239.513
21
-111.71
0
LINE
8
BLACK
6
CONTINUOUS
10
239.513
20
-111.71
11
239.52
21
-111.71
0
LINE
8
BLACK
6
CONTINUOUS
10
239.52
20
-111.71
11
239.732
21
-111.691
0
LINE
8
BLACK
6
CONTINUOUS
10
239.732
20
-111.691
11
240.132
21
-111.546
0
LINE
8
BLACK
6
CONTINUOUS
10
240.132
20
-111.546
11
240.456
21
-111.274
0
LINE
8
BLACK
6
CONTINUOUS
10
240.456
20
-111.274
11
240.668
21
-110.907
0
LINE
8
BLACK
6
CONTINUOUS
10
240.668
20
-110.907
11
240.742
21
-110.488
0
LINE
8
BLACK
6
CONTINUOUS
10
240.742
20
-110.488
11
240.723
21
-110.28
0
LINE
8
BLACK
6
CONTINUOUS
10
240.723
20
-110.28
11
240.578
21
-109.88
0
LINE
8
BLACK
6
CONTINUOUS
10
240.578
20
-109.88
11
240.306
21
-109.556
0
LINE
8
BLACK
6
CONTINUOUS
10
240.306
20
-109.556
11
239.939
21
-109.344
0
LINE
8
BLACK
6
CONTINUOUS
10
239.939
20
-109.344
11
239.518
21
-109.27
0
LINE
8
BLACK
6
CONTINUOUS
10
239.518
20
-109.27
11
239.513
21
-109.27
0
LINE
8
BLACK
6
CONTINUOUS
10
239.513
20
-109.27
11
239.497
21
-109.264
0
LINE
8
BLACK
6
CONTINUOUS
10
239.497
20
-109.264
11
239.483
21
-109.253
0
LINE
8
BLACK
6
CONTINUOUS
10
239.483
20
-109.253
11
239.474
21
-109.237
0
LINE
8
BLACK
6
CONTINUOUS
10
239.474
20
-109.237
11
239.472
21
-109.224
0
LINE
8
BLACK
6
CONTINUOUS
10
239.472
20
-109.224
11
239.472
21
-109.22
0
LINE
8
BLACK
6
CONTINUOUS
10
239.472
20
-109.22
11
239.472
21
-109.22
0
LINE
8
BLACK
6
CONTINUOUS
10
239.472
20
-109.22
11
239.472
21
-109.22
0
LINE
8
BLACK
6
CONTINUOUS
10
239.472
20
-109.22
11
239.472
21
-105.66
0
LINE
8
BLACK
6
CONTINUOUS
10
239.472
20
-105.66
11
239.474
21
-105.647
0
LINE
8
BLACK
6
CONTINUOUS
10
239.474
20
-105.647
11
239.483
21
-105.631
0
LINE
8
BLACK
6
CONTINUOUS
10
239.483
20
-105.631
11
239.497
21
-105.62
0
LINE
8
BLACK
6
CONTINUOUS
10
239.497
20
-105.62
11
239.513
21
-105.614
0
LINE
8
BLACK
6
CONTINUOUS
10
239.513
20
-105.614
11
239.52
21
-105.614
0
LINE
8
BLACK
6
CONTINUOUS
10
239.52
20
-105.614
11
239.71
21
-105.597
0
LINE
8
BLACK
6
CONTINUOUS
10
239.71
20
-105.597
11
240.068
21
-105.467
0
LINE
8
BLACK
6
CONTINUOUS
10
240.068
20
-105.467
11
240.359
21
-105.223
0
LINE
8
BLACK
6
CONTINUOUS
10
240.359
20
-105.223
11
240.548
21
-104.895
0
LINE
8
BLACK
6
CONTINUOUS
10
240.548
20
-104.895
11
240.615
21
-104.517
0
LINE
8
BLACK
6
CONTINUOUS
10
240.615
20
-104.517
11
240.615
21
-103.374
0
LINE
8
BLACK
6
CONTINUOUS
10
240.615
20
-103.374
11
240.617
21
-103.361
0
LINE
8
BLACK
6
CONTINUOUS
10
240.617
20
-103.361
11
240.685
21
-102.978
0
LINE
8
BLACK
6
CONTINUOUS
10
240.685
20
-102.978
11
240.685
21
-102.978
0
LINE
8
BLACK
6
CONTINUOUS
10
240.685
20
-102.978
11
240.688
21
-102.97
0
LINE
8
BLACK
6
CONTINUOUS
10
240.688
20
-102.97
11
240.691
21
-102.962
0
LINE
8
BLACK
6
CONTINUOUS
10
240.691
20
-102.962
11
240.691
21
-102.962
0
LINE
8
BLACK
6
CONTINUOUS
10
240.691
20
-102.962
11
240.889
21
-102.618
0
LINE
8
BLACK
6
CONTINUOUS
10
240.889
20
-102.618
11
240.889
21
-102.618
0
LINE
8
BLACK
6
CONTINUOUS
10
240.889
20
-102.618
11
240.895
21
-102.611
0
LINE
8
BLACK
6
CONTINUOUS
10
240.895
20
-102.611
11
240.9
21
-102.605
0
LINE
8
BLACK
6
CONTINUOUS
10
240.9
20
-102.605
11
240.9
21
-102.605
0
LINE
8
BLACK
6
CONTINUOUS
10
240.9
20
-102.605
11
241.204
21
-102.35
0
LINE
8
BLACK
6
CONTINUOUS
10
241.204
20
-102.35
11
241.204
21
-102.35
0
LINE
8
BLACK
6
CONTINUOUS
10
241.204
20
-102.35
11
241.219
21
-102.341
0
LINE
8
BLACK
6
CONTINUOUS
10
241.219
20
-102.341
11
241.592
21
-102.205
0
LINE
8
BLACK
6
CONTINUOUS
10
241.592
20
-102.205
11
241.599
21
-102.204
0
LINE
8
BLACK
6
CONTINUOUS
10
241.599
20
-102.204
11
241.606
21
-102.203
0
LINE
8
BLACK
6
CONTINUOUS
10
241.606
20
-102.203
11
241.822
21
-102.186
0
LINE
8
BLACK
6
CONTINUOUS
10
241.822
20
-102.186
11
241.826
21
-102.185
0
LINE
8
BLACK
6
CONTINUOUS
10
241.826
20
-102.185
11
313.059
21
-102.185
0
LINE
8
BLACK
6
CONTINUOUS
10
313.059
20
-102.185
11
313.064
21
-102.186
0
LINE
8
BLACK
6
CONTINUOUS
10
313.064
20
-102.186
11
313.498
21
-102.262
0
LINE
8
BLACK
6
CONTINUOUS
10
313.498
20
-102.262
11
313.498
21
-102.262
0
LINE
8
BLACK
6
CONTINUOUS
10
313.498
20
-102.262
11
313.506
21
-102.265
0
LINE
8
BLACK
6
CONTINUOUS
10
313.506
20
-102.265
11
313.514
21
-102.268
0
LINE
8
BLACK
6
CONTINUOUS
10
313.514
20
-102.268
11
313.514
21
-102.268
0
LINE
8
BLACK
6
CONTINUOUS
10
313.514
20
-102.268
11
313.896
21
-102.489
0
LINE
8
BLACK
6
CONTINUOUS
10
313.896
20
-102.489
11
313.896
21
-102.489
0
LINE
8
BLACK
6
CONTINUOUS
10
313.896
20
-102.489
11
313.91
21
-102.5
0
LINE
8
BLACK
6
CONTINUOUS
10
313.91
20
-102.5
11
313.91
21
-102.5
0
LINE
8
BLACK
6
CONTINUOUS
10
241.834
20
-102.285
11
241.62
21
-102.302
0
LINE
8
BLACK
6
CONTINUOUS
10
241.62
20
-102.302
11
241.262
21
-102.432
0
LINE
8
BLACK
6
CONTINUOUS
10
241.262
20
-102.432
11
240.971
21
-102.676
0
LINE
8
BLACK
6
CONTINUOUS
10
240.971
20
-102.676
11
240.782
21
-103.004
0
LINE
8
BLACK
6
CONTINUOUS
10
240.782
20
-103.004
11
240.715
21
-103.382
0
LINE
8
BLACK
6
CONTINUOUS
10
240.715
20
-103.382
11
240.715
21
-104.525
0
LINE
8
BLACK
6
CONTINUOUS
10
240.715
20
-104.525
11
240.714
21
-104.53
0
LINE
8
BLACK
6
CONTINUOUS
10
240.714
20
-104.53
11
240.645
21
-104.921
0
LINE
8
BLACK
6
CONTINUOUS
10
240.645
20
-104.921
11
240.645
21
-104.921
0
LINE
8
BLACK
6
CONTINUOUS
10
240.645
20
-104.921
11
240.642
21
-104.929
0
LINE
8
BLACK
6
CONTINUOUS
10
240.642
20
-104.929
11
240.639
21
-104.937
0
LINE
8
BLACK
6
CONTINUOUS
10
240.639
20
-104.937
11
240.639
21
-104.937
0
LINE
8
BLACK
6
CONTINUOUS
10
240.639
20
-104.937
11
240.441
21
-105.281
0
LINE
8
BLACK
6
CONTINUOUS
10
240.441
20
-105.281
11
240.43
21
-105.294
0
LINE
8
BLACK
6
CONTINUOUS
10
240.43
20
-105.294
11
240.43
21
-105.294
0
LINE
8
BLACK
6
CONTINUOUS
10
240.43
20
-105.294
11
240.126
21
-105.549
0
LINE
8
BLACK
6
CONTINUOUS
10
240.126
20
-105.549
11
240.126
21
-105.549
0
LINE
8
BLACK
6
CONTINUOUS
10
240.126
20
-105.549
11
240.12
21
-105.552
0
LINE
8
BLACK
6
CONTINUOUS
10
240.12
20
-105.552
11
240.111
21
-105.558
0
LINE
8
BLACK
6
CONTINUOUS
10
240.111
20
-105.558
11
240.111
21
-105.558
0
LINE
8
BLACK
6
CONTINUOUS
10
240.111
20
-105.558
11
239.738
21
-105.694
0
LINE
8
BLACK
6
CONTINUOUS
10
239.738
20
-105.694
11
239.731
21
-105.695
0
LINE
8
BLACK
6
CONTINUOUS
10
239.731
20
-105.695
11
239.725
21
-105.696
0
LINE
8
BLACK
6
CONTINUOUS
10
239.725
20
-105.696
11
239.572
21
-105.71
0
LINE
8
BLACK
6
CONTINUOUS
10
239.572
20
-105.71
11
239.572
21
-109.178
0
LINE
8
BLACK
6
CONTINUOUS
10
239.572
20
-109.178
11
239.965
21
-109.247
0
LINE
8
BLACK
6
CONTINUOUS
10
239.965
20
-109.247
11
239.965
21
-109.247
0
LINE
8
BLACK
6
CONTINUOUS
10
239.965
20
-109.247
11
239.973
21
-109.25
0
LINE
8
BLACK
6
CONTINUOUS
10
239.973
20
-109.25
11
239.981
21
-109.253
0
LINE
8
BLACK
6
CONTINUOUS
10
239.981
20
-109.253
11
239.981
21
-109.253
0
LINE
8
BLACK
6
CONTINUOUS
10
239.981
20
-109.253
11
240.363
21
-109.474
0
LINE
8
BLACK
6
CONTINUOUS
10
240.363
20
-109.474
11
240.363
21
-109.474
0
LINE
8
BLACK
6
CONTINUOUS
10
240.363
20
-109.474
11
240.37
21
-109.479
0
LINE
8
BLACK
6
CONTINUOUS
10
240.37
20
-109.479
11
240.377
21
-109.485
0
LINE
8
BLACK
6
CONTINUOUS
10
240.377
20
-109.485
11
240.377
21
-109.485
0
LINE
8
BLACK
6
CONTINUOUS
10
240.377
20
-109.485
11
240.66
21
-109.823
0
LINE
8
BLACK
6
CONTINUOUS
10
240.66
20
-109.823
11
240.66
21
-109.823
0
LINE
8
BLACK
6
CONTINUOUS
10
240.66
20
-109.823
11
240.669
21
-109.838
0
LINE
8
BLACK
6
CONTINUOUS
10
240.669
20
-109.838
11
240.82
21
-110.252
0
LINE
8
BLACK
6
CONTINUOUS
10
240.82
20
-110.252
11
240.821
21
-110.259
0
LINE
8
BLACK
6
CONTINUOUS
10
240.821
20
-110.259
11
240.823
21
-110.265
0
LINE
8
BLACK
6
CONTINUOUS
10
240.823
20
-110.265
11
240.842
21
-110.486
0
LINE
8
BLACK
6
CONTINUOUS
10
240.842
20
-110.486
11
240.841
21
-110.492
0
LINE
8
BLACK
6
CONTINUOUS
10
240.841
20
-110.492
11
240.841
21
-110.499
0
LINE
8
BLACK
6
CONTINUOUS
10
240.841
20
-110.499
11
240.765
21
-110.933
0
LINE
8
BLACK
6
CONTINUOUS
10
240.765
20
-110.933
11
240.765
21
-110.933
0
LINE
8
BLACK
6
CONTINUOUS
10
240.765
20
-110.933
11
240.761
21
-110.942
0
LINE
8
BLACK
6
CONTINUOUS
10
240.761
20
-110.942
11
240.759
21
-110.949
0
LINE
8
BLACK
6
CONTINUOUS
10
240.759
20
-110.949
11
240.759
21
-110.949
0
LINE
8
BLACK
6
CONTINUOUS
10
240.759
20
-110.949
11
240.538
21
-111.331
0
LINE
8
BLACK
6
CONTINUOUS
10
240.538
20
-111.331
11
240.527
21
-111.345
0
LINE
8
BLACK
6
CONTINUOUS
10
240.527
20
-111.345
11
240.527
21
-111.345
0
LINE
8
BLACK
6
CONTINUOUS
10
240.527
20
-111.345
11
240.189
21
-111.628
0
LINE
8
BLACK
6
CONTINUOUS
10
240.189
20
-111.628
11
240.189
21
-111.628
0
LINE
8
BLACK
6
CONTINUOUS
10
240.189
20
-111.628
11
240.174
21
-111.637
0
LINE
8
BLACK
6
CONTINUOUS
10
240.174
20
-111.637
11
239.76
21
-111.788
0
LINE
8
BLACK
6
CONTINUOUS
10
239.76
20
-111.788
11
239.753
21
-111.789
0
LINE
8
BLACK
6
CONTINUOUS
10
239.753
20
-111.789
11
239.747
21
-111.791
0
LINE
8
BLACK
6
CONTINUOUS
10
239.747
20
-111.791
11
239.572
21
-111.806
0
LINE
8
BLACK
6
CONTINUOUS
10
239.572
20
-111.806
11
239.572
21
-115.147
0
LINE
8
BLACK
6
CONTINUOUS
10
239.572
20
-115.147
11
239.922
21
-115.209
0
LINE
8
BLACK
6
CONTINUOUS
10
239.922
20
-115.209
11
239.922
21
-115.209
0
LINE
8
BLACK
6
CONTINUOUS
10
239.922
20
-115.209
11
239.93
21
-115.212
0
LINE
8
BLACK
6
CONTINUOUS
10
239.93
20
-115.212
11
239.938
21
-115.215
0
LINE
8
BLACK
6
CONTINUOUS
10
239.938
20
-115.215
11
239.938
21
-115.215
0
LINE
8
BLACK
6
CONTINUOUS
10
239.938
20
-115.215
11
240.282
21
-115.413
0
LINE
8
BLACK
6
CONTINUOUS
10
240.282
20
-115.413
11
240.282
21
-115.413
0
LINE
8
BLACK
6
CONTINUOUS
10
240.282
20
-115.413
11
240.289
21
-115.419
0
LINE
8
BLACK
6
CONTINUOUS
10
240.289
20
-115.419
11
240.295
21
-115.424
0
LINE
8
BLACK
6
CONTINUOUS
10
240.295
20
-115.424
11
240.295
21
-115.424
0
LINE
8
BLACK
6
CONTINUOUS
10
240.295
20
-115.424
11
240.55
21
-115.728
0
LINE
8
BLACK
6
CONTINUOUS
10
240.55
20
-115.728
11
240.55
21
-115.728
0
LINE
8
BLACK
6
CONTINUOUS
10
240.55
20
-115.728
11
240.559
21
-115.743
0
LINE
8
BLACK
6
CONTINUOUS
10
240.559
20
-115.743
11
240.695
21
-116.116
0
LINE
8
BLACK
6
CONTINUOUS
10
240.695
20
-116.116
11
240.696
21
-116.123
0
LINE
8
BLACK
6
CONTINUOUS
10
240.696
20
-116.123
11
240.697
21
-116.129
0
LINE
8
BLACK
6
CONTINUOUS
10
240.697
20
-116.129
11
240.715
21
-116.325
0
LINE
8
BLACK
6
CONTINUOUS
10
240.715
20
-116.325
11
240.715
21
-116.328
0
LINE
8
BLACK
6
CONTINUOUS
10
240.715
20
-116.328
11
240.715
21
-123.575
0
LINE
8
BLACK
6
CONTINUOUS
10
240.715
20
-123.575
11
240.714
21
-123.58
0
LINE
8
BLACK
6
CONTINUOUS
10
240.714
20
-123.58
11
240.645
21
-123.971
0
LINE
8
BLACK
6
CONTINUOUS
10
240.645
20
-123.971
11
240.645
21
-123.971
0
LINE
8
BLACK
6
CONTINUOUS
10
240.645
20
-123.971
11
240.642
21
-123.979
0
LINE
8
BLACK
6
CONTINUOUS
10
240.642
20
-123.979
11
240.639
21
-123.987
0
LINE
8
BLACK
6
CONTINUOUS
10
240.639
20
-123.987
11
240.639
21
-123.987
0
LINE
8
BLACK
6
CONTINUOUS
10
240.639
20
-123.987
11
240.441
21
-124.331
0
LINE
8
BLACK
6
CONTINUOUS
10
240.441
20
-124.331
11
240.43
21
-124.344
0
LINE
8
BLACK
6
CONTINUOUS
10
240.43
20
-124.344
11
240.43
21
-124.344
0
LINE
8
BLACK
6
CONTINUOUS
10
240.43
20
-124.344
11
240.126
21
-124.599
0
LINE
8
BLACK
6
CONTINUOUS
10
240.126
20
-124.599
11
240.126
21
-124.599
0
LINE
8
BLACK
6
CONTINUOUS
10
240.126
20
-124.599
11
240.12
21
-124.602
0
LINE
8
BLACK
6
CONTINUOUS
10
240.12
20
-124.602
11
240.111
21
-124.608
0
LINE
8
BLACK
6
CONTINUOUS
10
240.111
20
-124.608
11
240.111
21
-124.608
0
LINE
8
BLACK
6
CONTINUOUS
10
240.111
20
-124.608
11
239.738
21
-124.744
0
LINE
8
BLACK
6
CONTINUOUS
10
239.738
20
-124.744
11
239.731
21
-124.745
0
LINE
8
BLACK
6
CONTINUOUS
10
239.731
20
-124.745
11
239.725
21
-124.746
0
LINE
8
BLACK
6
CONTINUOUS
10
239.725
20
-124.746
11
239.572
21
-124.76
0
LINE
8
BLACK
6
CONTINUOUS
10
239.572
20
-124.76
11
239.572
21
-128.228
0
LINE
8
BLACK
6
CONTINUOUS
10
239.572
20
-128.228
11
239.965
21
-128.297
0
LINE
8
BLACK
6
CONTINUOUS
10
239.965
20
-128.297
11
239.965
21
-128.297
0
LINE
8
BLACK
6
CONTINUOUS
10
239.965
20
-128.297
11
239.973
21
-128.3
0
LINE
8
BLACK
6
CONTINUOUS
10
239.973
20
-128.3
11
239.981
21
-128.303
0
LINE
8
BLACK
6
CONTINUOUS
10
239.981
20
-128.303
11
239.981
21
-128.303
0
LINE
8
BLACK
6
CONTINUOUS
10
239.981
20
-128.303
11
240.363
21
-128.524
0
LINE
8
BLACK
6
CONTINUOUS
10
240.363
20
-128.524
11
240.363
21
-128.524
0
LINE
8
BLACK
6
CONTINUOUS
10
240.363
20
-128.524
11
240.377
21
-128.535
0
LINE
8
BLACK
6
CONTINUOUS
10
240.377
20
-128.535
11
240.377
21
-128.535
0
LINE
8
BLACK
6
CONTINUOUS
10
240.377
20
-128.535
11
240.66
21
-128.873
0
LINE
8
BLACK
6
CONTINUOUS
10
240.66
20
-128.873
11
240.66
21
-128.873
0
LINE
8
BLACK
6
CONTINUOUS
10
240.66
20
-128.873
11
240.669
21
-128.888
0
LINE
8
BLACK
6
CONTINUOUS
10
240.669
20
-128.888
11
240.82
21
-129.302
0
LINE
8
BLACK
6
CONTINUOUS
10
240.82
20
-129.302
11
240.821
21
-129.309
0
LINE
8
BLACK
6
CONTINUOUS
10
240.821
20
-129.309
11
240.823
21
-129.315
0
LINE
8
BLACK
6
CONTINUOUS
10
240.823
20
-129.315
11
240.842
21
-129.536
0
LINE
8
BLACK
6
CONTINUOUS
10
240.842
20
-129.536
11
240.841
21
-129.542
0
LINE
8
BLACK
6
CONTINUOUS
10
240.841
20
-129.542
11
240.841
21
-129.549
0
LINE
8
BLACK
6
CONTINUOUS
10
240.841
20
-129.549
11
240.765
21
-129.983
0
LINE
8
BLACK
6
CONTINUOUS
10
240.765
20
-129.983
11
240.765
21
-129.983
0
LINE
8
BLACK
6
CONTINUOUS
10
240.765
20
-129.983
11
240.761
21
-129.992
0
LINE
8
BLACK
6
CONTINUOUS
10
240.761
20
-129.992
11
240.759
21
-129.999
0
LINE
8
BLACK
6
CONTINUOUS
10
240.759
20
-129.999
11
240.759
21
-129.999
0
LINE
8
BLACK
6
CONTINUOUS
10
240.759
20
-129.999
11
240.538
21
-130.381
0
LINE
8
BLACK
6
CONTINUOUS
10
240.538
20
-130.381
11
240.527
21
-130.395
0
LINE
8
BLACK
6
CONTINUOUS
10
240.527
20
-130.395
11
240.527
21
-130.395
0
LINE
8
BLACK
6
CONTINUOUS
10
240.527
20
-130.395
11
240.189
21
-130.678
0
LINE
8
BLACK
6
CONTINUOUS
10
240.189
20
-130.678
11
240.189
21
-130.678
0
LINE
8
BLACK
6
CONTINUOUS
10
240.189
20
-130.678
11
240.174
21
-130.687
0
LINE
8
BLACK
6
CONTINUOUS
10
240.174
20
-130.687
11
239.76
21
-130.838
0
LINE
8
BLACK
6
CONTINUOUS
10
239.76
20
-130.838
11
239.753
21
-130.839
0
LINE
8
BLACK
6
CONTINUOUS
10
239.753
20
-130.839
11
239.747
21
-130.841
0
LINE
8
BLACK
6
CONTINUOUS
10
239.747
20
-130.841
11
239.572
21
-130.856
0
LINE
8
BLACK
6
CONTINUOUS
10
239.572
20
-130.856
11
239.572
21
-134.197
0
LINE
8
BLACK
6
CONTINUOUS
10
239.572
20
-134.197
11
239.922
21
-134.259
0
LINE
8
BLACK
6
CONTINUOUS
10
239.922
20
-134.259
11
239.922
21
-134.259
0
LINE
8
BLACK
6
CONTINUOUS
10
239.922
20
-134.259
11
239.93
21
-134.262
0
LINE
8
BLACK
6
CONTINUOUS
10
239.93
20
-134.262
11
239.938
21
-134.265
0
LINE
8
BLACK
6
CONTINUOUS
10
239.938
20
-134.265
11
239.938
21
-134.265
0
LINE
8
BLACK
6
CONTINUOUS
10
239.938
20
-134.265
11
240.282
21
-134.463
0
LINE
8
BLACK
6
CONTINUOUS
10
240.282
20
-134.463
11
240.282
21
-134.463
0
LINE
8
BLACK
6
CONTINUOUS
10
240.282
20
-134.463
11
240.289
21
-134.469
0
LINE
8
BLACK
6
CONTINUOUS
10
240.289
20
-134.469
11
240.295
21
-134.474
0
LINE
8
BLACK
6
CONTINUOUS
10
240.295
20
-134.474
11
240.295
21
-134.474
0
LINE
8
BLACK
6
CONTINUOUS
10
240.295
20
-134.474
11
240.55
21
-134.778
0
LINE
8
BLACK
6
CONTINUOUS
10
240.55
20
-134.778
11
240.55
21
-134.778
0
LINE
8
BLACK
6
CONTINUOUS
10
240.55
20
-134.778
11
240.559
21
-134.793
0
LINE
8
BLACK
6
CONTINUOUS
10
240.559
20
-134.793
11
240.695
21
-135.166
0
LINE
8
BLACK
6
CONTINUOUS
10
240.695
20
-135.166
11
240.696
21
-135.173
0
LINE
8
BLACK
6
CONTINUOUS
10
240.696
20
-135.173
11
240.697
21
-135.179
0
LINE
8
BLACK
6
CONTINUOUS
10
240.697
20
-135.179
11
240.715
21
-135.375
0
LINE
8
BLACK
6
CONTINUOUS
10
240.715
20
-135.375
11
240.715
21
-135.378
0
LINE
8
BLACK
6
CONTINUOUS
10
240.715
20
-135.378
11
240.715
21
-142.625
0
LINE
8
BLACK
6
CONTINUOUS
10
240.715
20
-142.625
11
240.714
21
-142.63
0
LINE
8
BLACK
6
CONTINUOUS
10
240.714
20
-142.63
11
240.645
21
-143.021
0
LINE
8
BLACK
6
CONTINUOUS
10
240.645
20
-143.021
11
240.645
21
-143.021
0
LINE
8
BLACK
6
CONTINUOUS
10
240.645
20
-143.021
11
240.642
21
-143.029
0
LINE
8
BLACK
6
CONTINUOUS
10
240.642
20
-143.029
11
240.639
21
-143.037
0
LINE
8
BLACK
6
CONTINUOUS
10
240.639
20
-143.037
11
240.639
21
-143.037
0
LINE
8
BLACK
6
CONTINUOUS
10
240.639
20
-143.037
11
240.441
21
-143.381
0
LINE
8
BLACK
6
CONTINUOUS
10
240.441
20
-143.381
11
240.43
21
-143.394
0
LINE
8
BLACK
6
CONTINUOUS
10
240.43
20
-143.394
11
240.43
21
-143.394
0
LINE
8
BLACK
6
CONTINUOUS
10
240.43
20
-143.394
11
240.126
21
-143.649
0
LINE
8
BLACK
6
CONTINUOUS
10
240.126
20
-143.649
11
240.126
21
-143.649
0
LINE
8
BLACK
6
CONTINUOUS
10
240.126
20
-143.649
11
240.12
21
-143.652
0
LINE
8
BLACK
6
CONTINUOUS
10
240.12
20
-143.652
11
240.111
21
-143.658
0
LINE
8
BLACK
6
CONTINUOUS
10
240.111
20
-143.658
11
240.111
21
-143.658
0
LINE
8
BLACK
6
CONTINUOUS
10
240.111
20
-143.658
11
239.738
21
-143.794
0
LINE
8
BLACK
6
CONTINUOUS
10
239.738
20
-143.794
11
239.731
21
-143.795
0
LINE
8
BLACK
6
CONTINUOUS
10
239.731
20
-143.795
11
239.725
21
-143.796
0
LINE
8
BLACK
6
CONTINUOUS
10
239.725
20
-143.796
11
239.572
21
-143.81
0
LINE
8
BLACK
6
CONTINUOUS
10
239.572
20
-143.81
11
239.572
21
-147.278
0
LINE
8
BLACK
6
CONTINUOUS
10
239.572
20
-147.278
11
239.965
21
-147.347
0
LINE
8
BLACK
6
CONTINUOUS
10
239.965
20
-147.347
11
239.965
21
-147.347
0
LINE
8
BLACK
6
CONTINUOUS
10
239.965
20
-147.347
11
239.973
21
-147.35
0
LINE
8
BLACK
6
CONTINUOUS
10
239.973
20
-147.35
11
239.981
21
-147.353
0
LINE
8
BLACK
6
CONTINUOUS
10
239.981
20
-147.353
11
239.981
21
-147.353
0
LINE
8
BLACK
6
CONTINUOUS
10
239.981
20
-147.353
11
240.363
21
-147.574
0
LINE
8
BLACK
6
CONTINUOUS
10
240.363
20
-147.574
11
240.363
21
-147.574
0
LINE
8
BLACK
6
CONTINUOUS
10
240.363
20
-147.574
11
240.37
21
-147.579
0
LINE
8
BLACK
6
CONTINUOUS
10
240.37
20
-147.579
11
240.377
21
-147.585
0
LINE
8
BLACK
6
CONTINUOUS
10
240.377
20
-147.585
11
240.377
21
-147.585
0
LINE
8
BLACK
6
CONTINUOUS
10
240.377
20
-147.585
11
240.66
21
-147.923
0
LINE
8
BLACK
6
CONTINUOUS
10
240.66
20
-147.923
11
240.66
21
-147.923
0
LINE
8
BLACK
6
CONTINUOUS
10
240.66
20
-147.923
11
240.669
21
-147.938
0
LINE
8
BLACK
6
CONTINUOUS
10
240.669
20
-147.938
11
240.82
21
-148.352
0
LINE
8
BLACK
6
CONTINUOUS
10
240.82
20
-148.352
11
240.821
21
-148.359
0
LINE
8
BLACK
6
CONTINUOUS
10
240.821
20
-148.359
11
240.823
21
-148.365
0
LINE
8
BLACK
6
CONTINUOUS
10
240.823
20
-148.365
11
240.842
21
-148.586
0
LINE
8
BLACK
6
CONTINUOUS
10
240.842
20
-148.586
11
240.841
21
-148.592
0
LINE
8
BLACK
6
CONTINUOUS
10
240.841
20
-148.592
11
240.841
21
-148.599
0
LINE
8
BLACK
6
CONTINUOUS
10
240.841
20
-148.599
11
240.765
21
-149.033
0
LINE
8
BLACK
6
CONTINUOUS
10
240.765
20
-149.033
11
240.765
21
-149.033
0
LINE
8
BLACK
6
CONTINUOUS
10
240.765
20
-149.033
11
240.761
21
-149.042
0
LINE
8
BLACK
6
CONTINUOUS
10
240.761
20
-149.042
11
240.759
21
-149.049
0
LINE
8
BLACK
6
CONTINUOUS
10
240.759
20
-149.049
11
240.759
21
-149.049
0
LINE
8
BLACK
6
CONTINUOUS
10
240.759
20
-149.049
11
240.538
21
-149.431
0
LINE
8
BLACK
6
CONTINUOUS
10
240.538
20
-149.431
11
240.527
21
-149.445
0
LINE
8
BLACK
6
CONTINUOUS
10
240.527
20
-149.445
11
240.527
21
-149.445
0
LINE
8
BLACK
6
CONTINUOUS
10
240.527
20
-149.445
11
240.189
21
-149.728
0
LINE
8
BLACK
6
CONTINUOUS
10
240.189
20
-149.728
11
240.189
21
-149.728
0
LINE
8
BLACK
6
CONTINUOUS
10
240.189
20
-149.728
11
240.174
21
-149.737
0
LINE
8
BLACK
6
CONTINUOUS
10
240.174
20
-149.737
11
239.76
21
-149.888
0
LINE
8
BLACK
6
CONTINUOUS
10
239.76
20
-149.888
11
239.753
21
-149.889
0
LINE
8
BLACK
6
CONTINUOUS
10
239.753
20
-149.889
11
239.747
21
-149.891
0
LINE
8
BLACK
6
CONTINUOUS
10
239.747
20
-149.891
11
239.572
21
-149.906
0
LINE
8
BLACK
6
CONTINUOUS
10
239.572
20
-149.906
11
239.572
21
-153.247
0
LINE
8
BLACK
6
CONTINUOUS
10
239.572
20
-153.247
11
239.922
21
-153.309
0
LINE
8
BLACK
6
CONTINUOUS
10
239.922
20
-153.309
11
239.922
21
-153.309
0
LINE
8
BLACK
6
CONTINUOUS
10
239.922
20
-153.309
11
239.93
21
-153.312
0
LINE
8
BLACK
6
CONTINUOUS
10
239.93
20
-153.312
11
239.938
21
-153.315
0
LINE
8
BLACK
6
CONTINUOUS
10
239.938
20
-153.315
11
239.938
21
-153.315
0
LINE
8
BLACK
6
CONTINUOUS
10
239.938
20
-153.315
11
240.282
21
-153.513
0
LINE
8
BLACK
6
CONTINUOUS
10
240.282
20
-153.513
11
240.282
21
-153.513
0
LINE
8
BLACK
6
CONTINUOUS
10
240.282
20
-153.513
11
240.289
21
-153.519
0
LINE
8
BLACK
6
CONTINUOUS
10
240.289
20
-153.519
11
240.295
21
-153.524
0
LINE
8
BLACK
6
CONTINUOUS
10
240.295
20
-153.524
11
240.295
21
-153.524
0
LINE
8
BLACK
6
CONTINUOUS
10
240.295
20
-153.524
11
240.55
21
-153.828
0
LINE
8
BLACK
6
CONTINUOUS
10
240.55
20
-153.828
11
240.55
21
-153.828
0
LINE
8
BLACK
6
CONTINUOUS
10
240.55
20
-153.828
11
240.559
21
-153.843
0
LINE
8
BLACK
6
CONTINUOUS
10
240.559
20
-153.843
11
240.695
21
-154.216
0
LINE
8
BLACK
6
CONTINUOUS
10
240.695
20
-154.216
11
240.696
21
-154.223
0
LINE
8
BLACK
6
CONTINUOUS
10
240.696
20
-154.223
11
240.697
21
-154.229
0
LINE
8
BLACK
6
CONTINUOUS
10
240.697
20
-154.229
11
240.715
21
-154.425
0
LINE
8
BLACK
6
CONTINUOUS
10
240.715
20
-154.425
11
240.715
21
-154.428
0
LINE
8
BLACK
6
CONTINUOUS
10
240.715
20
-154.428
11
240.715
21
-161.675
0
LINE
8
BLACK
6
CONTINUOUS
10
240.715
20
-161.675
11
240.714
21
-161.68
0
LINE
8
BLACK
6
CONTINUOUS
10
240.714
20
-161.68
11
240.645
21
-162.071
0
LINE
8
BLACK
6
CONTINUOUS
10
240.645
20
-162.071
11
240.645
21
-162.071
0
LINE
8
BLACK
6
CONTINUOUS
10
240.645
20
-162.071
11
240.642
21
-162.079
0
LINE
8
BLACK
6
CONTINUOUS
10
240.642
20
-162.079
11
240.639
21
-162.087
0
LINE
8
BLACK
6
CONTINUOUS
10
240.639
20
-162.087
11
240.639
21
-162.087
0
LINE
8
BLACK
6
CONTINUOUS
10
240.639
20
-162.087
11
240.441
21
-162.431
0
LINE
8
BLACK
6
CONTINUOUS
10
240.441
20
-162.431
11
240.43
21
-162.444
0
LINE
8
BLACK
6
CONTINUOUS
10
240.43
20
-162.444
11
240.43
21
-162.444
0
LINE
8
BLACK
6
CONTINUOUS
10
240.43
20
-162.444
11
240.126
21
-162.699
0
LINE
8
BLACK
6
CONTINUOUS
10
240.126
20
-162.699
11
240.126
21
-162.699
0
LINE
8
BLACK
6
CONTINUOUS
10
240.126
20
-162.699
11
240.12
21
-162.702
0
LINE
8
BLACK
6
CONTINUOUS
10
240.12
20
-162.702
11
240.111
21
-162.708
0
LINE
8
BLACK
6
CONTINUOUS
10
240.111
20
-162.708
11
240.111
21
-162.708
0
LINE
8
BLACK
6
CONTINUOUS
10
240.111
20
-162.708
11
239.738
21
-162.844
0
LINE
8
BLACK
6
CONTINUOUS
10
239.738
20
-162.844
11
239.731
21
-162.845
0
LINE
8
BLACK
6
CONTINUOUS
10
239.731
20
-162.845
11
239.725
21
-162.846
0
LINE
8
BLACK
6
CONTINUOUS
10
239.725
20
-162.846
11
239.572
21
-162.86
0
LINE
8
BLACK
6
CONTINUOUS
10
239.572
20
-162.86
11
239.572
21
-166.328
0
LINE
8
BLACK
6
CONTINUOUS
10
239.572
20
-166.328
11
239.965
21
-166.397
0
LINE
8
BLACK
6
CONTINUOUS
10
239.965
20
-166.397
11
239.965
21
-166.397
0
LINE
8
BLACK
6
CONTINUOUS
10
239.965
20
-166.397
11
239.973
21
-166.4
0
LINE
8
BLACK
6
CONTINUOUS
10
239.973
20
-166.4
11
239.981
21
-166.403
0
LINE
8
BLACK
6
CONTINUOUS
10
239.981
20
-166.403
11
239.981
21
-166.403
0
LINE
8
BLACK
6
CONTINUOUS
10
239.981
20
-166.403
11
240.363
21
-166.624
0
LINE
8
BLACK
6
CONTINUOUS
10
240.363
20
-166.624
11
240.363
21
-166.624
0
LINE
8
BLACK
6
CONTINUOUS
10
240.363
20
-166.624
11
240.377
21
-166.635
0
LINE
8
BLACK
6
CONTINUOUS
10
240.377
20
-166.635
11
240.377
21
-166.635
0
LINE
8
BLACK
6
CONTINUOUS
10
240.377
20
-166.635
11
240.66
21
-166.973
0
LINE
8
BLACK
6
CONTINUOUS
10
240.66
20
-166.973
11
240.66
21
-166.973
0
LINE
8
BLACK
6
CONTINUOUS
10
240.66
20
-166.973
11
240.669
21
-166.988
0
LINE
8
BLACK
6
CONTINUOUS
10
240.669
20
-166.988
11
240.82
21
-167.402
0
LINE
8
BLACK
6
CONTINUOUS
10
240.82
20
-167.402
11
240.821
21
-167.409
0
LINE
8
BLACK
6
CONTINUOUS
10
240.821
20
-167.409
11
240.823
21
-167.415
0
LINE
8
BLACK
6
CONTINUOUS
10
240.823
20
-167.415
11
240.842
21
-167.636
0
LINE
8
BLACK
6
CONTINUOUS
10
240.842
20
-167.636
11
240.841
21
-167.642
0
LINE
8
BLACK
6
CONTINUOUS
10
240.841
20
-167.642
11
240.841
21
-167.649
0
LINE
8
BLACK
6
CONTINUOUS
10
240.841
20
-167.649
11
240.765
21
-168.083
0
LINE
8
BLACK
6
CONTINUOUS
10
240.765
20
-168.083
11
240.765
21
-168.083
0
LINE
8
BLACK
6
CONTINUOUS
10
240.765
20
-168.083
11
240.761
21
-168.092
0
LINE
8
BLACK
6
CONTINUOUS
10
240.761
20
-168.092
11
240.759
21
-168.099
0
LINE
8
BLACK
6
CONTINUOUS
10
240.759
20
-168.099
11
240.759
21
-168.099
0
LINE
8
BLACK
6
CONTINUOUS
10
240.759
20
-168.099
11
240.538
21
-168.481
0
LINE
8
BLACK
6
CONTINUOUS
10
240.538
20
-168.481
11
240.527
21
-168.495
0
LINE
8
BLACK
6
CONTINUOUS
10
240.527
20
-168.495
11
240.527
21
-168.495
0
LINE
8
BLACK
6
CONTINUOUS
10
240.527
20
-168.495
11
240.189
21
-168.778
0
LINE
8
BLACK
6
CONTINUOUS
10
240.189
20
-168.778
11
240.189
21
-168.778
0
LINE
8
BLACK
6
CONTINUOUS
10
240.189
20
-168.778
11
240.174
21
-168.787
0
LINE
8
BLACK
6
CONTINUOUS
10
240.174
20
-168.787
11
239.76
21
-168.938
0
LINE
8
BLACK
6
CONTINUOUS
10
239.76
20
-168.938
11
239.753
21
-168.939
0
LINE
8
BLACK
6
CONTINUOUS
10
239.753
20
-168.939
11
239.747
21
-168.941
0
LINE
8
BLACK
6
CONTINUOUS
10
239.747
20
-168.941
11
239.572
21
-168.956
0
LINE
8
BLACK
6
CONTINUOUS
10
239.572
20
-168.956
11
239.572
21
-172.297
0
LINE
8
BLACK
6
CONTINUOUS
10
239.572
20
-172.297
11
239.922
21
-172.359
0
LINE
8
BLACK
6
CONTINUOUS
10
239.922
20
-172.359
11
239.922
21
-172.359
0
LINE
8
BLACK
6
CONTINUOUS
10
239.922
20
-172.359
11
239.93
21
-172.362
0
LINE
8
BLACK
6
CONTINUOUS
10
239.93
20
-172.362
11
239.938
21
-172.365
0
LINE
8
BLACK
6
CONTINUOUS
10
239.938
20
-172.365
11
239.938
21
-172.365
0
LINE
8
BLACK
6
CONTINUOUS
10
239.938
20
-172.365
11
240.282
21
-172.563
0
LINE
8
BLACK
6
CONTINUOUS
10
240.282
20
-172.563
11
240.282
21
-172.563
0
LINE
8
BLACK
6
CONTINUOUS
10
240.282
20
-172.563
11
240.289
21
-172.569
0
LINE
8
BLACK
6
CONTINUOUS
10
240.289
20
-172.569
11
240.295
21
-172.574
0
LINE
8
BLACK
6
CONTINUOUS
10
240.295
20
-172.574
11
240.295
21
-172.574
0
LINE
8
BLACK
6
CONTINUOUS
10
240.295
20
-172.574
11
240.55
21
-172.878
0
LINE
8
BLACK
6
CONTINUOUS
10
240.55
20
-172.878
11
240.55
21
-172.878
0
LINE
8
BLACK
6
CONTINUOUS
10
240.55
20
-172.878
11
240.559
21
-172.893
0
LINE
8
BLACK
6
CONTINUOUS
10
240.559
20
-172.893
11
240.695
21
-173.266
0
LINE
8
BLACK
6
CONTINUOUS
10
240.695
20
-173.266
11
240.696
21
-173.273
0
LINE
8
BLACK
6
CONTINUOUS
10
240.696
20
-173.273
11
240.697
21
-173.279
0
LINE
8
BLACK
6
CONTINUOUS
10
240.697
20
-173.279
11
240.715
21
-173.475
0
LINE
8
BLACK
6
CONTINUOUS
10
240.715
20
-173.475
11
240.715
21
-173.478
0
LINE
8
BLACK
6
CONTINUOUS
10
240.715
20
-173.478
11
240.715
21
-175.639
0
LINE
8
BLACK
6
CONTINUOUS
10
240.715
20
-175.639
11
240.732
21
-175.829
0
LINE
8
BLACK
6
CONTINUOUS
10
240.732
20
-175.829
11
240.862
21
-176.187
0
LINE
8
BLACK
6
CONTINUOUS
10
240.862
20
-176.187
11
241.106
21
-176.478
0
LINE
8
BLACK
6
CONTINUOUS
10
241.106
20
-176.478
11
241.434
21
-176.667
0
LINE
8
BLACK
6
CONTINUOUS
10
241.434
20
-176.667
11
241.812
21
-176.734
0
LINE
8
BLACK
6
CONTINUOUS
10
241.812
20
-176.734
11
313.053
21
-176.734
0
LINE
8
BLACK
6
CONTINUOUS
10
313.053
20
-176.734
11
313.265
21
-176.715
0
LINE
8
BLACK
6
CONTINUOUS
10
313.265
20
-176.715
11
313.665
21
-176.57
0
LINE
8
BLACK
6
CONTINUOUS
10
313.665
20
-176.57
11
313.989
21
-176.298
0
LINE
8
BLACK
6
CONTINUOUS
10
313.989
20
-176.298
11
314.201
21
-175.931
0
LINE
8
BLACK
6
CONTINUOUS
10
314.201
20
-175.931
11
314.275
21
-175.51
0
LINE
8
BLACK
6
CONTINUOUS
10
314.275
20
-175.51
11
314.275
21
-173.351
0
LINE
8
BLACK
6
CONTINUOUS
10
314.275
20
-173.351
11
314.276
21
-173.346
0
LINE
8
BLACK
6
CONTINUOUS
10
314.276
20
-173.346
11
314.276
21
-173.346
0
LINE
8
BLACK
6
CONTINUOUS
10
314.276
20
-173.346
11
314.345
21
-172.955
0
LINE
8
BLACK
6
CONTINUOUS
10
314.345
20
-172.955
11
314.345
21
-172.955
0
LINE
8
BLACK
6
CONTINUOUS
10
314.345
20
-172.955
11
314.349
21
-172.943
0
LINE
8
BLACK
6
CONTINUOUS
10
314.349
20
-172.943
11
314.351
21
-172.939
0
LINE
8
BLACK
6
CONTINUOUS
10
314.351
20
-172.939
11
314.351
21
-172.939
0
LINE
8
BLACK
6
CONTINUOUS
10
314.351
20
-172.939
11
314.549
21
-172.595
0
LINE
8
BLACK
6
CONTINUOUS
10
314.549
20
-172.595
11
314.549
21
-172.595
0
LINE
8
BLACK
6
CONTINUOUS
10
314.549
20
-172.595
11
314.555
21
-172.588
0
LINE
8
BLACK
6
CONTINUOUS
10
314.555
20
-172.588
11
314.56
21
-172.582
0
LINE
8
BLACK
6
CONTINUOUS
10
314.56
20
-172.582
11
314.56
21
-172.582
0
LINE
8
BLACK
6
CONTINUOUS
10
314.56
20
-172.582
11
314.864
21
-172.327
0
LINE
8
BLACK
6
CONTINUOUS
10
314.864
20
-172.327
11
314.864
21
-172.327
0
LINE
8
BLACK
6
CONTINUOUS
10
314.864
20
-172.327
11
314.879
21
-172.318
0
LINE
8
BLACK
6
CONTINUOUS
10
314.879
20
-172.318
11
315.252
21
-172.182
0
LINE
8
BLACK
6
CONTINUOUS
10
315.252
20
-172.182
11
315.259
21
-172.181
0
LINE
8
BLACK
6
CONTINUOUS
10
315.259
20
-172.181
11
315.265
21
-172.18
0
LINE
8
BLACK
6
CONTINUOUS
10
315.265
20
-172.18
11
315.418
21
-172.166
0
LINE
8
BLACK
6
CONTINUOUS
10
315.418
20
-172.166
11
315.418
21
-168.952
0
LINE
8
BLACK
6
CONTINUOUS
10
315.418
20
-168.952
11
315.025
21
-168.883
0
LINE
8
BLACK
6
CONTINUOUS
10
315.025
20
-168.883
11
315.025
21
-168.883
0
LINE
8
BLACK
6
CONTINUOUS
10
315.025
20
-168.883
11
315.016
21
-168.879
0
LINE
8
BLACK
6
CONTINUOUS
10
315.016
20
-168.879
11
315.009
21
-168.877
0
LINE
8
BLACK
6
CONTINUOUS
10
315.009
20
-168.877
11
315.009
21
-168.877
0
LINE
8
BLACK
6
CONTINUOUS
10
315.009
20
-168.877
11
314.627
21
-168.656
0
LINE
8
BLACK
6
CONTINUOUS
10
314.627
20
-168.656
11
314.613
21
-168.645
0
LINE
8
BLACK
6
CONTINUOUS
10
314.613
20
-168.645
11
314.613
21
-168.645
0
LINE
8
BLACK
6
CONTINUOUS
10
314.613
20
-168.645
11
314.33
21
-168.307
0
LINE
8
BLACK
6
CONTINUOUS
10
314.33
20
-168.307
11
314.33
21
-168.307
0
LINE
8
BLACK
6
CONTINUOUS
10
314.33
20
-168.307
11
314.321
21
-168.292
0
LINE
8
BLACK
6
CONTINUOUS
10
314.321
20
-168.292
11
314.17
21
-167.878
0
LINE
8
BLACK
6
CONTINUOUS
10
314.17
20
-167.878
11
314.169
21
-167.871
0
LINE
8
BLACK
6
CONTINUOUS
10
314.169
20
-167.871
11
314.167
21
-167.865
0
LINE
8
BLACK
6
CONTINUOUS
10
314.167
20
-167.865
11
314.148
21
-167.644
0
LINE
8
BLACK
6
CONTINUOUS
10
314.148
20
-167.644
11
314.149
21
-167.638
0
LINE
8
BLACK
6
CONTINUOUS
10
314.149
20
-167.638
11
314.149
21
-167.631
0
LINE
8
BLACK
6
CONTINUOUS
10
314.149
20
-167.631
11
314.225
21
-167.197
0
LINE
8
BLACK
6
CONTINUOUS
10
314.225
20
-167.197
11
314.225
21
-167.197
0
LINE
8
BLACK
6
CONTINUOUS
10
314.225
20
-167.197
11
314.228
21
-167.189
0
LINE
8
BLACK
6
CONTINUOUS
10
314.228
20
-167.189
11
314.231
21
-167.181
0
LINE
8
BLACK
6
CONTINUOUS
10
314.231
20
-167.181
11
314.231
21
-167.181
0
LINE
8
BLACK
6
CONTINUOUS
10
314.231
20
-167.181
11
314.452
21
-166.799
0
LINE
8
BLACK
6
CONTINUOUS
10
314.452
20
-166.799
11
314.452
21
-166.799
0
LINE
8
BLACK
6
CONTINUOUS
10
314.452
20
-166.799
11
314.457
21
-166.792
0
LINE
8
BLACK
6
CONTINUOUS
10
314.457
20
-166.792
11
314.463
21
-166.785
0
LINE
8
BLACK
6
CONTINUOUS
10
314.463
20
-166.785
11
314.463
21
-166.785
0
LINE
8
BLACK
6
CONTINUOUS
10
314.463
20
-166.785
11
314.801
21
-166.502
0
LINE
8
BLACK
6
CONTINUOUS
10
314.801
20
-166.502
11
314.801
21
-166.502
0
LINE
8
BLACK
6
CONTINUOUS
10
314.801
20
-166.502
11
314.816
21
-166.493
0
LINE
8
BLACK
6
CONTINUOUS
10
314.816
20
-166.493
11
315.23
21
-166.342
0
LINE
8
BLACK
6
CONTINUOUS
10
315.23
20
-166.342
11
315.237
21
-166.341
0
LINE
8
BLACK
6
CONTINUOUS
10
315.237
20
-166.341
11
315.243
21
-166.339
0
LINE
8
BLACK
6
CONTINUOUS
10
315.243
20
-166.339
11
315.418
21
-166.324
0
LINE
8
BLACK
6
CONTINUOUS
10
315.418
20
-166.324
11
315.418
21
-162.983
0
LINE
8
BLACK
6
CONTINUOUS
10
315.418
20
-162.983
11
315.068
21
-162.921
0
LINE
8
BLACK
6
CONTINUOUS
10
315.068
20
-162.921
11
315.068
21
-162.921
0
LINE
8
BLACK
6
CONTINUOUS
10
315.068
20
-162.921
11
315.06
21
-162.918
0
LINE
8
BLACK
6
CONTINUOUS
10
315.06
20
-162.918
11
315.052
21
-162.915
0
LINE
8
BLACK
6
CONTINUOUS
10
315.052
20
-162.915
11
315.052
21
-162.915
0
LINE
8
BLACK
6
CONTINUOUS
10
315.052
20
-162.915
11
314.708
21
-162.717
0
LINE
8
BLACK
6
CONTINUOUS
10
314.708
20
-162.717
11
314.695
21
-162.706
0
LINE
8
BLACK
6
CONTINUOUS
10
314.695
20
-162.706
11
314.695
21
-162.706
0
LINE
8
BLACK
6
CONTINUOUS
10
314.695
20
-162.706
11
314.44
21
-162.402
0
LINE
8
BLACK
6
CONTINUOUS
10
314.44
20
-162.402
11
314.44
21
-162.402
0
LINE
8
BLACK
6
CONTINUOUS
10
314.44
20
-162.402
11
314.437
21
-162.396
0
LINE
8
BLACK
6
CONTINUOUS
10
314.437
20
-162.396
11
314.431
21
-162.387
0
LINE
8
BLACK
6
CONTINUOUS
10
314.431
20
-162.387
11
314.431
21
-162.387
0
LINE
8
BLACK
6
CONTINUOUS
10
314.431
20
-162.387
11
314.295
21
-162.014
0
LINE
8
BLACK
6
CONTINUOUS
10
314.295
20
-162.014
11
314.294
21
-162.007
0
LINE
8
BLACK
6
CONTINUOUS
10
314.294
20
-162.007
11
314.293
21
-162.001
0
LINE
8
BLACK
6
CONTINUOUS
10
314.293
20
-162.001
11
314.275
21
-161.805
0
LINE
8
BLACK
6
CONTINUOUS
10
314.275
20
-161.805
11
314.275
21
-161.802
0
LINE
8
BLACK
6
CONTINUOUS
10
314.275
20
-161.802
11
314.275
21
-154.301
0
LINE
8
BLACK
6
CONTINUOUS
10
314.275
20
-154.301
11
314.276
21
-154.296
0
LINE
8
BLACK
6
CONTINUOUS
10
314.276
20
-154.296
11
314.276
21
-154.296
0
LINE
8
BLACK
6
CONTINUOUS
10
314.276
20
-154.296
11
314.345
21
-153.905
0
LINE
8
BLACK
6
CONTINUOUS
10
314.345
20
-153.905
11
314.345
21
-153.905
0
LINE
8
BLACK
6
CONTINUOUS
10
314.345
20
-153.905
11
314.349
21
-153.893
0
LINE
8
BLACK
6
CONTINUOUS
10
314.349
20
-153.893
11
314.351
21
-153.889
0
LINE
8
BLACK
6
CONTINUOUS
10
314.351
20
-153.889
11
314.351
21
-153.889
0
LINE
8
BLACK
6
CONTINUOUS
10
314.351
20
-153.889
11
314.549
21
-153.545
0
LINE
8
BLACK
6
CONTINUOUS
10
314.549
20
-153.545
11
314.549
21
-153.545
0
LINE
8
BLACK
6
CONTINUOUS
10
314.549
20
-153.545
11
314.555
21
-153.538
0
LINE
8
BLACK
6
CONTINUOUS
10
314.555
20
-153.538
11
314.56
21
-153.532
0
LINE
8
BLACK
6
CONTINUOUS
10
314.56
20
-153.532
11
314.56
21
-153.532
0
LINE
8
BLACK
6
CONTINUOUS
10
314.56
20
-153.532
11
314.864
21
-153.277
0
LINE
8
BLACK
6
CONTINUOUS
10
314.864
20
-153.277
11
314.864
21
-153.277
0
LINE
8
BLACK
6
CONTINUOUS
10
314.864
20
-153.277
11
314.879
21
-153.268
0
LINE
8
BLACK
6
CONTINUOUS
10
314.879
20
-153.268
11
315.252
21
-153.132
0
LINE
8
BLACK
6
CONTINUOUS
10
315.252
20
-153.132
11
315.259
21
-153.131
0
LINE
8
BLACK
6
CONTINUOUS
10
315.259
20
-153.131
11
315.265
21
-153.13
0
LINE
8
BLACK
6
CONTINUOUS
10
315.265
20
-153.13
11
315.418
21
-153.116
0
LINE
8
BLACK
6
CONTINUOUS
10
315.418
20
-153.116
11
315.418
21
-149.902
0
LINE
8
BLACK
6
CONTINUOUS
10
315.418
20
-149.902
11
315.025
21
-149.833
0
LINE
8
BLACK
6
CONTINUOUS
10
315.025
20
-149.833
11
315.025
21
-149.833
0
LINE
8
BLACK
6
CONTINUOUS
10
315.025
20
-149.833
11
315.016
21
-149.829
0
LINE
8
BLACK
6
CONTINUOUS
10
315.016
20
-149.829
11
315.009
21
-149.827
0
LINE
8
BLACK
6
CONTINUOUS
10
315.009
20
-149.827
11
315.009
21
-149.827
0
LINE
8
BLACK
6
CONTINUOUS
10
315.009
20
-149.827
11
314.627
21
-149.606
0
LINE
8
BLACK
6
CONTINUOUS
10
314.627
20
-149.606
11
314.613
21
-149.595
0
LINE
8
BLACK
6
CONTINUOUS
10
314.613
20
-149.595
11
314.613
21
-149.595
0
LINE
8
BLACK
6
CONTINUOUS
10
314.613
20
-149.595
11
314.33
21
-149.257
0
LINE
8
BLACK
6
CONTINUOUS
10
314.33
20
-149.257
11
314.33
21
-149.257
0
LINE
8
BLACK
6
CONTINUOUS
10
314.33
20
-149.257
11
314.321
21
-149.242
0
LINE
8
BLACK
6
CONTINUOUS
10
314.321
20
-149.242
11
314.17
21
-148.828
0
LINE
8
BLACK
6
CONTINUOUS
10
314.17
20
-148.828
11
314.169
21
-148.821
0
LINE
8
BLACK
6
CONTINUOUS
10
314.169
20
-148.821
11
314.167
21
-148.815
0
LINE
8
BLACK
6
CONTINUOUS
10
314.167
20
-148.815
11
314.148
21
-148.594
0
LINE
8
BLACK
6
CONTINUOUS
10
314.148
20
-148.594
11
314.149
21
-148.588
0
LINE
8
BLACK
6
CONTINUOUS
10
314.149
20
-148.588
11
314.149
21
-148.581
0
LINE
8
BLACK
6
CONTINUOUS
10
314.149
20
-148.581
11
314.225
21
-148.147
0
LINE
8
BLACK
6
CONTINUOUS
10
314.225
20
-148.147
11
314.225
21
-148.147
0
LINE
8
BLACK
6
CONTINUOUS
10
314.225
20
-148.147
11
314.228
21
-148.139
0
LINE
8
BLACK
6
CONTINUOUS
10
314.228
20
-148.139
11
314.231
21
-148.131
0
LINE
8
BLACK
6
CONTINUOUS
10
314.231
20
-148.131
11
314.231
21
-148.131
0
LINE
8
BLACK
6
CONTINUOUS
10
314.231
20
-148.131
11
314.452
21
-147.749
0
LINE
8
BLACK
6
CONTINUOUS
10
314.452
20
-147.749
11
314.452
21
-147.749
0
LINE
8
BLACK
6
CONTINUOUS
10
314.452
20
-147.749
11
314.457
21
-147.742
0
LINE
8
BLACK
6
CONTINUOUS
10
314.457
20
-147.742
11
314.463
21
-147.735
0
LINE
8
BLACK
6
CONTINUOUS
10
314.463
20
-147.735
11
314.463
21
-147.735
0
LINE
8
BLACK
6
CONTINUOUS
10
314.463
20
-147.735
11
314.801
21
-147.452
0
LINE
8
BLACK
6
CONTINUOUS
10
314.801
20
-147.452
11
314.801
21
-147.452
0
LINE
8
BLACK
6
CONTINUOUS
10
314.801
20
-147.452
11
314.816
21
-147.443
0
LINE
8
BLACK
6
CONTINUOUS
10
314.816
20
-147.443
11
315.23
21
-147.292
0
LINE
8
BLACK
6
CONTINUOUS
10
315.23
20
-147.292
11
315.237
21
-147.291
0
LINE
8
BLACK
6
CONTINUOUS
10
315.237
20
-147.291
11
315.243
21
-147.289
0
LINE
8
BLACK
6
CONTINUOUS
10
315.243
20
-147.289
11
315.418
21
-147.274
0
LINE
8
BLACK
6
CONTINUOUS
10
315.418
20
-147.274
11
315.418
21
-143.933
0
LINE
8
BLACK
6
CONTINUOUS
10
315.418
20
-143.933
11
315.068
21
-143.871
0
LINE
8
BLACK
6
CONTINUOUS
10
315.068
20
-143.871
11
315.068
21
-143.871
0
LINE
8
BLACK
6
CONTINUOUS
10
315.068
20
-143.871
11
315.06
21
-143.868
0
LINE
8
BLACK
6
CONTINUOUS
10
315.06
20
-143.868
11
315.052
21
-143.865
0
LINE
8
BLACK
6
CONTINUOUS
10
315.052
20
-143.865
11
315.052
21
-143.865
0
LINE
8
BLACK
6
CONTINUOUS
10
315.052
20
-143.865
11
314.708
21
-143.667
0
LINE
8
BLACK
6
CONTINUOUS
10
314.708
20
-143.667
11
314.695
21
-143.656
0
LINE
8
BLACK
6
CONTINUOUS
10
314.695
20
-143.656
11
314.695
21
-143.656
0
LINE
8
BLACK
6
CONTINUOUS
10
314.695
20
-143.656
11
314.44
21
-143.352
0
LINE
8
BLACK
6
CONTINUOUS
10
314.44
20
-143.352
11
314.44
21
-143.352
0
LINE
8
BLACK
6
CONTINUOUS
10
314.44
20
-143.352
11
314.437
21
-143.346
0
LINE
8
BLACK
6
CONTINUOUS
10
314.437
20
-143.346
11
314.431
21
-143.337
0
LINE
8
BLACK
6
CONTINUOUS
10
314.431
20
-143.337
11
314.431
21
-143.337
0
LINE
8
BLACK
6
CONTINUOUS
10
314.431
20
-143.337
11
314.295
21
-142.964
0
LINE
8
BLACK
6
CONTINUOUS
10
314.295
20
-142.964
11
314.294
21
-142.957
0
LINE
8
BLACK
6
CONTINUOUS
10
314.294
20
-142.957
11
314.293
21
-142.951
0
LINE
8
BLACK
6
CONTINUOUS
10
314.293
20
-142.951
11
314.275
21
-142.755
0
LINE
8
BLACK
6
CONTINUOUS
10
314.275
20
-142.755
11
314.275
21
-142.752
0
LINE
8
BLACK
6
CONTINUOUS
10
314.275
20
-142.752
11
314.275
21
-135.251
0
LINE
8
BLACK
6
CONTINUOUS
10
314.275
20
-135.251
11
314.276
21
-135.246
0
LINE
8
BLACK
6
CONTINUOUS
10
314.276
20
-135.246
11
314.276
21
-135.246
0
LINE
8
BLACK
6
CONTINUOUS
10
314.276
20
-135.246
11
314.345
21
-134.855
0
LINE
8
BLACK
6
CONTINUOUS
10
314.345
20
-134.855
11
314.345
21
-134.855
0
LINE
8
BLACK
6
CONTINUOUS
10
314.345
20
-134.855
11
314.349
21
-134.843
0
LINE
8
BLACK
6
CONTINUOUS
10
314.349
20
-134.843
11
314.351
21
-134.839
0
LINE
8
BLACK
6
CONTINUOUS
10
314.351
20
-134.839
11
314.351
21
-134.839
0
LINE
8
BLACK
6
CONTINUOUS
10
314.351
20
-134.839
11
314.549
21
-134.495
0
LINE
8
BLACK
6
CONTINUOUS
10
314.549
20
-134.495
11
314.549
21
-134.495
0
LINE
8
BLACK
6
CONTINUOUS
10
314.549
20
-134.495
11
314.555
21
-134.488
0
LINE
8
BLACK
6
CONTINUOUS
10
314.555
20
-134.488
11
314.56
21
-134.482
0
LINE
8
BLACK
6
CONTINUOUS
10
314.56
20
-134.482
11
314.56
21
-134.482
0
LINE
8
BLACK
6
CONTINUOUS
10
314.56
20
-134.482
11
314.864
21
-134.227
0
LINE
8
BLACK
6
CONTINUOUS
10
314.864
20
-134.227
11
314.864
21
-134.227
0
LINE
8
BLACK
6
CONTINUOUS
10
314.864
20
-134.227
11
314.879
21
-134.218
0
LINE
8
BLACK
6
CONTINUOUS
10
314.879
20
-134.218
11
315.252
21
-134.082
0
LINE
8
BLACK
6
CONTINUOUS
10
315.252
20
-134.082
11
315.259
21
-134.081
0
LINE
8
BLACK
6
CONTINUOUS
10
315.259
20
-134.081
11
315.265
21
-134.08
0
LINE
8
BLACK
6
CONTINUOUS
10
315.265
20
-134.08
11
315.418
21
-134.066
0
LINE
8
BLACK
6
CONTINUOUS
10
315.418
20
-134.066
11
315.418
21
-130.852
0
LINE
8
BLACK
6
CONTINUOUS
10
315.418
20
-130.852
11
315.025
21
-130.783
0
LINE
8
BLACK
6
CONTINUOUS
10
315.025
20
-130.783
11
315.025
21
-130.783
0
LINE
8
BLACK
6
CONTINUOUS
10
315.025
20
-130.783
11
315.016
21
-130.779
0
LINE
8
BLACK
6
CONTINUOUS
10
315.016
20
-130.779
11
315.009
21
-130.777
0
LINE
8
BLACK
6
CONTINUOUS
10
315.009
20
-130.777
11
315.009
21
-130.777
0
LINE
8
BLACK
6
CONTINUOUS
10
315.009
20
-130.777
11
314.627
21
-130.556
0
LINE
8
BLACK
6
CONTINUOUS
10
314.627
20
-130.556
11
314.613
21
-130.545
0
LINE
8
BLACK
6
CONTINUOUS
10
314.613
20
-130.545
11
314.613
21
-130.545
0
LINE
8
BLACK
6
CONTINUOUS
10
314.613
20
-130.545
11
314.33
21
-130.207
0
LINE
8
BLACK
6
CONTINUOUS
10
314.33
20
-130.207
11
314.33
21
-130.207
0
LINE
8
BLACK
6
CONTINUOUS
10
314.33
20
-130.207
11
314.321
21
-130.192
0
LINE
8
BLACK
6
CONTINUOUS
10
314.321
20
-130.192
11
314.17
21
-129.778
0
LINE
8
BLACK
6
CONTINUOUS
10
314.17
20
-129.778
11
314.169
21
-129.771
0
LINE
8
BLACK
6
CONTINUOUS
10
314.169
20
-129.771
11
314.167
21
-129.765
0
LINE
8
BLACK
6
CONTINUOUS
10
314.167
20
-129.765
11
314.148
21
-129.544
0
LINE
8
BLACK
6
CONTINUOUS
10
314.148
20
-129.544
11
314.149
21
-129.538
0
LINE
8
BLACK
6
CONTINUOUS
10
314.149
20
-129.538
11
314.149
21
-129.531
0
LINE
8
BLACK
6
CONTINUOUS
10
314.149
20
-129.531
11
314.225
21
-129.097
0
LINE
8
BLACK
6
CONTINUOUS
10
314.225
20
-129.097
11
314.225
21
-129.097
0
LINE
8
BLACK
6
CONTINUOUS
10
314.225
20
-129.097
11
314.228
21
-129.089
0
LINE
8
BLACK
6
CONTINUOUS
10
314.228
20
-129.089
11
314.231
21
-129.081
0
LINE
8
BLACK
6
CONTINUOUS
10
314.231
20
-129.081
11
314.231
21
-129.081
0
LINE
8
BLACK
6
CONTINUOUS
10
314.231
20
-129.081
11
314.452
21
-128.699
0
LINE
8
BLACK
6
CONTINUOUS
10
314.452
20
-128.699
11
314.452
21
-128.699
0
LINE
8
BLACK
6
CONTINUOUS
10
314.452
20
-128.699
11
314.457
21
-128.692
0
LINE
8
BLACK
6
CONTINUOUS
10
314.457
20
-128.692
11
314.463
21
-128.685
0
LINE
8
BLACK
6
CONTINUOUS
10
314.463
20
-128.685
11
314.463
21
-128.685
0
LINE
8
BLACK
6
CONTINUOUS
10
314.463
20
-128.685
11
314.801
21
-128.402
0
LINE
8
BLACK
6
CONTINUOUS
10
314.801
20
-128.402
11
314.801
21
-128.402
0
LINE
8
BLACK
6
CONTINUOUS
10
314.801
20
-128.402
11
314.816
21
-128.393
0
LINE
8
BLACK
6
CONTINUOUS
10
314.816
20
-128.393
11
315.23
21
-128.242
0
LINE
8
BLACK
6
CONTINUOUS
10
315.23
20
-128.242
11
315.237
21
-128.241
0
LINE
8
BLACK
6
CONTINUOUS
10
315.237
20
-128.241
11
315.243
21
-128.239
0
LINE
8
BLACK
6
CONTINUOUS
10
315.243
20
-128.239
11
315.418
21
-128.224
0
LINE
8
BLACK
6
CONTINUOUS
10
315.418
20
-128.224
11
315.418
21
-124.883
0
LINE
8
BLACK
6
CONTINUOUS
10
315.418
20
-124.883
11
315.068
21
-124.821
0
LINE
8
BLACK
6
CONTINUOUS
10
315.068
20
-124.821
11
315.068
21
-124.821
0
LINE
8
BLACK
6
CONTINUOUS
10
315.068
20
-124.821
11
315.06
21
-124.818
0
LINE
8
BLACK
6
CONTINUOUS
10
315.06
20
-124.818
11
315.052
21
-124.815
0
LINE
8
BLACK
6
CONTINUOUS
10
315.052
20
-124.815
11
315.052
21
-124.815
0
LINE
8
BLACK
6
CONTINUOUS
10
315.052
20
-124.815
11
314.708
21
-124.617
0
LINE
8
BLACK
6
CONTINUOUS
10
314.708
20
-124.617
11
314.695
21
-124.606
0
LINE
8
BLACK
6
CONTINUOUS
10
314.695
20
-124.606
11
314.695
21
-124.606
0
LINE
8
BLACK
6
CONTINUOUS
10
314.695
20
-124.606
11
314.44
21
-124.302
0
LINE
8
BLACK
6
CONTINUOUS
10
314.44
20
-124.302
11
314.44
21
-124.302
0
LINE
8
BLACK
6
CONTINUOUS
10
314.44
20
-124.302
11
314.437
21
-124.296
0
LINE
8
BLACK
6
CONTINUOUS
10
314.437
20
-124.296
11
314.431
21
-124.287
0
LINE
8
BLACK
6
CONTINUOUS
10
314.431
20
-124.287
11
314.431
21
-124.287
0
LINE
8
BLACK
6
CONTINUOUS
10
314.431
20
-124.287
11
314.295
21
-123.914
0
LINE
8
BLACK
6
CONTINUOUS
10
314.295
20
-123.914
11
314.294
21
-123.907
0
LINE
8
BLACK
6
CONTINUOUS
10
314.294
20
-123.907
11
314.293
21
-123.901
0
LINE
8
BLACK
6
CONTINUOUS
10
314.293
20
-123.901
11
314.275
21
-123.705
0
LINE
8
BLACK
6
CONTINUOUS
10
314.275
20
-123.705
11
314.275
21
-123.702
0
LINE
8
BLACK
6
CONTINUOUS
10
314.275
20
-123.702
11
314.275
21
-116.201
0
LINE
8
BLACK
6
CONTINUOUS
10
314.275
20
-116.201
11
314.276
21
-116.196
0
LINE
8
BLACK
6
CONTINUOUS
10
314.276
20
-116.196
11
314.276
21
-116.196
0
LINE
8
BLACK
6
CONTINUOUS
10
314.276
20
-116.196
11
314.345
21
-115.805
0
LINE
8
BLACK
6
CONTINUOUS
10
314.345
20
-115.805
11
314.345
21
-115.805
0
LINE
8
BLACK
6
CONTINUOUS
10
314.345
20
-115.805
11
314.349
21
-115.793
0
LINE
8
BLACK
6
CONTINUOUS
10
314.349
20
-115.793
11
314.351
21
-115.789
0
LINE
8
BLACK
6
CONTINUOUS
10
314.351
20
-115.789
11
314.351
21
-115.789
0
LINE
8
BLACK
6
CONTINUOUS
10
314.351
20
-115.789
11
314.549
21
-115.445
0
LINE
8
BLACK
6
CONTINUOUS
10
314.549
20
-115.445
11
314.549
21
-115.445
0
LINE
8
BLACK
6
CONTINUOUS
10
314.549
20
-115.445
11
314.555
21
-115.438
0
LINE
8
BLACK
6
CONTINUOUS
10
314.555
20
-115.438
11
314.56
21
-115.432
0
LINE
8
BLACK
6
CONTINUOUS
10
314.56
20
-115.432
11
314.56
21
-115.432
0
LINE
8
BLACK
6
CONTINUOUS
10
314.56
20
-115.432
11
314.864
21
-115.177
0
LINE
8
BLACK
6
CONTINUOUS
10
314.864
20
-115.177
11
314.864
21
-115.177
0
LINE
8
BLACK
6
CONTINUOUS
10
314.864
20
-115.177
11
314.879
21
-115.168
0
LINE
8
BLACK
6
CONTINUOUS
10
314.879
20
-115.168
11
315.252
21
-115.032
0
LINE
8
BLACK
6
CONTINUOUS
10
315.252
20
-115.032
11
315.259
21
-115.031
0
LINE
8
BLACK
6
CONTINUOUS
10
315.259
20
-115.031
11
315.265
21
-115.03
0
LINE
8
BLACK
6
CONTINUOUS
10
315.265
20
-115.03
11
315.418
21
-115.016
0
LINE
8
BLACK
6
CONTINUOUS
10
315.418
20
-115.016
11
315.418
21
-111.802
0
LINE
8
BLACK
6
CONTINUOUS
10
315.418
20
-111.802
11
315.025
21
-111.733
0
LINE
8
BLACK
6
CONTINUOUS
10
315.025
20
-111.733
11
315.025
21
-111.733
0
LINE
8
BLACK
6
CONTINUOUS
10
315.025
20
-111.733
11
315.016
21
-111.729
0
LINE
8
BLACK
6
CONTINUOUS
10
315.016
20
-111.729
11
315.009
21
-111.727
0
LINE
8
BLACK
6
CONTINUOUS
10
315.009
20
-111.727
11
315.009
21
-111.727
0
LINE
8
BLACK
6
CONTINUOUS
10
315.009
20
-111.727
11
314.627
21
-111.506
0
LINE
8
BLACK
6
CONTINUOUS
10
314.627
20
-111.506
11
314.613
21
-111.495
0
LINE
8
BLACK
6
CONTINUOUS
10
314.613
20
-111.495
11
314.613
21
-111.495
0
LINE
8
BLACK
6
CONTINUOUS
10
314.613
20
-111.495
11
314.33
21
-111.157
0
LINE
8
BLACK
6
CONTINUOUS
10
314.33
20
-111.157
11
314.33
21
-111.157
0
LINE
8
BLACK
6
CONTINUOUS
10
314.33
20
-111.157
11
314.321
21
-111.142
0
LINE
8
BLACK
6
CONTINUOUS
10
314.321
20
-111.142
11
314.17
21
-110.728
0
LINE
8
BLACK
6
CONTINUOUS
10
314.17
20
-110.728
11
314.169
21
-110.721
0
LINE
8
BLACK
6
CONTINUOUS
10
314.169
20
-110.721
11
314.167
21
-110.715
0
LINE
8
BLACK
6
CONTINUOUS
10
314.167
20
-110.715
11
314.148
21
-110.494
0
LINE
8
BLACK
6
CONTINUOUS
10
314.148
20
-110.494
11
314.149
21
-110.488
0
LINE
8
BLACK
6
CONTINUOUS
10
314.149
20
-110.488
11
314.149
21
-110.481
0
LINE
8
BLACK
6
CONTINUOUS
10
314.149
20
-110.481
11
314.225
21
-110.047
0
LINE
8
BLACK
6
CONTINUOUS
10
314.225
20
-110.047
11
314.225
21
-110.047
0
LINE
8
BLACK
6
CONTINUOUS
10
314.225
20
-110.047
11
314.228
21
-110.039
0
LINE
8
BLACK
6
CONTINUOUS
10
314.228
20
-110.039
11
314.231
21
-110.031
0
LINE
8
BLACK
6
CONTINUOUS
10
314.231
20
-110.031
11
314.231
21
-110.031
0
LINE
8
BLACK
6
CONTINUOUS
10
314.231
20
-110.031
11
314.452
21
-109.649
0
LINE
8
BLACK
6
CONTINUOUS
10
314.452
20
-109.649
11
314.452
21
-109.649
0
LINE
8
BLACK
6
CONTINUOUS
10
314.452
20
-109.649
11
314.457
21
-109.642
0
LINE
8
BLACK
6
CONTINUOUS
10
314.457
20
-109.642
11
314.463
21
-109.635
0
LINE
8
BLACK
6
CONTINUOUS
10
314.463
20
-109.635
11
314.463
21
-109.635
0
LINE
8
BLACK
6
CONTINUOUS
10
314.463
20
-109.635
11
314.801
21
-109.352
0
LINE
8
BLACK
6
CONTINUOUS
10
314.801
20
-109.352
11
314.801
21
-109.352
0
LINE
8
BLACK
6
CONTINUOUS
10
314.801
20
-109.352
11
314.816
21
-109.343
0
LINE
8
BLACK
6
CONTINUOUS
10
314.816
20
-109.343
11
315.23
21
-109.192
0
LINE
8
BLACK
6
CONTINUOUS
10
315.23
20
-109.192
11
315.237
21
-109.191
0
LINE
8
BLACK
6
CONTINUOUS
10
315.237
20
-109.191
11
315.243
21
-109.189
0
LINE
8
BLACK
6
CONTINUOUS
10
315.243
20
-109.189
11
315.418
21
-109.174
0
LINE
8
BLACK
6
CONTINUOUS
10
315.418
20
-109.174
11
315.418
21
-105.833
0
LINE
8
BLACK
6
CONTINUOUS
10
315.418
20
-105.833
11
315.068
21
-105.771
0
LINE
8
BLACK
6
CONTINUOUS
10
315.068
20
-105.771
11
315.068
21
-105.771
0
LINE
8
BLACK
6
CONTINUOUS
10
315.068
20
-105.771
11
315.06
21
-105.768
0
LINE
8
BLACK
6
CONTINUOUS
10
315.06
20
-105.768
11
315.052
21
-105.765
0
LINE
8
BLACK
6
CONTINUOUS
10
315.052
20
-105.765
11
315.052
21
-105.765
0
LINE
8
BLACK
6
CONTINUOUS
10
315.052
20
-105.765
11
314.708
21
-105.567
0
LINE
8
BLACK
6
CONTINUOUS
10
314.708
20
-105.567
11
314.695
21
-105.556
0
LINE
8
BLACK
6
CONTINUOUS
10
314.695
20
-105.556
11
314.695
21
-105.556
0
LINE
8
BLACK
6
CONTINUOUS
10
314.695
20
-105.556
11
314.44
21
-105.252
0
LINE
8
BLACK
6
CONTINUOUS
10
314.44
20
-105.252
11
314.44
21
-105.252
0
LINE
8
BLACK
6
CONTINUOUS
10
314.44
20
-105.252
11
314.437
21
-105.246
0
LINE
8
BLACK
6
CONTINUOUS
10
314.437
20
-105.246
11
314.431
21
-105.237
0
LINE
8
BLACK
6
CONTINUOUS
10
314.431
20
-105.237
11
314.431
21
-105.237
0
LINE
8
BLACK
6
CONTINUOUS
10
314.431
20
-105.237
11
314.295
21
-104.864
0
LINE
8
BLACK
6
CONTINUOUS
10
314.295
20
-104.864
11
314.294
21
-104.857
0
LINE
8
BLACK
6
CONTINUOUS
10
314.294
20
-104.857
11
314.293
21
-104.851
0
LINE
8
BLACK
6
CONTINUOUS
10
314.293
20
-104.851
11
314.275
21
-104.655
0
LINE
8
BLACK
6
CONTINUOUS
10
314.275
20
-104.655
11
314.275
21
-104.652
0
LINE
8
BLACK
6
CONTINUOUS
10
314.275
20
-104.652
11
314.275
21
-103.507
0
LINE
8
BLACK
6
CONTINUOUS
10
314.275
20
-103.507
11
314.256
21
-103.295
0
LINE
8
BLACK
6
CONTINUOUS
10
314.256
20
-103.295
11
314.111
21
-102.895
0
LINE
8
BLACK
6
CONTINUOUS
10
314.111
20
-102.895
11
313.839
21
-102.571
0
LINE
8
BLACK
6
CONTINUOUS
10
313.839
20
-102.571
11
313.472
21
-102.359
0
LINE
8
BLACK
6
CONTINUOUS
10
313.472
20
-102.359
11
313.051
21
-102.285
0
LINE
8
BLACK
6
CONTINUOUS
10
313.051
20
-102.285
11
241.834
21
-102.285
0
LINE
8
BLACK
6
CONTINUOUS
10
241.834
20
-102.285
11
241.834
21
-102.285
0
LINE
8
BLACK
6
CONTINUOUS
10
289.743
20
-161.822
11
289.985
21
-161.929
0
LINE
8
BLACK
6
CONTINUOUS
10
289.985
20
-161.929
11
290.175
21
-162.112
0
LINE
8
BLACK
6
CONTINUOUS
10
290.175
20
-162.112
11
290.291
21
-162.35
0
LINE
8
BLACK
6
CONTINUOUS
10
290.291
20
-162.35
11
290.312
21
-162.546
0
LINE
8
BLACK
6
CONTINUOUS
10
290.312
20
-162.546
11
290.263
21
-163.257
0
LINE
8
BLACK
6
CONTINUOUS
10
290.263
20
-163.257
11
290.215
21
-163.449
0
LINE
8
BLACK
6
CONTINUOUS
10
290.215
20
-163.449
11
290.068
21
-163.668
0
LINE
8
BLACK
6
CONTINUOUS
10
290.068
20
-163.668
11
289.854
21
-163.824
0
LINE
8
BLACK
6
CONTINUOUS
10
289.854
20
-163.824
11
289.6
21
-163.897
0
LINE
8
BLACK
6
CONTINUOUS
10
289.6
20
-163.897
11
289.337
21
-163.878
0
LINE
8
BLACK
6
CONTINUOUS
10
289.337
20
-163.878
11
289.095
21
-163.771
0
LINE
8
BLACK
6
CONTINUOUS
10
289.095
20
-163.771
11
288.905
21
-163.588
0
LINE
8
BLACK
6
CONTINUOUS
10
288.905
20
-163.588
11
288.789
21
-163.35
0
LINE
8
BLACK
6
CONTINUOUS
10
288.789
20
-163.35
11
288.768
21
-163.154
0
LINE
8
BLACK
6
CONTINUOUS
10
288.768
20
-163.154
11
288.817
21
-162.443
0
LINE
8
BLACK
6
CONTINUOUS
10
288.817
20
-162.443
11
288.865
21
-162.251
0
LINE
8
BLACK
6
CONTINUOUS
10
288.865
20
-162.251
11
289.012
21
-162.032
0
LINE
8
BLACK
6
CONTINUOUS
10
289.012
20
-162.032
11
289.226
21
-161.876
0
LINE
8
BLACK
6
CONTINUOUS
10
289.226
20
-161.876
11
289.48
21
-161.803
0
LINE
8
BLACK
6
CONTINUOUS
10
289.48
20
-161.803
11
289.743
21
-161.822
0
LINE
8
BLACK
6
CONTINUOUS
10
270.693
20
-161.822
11
270.935
21
-161.929
0
LINE
8
BLACK
6
CONTINUOUS
10
270.935
20
-161.929
11
271.125
21
-162.112
0
LINE
8
BLACK
6
CONTINUOUS
10
271.125
20
-162.112
11
271.241
21
-162.35
0
LINE
8
BLACK
6
CONTINUOUS
10
271.241
20
-162.35
11
271.262
21
-162.546
0
LINE
8
BLACK
6
CONTINUOUS
10
271.262
20
-162.546
11
271.213
21
-163.257
0
LINE
8
BLACK
6
CONTINUOUS
10
271.213
20
-163.257
11
271.165
21
-163.449
0
LINE
8
BLACK
6
CONTINUOUS
10
271.165
20
-163.449
11
271.018
21
-163.668
0
LINE
8
BLACK
6
CONTINUOUS
10
271.018
20
-163.668
11
270.804
21
-163.824
0
LINE
8
BLACK
6
CONTINUOUS
10
270.804
20
-163.824
11
270.55
21
-163.897
0
LINE
8
BLACK
6
CONTINUOUS
10
270.55
20
-163.897
11
270.287
21
-163.878
0
LINE
8
BLACK
6
CONTINUOUS
10
270.287
20
-163.878
11
270.045
21
-163.771
0
LINE
8
BLACK
6
CONTINUOUS
10
270.045
20
-163.771
11
269.855
21
-163.588
0
LINE
8
BLACK
6
CONTINUOUS
10
269.855
20
-163.588
11
269.739
21
-163.35
0
LINE
8
BLACK
6
CONTINUOUS
10
269.739
20
-163.35
11
269.718
21
-163.154
0
LINE
8
BLACK
6
CONTINUOUS
10
269.718
20
-163.154
11
269.767
21
-162.443
0
LINE
8
BLACK
6
CONTINUOUS
10
269.767
20
-162.443
11
269.815
21
-162.251
0
LINE
8
BLACK
6
CONTINUOUS
10
269.815
20
-162.251
11
269.962
21
-162.032
0
LINE
8
BLACK
6
CONTINUOUS
10
269.962
20
-162.032
11
270.176
21
-161.876
0
LINE
8
BLACK
6
CONTINUOUS
10
270.176
20
-161.876
11
270.43
21
-161.803
0
LINE
8
BLACK
6
CONTINUOUS
10
270.43
20
-161.803
11
270.693
21
-161.822
0
LINE
8
BLACK
6
CONTINUOUS
10
308.793
20
-161.822
11
309.035
21
-161.929
0
LINE
8
BLACK
6
CONTINUOUS
10
309.035
20
-161.929
11
309.225
21
-162.112
0
LINE
8
BLACK
6
CONTINUOUS
10
309.225
20
-162.112
11
309.341
21
-162.35
0
LINE
8
BLACK
6
CONTINUOUS
10
309.341
20
-162.35
11
309.362
21
-162.546
0
LINE
8
BLACK
6
CONTINUOUS
10
309.362
20
-162.546
11
309.313
21
-163.257
0
LINE
8
BLACK
6
CONTINUOUS
10
309.313
20
-163.257
11
309.265
21
-163.449
0
LINE
8
BLACK
6
CONTINUOUS
10
309.265
20
-163.449
11
309.118
21
-163.668
0
LINE
8
BLACK
6
CONTINUOUS
10
309.118
20
-163.668
11
308.904
21
-163.824
0
LINE
8
BLACK
6
CONTINUOUS
10
308.904
20
-163.824
11
308.65
21
-163.897
0
LINE
8
BLACK
6
CONTINUOUS
10
308.65
20
-163.897
11
308.387
21
-163.878
0
LINE
8
BLACK
6
CONTINUOUS
10
308.387
20
-163.878
11
308.145
21
-163.771
0
LINE
8
BLACK
6
CONTINUOUS
10
308.145
20
-163.771
11
307.955
21
-163.588
0
LINE
8
BLACK
6
CONTINUOUS
10
307.955
20
-163.588
11
307.839
21
-163.35
0
LINE
8
BLACK
6
CONTINUOUS
10
307.839
20
-163.35
11
307.818
21
-163.154
0
LINE
8
BLACK
6
CONTINUOUS
10
307.818
20
-163.154
11
307.867
21
-162.443
0
LINE
8
BLACK
6
CONTINUOUS
10
307.867
20
-162.443
11
307.915
21
-162.251
0
LINE
8
BLACK
6
CONTINUOUS
10
307.915
20
-162.251
11
308.062
21
-162.032
0
LINE
8
BLACK
6
CONTINUOUS
10
308.062
20
-162.032
11
308.276
21
-161.876
0
LINE
8
BLACK
6
CONTINUOUS
10
308.276
20
-161.876
11
308.53
21
-161.803
0
LINE
8
BLACK
6
CONTINUOUS
10
308.53
20
-161.803
11
308.793
21
-161.822
0
LINE
8
BLACK
6
CONTINUOUS
10
251.643
20
-161.822
11
251.885
21
-161.929
0
LINE
8
BLACK
6
CONTINUOUS
10
251.885
20
-161.929
11
252.075
21
-162.112
0
LINE
8
BLACK
6
CONTINUOUS
10
252.075
20
-162.112
11
252.191
21
-162.35
0
LINE
8
BLACK
6
CONTINUOUS
10
252.191
20
-162.35
11
252.212
21
-162.546
0
LINE
8
BLACK
6
CONTINUOUS
10
252.212
20
-162.546
11
252.163
21
-163.257
0
LINE
8
BLACK
6
CONTINUOUS
10
252.163
20
-163.257
11
252.115
21
-163.449
0
LINE
8
BLACK
6
CONTINUOUS
10
252.115
20
-163.449
11
251.968
21
-163.668
0
LINE
8
BLACK
6
CONTINUOUS
10
251.968
20
-163.668
11
251.754
21
-163.824
0
LINE
8
BLACK
6
CONTINUOUS
10
251.754
20
-163.824
11
251.5
21
-163.897
0
LINE
8
BLACK
6
CONTINUOUS
10
251.5
20
-163.897
11
251.237
21
-163.878
0
LINE
8
BLACK
6
CONTINUOUS
10
251.237
20
-163.878
11
250.995
21
-163.771
0
LINE
8
BLACK
6
CONTINUOUS
10
250.995
20
-163.771
11
250.805
21
-163.588
0
LINE
8
BLACK
6
CONTINUOUS
10
250.805
20
-163.588
11
250.689
21
-163.35
0
LINE
8
BLACK
6
CONTINUOUS
10
250.689
20
-163.35
11
250.668
21
-163.154
0
LINE
8
BLACK
6
CONTINUOUS
10
250.668
20
-163.154
11
250.717
21
-162.443
0
LINE
8
BLACK
6
CONTINUOUS
10
250.717
20
-162.443
11
250.765
21
-162.251
0
LINE
8
BLACK
6
CONTINUOUS
10
250.765
20
-162.251
11
250.912
21
-162.032
0
LINE
8
BLACK
6
CONTINUOUS
10
250.912
20
-162.032
11
251.126
21
-161.876
0
LINE
8
BLACK
6
CONTINUOUS
10
251.126
20
-161.876
11
251.38
21
-161.803
0
LINE
8
BLACK
6
CONTINUOUS
10
251.38
20
-161.803
11
251.643
21
-161.822
0
LINE
8
BLACK
6
CONTINUOUS
10
251.643
20
-142.772
11
251.885
21
-142.879
0
LINE
8
BLACK
6
CONTINUOUS
10
251.885
20
-142.879
11
252.075
21
-143.062
0
LINE
8
BLACK
6
CONTINUOUS
10
252.075
20
-143.062
11
252.191
21
-143.3
0
LINE
8
BLACK
6
CONTINUOUS
10
252.191
20
-143.3
11
252.212
21
-143.496
0
LINE
8
BLACK
6
CONTINUOUS
10
252.212
20
-143.496
11
252.163
21
-144.207
0
LINE
8
BLACK
6
CONTINUOUS
10
252.163
20
-144.207
11
252.115
21
-144.399
0
LINE
8
BLACK
6
CONTINUOUS
10
252.115
20
-144.399
11
251.968
21
-144.618
0
LINE
8
BLACK
6
CONTINUOUS
10
251.968
20
-144.618
11
251.754
21
-144.774
0
LINE
8
BLACK
6
CONTINUOUS
10
251.754
20
-144.774
11
251.5
21
-144.847
0
LINE
8
BLACK
6
CONTINUOUS
10
251.5
20
-144.847
11
251.237
21
-144.828
0
LINE
8
BLACK
6
CONTINUOUS
10
251.237
20
-144.828
11
250.995
21
-144.721
0
LINE
8
BLACK
6
CONTINUOUS
10
250.995
20
-144.721
11
250.805
21
-144.538
0
LINE
8
BLACK
6
CONTINUOUS
10
250.805
20
-144.538
11
250.689
21
-144.3
0
LINE
8
BLACK
6
CONTINUOUS
10
250.689
20
-144.3
11
250.668
21
-144.104
0
LINE
8
BLACK
6
CONTINUOUS
10
250.668
20
-144.104
11
250.717
21
-143.393
0
LINE
8
BLACK
6
CONTINUOUS
10
250.717
20
-143.393
11
250.765
21
-143.201
0
LINE
8
BLACK
6
CONTINUOUS
10
250.765
20
-143.201
11
250.912
21
-142.982
0
LINE
8
BLACK
6
CONTINUOUS
10
250.912
20
-142.982
11
251.126
21
-142.826
0
LINE
8
BLACK
6
CONTINUOUS
10
251.126
20
-142.826
11
251.38
21
-142.753
0
LINE
8
BLACK
6
CONTINUOUS
10
251.38
20
-142.753
11
251.643
21
-142.772
0
LINE
8
BLACK
6
CONTINUOUS
10
289.743
20
-142.772
11
289.985
21
-142.879
0
LINE
8
BLACK
6
CONTINUOUS
10
289.985
20
-142.879
11
290.175
21
-143.062
0
LINE
8
BLACK
6
CONTINUOUS
10
290.175
20
-143.062
11
290.291
21
-143.3
0
LINE
8
BLACK
6
CONTINUOUS
10
290.291
20
-143.3
11
290.312
21
-143.496
0
LINE
8
BLACK
6
CONTINUOUS
10
290.312
20
-143.496
11
290.263
21
-144.207
0
LINE
8
BLACK
6
CONTINUOUS
10
290.263
20
-144.207
11
290.215
21
-144.399
0
LINE
8
BLACK
6
CONTINUOUS
10
290.215
20
-144.399
11
290.068
21
-144.618
0
LINE
8
BLACK
6
CONTINUOUS
10
290.068
20
-144.618
11
289.854
21
-144.774
0
LINE
8
BLACK
6
CONTINUOUS
10
289.854
20
-144.774
11
289.6
21
-144.847
0
LINE
8
BLACK
6
CONTINUOUS
10
289.6
20
-144.847
11
289.337
21
-144.828
0
LINE
8
BLACK
6
CONTINUOUS
10
289.337
20
-144.828
11
289.095
21
-144.721
0
LINE
8
BLACK
6
CONTINUOUS
10
289.095
20
-144.721
11
288.905
21
-144.538
0
LINE
8
BLACK
6
CONTINUOUS
10
288.905
20
-144.538
11
288.789
21
-144.3
0
LINE
8
BLACK
6
CONTINUOUS
10
288.789
20
-144.3
11
288.768
21
-144.104
0
LINE
8
BLACK
6
CONTINUOUS
10
288.768
20
-144.104
11
288.817
21
-143.393
0
LINE
8
BLACK
6
CONTINUOUS
10
288.817
20
-143.393
11
288.865
21
-143.201
0
LINE
8
BLACK
6
CONTINUOUS
10
288.865
20
-143.201
11
289.012
21
-142.982
0
LINE
8
BLACK
6
CONTINUOUS
10
289.012
20
-142.982
11
289.226
21
-142.826
0
LINE
8
BLACK
6
CONTINUOUS
10
289.226
20
-142.826
11
289.48
21
-142.753
0
LINE
8
BLACK
6
CONTINUOUS
10
289.48
20
-142.753
11
289.743
21
-142.772
0
LINE
8
BLACK
6
CONTINUOUS
10
270.693
20
-142.772
11
270.935
21
-142.879
0
LINE
8
BLACK
6
CONTINUOUS
10
270.935
20
-142.879
11
271.125
21
-143.062
0
LINE
8
BLACK
6
CONTINUOUS
10
271.125
20
-143.062
11
271.241
21
-143.3
0
LINE
8
BLACK
6
CONTINUOUS
10
271.241
20
-143.3
11
271.262
21
-143.496
0
LINE
8
BLACK
6
CONTINUOUS
10
271.262
20
-143.496
11
271.213
21
-144.207
0
LINE
8
BLACK
6
CONTINUOUS
10
271.213
20
-144.207
11
271.165
21
-144.399
0
LINE
8
BLACK
6
CONTINUOUS
10
271.165
20
-144.399
11
271.018
21
-144.618
0
LINE
8
BLACK
6
CONTINUOUS
10
271.018
20
-144.618
11
270.804
21
-144.774
0
LINE
8
BLACK
6
CONTINUOUS
10
270.804
20
-144.774
11
270.55
21
-144.847
0
LINE
8
BLACK
6
CONTINUOUS
10
270.55
20
-144.847
11
270.287
21
-144.828
0
LINE
8
BLACK
6
CONTINUOUS
10
270.287
20
-144.828
11
270.045
21
-144.721
0
LINE
8
BLACK
6
CONTINUOUS
10
270.045
20
-144.721
11
269.855
21
-144.538
0
LINE
8
BLACK
6
CONTINUOUS
10
269.855
20
-144.538
11
269.739
21
-144.3
0
LINE
8
BLACK
6
CONTINUOUS
10
269.739
20
-144.3
11
269.718
21
-144.104
0
LINE
8
BLACK
6
CONTINUOUS
10
269.718
20
-144.104
11
269.767
21
-143.393
0
LINE
8
BLACK
6
CONTINUOUS
10
269.767
20
-143.393
11
269.815
21
-143.201
0
LINE
8
BLACK
6
CONTINUOUS
10
269.815
20
-143.201
11
269.962
21
-142.982
0
LINE
8
BLACK
6
CONTINUOUS
10
269.962
20
-142.982
11
270.176
21
-142.826
0
LINE
8
BLACK
6
CONTINUOUS
10
270.176
20
-142.826
11
270.43
21
-142.753
0
LINE
8
BLACK
6
CONTINUOUS
10
270.43
20
-142.753
11
270.693
21
-142.772
0
LINE
8
BLACK
6
CONTINUOUS
10
308.793
20
-142.772
11
309.035
21
-142.879
0
LINE
8
BLACK
6
CONTINUOUS
10
309.035
20
-142.879
11
309.225
21
-143.062
0
LINE
8
BLACK
6
CONTINUOUS
10
309.225
20
-143.062
11
309.341
21
-143.3
0
LINE
8
BLACK
6
CONTINUOUS
10
309.341
20
-143.3
11
309.362
21
-143.496
0
LINE
8
BLACK
6
CONTINUOUS
10
309.362
20
-143.496
11
309.313
21
-144.207
0
LINE
8
BLACK
6
CONTINUOUS
10
309.313
20
-144.207
11
309.265
21
-144.399
0
LINE
8
BLACK
6
CONTINUOUS
10
309.265
20
-144.399
11
309.118
21
-144.618
0
LINE
8
BLACK
6
CONTINUOUS
10
309.118
20
-144.618
11
308.904
21
-144.774
0
LINE
8
BLACK
6
CONTINUOUS
10
308.904
20
-144.774
11
308.65
21
-144.847
0
LINE
8
BLACK
6
CONTINUOUS
10
308.65
20
-144.847
11
308.387
21
-144.828
0
LINE
8
BLACK
6
CONTINUOUS
10
308.387
20
-144.828
11
308.145
21
-144.721
0
LINE
8
BLACK
6
CONTINUOUS
10
308.145
20
-144.721
11
307.955
21
-144.538
0
LINE
8
BLACK
6
CONTINUOUS
10
307.955
20
-144.538
11
307.839
21
-144.3
0
LINE
8
BLACK
6
CONTINUOUS
10
307.839
20
-144.3
11
307.818
21
-144.104
0
LINE
8
BLACK
6
CONTINUOUS
10
307.818
20
-144.104
11
307.867
21
-143.393
0
LINE
8
BLACK
6
CONTINUOUS
10
307.867
20
-143.393
11
307.915
21
-143.201
0
LINE
8
BLACK
6
CONTINUOUS
10
307.915
20
-143.201
11
308.062
21
-142.982
0
LINE
8
BLACK
6
CONTINUOUS
10
308.062
20
-142.982
11
308.276
21
-142.826
0
LINE
8
BLACK
6
CONTINUOUS
10
308.276
20
-142.826
11
308.53
21
-142.753
0
LINE
8
BLACK
6
CONTINUOUS
10
308.53
20
-142.753
11
308.793
21
-142.772
0
LINE
8
BLACK
6
CONTINUOUS
10
308.793
20
-123.722
11
309.035
21
-123.829
0
LINE
8
BLACK
6
CONTINUOUS
10
309.035
20
-123.829
11
309.225
21
-124.012
0
LINE
8
BLACK
6
CONTINUOUS
10
309.225
20
-124.012
11
309.341
21
-124.25
0
LINE
8
BLACK
6
CONTINUOUS
10
309.341
20
-124.25
11
309.362
21
-124.446
0
LINE
8
BLACK
6
CONTINUOUS
10
309.362
20
-124.446
11
309.313
21
-125.157
0
LINE
8
BLACK
6
CONTINUOUS
10
309.313
20
-125.157
11
309.265
21
-125.349
0
LINE
8
BLACK
6
CONTINUOUS
10
309.265
20
-125.349
11
309.118
21
-125.568
0
LINE
8
BLACK
6
CONTINUOUS
10
309.118
20
-125.568
11
308.904
21
-125.724
0
LINE
8
BLACK
6
CONTINUOUS
10
308.904
20
-125.724
11
308.65
21
-125.797
0
LINE
8
BLACK
6
CONTINUOUS
10
308.65
20
-125.797
11
308.387
21
-125.778
0
LINE
8
BLACK
6
CONTINUOUS
10
308.387
20
-125.778
11
308.145
21
-125.671
0
LINE
8
BLACK
6
CONTINUOUS
10
308.145
20
-125.671
11
307.955
21
-125.488
0
LINE
8
BLACK
6
CONTINUOUS
10
307.955
20
-125.488
11
307.839
21
-125.25
0
LINE
8
BLACK
6
CONTINUOUS
10
307.839
20
-125.25
11
307.818
21
-125.054
0
LINE
8
BLACK
6
CONTINUOUS
10
307.818
20
-125.054
11
307.867
21
-124.343
0
LINE
8
BLACK
6
CONTINUOUS
10
307.867
20
-124.343
11
307.915
21
-124.151
0
LINE
8
BLACK
6
CONTINUOUS
10
307.915
20
-124.151
11
308.062
21
-123.932
0
LINE
8
BLACK
6
CONTINUOUS
10
308.062
20
-123.932
11
308.276
21
-123.776
0
LINE
8
BLACK
6
CONTINUOUS
10
308.276
20
-123.776
11
308.53
21
-123.703
0
LINE
8
BLACK
6
CONTINUOUS
10
308.53
20
-123.703
11
308.793
21
-123.722
0
LINE
8
BLACK
6
CONTINUOUS
10
289.743
20
-123.722
11
289.985
21
-123.829
0
LINE
8
BLACK
6
CONTINUOUS
10
289.985
20
-123.829
11
290.175
21
-124.012
0
LINE
8
BLACK
6
CONTINUOUS
10
290.175
20
-124.012
11
290.291
21
-124.25
0
LINE
8
BLACK
6
CONTINUOUS
10
290.291
20
-124.25
11
290.312
21
-124.446
0
LINE
8
BLACK
6
CONTINUOUS
10
290.312
20
-124.446
11
290.263
21
-125.157
0
LINE
8
BLACK
6
CONTINUOUS
10
290.263
20
-125.157
11
290.215
21
-125.349
0
LINE
8
BLACK
6
CONTINUOUS
10
290.215
20
-125.349
11
290.068
21
-125.568
0
LINE
8
BLACK
6
CONTINUOUS
10
290.068
20
-125.568
11
289.854
21
-125.724
0
LINE
8
BLACK
6
CONTINUOUS
10
289.854
20
-125.724
11
289.6
21
-125.797
0
LINE
8
BLACK
6
CONTINUOUS
10
289.6
20
-125.797
11
289.337
21
-125.778
0
LINE
8
BLACK
6
CONTINUOUS
10
289.337
20
-125.778
11
289.095
21
-125.671
0
LINE
8
BLACK
6
CONTINUOUS
10
289.095
20
-125.671
11
288.905
21
-125.488
0
LINE
8
BLACK
6
CONTINUOUS
10
288.905
20
-125.488
11
288.789
21
-125.25
0
LINE
8
BLACK
6
CONTINUOUS
10
288.789
20
-125.25
11
288.768
21
-125.054
0
LINE
8
BLACK
6
CONTINUOUS
10
288.768
20
-125.054
11
288.817
21
-124.343
0
LINE
8
BLACK
6
CONTINUOUS
10
288.817
20
-124.343
11
288.865
21
-124.151
0
LINE
8
BLACK
6
CONTINUOUS
10
288.865
20
-124.151
11
289.012
21
-123.932
0
LINE
8
BLACK
6
CONTINUOUS
10
289.012
20
-123.932
11
289.226
21
-123.776
0
LINE
8
BLACK
6
CONTINUOUS
10
289.226
20
-123.776
11
289.48
21
-123.703
0
LINE
8
BLACK
6
CONTINUOUS
10
289.48
20
-123.703
11
289.743
21
-123.722
0
LINE
8
BLACK
6
CONTINUOUS
10
270.693
20
-123.722
11
270.935
21
-123.829
0
LINE
8
BLACK
6
CONTINUOUS
10
270.935
20
-123.829
11
271.125
21
-124.012
0
LINE
8
BLACK
6
CONTINUOUS
10
271.125
20
-124.012
11
271.241
21
-124.25
0
LINE
8
BLACK
6
CONTINUOUS
10
271.241
20
-124.25
11
271.262
21
-124.446
0
LINE
8
BLACK
6
CONTINUOUS
10
271.262
20
-124.446
11
271.213
21
-125.157
0
LINE
8
BLACK
6
CONTINUOUS
10
271.213
20
-125.157
11
271.165
21
-125.349
0
LINE
8
BLACK
6
CONTINUOUS
10
271.165
20
-125.349
11
271.018
21
-125.568
0
LINE
8
BLACK
6
CONTINUOUS
10
271.018
20
-125.568
11
270.804
21
-125.724
0
LINE
8
BLACK
6
CONTINUOUS
10
270.804
20
-125.724
11
270.55
21
-125.797
0
LINE
8
BLACK
6
CONTINUOUS
10
270.55
20
-125.797
11
270.287
21
-125.778
0
LINE
8
BLACK
6
CONTINUOUS
10
270.287
20
-125.778
11
270.045
21
-125.671
0
LINE
8
BLACK
6
CONTINUOUS
10
270.045
20
-125.671
11
269.855
21
-125.488
0
LINE
8
BLACK
6
CONTINUOUS
10
269.855
20
-125.488
11
269.739
21
-125.25
0
LINE
8
BLACK
6
CONTINUOUS
10
269.739
20
-125.25
11
269.718
21
-125.054
0
LINE
8
BLACK
6
CONTINUOUS
10
269.718
20
-125.054
11
269.767
21
-124.343
0
LINE
8
BLACK
6
CONTINUOUS
10
269.767
20
-124.343
11
269.815
21
-124.151
0
LINE
8
BLACK
6
CONTINUOUS
10
269.815
20
-124.151
11
269.962
21
-123.932
0
LINE
8
BLACK
6
CONTINUOUS
10
269.962
20
-123.932
11
270.176
21
-123.776
0
LINE
8
BLACK
6
CONTINUOUS
10
270.176
20
-123.776
11
270.43
21
-123.703
0
LINE
8
BLACK
6
CONTINUOUS
10
270.43
20
-123.703
11
270.693
21
-123.722
0
LINE
8
BLACK
6
CONTINUOUS
10
251.643
20
-123.722
11
251.885
21
-123.829
0
LINE
8
BLACK
6
CONTINUOUS
10
251.885
20
-123.829
11
252.075
21
-124.012
0
LINE
8
BLACK
6
CONTINUOUS
10
252.075
20
-124.012
11
252.191
21
-124.25
0
LINE
8
BLACK
6
CONTINUOUS
10
252.191
20
-124.25
11
252.212
21
-124.446
0
LINE
8
BLACK
6
CONTINUOUS
10
252.212
20
-124.446
11
252.163
21
-125.157
0
LINE
8
BLACK
6
CONTINUOUS
10
252.163
20
-125.157
11
252.115
21
-125.349
0
LINE
8
BLACK
6
CONTINUOUS
10
252.115
20
-125.349
11
251.968
21
-125.568
0
LINE
8
BLACK
6
CONTINUOUS
10
251.968
20
-125.568
11
251.754
21
-125.724
0
LINE
8
BLACK
6
CONTINUOUS
10
251.754
20
-125.724
11
251.5
21
-125.797
0
LINE
8
BLACK
6
CONTINUOUS
10
251.5
20
-125.797
11
251.237
21
-125.778
0
LINE
8
BLACK
6
CONTINUOUS
10
251.237
20
-125.778
11
250.995
21
-125.671
0
LINE
8
BLACK
6
CONTINUOUS
10
250.995
20
-125.671
11
250.805
21
-125.488
0
LINE
8
BLACK
6
CONTINUOUS
10
250.805
20
-125.488
11
250.689
21
-125.25
0
LINE
8
BLACK
6
CONTINUOUS
10
250.689
20
-125.25
11
250.668
21
-125.054
0
LINE
8
BLACK
6
CONTINUOUS
10
250.668
20
-125.054
11
250.717
21
-124.343
0
LINE
8
BLACK
6
CONTINUOUS
10
250.717
20
-124.343
11
250.765
21
-124.151
0
LINE
8
BLACK
6
CONTINUOUS
10
250.765
20
-124.151
11
250.912
21
-123.932
0
LINE
8
BLACK
6
CONTINUOUS
10
250.912
20
-123.932
11
251.126
21
-123.776
0
LINE
8
BLACK
6
CONTINUOUS
10
251.126
20
-123.776
11
251.38
21
-123.703
0
LINE
8
BLACK
6
CONTINUOUS
10
251.38
20
-123.703
11
251.643
21
-123.722
0
LINE
8
BLACK
6
CONTINUOUS
10
308.793
20
-104.672
11
309.035
21
-104.779
0
LINE
8
BLACK
6
CONTINUOUS
10
309.035
20
-104.779
11
309.225
21
-104.962
0
LINE
8
BLACK
6
CONTINUOUS
10
309.225
20
-104.962
11
309.341
21
-105.2
0
LINE
8
BLACK
6
CONTINUOUS
10
309.341
20
-105.2
11
309.362
21
-105.396
0
LINE
8
BLACK
6
CONTINUOUS
10
309.362
20
-105.396
11
309.313
21
-106.107
0
LINE
8
BLACK
6
CONTINUOUS
10
309.313
20
-106.107
11
309.265
21
-106.299
0
LINE
8
BLACK
6
CONTINUOUS
10
309.265
20
-106.299
11
309.118
21
-106.518
0
LINE
8
BLACK
6
CONTINUOUS
10
309.118
20
-106.518
11
308.904
21
-106.674
0
LINE
8
BLACK
6
CONTINUOUS
10
308.904
20
-106.674
11
308.65
21
-106.747
0
LINE
8
BLACK
6
CONTINUOUS
10
308.65
20
-106.747
11
308.387
21
-106.728
0
LINE
8
BLACK
6
CONTINUOUS
10
308.387
20
-106.728
11
308.145
21
-106.621
0
LINE
8
BLACK
6
CONTINUOUS
10
308.145
20
-106.621
11
307.955
21
-106.438
0
LINE
8
BLACK
6
CONTINUOUS
10
307.955
20
-106.438
11
307.839
21
-106.2
0
LINE
8
BLACK
6
CONTINUOUS
10
307.839
20
-106.2
11
307.818
21
-106.004
0
LINE
8
BLACK
6
CONTINUOUS
10
307.818
20
-106.004
11
307.867
21
-105.293
0
LINE
8
BLACK
6
CONTINUOUS
10
307.867
20
-105.293
11
307.915
21
-105.101
0
LINE
8
BLACK
6
CONTINUOUS
10
307.915
20
-105.101
11
308.062
21
-104.882
0
LINE
8
BLACK
6
CONTINUOUS
10
308.062
20
-104.882
11
308.276
21
-104.726
0
LINE
8
BLACK
6
CONTINUOUS
10
308.276
20
-104.726
11
308.53
21
-104.653
0
LINE
8
BLACK
6
CONTINUOUS
10
308.53
20
-104.653
11
308.793
21
-104.672
0
LINE
8
BLACK
6
CONTINUOUS
10
289.743
20
-104.672
11
289.985
21
-104.779
0
LINE
8
BLACK
6
CONTINUOUS
10
289.985
20
-104.779
11
290.175
21
-104.962
0
LINE
8
BLACK
6
CONTINUOUS
10
290.175
20
-104.962
11
290.291
21
-105.2
0
LINE
8
BLACK
6
CONTINUOUS
10
290.291
20
-105.2
11
290.312
21
-105.396
0
LINE
8
BLACK
6
CONTINUOUS
10
290.312
20
-105.396
11
290.263
21
-106.107
0
LINE
8
BLACK
6
CONTINUOUS
10
290.263
20
-106.107
11
290.215
21
-106.299
0
LINE
8
BLACK
6
CONTINUOUS
10
290.215
20
-106.299
11
290.068
21
-106.518
0
LINE
8
BLACK
6
CONTINUOUS
10
290.068
20
-106.518
11
289.854
21
-106.674
0
LINE
8
BLACK
6
CONTINUOUS
10
289.854
20
-106.674
11
289.6
21
-106.747
0
LINE
8
BLACK
6
CONTINUOUS
10
289.6
20
-106.747
11
289.337
21
-106.728
0
LINE
8
BLACK
6
CONTINUOUS
10
289.337
20
-106.728
11
289.095
21
-106.621
0
LINE
8
BLACK
6
CONTINUOUS
10
289.095
20
-106.621
11
288.905
21
-106.438
0
LINE
8
BLACK
6
CONTINUOUS
10
288.905
20
-106.438
11
288.789
21
-106.2
0
LINE
8
BLACK
6
CONTINUOUS
10
288.789
20
-106.2
11
288.768
21
-106.004
0
LINE
8
BLACK
6
CONTINUOUS
10
288.768
20
-106.004
11
288.817
21
-105.293
0
LINE
8
BLACK
6
CONTINUOUS
10
288.817
20
-105.293
11
288.865
21
-105.101
0
LINE
8
BLACK
6
CONTINUOUS
10
288.865
20
-105.101
11
289.012
21
-104.882
0
LINE
8
BLACK
6
CONTINUOUS
10
289.012
20
-104.882
11
289.226
21
-104.726
0
LINE
8
BLACK
6
CONTINUOUS
10
289.226
20
-104.726
11
289.48
21
-104.653
0
LINE
8
BLACK
6
CONTINUOUS
10
289.48
20
-104.653
11
289.743
21
-104.672
0
LINE
8
BLACK
6
CONTINUOUS
10
270.693
20
-104.672
11
270.935
21
-104.779
0
LINE
8
BLACK
6
CONTINUOUS
10
270.935
20
-104.779
11
271.125
21
-104.962
0
LINE
8
BLACK
6
CONTINUOUS
10
271.125
20
-104.962
11
271.241
21
-105.2
0
LINE
8
BLACK
6
CONTINUOUS
10
271.241
20
-105.2
11
271.262
21
-105.396
0
LINE
8
BLACK
6
CONTINUOUS
10
271.262
20
-105.396
11
271.213
21
-106.107
0
LINE
8
BLACK
6
CONTINUOUS
10
271.213
20
-106.107
11
271.165
21
-106.299
0
LINE
8
BLACK
6
CONTINUOUS
10
271.165
20
-106.299
11
271.018
21
-106.518
0
LINE
8
BLACK
6
CONTINUOUS
10
271.018
20
-106.518
11
270.804
21
-106.674
0
LINE
8
BLACK
6
CONTINUOUS
10
270.804
20
-106.674
11
270.55
21
-106.747
0
LINE
8
BLACK
6
CONTINUOUS
10
270.55
20
-106.747
11
270.287
21
-106.728
0
LINE
8
BLACK
6
CONTINUOUS
10
270.287
20
-106.728
11
270.045
21
-106.621
0
LINE
8
BLACK
6
CONTINUOUS
10
270.045
20
-106.621
11
269.855
21
-106.438
0
LINE
8
BLACK
6
CONTINUOUS
10
269.855
20
-106.438
11
269.739
21
-106.2
0
LINE
8
BLACK
6
CONTINUOUS
10
269.739
20
-106.2
11
269.718
21
-106.004
0
LINE
8
BLACK
6
CONTINUOUS
10
269.718
20
-106.004
11
269.767
21
-105.293
0
LINE
8
BLACK
6
CONTINUOUS
10
269.767
20
-105.293
11
269.815
21
-105.101
0
LINE
8
BLACK
6
CONTINUOUS
10
269.815
20
-105.101
11
269.962
21
-104.882
0
LINE
8
BLACK
6
CONTINUOUS
10
269.962
20
-104.882
11
270.176
21
-104.726
0
LINE
8
BLACK
6
CONTINUOUS
10
270.176
20
-104.726
11
270.43
21
-104.653
0
LINE
8
BLACK
6
CONTINUOUS
10
270.43
20
-104.653
11
270.693
21
-104.672
0
LINE
8
BLACK
6
CONTINUOUS
10
251.643
20
-104.672
11
251.885
21
-104.779
0
LINE
8
BLACK
6
CONTINUOUS
10
251.885
20
-104.779
11
252.075
21
-104.962
0
LINE
8
BLACK
6
CONTINUOUS
10
252.075
20
-104.962
11
252.191
21
-105.2
0
LINE
8
BLACK
6
CONTINUOUS
10
252.191
20
-105.2
11
252.212
21
-105.396
0
LINE
8
BLACK
6
CONTINUOUS
10
252.212
20
-105.396
11
252.163
21
-106.107
0
LINE
8
BLACK
6
CONTINUOUS
10
252.163
20
-106.107
11
252.115
21
-106.299
0
LINE
8
BLACK
6
CONTINUOUS
10
252.115
20
-106.299
11
251.968
21
-106.518
0
LINE
8
BLACK
6
CONTINUOUS
10
251.968
20
-106.518
11
251.754
21
-106.674
0
LINE
8
BLACK
6
CONTINUOUS
10
251.754
20
-106.674
11
251.5
21
-106.747
0
LINE
8
BLACK
6
CONTINUOUS
10
251.5
20
-106.747
11
251.237
21
-106.728
0
LINE
8
BLACK
6
CONTINUOUS
10
251.237
20
-106.728
11
250.995
21
-106.621
0
LINE
8
BLACK
6
CONTINUOUS
10
250.995
20
-106.621
11
250.805
21
-106.438
0
LINE
8
BLACK
6
CONTINUOUS
10
250.805
20
-106.438
11
250.689
21
-106.2
0
LINE
8
BLACK
6
CONTINUOUS
10
250.689
20
-106.2
11
250.668
21
-106.004
0
LINE
8
BLACK
6
CONTINUOUS
10
250.668
20
-106.004
11
250.717
21
-105.293
0
LINE
8
BLACK
6
CONTINUOUS
10
250.717
20
-105.293
11
250.765
21
-105.101
0
LINE
8
BLACK
6
CONTINUOUS
10
250.765
20
-105.101
11
250.912
21
-104.882
0
LINE
8
BLACK
6
CONTINUOUS
10
250.912
20
-104.882
11
251.126
21
-104.726
0
LINE
8
BLACK
6
CONTINUOUS
10
251.126
20
-104.726
11
251.38
21
-104.653
0
LINE
8
BLACK
6
CONTINUOUS
10
251.38
20
-104.653
11
251.643
21
-104.672
  0
ENDSEC
  0
EOF
