M48
;DRILL file {KiCad (5.0.1)-3} date 26.04.2020 21:35:40
;FORMAT={-:-/ absolute / inch / decimal}
FMAT,2
INCH,TZ
T1C0.0709
T2C0.1570
%
G90
G05
M72
T1
X11.85Y-5.85
X12.25Y-5.85
X11.85Y-5.1
X12.25Y-5.1
X10.35Y-5.85
X10.75Y-5.85
X10.35Y-4.35
X10.75Y-4.35
X9.6Y-6.6
X10.Y-6.6
X10.35Y-6.6
X10.75Y-6.6
X9.6Y-5.1
X10.Y-5.1
X10.35Y-5.1
X10.75Y-5.1
X11.1Y-5.1
X11.5Y-5.1
X9.6Y-4.35
X10.Y-4.35
X11.85Y-6.6
X12.25Y-6.6
X11.1Y-6.6
X11.5Y-6.6
X11.85Y-4.35
X12.25Y-4.35
X11.1Y-5.85
X11.5Y-5.85
X9.6Y-5.85
X10.Y-5.85
X11.1Y-4.35
X11.5Y-4.35
T2
X12.05Y-5.85
X12.05Y-5.1
X10.55Y-5.85
X10.55Y-4.35
X9.8Y-6.6
X10.55Y-6.6
X9.8Y-5.1
X10.55Y-5.1
X11.3Y-5.1
X9.8Y-4.35
X12.05Y-6.6
X11.3Y-6.6
X12.05Y-4.35
X11.3Y-5.85
X9.8Y-5.85
X11.3Y-4.35
T0
M30
