G04 #@! TF.GenerationSoftware,KiCad,Pcbnew,(5.0.1)-3*
G04 #@! TF.CreationDate,2020-04-26T21:35:37+05:00*
G04 #@! TF.ProjectId,amoeba-4x4-keypad,616D6F6562612D3478342D6B65797061,rev?*
G04 #@! TF.SameCoordinates,Original*
G04 #@! TF.FileFunction,Legend,Top*
G04 #@! TF.FilePolarity,Positive*
%FSLAX46Y46*%
G04 Gerber Fmt 4.6, Leading zero omitted, Abs format (unit mm)*
G04 Created by KiCad (PCBNEW (5.0.1)-3) date 26.04.2020 21:35:37*
%MOMM*%
%LPD*%
G01*
G04 APERTURE LIST*
%ADD10C,0.100000*%
%ADD11C,0.254000*%
%ADD12C,0.152400*%
%ADD13C,0.381000*%
%ADD14C,0.150000*%
G04 APERTURE END LIST*
D10*
X292470000Y-136990000D02*
X292470000Y-134990000D01*
X290470000Y-138490000D02*
X292470000Y-137490000D01*
X302470000Y-138490000D02*
X300470000Y-137490000D01*
X300470000Y-134990000D02*
X300470000Y-136990000D01*
X298470000Y-135990000D02*
X300470000Y-136990000D01*
X300470000Y-134990000D02*
X298470000Y-135990000D01*
X298470000Y-133990000D02*
X300470000Y-134990000D01*
X296470000Y-134990000D02*
X298470000Y-133990000D01*
X294470000Y-133990000D02*
X296470000Y-134990000D01*
X292470000Y-134990000D02*
X294470000Y-133990000D01*
X294470000Y-135990000D02*
X292470000Y-134990000D01*
X292470000Y-136990000D02*
X294470000Y-135990000D01*
X294470000Y-137990000D02*
X292470000Y-136990000D01*
X296470000Y-143990000D02*
X296470000Y-144490000D01*
X298470000Y-142990000D02*
X298470000Y-145490000D01*
X296470000Y-143990000D02*
X298470000Y-142990000D01*
X294470000Y-142990000D02*
X296470000Y-143990000D01*
X294470000Y-145490000D02*
X294470000Y-142990000D01*
X300470000Y-136990000D02*
X298470000Y-137990000D01*
X300470000Y-139490000D02*
X300470000Y-136990000D01*
X302470000Y-138490000D02*
X300470000Y-139490000D01*
X302470000Y-140990000D02*
X302470000Y-138490000D01*
X300470000Y-141990000D02*
X302470000Y-140990000D01*
X300470000Y-144490000D02*
X300470000Y-141990000D01*
X298470000Y-145490000D02*
X300470000Y-144490000D01*
X296470000Y-144490000D02*
X298470000Y-145490000D01*
X294470000Y-145490000D02*
X296470000Y-144490000D01*
X292470000Y-144490000D02*
X294470000Y-145490000D01*
X292470000Y-141990000D02*
X292470000Y-144490000D01*
X290470000Y-140990000D02*
X292470000Y-141990000D01*
X290470000Y-138490000D02*
X290470000Y-140990000D01*
X292470000Y-139490000D02*
X290470000Y-138490000D01*
X292470000Y-136990000D02*
X292470000Y-139490000D01*
X296470000Y-139490000D02*
X298470000Y-140490000D01*
X296470000Y-139490000D02*
X296470000Y-136990000D01*
X294470000Y-140490000D02*
X296470000Y-139490000D01*
X294470000Y-137990000D02*
X294470000Y-140490000D01*
X296470000Y-136990000D02*
X294470000Y-137990000D01*
X298470000Y-137990000D02*
X296470000Y-136990000D01*
X298470000Y-140490000D02*
X298470000Y-137990000D01*
X296470000Y-141490000D02*
X298470000Y-140490000D01*
X294470000Y-140490000D02*
X296470000Y-141490000D01*
D11*
G04 #@! TO.C,LED0*
X269798800Y-173990000D02*
X269798800Y-171450000D01*
D12*
X267053136Y-171744473D02*
G75*
G03X266700000Y-172720000I1170864J-975527D01*
G01*
X266701889Y-172720469D02*
G75*
G03X267086080Y-173730920I1522111J469D01*
G01*
X269746147Y-172719966D02*
G75*
G03X269379700Y-171729400I-1522147J-34D01*
G01*
X269394864Y-173695527D02*
G75*
G03X269748000Y-172720000I-1170864J975527D01*
G01*
X269463166Y-171832845D02*
G75*
G03X268224000Y-171196000I-1239166J-887155D01*
G01*
X268223199Y-171196000D02*
G75*
G03X267004800Y-171805600I801J-1524000D01*
G01*
X268224442Y-174242206D02*
G75*
G03X269425420Y-173654720I-442J1522206D01*
G01*
X267021436Y-173656171D02*
G75*
G03X268224000Y-174244000I1202564J936171D01*
G01*
X268224000Y-172085000D02*
G75*
G03X267589000Y-172720000I0J-635000D01*
G01*
X268224000Y-171704000D02*
G75*
G03X267208000Y-172720000I0J-1016000D01*
G01*
X268224000Y-173355000D02*
G75*
G03X268859000Y-172720000I0J635000D01*
G01*
X268224000Y-173736000D02*
G75*
G03X269240000Y-172720000I0J1016000D01*
G01*
D11*
X269782880Y-171416574D02*
G75*
G03X268224000Y-170688000I-1558880J-1303426D01*
G01*
X268223025Y-170690540D02*
G75*
G03X266433300Y-171764960I975J-2029460D01*
G01*
X268226552Y-174749386D02*
G75*
G03X269773400Y-174030640I-2552J2029386D01*
G01*
X266460701Y-173729851D02*
G75*
G03X268224000Y-174752000I1763299J1009851D01*
G01*
X266434870Y-171756653D02*
G75*
G03X266192000Y-172720000I1789130J-963347D01*
G01*
X266193077Y-172720100D02*
G75*
G03X266494260Y-173784260I2030923J100D01*
G01*
D13*
G04 #@! TO.C,S0*
X261620000Y-161290000D02*
X263398000Y-161290000D01*
X272542000Y-161290000D02*
X274320000Y-161290000D01*
X274320000Y-161290000D02*
X274320000Y-163068000D01*
X274320000Y-172212000D02*
X274320000Y-173990000D01*
X274320000Y-173990000D02*
X272542000Y-173990000D01*
X263398000Y-173990000D02*
X261620000Y-173990000D01*
X261620000Y-173990000D02*
X261620000Y-172212000D01*
X261620000Y-163068000D02*
X261620000Y-161290000D01*
D11*
G04 #@! TO.C,LED0*
X288848800Y-173990000D02*
X288848800Y-171450000D01*
D12*
X286103136Y-171744473D02*
G75*
G03X285750000Y-172720000I1170864J-975527D01*
G01*
X285751889Y-172720469D02*
G75*
G03X286136080Y-173730920I1522111J469D01*
G01*
X288796147Y-172719966D02*
G75*
G03X288429700Y-171729400I-1522147J-34D01*
G01*
X288444864Y-173695527D02*
G75*
G03X288798000Y-172720000I-1170864J975527D01*
G01*
X288513166Y-171832845D02*
G75*
G03X287274000Y-171196000I-1239166J-887155D01*
G01*
X287273199Y-171196000D02*
G75*
G03X286054800Y-171805600I801J-1524000D01*
G01*
X287274442Y-174242206D02*
G75*
G03X288475420Y-173654720I-442J1522206D01*
G01*
X286071436Y-173656171D02*
G75*
G03X287274000Y-174244000I1202564J936171D01*
G01*
X287274000Y-172085000D02*
G75*
G03X286639000Y-172720000I0J-635000D01*
G01*
X287274000Y-171704000D02*
G75*
G03X286258000Y-172720000I0J-1016000D01*
G01*
X287274000Y-173355000D02*
G75*
G03X287909000Y-172720000I0J635000D01*
G01*
X287274000Y-173736000D02*
G75*
G03X288290000Y-172720000I0J1016000D01*
G01*
D11*
X288832880Y-171416574D02*
G75*
G03X287274000Y-170688000I-1558880J-1303426D01*
G01*
X287273025Y-170690540D02*
G75*
G03X285483300Y-171764960I975J-2029460D01*
G01*
X287276552Y-174749386D02*
G75*
G03X288823400Y-174030640I-2552J2029386D01*
G01*
X285510701Y-173729851D02*
G75*
G03X287274000Y-174752000I1763299J1009851D01*
G01*
X285484870Y-171756653D02*
G75*
G03X285242000Y-172720000I1789130J-963347D01*
G01*
X285243077Y-172720100D02*
G75*
G03X285544260Y-173784260I2030923J100D01*
G01*
D13*
G04 #@! TO.C,S0*
X280670000Y-161290000D02*
X282448000Y-161290000D01*
X291592000Y-161290000D02*
X293370000Y-161290000D01*
X293370000Y-161290000D02*
X293370000Y-163068000D01*
X293370000Y-172212000D02*
X293370000Y-173990000D01*
X293370000Y-173990000D02*
X291592000Y-173990000D01*
X282448000Y-173990000D02*
X280670000Y-173990000D01*
X280670000Y-173990000D02*
X280670000Y-172212000D01*
X280670000Y-163068000D02*
X280670000Y-161290000D01*
X299720000Y-161290000D02*
X301498000Y-161290000D01*
X310642000Y-161290000D02*
X312420000Y-161290000D01*
X312420000Y-161290000D02*
X312420000Y-163068000D01*
X312420000Y-172212000D02*
X312420000Y-173990000D01*
X312420000Y-173990000D02*
X310642000Y-173990000D01*
X301498000Y-173990000D02*
X299720000Y-173990000D01*
X299720000Y-173990000D02*
X299720000Y-172212000D01*
X299720000Y-163068000D02*
X299720000Y-161290000D01*
D11*
G04 #@! TO.C,LED0*
X307898800Y-173990000D02*
X307898800Y-171450000D01*
D12*
X305153136Y-171744473D02*
G75*
G03X304800000Y-172720000I1170864J-975527D01*
G01*
X304801889Y-172720469D02*
G75*
G03X305186080Y-173730920I1522111J469D01*
G01*
X307846147Y-172719966D02*
G75*
G03X307479700Y-171729400I-1522147J-34D01*
G01*
X307494864Y-173695527D02*
G75*
G03X307848000Y-172720000I-1170864J975527D01*
G01*
X307563166Y-171832845D02*
G75*
G03X306324000Y-171196000I-1239166J-887155D01*
G01*
X306323199Y-171196000D02*
G75*
G03X305104800Y-171805600I801J-1524000D01*
G01*
X306324442Y-174242206D02*
G75*
G03X307525420Y-173654720I-442J1522206D01*
G01*
X305121436Y-173656171D02*
G75*
G03X306324000Y-174244000I1202564J936171D01*
G01*
X306324000Y-172085000D02*
G75*
G03X305689000Y-172720000I0J-635000D01*
G01*
X306324000Y-171704000D02*
G75*
G03X305308000Y-172720000I0J-1016000D01*
G01*
X306324000Y-173355000D02*
G75*
G03X306959000Y-172720000I0J635000D01*
G01*
X306324000Y-173736000D02*
G75*
G03X307340000Y-172720000I0J1016000D01*
G01*
D11*
X307882880Y-171416574D02*
G75*
G03X306324000Y-170688000I-1558880J-1303426D01*
G01*
X306323025Y-170690540D02*
G75*
G03X304533300Y-171764960I975J-2029460D01*
G01*
X306326552Y-174749386D02*
G75*
G03X307873400Y-174030640I-2552J2029386D01*
G01*
X304560701Y-173729851D02*
G75*
G03X306324000Y-174752000I1763299J1009851D01*
G01*
X304534870Y-171756653D02*
G75*
G03X304292000Y-172720000I1789130J-963347D01*
G01*
X304293077Y-172720100D02*
G75*
G03X304594260Y-173784260I2030923J100D01*
G01*
D13*
G04 #@! TO.C,S0*
X242570000Y-163068000D02*
X242570000Y-161290000D01*
X242570000Y-173990000D02*
X242570000Y-172212000D01*
X244348000Y-173990000D02*
X242570000Y-173990000D01*
X255270000Y-173990000D02*
X253492000Y-173990000D01*
X255270000Y-172212000D02*
X255270000Y-173990000D01*
X255270000Y-161290000D02*
X255270000Y-163068000D01*
X253492000Y-161290000D02*
X255270000Y-161290000D01*
X242570000Y-161290000D02*
X244348000Y-161290000D01*
D11*
G04 #@! TO.C,LED0*
X247143077Y-172720100D02*
G75*
G03X247444260Y-173784260I2030923J100D01*
G01*
X247384870Y-171756653D02*
G75*
G03X247142000Y-172720000I1789130J-963347D01*
G01*
X247410701Y-173729851D02*
G75*
G03X249174000Y-174752000I1763299J1009851D01*
G01*
X249176552Y-174749386D02*
G75*
G03X250723400Y-174030640I-2552J2029386D01*
G01*
X249173025Y-170690540D02*
G75*
G03X247383300Y-171764960I975J-2029460D01*
G01*
X250732880Y-171416574D02*
G75*
G03X249174000Y-170688000I-1558880J-1303426D01*
G01*
D12*
X249174000Y-173736000D02*
G75*
G03X250190000Y-172720000I0J1016000D01*
G01*
X249174000Y-173355000D02*
G75*
G03X249809000Y-172720000I0J635000D01*
G01*
X249174000Y-171704000D02*
G75*
G03X248158000Y-172720000I0J-1016000D01*
G01*
X249174000Y-172085000D02*
G75*
G03X248539000Y-172720000I0J-635000D01*
G01*
X247971436Y-173656171D02*
G75*
G03X249174000Y-174244000I1202564J936171D01*
G01*
X249174442Y-174242206D02*
G75*
G03X250375420Y-173654720I-442J1522206D01*
G01*
X249173199Y-171196000D02*
G75*
G03X247954800Y-171805600I801J-1524000D01*
G01*
X250413166Y-171832845D02*
G75*
G03X249174000Y-171196000I-1239166J-887155D01*
G01*
X250344864Y-173695527D02*
G75*
G03X250698000Y-172720000I-1170864J975527D01*
G01*
X250696147Y-172719966D02*
G75*
G03X250329700Y-171729400I-1522147J-34D01*
G01*
X247651889Y-172720469D02*
G75*
G03X248036080Y-173730920I1522111J469D01*
G01*
X248003136Y-171744473D02*
G75*
G03X247650000Y-172720000I1170864J-975527D01*
G01*
D11*
X250748800Y-173990000D02*
X250748800Y-171450000D01*
X269798800Y-154940000D02*
X269798800Y-152400000D01*
D12*
X267053136Y-152694473D02*
G75*
G03X266700000Y-153670000I1170864J-975527D01*
G01*
X266701889Y-153670469D02*
G75*
G03X267086080Y-154680920I1522111J469D01*
G01*
X269746147Y-153669966D02*
G75*
G03X269379700Y-152679400I-1522147J-34D01*
G01*
X269394864Y-154645527D02*
G75*
G03X269748000Y-153670000I-1170864J975527D01*
G01*
X269463166Y-152782845D02*
G75*
G03X268224000Y-152146000I-1239166J-887155D01*
G01*
X268223199Y-152146000D02*
G75*
G03X267004800Y-152755600I801J-1524000D01*
G01*
X268224442Y-155192206D02*
G75*
G03X269425420Y-154604720I-442J1522206D01*
G01*
X267021436Y-154606171D02*
G75*
G03X268224000Y-155194000I1202564J936171D01*
G01*
X268224000Y-153035000D02*
G75*
G03X267589000Y-153670000I0J-635000D01*
G01*
X268224000Y-152654000D02*
G75*
G03X267208000Y-153670000I0J-1016000D01*
G01*
X268224000Y-154305000D02*
G75*
G03X268859000Y-153670000I0J635000D01*
G01*
X268224000Y-154686000D02*
G75*
G03X269240000Y-153670000I0J1016000D01*
G01*
D11*
X269782880Y-152366574D02*
G75*
G03X268224000Y-151638000I-1558880J-1303426D01*
G01*
X268223025Y-151640540D02*
G75*
G03X266433300Y-152714960I975J-2029460D01*
G01*
X268226552Y-155699386D02*
G75*
G03X269773400Y-154980640I-2552J2029386D01*
G01*
X266460701Y-154679851D02*
G75*
G03X268224000Y-155702000I1763299J1009851D01*
G01*
X266434870Y-152706653D02*
G75*
G03X266192000Y-153670000I1789130J-963347D01*
G01*
X266193077Y-153670100D02*
G75*
G03X266494260Y-154734260I2030923J100D01*
G01*
D13*
G04 #@! TO.C,S0*
X261620000Y-142240000D02*
X263398000Y-142240000D01*
X272542000Y-142240000D02*
X274320000Y-142240000D01*
X274320000Y-142240000D02*
X274320000Y-144018000D01*
X274320000Y-153162000D02*
X274320000Y-154940000D01*
X274320000Y-154940000D02*
X272542000Y-154940000D01*
X263398000Y-154940000D02*
X261620000Y-154940000D01*
X261620000Y-154940000D02*
X261620000Y-153162000D01*
X261620000Y-144018000D02*
X261620000Y-142240000D01*
D11*
G04 #@! TO.C,LED0*
X288848800Y-154940000D02*
X288848800Y-152400000D01*
D12*
X286103136Y-152694473D02*
G75*
G03X285750000Y-153670000I1170864J-975527D01*
G01*
X285751889Y-153670469D02*
G75*
G03X286136080Y-154680920I1522111J469D01*
G01*
X288796147Y-153669966D02*
G75*
G03X288429700Y-152679400I-1522147J-34D01*
G01*
X288444864Y-154645527D02*
G75*
G03X288798000Y-153670000I-1170864J975527D01*
G01*
X288513166Y-152782845D02*
G75*
G03X287274000Y-152146000I-1239166J-887155D01*
G01*
X287273199Y-152146000D02*
G75*
G03X286054800Y-152755600I801J-1524000D01*
G01*
X287274442Y-155192206D02*
G75*
G03X288475420Y-154604720I-442J1522206D01*
G01*
X286071436Y-154606171D02*
G75*
G03X287274000Y-155194000I1202564J936171D01*
G01*
X287274000Y-153035000D02*
G75*
G03X286639000Y-153670000I0J-635000D01*
G01*
X287274000Y-152654000D02*
G75*
G03X286258000Y-153670000I0J-1016000D01*
G01*
X287274000Y-154305000D02*
G75*
G03X287909000Y-153670000I0J635000D01*
G01*
X287274000Y-154686000D02*
G75*
G03X288290000Y-153670000I0J1016000D01*
G01*
D11*
X288832880Y-152366574D02*
G75*
G03X287274000Y-151638000I-1558880J-1303426D01*
G01*
X287273025Y-151640540D02*
G75*
G03X285483300Y-152714960I975J-2029460D01*
G01*
X287276552Y-155699386D02*
G75*
G03X288823400Y-154980640I-2552J2029386D01*
G01*
X285510701Y-154679851D02*
G75*
G03X287274000Y-155702000I1763299J1009851D01*
G01*
X285484870Y-152706653D02*
G75*
G03X285242000Y-153670000I1789130J-963347D01*
G01*
X285243077Y-153670100D02*
G75*
G03X285544260Y-154734260I2030923J100D01*
G01*
D13*
G04 #@! TO.C,S0*
X280670000Y-142240000D02*
X282448000Y-142240000D01*
X291592000Y-142240000D02*
X293370000Y-142240000D01*
X293370000Y-142240000D02*
X293370000Y-144018000D01*
X293370000Y-153162000D02*
X293370000Y-154940000D01*
X293370000Y-154940000D02*
X291592000Y-154940000D01*
X282448000Y-154940000D02*
X280670000Y-154940000D01*
X280670000Y-154940000D02*
X280670000Y-153162000D01*
X280670000Y-144018000D02*
X280670000Y-142240000D01*
X299720000Y-142240000D02*
X301498000Y-142240000D01*
X310642000Y-142240000D02*
X312420000Y-142240000D01*
X312420000Y-142240000D02*
X312420000Y-144018000D01*
X312420000Y-153162000D02*
X312420000Y-154940000D01*
X312420000Y-154940000D02*
X310642000Y-154940000D01*
X301498000Y-154940000D02*
X299720000Y-154940000D01*
X299720000Y-154940000D02*
X299720000Y-153162000D01*
X299720000Y-144018000D02*
X299720000Y-142240000D01*
D11*
G04 #@! TO.C,LED0*
X307898800Y-154940000D02*
X307898800Y-152400000D01*
D12*
X305153136Y-152694473D02*
G75*
G03X304800000Y-153670000I1170864J-975527D01*
G01*
X304801889Y-153670469D02*
G75*
G03X305186080Y-154680920I1522111J469D01*
G01*
X307846147Y-153669966D02*
G75*
G03X307479700Y-152679400I-1522147J-34D01*
G01*
X307494864Y-154645527D02*
G75*
G03X307848000Y-153670000I-1170864J975527D01*
G01*
X307563166Y-152782845D02*
G75*
G03X306324000Y-152146000I-1239166J-887155D01*
G01*
X306323199Y-152146000D02*
G75*
G03X305104800Y-152755600I801J-1524000D01*
G01*
X306324442Y-155192206D02*
G75*
G03X307525420Y-154604720I-442J1522206D01*
G01*
X305121436Y-154606171D02*
G75*
G03X306324000Y-155194000I1202564J936171D01*
G01*
X306324000Y-153035000D02*
G75*
G03X305689000Y-153670000I0J-635000D01*
G01*
X306324000Y-152654000D02*
G75*
G03X305308000Y-153670000I0J-1016000D01*
G01*
X306324000Y-154305000D02*
G75*
G03X306959000Y-153670000I0J635000D01*
G01*
X306324000Y-154686000D02*
G75*
G03X307340000Y-153670000I0J1016000D01*
G01*
D11*
X307882880Y-152366574D02*
G75*
G03X306324000Y-151638000I-1558880J-1303426D01*
G01*
X306323025Y-151640540D02*
G75*
G03X304533300Y-152714960I975J-2029460D01*
G01*
X306326552Y-155699386D02*
G75*
G03X307873400Y-154980640I-2552J2029386D01*
G01*
X304560701Y-154679851D02*
G75*
G03X306324000Y-155702000I1763299J1009851D01*
G01*
X304534870Y-152706653D02*
G75*
G03X304292000Y-153670000I1789130J-963347D01*
G01*
X304293077Y-153670100D02*
G75*
G03X304594260Y-154734260I2030923J100D01*
G01*
D13*
G04 #@! TO.C,S0*
X242570000Y-144018000D02*
X242570000Y-142240000D01*
X242570000Y-154940000D02*
X242570000Y-153162000D01*
X244348000Y-154940000D02*
X242570000Y-154940000D01*
X255270000Y-154940000D02*
X253492000Y-154940000D01*
X255270000Y-153162000D02*
X255270000Y-154940000D01*
X255270000Y-142240000D02*
X255270000Y-144018000D01*
X253492000Y-142240000D02*
X255270000Y-142240000D01*
X242570000Y-142240000D02*
X244348000Y-142240000D01*
D11*
G04 #@! TO.C,LED0*
X247143077Y-153670100D02*
G75*
G03X247444260Y-154734260I2030923J100D01*
G01*
X247384870Y-152706653D02*
G75*
G03X247142000Y-153670000I1789130J-963347D01*
G01*
X247410701Y-154679851D02*
G75*
G03X249174000Y-155702000I1763299J1009851D01*
G01*
X249176552Y-155699386D02*
G75*
G03X250723400Y-154980640I-2552J2029386D01*
G01*
X249173025Y-151640540D02*
G75*
G03X247383300Y-152714960I975J-2029460D01*
G01*
X250732880Y-152366574D02*
G75*
G03X249174000Y-151638000I-1558880J-1303426D01*
G01*
D12*
X249174000Y-154686000D02*
G75*
G03X250190000Y-153670000I0J1016000D01*
G01*
X249174000Y-154305000D02*
G75*
G03X249809000Y-153670000I0J635000D01*
G01*
X249174000Y-152654000D02*
G75*
G03X248158000Y-153670000I0J-1016000D01*
G01*
X249174000Y-153035000D02*
G75*
G03X248539000Y-153670000I0J-635000D01*
G01*
X247971436Y-154606171D02*
G75*
G03X249174000Y-155194000I1202564J936171D01*
G01*
X249174442Y-155192206D02*
G75*
G03X250375420Y-154604720I-442J1522206D01*
G01*
X249173199Y-152146000D02*
G75*
G03X247954800Y-152755600I801J-1524000D01*
G01*
X250413166Y-152782845D02*
G75*
G03X249174000Y-152146000I-1239166J-887155D01*
G01*
X250344864Y-154645527D02*
G75*
G03X250698000Y-153670000I-1170864J975527D01*
G01*
X250696147Y-153669966D02*
G75*
G03X250329700Y-152679400I-1522147J-34D01*
G01*
X247651889Y-153670469D02*
G75*
G03X248036080Y-154680920I1522111J469D01*
G01*
X248003136Y-152694473D02*
G75*
G03X247650000Y-153670000I1170864J-975527D01*
G01*
D11*
X250748800Y-154940000D02*
X250748800Y-152400000D01*
X269798800Y-135890000D02*
X269798800Y-133350000D01*
D12*
X267053136Y-133644473D02*
G75*
G03X266700000Y-134620000I1170864J-975527D01*
G01*
X266701889Y-134620469D02*
G75*
G03X267086080Y-135630920I1522111J469D01*
G01*
X269746147Y-134619966D02*
G75*
G03X269379700Y-133629400I-1522147J-34D01*
G01*
X269394864Y-135595527D02*
G75*
G03X269748000Y-134620000I-1170864J975527D01*
G01*
X269463166Y-133732845D02*
G75*
G03X268224000Y-133096000I-1239166J-887155D01*
G01*
X268223199Y-133096000D02*
G75*
G03X267004800Y-133705600I801J-1524000D01*
G01*
X268224442Y-136142206D02*
G75*
G03X269425420Y-135554720I-442J1522206D01*
G01*
X267021436Y-135556171D02*
G75*
G03X268224000Y-136144000I1202564J936171D01*
G01*
X268224000Y-133985000D02*
G75*
G03X267589000Y-134620000I0J-635000D01*
G01*
X268224000Y-133604000D02*
G75*
G03X267208000Y-134620000I0J-1016000D01*
G01*
X268224000Y-135255000D02*
G75*
G03X268859000Y-134620000I0J635000D01*
G01*
X268224000Y-135636000D02*
G75*
G03X269240000Y-134620000I0J1016000D01*
G01*
D11*
X269782880Y-133316574D02*
G75*
G03X268224000Y-132588000I-1558880J-1303426D01*
G01*
X268223025Y-132590540D02*
G75*
G03X266433300Y-133664960I975J-2029460D01*
G01*
X268226552Y-136649386D02*
G75*
G03X269773400Y-135930640I-2552J2029386D01*
G01*
X266460701Y-135629851D02*
G75*
G03X268224000Y-136652000I1763299J1009851D01*
G01*
X266434870Y-133656653D02*
G75*
G03X266192000Y-134620000I1789130J-963347D01*
G01*
X266193077Y-134620100D02*
G75*
G03X266494260Y-135684260I2030923J100D01*
G01*
D13*
G04 #@! TO.C,S0*
X261620000Y-123190000D02*
X263398000Y-123190000D01*
X272542000Y-123190000D02*
X274320000Y-123190000D01*
X274320000Y-123190000D02*
X274320000Y-124968000D01*
X274320000Y-134112000D02*
X274320000Y-135890000D01*
X274320000Y-135890000D02*
X272542000Y-135890000D01*
X263398000Y-135890000D02*
X261620000Y-135890000D01*
X261620000Y-135890000D02*
X261620000Y-134112000D01*
X261620000Y-124968000D02*
X261620000Y-123190000D01*
D11*
G04 #@! TO.C,LED0*
X288848800Y-135890000D02*
X288848800Y-133350000D01*
D12*
X286103136Y-133644473D02*
G75*
G03X285750000Y-134620000I1170864J-975527D01*
G01*
X285751889Y-134620469D02*
G75*
G03X286136080Y-135630920I1522111J469D01*
G01*
X288796147Y-134619966D02*
G75*
G03X288429700Y-133629400I-1522147J-34D01*
G01*
X288444864Y-135595527D02*
G75*
G03X288798000Y-134620000I-1170864J975527D01*
G01*
X288513166Y-133732845D02*
G75*
G03X287274000Y-133096000I-1239166J-887155D01*
G01*
X287273199Y-133096000D02*
G75*
G03X286054800Y-133705600I801J-1524000D01*
G01*
X287274442Y-136142206D02*
G75*
G03X288475420Y-135554720I-442J1522206D01*
G01*
X286071436Y-135556171D02*
G75*
G03X287274000Y-136144000I1202564J936171D01*
G01*
X287274000Y-133985000D02*
G75*
G03X286639000Y-134620000I0J-635000D01*
G01*
X287274000Y-133604000D02*
G75*
G03X286258000Y-134620000I0J-1016000D01*
G01*
X287274000Y-135255000D02*
G75*
G03X287909000Y-134620000I0J635000D01*
G01*
X287274000Y-135636000D02*
G75*
G03X288290000Y-134620000I0J1016000D01*
G01*
D11*
X288832880Y-133316574D02*
G75*
G03X287274000Y-132588000I-1558880J-1303426D01*
G01*
X287273025Y-132590540D02*
G75*
G03X285483300Y-133664960I975J-2029460D01*
G01*
X287276552Y-136649386D02*
G75*
G03X288823400Y-135930640I-2552J2029386D01*
G01*
X285510701Y-135629851D02*
G75*
G03X287274000Y-136652000I1763299J1009851D01*
G01*
X285484870Y-133656653D02*
G75*
G03X285242000Y-134620000I1789130J-963347D01*
G01*
X285243077Y-134620100D02*
G75*
G03X285544260Y-135684260I2030923J100D01*
G01*
D13*
G04 #@! TO.C,S0*
X280670000Y-123190000D02*
X282448000Y-123190000D01*
X291592000Y-123190000D02*
X293370000Y-123190000D01*
X293370000Y-123190000D02*
X293370000Y-124968000D01*
X293370000Y-134112000D02*
X293370000Y-135890000D01*
X293370000Y-135890000D02*
X291592000Y-135890000D01*
X282448000Y-135890000D02*
X280670000Y-135890000D01*
X280670000Y-135890000D02*
X280670000Y-134112000D01*
X280670000Y-124968000D02*
X280670000Y-123190000D01*
X299720000Y-123190000D02*
X301498000Y-123190000D01*
X310642000Y-123190000D02*
X312420000Y-123190000D01*
X312420000Y-123190000D02*
X312420000Y-124968000D01*
X312420000Y-134112000D02*
X312420000Y-135890000D01*
X312420000Y-135890000D02*
X310642000Y-135890000D01*
X301498000Y-135890000D02*
X299720000Y-135890000D01*
X299720000Y-135890000D02*
X299720000Y-134112000D01*
X299720000Y-124968000D02*
X299720000Y-123190000D01*
D11*
G04 #@! TO.C,LED0*
X307898800Y-135890000D02*
X307898800Y-133350000D01*
D12*
X305153136Y-133644473D02*
G75*
G03X304800000Y-134620000I1170864J-975527D01*
G01*
X304801889Y-134620469D02*
G75*
G03X305186080Y-135630920I1522111J469D01*
G01*
X307846147Y-134619966D02*
G75*
G03X307479700Y-133629400I-1522147J-34D01*
G01*
X307494864Y-135595527D02*
G75*
G03X307848000Y-134620000I-1170864J975527D01*
G01*
X307563166Y-133732845D02*
G75*
G03X306324000Y-133096000I-1239166J-887155D01*
G01*
X306323199Y-133096000D02*
G75*
G03X305104800Y-133705600I801J-1524000D01*
G01*
X306324442Y-136142206D02*
G75*
G03X307525420Y-135554720I-442J1522206D01*
G01*
X305121436Y-135556171D02*
G75*
G03X306324000Y-136144000I1202564J936171D01*
G01*
X306324000Y-133985000D02*
G75*
G03X305689000Y-134620000I0J-635000D01*
G01*
X306324000Y-133604000D02*
G75*
G03X305308000Y-134620000I0J-1016000D01*
G01*
X306324000Y-135255000D02*
G75*
G03X306959000Y-134620000I0J635000D01*
G01*
X306324000Y-135636000D02*
G75*
G03X307340000Y-134620000I0J1016000D01*
G01*
D11*
X307882880Y-133316574D02*
G75*
G03X306324000Y-132588000I-1558880J-1303426D01*
G01*
X306323025Y-132590540D02*
G75*
G03X304533300Y-133664960I975J-2029460D01*
G01*
X306326552Y-136649386D02*
G75*
G03X307873400Y-135930640I-2552J2029386D01*
G01*
X304560701Y-135629851D02*
G75*
G03X306324000Y-136652000I1763299J1009851D01*
G01*
X304534870Y-133656653D02*
G75*
G03X304292000Y-134620000I1789130J-963347D01*
G01*
X304293077Y-134620100D02*
G75*
G03X304594260Y-135684260I2030923J100D01*
G01*
D13*
G04 #@! TO.C,S0*
X242570000Y-124968000D02*
X242570000Y-123190000D01*
X242570000Y-135890000D02*
X242570000Y-134112000D01*
X244348000Y-135890000D02*
X242570000Y-135890000D01*
X255270000Y-135890000D02*
X253492000Y-135890000D01*
X255270000Y-134112000D02*
X255270000Y-135890000D01*
X255270000Y-123190000D02*
X255270000Y-124968000D01*
X253492000Y-123190000D02*
X255270000Y-123190000D01*
X242570000Y-123190000D02*
X244348000Y-123190000D01*
D11*
G04 #@! TO.C,LED0*
X247143077Y-134620100D02*
G75*
G03X247444260Y-135684260I2030923J100D01*
G01*
X247384870Y-133656653D02*
G75*
G03X247142000Y-134620000I1789130J-963347D01*
G01*
X247410701Y-135629851D02*
G75*
G03X249174000Y-136652000I1763299J1009851D01*
G01*
X249176552Y-136649386D02*
G75*
G03X250723400Y-135930640I-2552J2029386D01*
G01*
X249173025Y-132590540D02*
G75*
G03X247383300Y-133664960I975J-2029460D01*
G01*
X250732880Y-133316574D02*
G75*
G03X249174000Y-132588000I-1558880J-1303426D01*
G01*
D12*
X249174000Y-135636000D02*
G75*
G03X250190000Y-134620000I0J1016000D01*
G01*
X249174000Y-135255000D02*
G75*
G03X249809000Y-134620000I0J635000D01*
G01*
X249174000Y-133604000D02*
G75*
G03X248158000Y-134620000I0J-1016000D01*
G01*
X249174000Y-133985000D02*
G75*
G03X248539000Y-134620000I0J-635000D01*
G01*
X247971436Y-135556171D02*
G75*
G03X249174000Y-136144000I1202564J936171D01*
G01*
X249174442Y-136142206D02*
G75*
G03X250375420Y-135554720I-442J1522206D01*
G01*
X249173199Y-133096000D02*
G75*
G03X247954800Y-133705600I801J-1524000D01*
G01*
X250413166Y-133732845D02*
G75*
G03X249174000Y-133096000I-1239166J-887155D01*
G01*
X250344864Y-135595527D02*
G75*
G03X250698000Y-134620000I-1170864J975527D01*
G01*
X250696147Y-134619966D02*
G75*
G03X250329700Y-133629400I-1522147J-34D01*
G01*
X247651889Y-134620469D02*
G75*
G03X248036080Y-135630920I1522111J469D01*
G01*
X248003136Y-133644473D02*
G75*
G03X247650000Y-134620000I1170864J-975527D01*
G01*
D11*
X250748800Y-135890000D02*
X250748800Y-133350000D01*
D13*
G04 #@! TO.C,S0*
X299720000Y-105918000D02*
X299720000Y-104140000D01*
X299720000Y-116840000D02*
X299720000Y-115062000D01*
X301498000Y-116840000D02*
X299720000Y-116840000D01*
X312420000Y-116840000D02*
X310642000Y-116840000D01*
X312420000Y-115062000D02*
X312420000Y-116840000D01*
X312420000Y-104140000D02*
X312420000Y-105918000D01*
X310642000Y-104140000D02*
X312420000Y-104140000D01*
X299720000Y-104140000D02*
X301498000Y-104140000D01*
D11*
G04 #@! TO.C,LED0*
X304293077Y-115570100D02*
G75*
G03X304594260Y-116634260I2030923J100D01*
G01*
X304534870Y-114606653D02*
G75*
G03X304292000Y-115570000I1789130J-963347D01*
G01*
X304560701Y-116579851D02*
G75*
G03X306324000Y-117602000I1763299J1009851D01*
G01*
X306326552Y-117599386D02*
G75*
G03X307873400Y-116880640I-2552J2029386D01*
G01*
X306323025Y-113540540D02*
G75*
G03X304533300Y-114614960I975J-2029460D01*
G01*
X307882880Y-114266574D02*
G75*
G03X306324000Y-113538000I-1558880J-1303426D01*
G01*
D12*
X306324000Y-116586000D02*
G75*
G03X307340000Y-115570000I0J1016000D01*
G01*
X306324000Y-116205000D02*
G75*
G03X306959000Y-115570000I0J635000D01*
G01*
X306324000Y-114554000D02*
G75*
G03X305308000Y-115570000I0J-1016000D01*
G01*
X306324000Y-114935000D02*
G75*
G03X305689000Y-115570000I0J-635000D01*
G01*
X305121436Y-116506171D02*
G75*
G03X306324000Y-117094000I1202564J936171D01*
G01*
X306324442Y-117092206D02*
G75*
G03X307525420Y-116504720I-442J1522206D01*
G01*
X306323199Y-114046000D02*
G75*
G03X305104800Y-114655600I801J-1524000D01*
G01*
X307563166Y-114682845D02*
G75*
G03X306324000Y-114046000I-1239166J-887155D01*
G01*
X307494864Y-116545527D02*
G75*
G03X307848000Y-115570000I-1170864J975527D01*
G01*
X307846147Y-115569966D02*
G75*
G03X307479700Y-114579400I-1522147J-34D01*
G01*
X304801889Y-115570469D02*
G75*
G03X305186080Y-116580920I1522111J469D01*
G01*
X305153136Y-114594473D02*
G75*
G03X304800000Y-115570000I1170864J-975527D01*
G01*
D11*
X307898800Y-116840000D02*
X307898800Y-114300000D01*
D13*
G04 #@! TO.C,S0*
X280670000Y-105918000D02*
X280670000Y-104140000D01*
X280670000Y-116840000D02*
X280670000Y-115062000D01*
X282448000Y-116840000D02*
X280670000Y-116840000D01*
X293370000Y-116840000D02*
X291592000Y-116840000D01*
X293370000Y-115062000D02*
X293370000Y-116840000D01*
X293370000Y-104140000D02*
X293370000Y-105918000D01*
X291592000Y-104140000D02*
X293370000Y-104140000D01*
X280670000Y-104140000D02*
X282448000Y-104140000D01*
D11*
G04 #@! TO.C,LED0*
X285243077Y-115570100D02*
G75*
G03X285544260Y-116634260I2030923J100D01*
G01*
X285484870Y-114606653D02*
G75*
G03X285242000Y-115570000I1789130J-963347D01*
G01*
X285510701Y-116579851D02*
G75*
G03X287274000Y-117602000I1763299J1009851D01*
G01*
X287276552Y-117599386D02*
G75*
G03X288823400Y-116880640I-2552J2029386D01*
G01*
X287273025Y-113540540D02*
G75*
G03X285483300Y-114614960I975J-2029460D01*
G01*
X288832880Y-114266574D02*
G75*
G03X287274000Y-113538000I-1558880J-1303426D01*
G01*
D12*
X287274000Y-116586000D02*
G75*
G03X288290000Y-115570000I0J1016000D01*
G01*
X287274000Y-116205000D02*
G75*
G03X287909000Y-115570000I0J635000D01*
G01*
X287274000Y-114554000D02*
G75*
G03X286258000Y-115570000I0J-1016000D01*
G01*
X287274000Y-114935000D02*
G75*
G03X286639000Y-115570000I0J-635000D01*
G01*
X286071436Y-116506171D02*
G75*
G03X287274000Y-117094000I1202564J936171D01*
G01*
X287274442Y-117092206D02*
G75*
G03X288475420Y-116504720I-442J1522206D01*
G01*
X287273199Y-114046000D02*
G75*
G03X286054800Y-114655600I801J-1524000D01*
G01*
X288513166Y-114682845D02*
G75*
G03X287274000Y-114046000I-1239166J-887155D01*
G01*
X288444864Y-116545527D02*
G75*
G03X288798000Y-115570000I-1170864J975527D01*
G01*
X288796147Y-115569966D02*
G75*
G03X288429700Y-114579400I-1522147J-34D01*
G01*
X285751889Y-115570469D02*
G75*
G03X286136080Y-116580920I1522111J469D01*
G01*
X286103136Y-114594473D02*
G75*
G03X285750000Y-115570000I1170864J-975527D01*
G01*
D11*
X288848800Y-116840000D02*
X288848800Y-114300000D01*
D13*
G04 #@! TO.C,S0*
X261620000Y-105918000D02*
X261620000Y-104140000D01*
X261620000Y-116840000D02*
X261620000Y-115062000D01*
X263398000Y-116840000D02*
X261620000Y-116840000D01*
X274320000Y-116840000D02*
X272542000Y-116840000D01*
X274320000Y-115062000D02*
X274320000Y-116840000D01*
X274320000Y-104140000D02*
X274320000Y-105918000D01*
X272542000Y-104140000D02*
X274320000Y-104140000D01*
X261620000Y-104140000D02*
X263398000Y-104140000D01*
D11*
G04 #@! TO.C,LED0*
X266193077Y-115570100D02*
G75*
G03X266494260Y-116634260I2030923J100D01*
G01*
X266434870Y-114606653D02*
G75*
G03X266192000Y-115570000I1789130J-963347D01*
G01*
X266460701Y-116579851D02*
G75*
G03X268224000Y-117602000I1763299J1009851D01*
G01*
X268226552Y-117599386D02*
G75*
G03X269773400Y-116880640I-2552J2029386D01*
G01*
X268223025Y-113540540D02*
G75*
G03X266433300Y-114614960I975J-2029460D01*
G01*
X269782880Y-114266574D02*
G75*
G03X268224000Y-113538000I-1558880J-1303426D01*
G01*
D12*
X268224000Y-116586000D02*
G75*
G03X269240000Y-115570000I0J1016000D01*
G01*
X268224000Y-116205000D02*
G75*
G03X268859000Y-115570000I0J635000D01*
G01*
X268224000Y-114554000D02*
G75*
G03X267208000Y-115570000I0J-1016000D01*
G01*
X268224000Y-114935000D02*
G75*
G03X267589000Y-115570000I0J-635000D01*
G01*
X267021436Y-116506171D02*
G75*
G03X268224000Y-117094000I1202564J936171D01*
G01*
X268224442Y-117092206D02*
G75*
G03X269425420Y-116504720I-442J1522206D01*
G01*
X268223199Y-114046000D02*
G75*
G03X267004800Y-114655600I801J-1524000D01*
G01*
X269463166Y-114682845D02*
G75*
G03X268224000Y-114046000I-1239166J-887155D01*
G01*
X269394864Y-116545527D02*
G75*
G03X269748000Y-115570000I-1170864J975527D01*
G01*
X269746147Y-115569966D02*
G75*
G03X269379700Y-114579400I-1522147J-34D01*
G01*
X266701889Y-115570469D02*
G75*
G03X267086080Y-116580920I1522111J469D01*
G01*
X267053136Y-114594473D02*
G75*
G03X266700000Y-115570000I1170864J-975527D01*
G01*
D11*
X269798800Y-116840000D02*
X269798800Y-114300000D01*
D13*
G04 #@! TO.C,S0*
X242570000Y-104140000D02*
X244348000Y-104140000D01*
X253492000Y-104140000D02*
X255270000Y-104140000D01*
X255270000Y-104140000D02*
X255270000Y-105918000D01*
X255270000Y-115062000D02*
X255270000Y-116840000D01*
X255270000Y-116840000D02*
X253492000Y-116840000D01*
X244348000Y-116840000D02*
X242570000Y-116840000D01*
X242570000Y-116840000D02*
X242570000Y-115062000D01*
X242570000Y-105918000D02*
X242570000Y-104140000D01*
D11*
G04 #@! TO.C,LED0*
X250748800Y-116840000D02*
X250748800Y-114300000D01*
D12*
X248003136Y-114594473D02*
G75*
G03X247650000Y-115570000I1170864J-975527D01*
G01*
X247651889Y-115570469D02*
G75*
G03X248036080Y-116580920I1522111J469D01*
G01*
X250696147Y-115569966D02*
G75*
G03X250329700Y-114579400I-1522147J-34D01*
G01*
X250344864Y-116545527D02*
G75*
G03X250698000Y-115570000I-1170864J975527D01*
G01*
X250413166Y-114682845D02*
G75*
G03X249174000Y-114046000I-1239166J-887155D01*
G01*
X249173199Y-114046000D02*
G75*
G03X247954800Y-114655600I801J-1524000D01*
G01*
X249174442Y-117092206D02*
G75*
G03X250375420Y-116504720I-442J1522206D01*
G01*
X247971436Y-116506171D02*
G75*
G03X249174000Y-117094000I1202564J936171D01*
G01*
X249174000Y-114935000D02*
G75*
G03X248539000Y-115570000I0J-635000D01*
G01*
X249174000Y-114554000D02*
G75*
G03X248158000Y-115570000I0J-1016000D01*
G01*
X249174000Y-116205000D02*
G75*
G03X249809000Y-115570000I0J635000D01*
G01*
X249174000Y-116586000D02*
G75*
G03X250190000Y-115570000I0J1016000D01*
G01*
D11*
X250732880Y-114266574D02*
G75*
G03X249174000Y-113538000I-1558880J-1303426D01*
G01*
X249173025Y-113540540D02*
G75*
G03X247383300Y-114614960I975J-2029460D01*
G01*
X249176552Y-117599386D02*
G75*
G03X250723400Y-116880640I-2552J2029386D01*
G01*
X247410701Y-116579851D02*
G75*
G03X249174000Y-117602000I1763299J1009851D01*
G01*
X247384870Y-114606653D02*
G75*
G03X247142000Y-115570000I1789130J-963347D01*
G01*
X247143077Y-115570100D02*
G75*
G03X247444260Y-116634260I2030923J100D01*
G01*
D13*
G04 #@! TO.C,U1*
X274320000Y-104775000D02*
X276860000Y-104775000D01*
X259080000Y-102235000D02*
X276860000Y-102235000D01*
X276860000Y-102235000D02*
X276860000Y-135255000D01*
X276860000Y-135255000D02*
X259080000Y-135255000D01*
X259080000Y-135255000D02*
X259080000Y-102235000D01*
D14*
G36*
X262125365Y-110664030D02*
X262125365Y-110764030D01*
X261625365Y-110764030D01*
X261625365Y-110664030D01*
X262125365Y-110664030D01*
G37*
X262125365Y-110664030D02*
X262125365Y-110764030D01*
X261625365Y-110764030D01*
X261625365Y-110664030D01*
X262125365Y-110664030D01*
G36*
X262125365Y-110664030D02*
X262125365Y-110964030D01*
X262025365Y-110964030D01*
X262025365Y-110664030D01*
X262125365Y-110664030D01*
G37*
X262125365Y-110664030D02*
X262125365Y-110964030D01*
X262025365Y-110964030D01*
X262025365Y-110664030D01*
X262125365Y-110664030D01*
G36*
X262125365Y-111264030D02*
X262125365Y-111464030D01*
X262025365Y-111464030D01*
X262025365Y-111264030D01*
X262125365Y-111264030D01*
G37*
X262125365Y-111264030D02*
X262125365Y-111464030D01*
X262025365Y-111464030D01*
X262025365Y-111264030D01*
X262125365Y-111264030D01*
G36*
X261725365Y-110664030D02*
X261725365Y-111464030D01*
X261625365Y-111464030D01*
X261625365Y-110664030D01*
X261725365Y-110664030D01*
G37*
X261725365Y-110664030D02*
X261725365Y-111464030D01*
X261625365Y-111464030D01*
X261625365Y-110664030D01*
X261725365Y-110664030D01*
G36*
X261925365Y-111064030D02*
X261925365Y-111164030D01*
X261825365Y-111164030D01*
X261825365Y-111064030D01*
X261925365Y-111064030D01*
G37*
X261925365Y-111064030D02*
X261925365Y-111164030D01*
X261825365Y-111164030D01*
X261825365Y-111064030D01*
X261925365Y-111064030D01*
D13*
X274320000Y-104775000D02*
X274320000Y-107315000D01*
X274320000Y-107315000D02*
X276860000Y-107315000D01*
G04 #@! TO.C,M2*
D14*
X245185476Y-121417380D02*
X245185476Y-120417380D01*
X245518809Y-121131666D01*
X245852142Y-120417380D01*
X245852142Y-121417380D01*
X246280714Y-120512619D02*
X246328333Y-120465000D01*
X246423571Y-120417380D01*
X246661666Y-120417380D01*
X246756904Y-120465000D01*
X246804523Y-120512619D01*
X246852142Y-120607857D01*
X246852142Y-120703095D01*
X246804523Y-120845952D01*
X246233095Y-121417380D01*
X246852142Y-121417380D01*
G04 #@! TO.C,U1*
X262396666Y-111428809D02*
X262510952Y-111466904D01*
X262701428Y-111466904D01*
X262777619Y-111428809D01*
X262815714Y-111390714D01*
X262853809Y-111314523D01*
X262853809Y-111238333D01*
X262815714Y-111162142D01*
X262777619Y-111124047D01*
X262701428Y-111085952D01*
X262549047Y-111047857D01*
X262472857Y-111009761D01*
X262434761Y-110971666D01*
X262396666Y-110895476D01*
X262396666Y-110819285D01*
X262434761Y-110743095D01*
X262472857Y-110705000D01*
X262549047Y-110666904D01*
X262739523Y-110666904D01*
X262853809Y-110705000D01*
X263082380Y-110666904D02*
X263539523Y-110666904D01*
X263310952Y-111466904D02*
X263310952Y-110666904D01*
X269351395Y-105606904D02*
X269808538Y-105606904D01*
X269579967Y-106406904D02*
X269579967Y-105606904D01*
X269999014Y-105606904D02*
X270532348Y-106406904D01*
X270532348Y-105606904D02*
X269999014Y-106406904D01*
X270989491Y-105606904D02*
X271065681Y-105606904D01*
X271141872Y-105645000D01*
X271179967Y-105683095D01*
X271218062Y-105759285D01*
X271256157Y-105911666D01*
X271256157Y-106102142D01*
X271218062Y-106254523D01*
X271179967Y-106330714D01*
X271141872Y-106368809D01*
X271065681Y-106406904D01*
X270989491Y-106406904D01*
X270913300Y-106368809D01*
X270875205Y-106330714D01*
X270837110Y-106254523D01*
X270799014Y-106102142D01*
X270799014Y-105911666D01*
X270837110Y-105759285D01*
X270875205Y-105683095D01*
X270913300Y-105645000D01*
X270989491Y-105606904D01*
X272170443Y-105568809D02*
X271484729Y-106597380D01*
X272437110Y-106406904D02*
X272437110Y-105606904D01*
X272627586Y-105606904D01*
X272741872Y-105645000D01*
X272818062Y-105721190D01*
X272856157Y-105797380D01*
X272894252Y-105949761D01*
X272894252Y-106064047D01*
X272856157Y-106216428D01*
X272818062Y-106292619D01*
X272741872Y-106368809D01*
X272627586Y-106406904D01*
X272437110Y-106406904D01*
X273160919Y-105606904D02*
X273656157Y-105606904D01*
X273389491Y-105911666D01*
X273503776Y-105911666D01*
X273579967Y-105949761D01*
X273618062Y-105987857D01*
X273656157Y-106064047D01*
X273656157Y-106254523D01*
X273618062Y-106330714D01*
X273579967Y-106368809D01*
X273503776Y-106406904D01*
X273275205Y-106406904D01*
X273199014Y-106368809D01*
X273160919Y-106330714D01*
X262185190Y-131387857D02*
X262299476Y-131425952D01*
X262337571Y-131464047D01*
X262375666Y-131540238D01*
X262375666Y-131654523D01*
X262337571Y-131730714D01*
X262299476Y-131768809D01*
X262223285Y-131806904D01*
X261918523Y-131806904D01*
X261918523Y-131006904D01*
X262185190Y-131006904D01*
X262261380Y-131045000D01*
X262299476Y-131083095D01*
X262337571Y-131159285D01*
X262337571Y-131235476D01*
X262299476Y-131311666D01*
X262261380Y-131349761D01*
X262185190Y-131387857D01*
X261918523Y-131387857D01*
X262680428Y-131083095D02*
X262718523Y-131045000D01*
X262794714Y-131006904D01*
X262985190Y-131006904D01*
X263061380Y-131045000D01*
X263099476Y-131083095D01*
X263137571Y-131159285D01*
X263137571Y-131235476D01*
X263099476Y-131349761D01*
X262642333Y-131806904D01*
X263137571Y-131806904D01*
X262242333Y-123767857D02*
X261975666Y-123767857D01*
X261975666Y-124186904D02*
X261975666Y-123386904D01*
X262356619Y-123386904D01*
X262585190Y-123386904D02*
X263118523Y-123386904D01*
X262775666Y-124186904D01*
X262242333Y-121227857D02*
X261975666Y-121227857D01*
X261975666Y-121646904D02*
X261975666Y-120846904D01*
X262356619Y-120846904D01*
X263004238Y-120846904D02*
X262851857Y-120846904D01*
X262775666Y-120885000D01*
X262737571Y-120923095D01*
X262661380Y-121037380D01*
X262623285Y-121189761D01*
X262623285Y-121494523D01*
X262661380Y-121570714D01*
X262699476Y-121608809D01*
X262775666Y-121646904D01*
X262928047Y-121646904D01*
X263004238Y-121608809D01*
X263042333Y-121570714D01*
X263080428Y-121494523D01*
X263080428Y-121304047D01*
X263042333Y-121227857D01*
X263004238Y-121189761D01*
X262928047Y-121151666D01*
X262775666Y-121151666D01*
X262699476Y-121189761D01*
X262661380Y-121227857D01*
X262623285Y-121304047D01*
X262242333Y-118687857D02*
X261975666Y-118687857D01*
X261975666Y-119106904D02*
X261975666Y-118306904D01*
X262356619Y-118306904D01*
X263042333Y-118306904D02*
X262661380Y-118306904D01*
X262623285Y-118687857D01*
X262661380Y-118649761D01*
X262737571Y-118611666D01*
X262928047Y-118611666D01*
X263004238Y-118649761D01*
X263042333Y-118687857D01*
X263080428Y-118764047D01*
X263080428Y-118954523D01*
X263042333Y-119030714D01*
X263004238Y-119068809D01*
X262928047Y-119106904D01*
X262737571Y-119106904D01*
X262661380Y-119068809D01*
X262623285Y-119030714D01*
X261956619Y-106406904D02*
X261689952Y-106025952D01*
X261499476Y-106406904D02*
X261499476Y-105606904D01*
X261804238Y-105606904D01*
X261880428Y-105645000D01*
X261918523Y-105683095D01*
X261956619Y-105759285D01*
X261956619Y-105873571D01*
X261918523Y-105949761D01*
X261880428Y-105987857D01*
X261804238Y-106025952D01*
X261499476Y-106025952D01*
X262261380Y-106178333D02*
X262642333Y-106178333D01*
X262185190Y-106406904D02*
X262451857Y-105606904D01*
X262718523Y-106406904D01*
X262909000Y-105606904D02*
X263099476Y-106406904D01*
X263251857Y-105835476D01*
X263404238Y-106406904D01*
X263594714Y-105606904D01*
X261899476Y-108185000D02*
X261823285Y-108146904D01*
X261709000Y-108146904D01*
X261594714Y-108185000D01*
X261518523Y-108261190D01*
X261480428Y-108337380D01*
X261442333Y-108489761D01*
X261442333Y-108604047D01*
X261480428Y-108756428D01*
X261518523Y-108832619D01*
X261594714Y-108908809D01*
X261709000Y-108946904D01*
X261785190Y-108946904D01*
X261899476Y-108908809D01*
X261937571Y-108870714D01*
X261937571Y-108604047D01*
X261785190Y-108604047D01*
X262280428Y-108946904D02*
X262280428Y-108146904D01*
X262737571Y-108946904D01*
X262737571Y-108146904D01*
X263118523Y-108946904D02*
X263118523Y-108146904D01*
X263309000Y-108146904D01*
X263423285Y-108185000D01*
X263499476Y-108261190D01*
X263537571Y-108337380D01*
X263575666Y-108489761D01*
X263575666Y-108604047D01*
X263537571Y-108756428D01*
X263499476Y-108832619D01*
X263423285Y-108908809D01*
X263309000Y-108946904D01*
X263118523Y-108946904D01*
X261442333Y-113226904D02*
X261709000Y-114026904D01*
X261975666Y-113226904D01*
X262699476Y-113950714D02*
X262661380Y-113988809D01*
X262547095Y-114026904D01*
X262470904Y-114026904D01*
X262356619Y-113988809D01*
X262280428Y-113912619D01*
X262242333Y-113836428D01*
X262204238Y-113684047D01*
X262204238Y-113569761D01*
X262242333Y-113417380D01*
X262280428Y-113341190D01*
X262356619Y-113265000D01*
X262470904Y-113226904D01*
X262547095Y-113226904D01*
X262661380Y-113265000D01*
X262699476Y-113303095D01*
X263499476Y-113950714D02*
X263461380Y-113988809D01*
X263347095Y-114026904D01*
X263270904Y-114026904D01*
X263156619Y-113988809D01*
X263080428Y-113912619D01*
X263042333Y-113836428D01*
X263004238Y-113684047D01*
X263004238Y-113569761D01*
X263042333Y-113417380D01*
X263080428Y-113341190D01*
X263156619Y-113265000D01*
X263270904Y-113226904D01*
X263347095Y-113226904D01*
X263461380Y-113265000D01*
X263499476Y-113303095D01*
X262242333Y-116147857D02*
X261975666Y-116147857D01*
X261975666Y-116566904D02*
X261975666Y-115766904D01*
X262356619Y-115766904D01*
X263004238Y-116033571D02*
X263004238Y-116566904D01*
X262813761Y-115728809D02*
X262623285Y-116300238D01*
X263118523Y-116300238D01*
X262185190Y-126307857D02*
X262299476Y-126345952D01*
X262337571Y-126384047D01*
X262375666Y-126460238D01*
X262375666Y-126574523D01*
X262337571Y-126650714D01*
X262299476Y-126688809D01*
X262223285Y-126726904D01*
X261918523Y-126726904D01*
X261918523Y-125926904D01*
X262185190Y-125926904D01*
X262261380Y-125965000D01*
X262299476Y-126003095D01*
X262337571Y-126079285D01*
X262337571Y-126155476D01*
X262299476Y-126231666D01*
X262261380Y-126269761D01*
X262185190Y-126307857D01*
X261918523Y-126307857D01*
X263137571Y-126726904D02*
X262680428Y-126726904D01*
X262909000Y-126726904D02*
X262909000Y-125926904D01*
X262832809Y-126041190D01*
X262756619Y-126117380D01*
X262680428Y-126155476D01*
X262185190Y-128847857D02*
X262299476Y-128885952D01*
X262337571Y-128924047D01*
X262375666Y-129000238D01*
X262375666Y-129114523D01*
X262337571Y-129190714D01*
X262299476Y-129228809D01*
X262223285Y-129266904D01*
X261918523Y-129266904D01*
X261918523Y-128466904D01*
X262185190Y-128466904D01*
X262261380Y-128505000D01*
X262299476Y-128543095D01*
X262337571Y-128619285D01*
X262337571Y-128695476D01*
X262299476Y-128771666D01*
X262261380Y-128809761D01*
X262185190Y-128847857D01*
X261918523Y-128847857D01*
X262642333Y-128466904D02*
X263137571Y-128466904D01*
X262870904Y-128771666D01*
X262985190Y-128771666D01*
X263061380Y-128809761D01*
X263099476Y-128847857D01*
X263137571Y-128924047D01*
X263137571Y-129114523D01*
X263099476Y-129190714D01*
X263061380Y-129228809D01*
X262985190Y-129266904D01*
X262756619Y-129266904D01*
X262680428Y-129228809D01*
X262642333Y-129190714D01*
X262185190Y-133927857D02*
X262299476Y-133965952D01*
X262337571Y-134004047D01*
X262375666Y-134080238D01*
X262375666Y-134194523D01*
X262337571Y-134270714D01*
X262299476Y-134308809D01*
X262223285Y-134346904D01*
X261918523Y-134346904D01*
X261918523Y-133546904D01*
X262185190Y-133546904D01*
X262261380Y-133585000D01*
X262299476Y-133623095D01*
X262337571Y-133699285D01*
X262337571Y-133775476D01*
X262299476Y-133851666D01*
X262261380Y-133889761D01*
X262185190Y-133927857D01*
X261918523Y-133927857D01*
X263061380Y-133546904D02*
X262909000Y-133546904D01*
X262832809Y-133585000D01*
X262794714Y-133623095D01*
X262718523Y-133737380D01*
X262680428Y-133889761D01*
X262680428Y-134194523D01*
X262718523Y-134270714D01*
X262756619Y-134308809D01*
X262832809Y-134346904D01*
X262985190Y-134346904D01*
X263061380Y-134308809D01*
X263099476Y-134270714D01*
X263137571Y-134194523D01*
X263137571Y-134004047D01*
X263099476Y-133927857D01*
X263061380Y-133889761D01*
X262985190Y-133851666D01*
X262832809Y-133851666D01*
X262756619Y-133889761D01*
X262718523Y-133927857D01*
X262680428Y-134004047D01*
X273107190Y-133927857D02*
X273221476Y-133965952D01*
X273259571Y-134004047D01*
X273297666Y-134080238D01*
X273297666Y-134194523D01*
X273259571Y-134270714D01*
X273221476Y-134308809D01*
X273145285Y-134346904D01*
X272840523Y-134346904D01*
X272840523Y-133546904D01*
X273107190Y-133546904D01*
X273183380Y-133585000D01*
X273221476Y-133623095D01*
X273259571Y-133699285D01*
X273259571Y-133775476D01*
X273221476Y-133851666D01*
X273183380Y-133889761D01*
X273107190Y-133927857D01*
X272840523Y-133927857D01*
X274021476Y-133546904D02*
X273640523Y-133546904D01*
X273602428Y-133927857D01*
X273640523Y-133889761D01*
X273716714Y-133851666D01*
X273907190Y-133851666D01*
X273983380Y-133889761D01*
X274021476Y-133927857D01*
X274059571Y-134004047D01*
X274059571Y-134194523D01*
X274021476Y-134270714D01*
X273983380Y-134308809D01*
X273907190Y-134346904D01*
X273716714Y-134346904D01*
X273640523Y-134308809D01*
X273602428Y-134270714D01*
X273107190Y-131387857D02*
X273221476Y-131425952D01*
X273259571Y-131464047D01*
X273297666Y-131540238D01*
X273297666Y-131654523D01*
X273259571Y-131730714D01*
X273221476Y-131768809D01*
X273145285Y-131806904D01*
X272840523Y-131806904D01*
X272840523Y-131006904D01*
X273107190Y-131006904D01*
X273183380Y-131045000D01*
X273221476Y-131083095D01*
X273259571Y-131159285D01*
X273259571Y-131235476D01*
X273221476Y-131311666D01*
X273183380Y-131349761D01*
X273107190Y-131387857D01*
X272840523Y-131387857D01*
X273983380Y-131273571D02*
X273983380Y-131806904D01*
X273792904Y-130968809D02*
X273602428Y-131540238D01*
X274097666Y-131540238D01*
X272878619Y-128847857D02*
X273145285Y-128847857D01*
X273259571Y-129266904D02*
X272878619Y-129266904D01*
X272878619Y-128466904D01*
X273259571Y-128466904D01*
X273945285Y-128466904D02*
X273792904Y-128466904D01*
X273716714Y-128505000D01*
X273678619Y-128543095D01*
X273602428Y-128657380D01*
X273564333Y-128809761D01*
X273564333Y-129114523D01*
X273602428Y-129190714D01*
X273640523Y-129228809D01*
X273716714Y-129266904D01*
X273869095Y-129266904D01*
X273945285Y-129228809D01*
X273983380Y-129190714D01*
X274021476Y-129114523D01*
X274021476Y-128924047D01*
X273983380Y-128847857D01*
X273945285Y-128809761D01*
X273869095Y-128771666D01*
X273716714Y-128771666D01*
X273640523Y-128809761D01*
X273602428Y-128847857D01*
X273564333Y-128924047D01*
X272840523Y-126726904D02*
X272840523Y-125926904D01*
X273031000Y-125926904D01*
X273145285Y-125965000D01*
X273221476Y-126041190D01*
X273259571Y-126117380D01*
X273297666Y-126269761D01*
X273297666Y-126384047D01*
X273259571Y-126536428D01*
X273221476Y-126612619D01*
X273145285Y-126688809D01*
X273031000Y-126726904D01*
X272840523Y-126726904D01*
X273564333Y-125926904D02*
X274097666Y-125926904D01*
X273754809Y-126726904D01*
X273297666Y-124110714D02*
X273259571Y-124148809D01*
X273145285Y-124186904D01*
X273069095Y-124186904D01*
X272954809Y-124148809D01*
X272878619Y-124072619D01*
X272840523Y-123996428D01*
X272802428Y-123844047D01*
X272802428Y-123729761D01*
X272840523Y-123577380D01*
X272878619Y-123501190D01*
X272954809Y-123425000D01*
X273069095Y-123386904D01*
X273145285Y-123386904D01*
X273259571Y-123425000D01*
X273297666Y-123463095D01*
X273983380Y-123386904D02*
X273831000Y-123386904D01*
X273754809Y-123425000D01*
X273716714Y-123463095D01*
X273640523Y-123577380D01*
X273602428Y-123729761D01*
X273602428Y-124034523D01*
X273640523Y-124110714D01*
X273678619Y-124148809D01*
X273754809Y-124186904D01*
X273907190Y-124186904D01*
X273983380Y-124148809D01*
X274021476Y-124110714D01*
X274059571Y-124034523D01*
X274059571Y-123844047D01*
X274021476Y-123767857D01*
X273983380Y-123729761D01*
X273907190Y-123691666D01*
X273754809Y-123691666D01*
X273678619Y-123729761D01*
X273640523Y-123767857D01*
X273602428Y-123844047D01*
X272840523Y-121646904D02*
X272840523Y-120846904D01*
X273031000Y-120846904D01*
X273145285Y-120885000D01*
X273221476Y-120961190D01*
X273259571Y-121037380D01*
X273297666Y-121189761D01*
X273297666Y-121304047D01*
X273259571Y-121456428D01*
X273221476Y-121532619D01*
X273145285Y-121608809D01*
X273031000Y-121646904D01*
X272840523Y-121646904D01*
X273983380Y-121113571D02*
X273983380Y-121646904D01*
X273792904Y-120808809D02*
X273602428Y-121380238D01*
X274097666Y-121380238D01*
X272821476Y-110725000D02*
X272745285Y-110686904D01*
X272631000Y-110686904D01*
X272516714Y-110725000D01*
X272440523Y-110801190D01*
X272402428Y-110877380D01*
X272364333Y-111029761D01*
X272364333Y-111144047D01*
X272402428Y-111296428D01*
X272440523Y-111372619D01*
X272516714Y-111448809D01*
X272631000Y-111486904D01*
X272707190Y-111486904D01*
X272821476Y-111448809D01*
X272859571Y-111410714D01*
X272859571Y-111144047D01*
X272707190Y-111144047D01*
X273202428Y-111486904D02*
X273202428Y-110686904D01*
X273659571Y-111486904D01*
X273659571Y-110686904D01*
X274040523Y-111486904D02*
X274040523Y-110686904D01*
X274231000Y-110686904D01*
X274345285Y-110725000D01*
X274421476Y-110801190D01*
X274459571Y-110877380D01*
X274497666Y-111029761D01*
X274497666Y-111144047D01*
X274459571Y-111296428D01*
X274421476Y-111372619D01*
X274345285Y-111448809D01*
X274231000Y-111486904D01*
X274040523Y-111486904D01*
X272821476Y-113265000D02*
X272745285Y-113226904D01*
X272631000Y-113226904D01*
X272516714Y-113265000D01*
X272440523Y-113341190D01*
X272402428Y-113417380D01*
X272364333Y-113569761D01*
X272364333Y-113684047D01*
X272402428Y-113836428D01*
X272440523Y-113912619D01*
X272516714Y-113988809D01*
X272631000Y-114026904D01*
X272707190Y-114026904D01*
X272821476Y-113988809D01*
X272859571Y-113950714D01*
X272859571Y-113684047D01*
X272707190Y-113684047D01*
X273202428Y-114026904D02*
X273202428Y-113226904D01*
X273659571Y-114026904D01*
X273659571Y-113226904D01*
X274040523Y-114026904D02*
X274040523Y-113226904D01*
X274231000Y-113226904D01*
X274345285Y-113265000D01*
X274421476Y-113341190D01*
X274459571Y-113417380D01*
X274497666Y-113569761D01*
X274497666Y-113684047D01*
X274459571Y-113836428D01*
X274421476Y-113912619D01*
X274345285Y-113988809D01*
X274231000Y-114026904D01*
X274040523Y-114026904D01*
X272840523Y-116566904D02*
X272840523Y-115766904D01*
X273031000Y-115766904D01*
X273145285Y-115805000D01*
X273221476Y-115881190D01*
X273259571Y-115957380D01*
X273297666Y-116109761D01*
X273297666Y-116224047D01*
X273259571Y-116376428D01*
X273221476Y-116452619D01*
X273145285Y-116528809D01*
X273031000Y-116566904D01*
X272840523Y-116566904D01*
X274059571Y-116566904D02*
X273602428Y-116566904D01*
X273831000Y-116566904D02*
X273831000Y-115766904D01*
X273754809Y-115881190D01*
X273678619Y-115957380D01*
X273602428Y-115995476D01*
X272840523Y-119106904D02*
X272840523Y-118306904D01*
X273031000Y-118306904D01*
X273145285Y-118345000D01*
X273221476Y-118421190D01*
X273259571Y-118497380D01*
X273297666Y-118649761D01*
X273297666Y-118764047D01*
X273259571Y-118916428D01*
X273221476Y-118992619D01*
X273145285Y-119068809D01*
X273031000Y-119106904D01*
X272840523Y-119106904D01*
X273792904Y-118306904D02*
X273869095Y-118306904D01*
X273945285Y-118345000D01*
X273983380Y-118383095D01*
X274021476Y-118459285D01*
X274059571Y-118611666D01*
X274059571Y-118802142D01*
X274021476Y-118954523D01*
X273983380Y-119030714D01*
X273945285Y-119068809D01*
X273869095Y-119106904D01*
X273792904Y-119106904D01*
X273716714Y-119068809D01*
X273678619Y-119030714D01*
X273640523Y-118954523D01*
X273602428Y-118802142D01*
X273602428Y-118611666D01*
X273640523Y-118459285D01*
X273678619Y-118383095D01*
X273716714Y-118345000D01*
X273792904Y-118306904D01*
X272840523Y-108946904D02*
X272840523Y-108146904D01*
X273031000Y-108146904D01*
X273145285Y-108185000D01*
X273221476Y-108261190D01*
X273259571Y-108337380D01*
X273297666Y-108489761D01*
X273297666Y-108604047D01*
X273259571Y-108756428D01*
X273221476Y-108832619D01*
X273145285Y-108908809D01*
X273031000Y-108946904D01*
X272840523Y-108946904D01*
X273602428Y-108223095D02*
X273640523Y-108185000D01*
X273716714Y-108146904D01*
X273907190Y-108146904D01*
X273983380Y-108185000D01*
X274021476Y-108223095D01*
X274059571Y-108299285D01*
X274059571Y-108375476D01*
X274021476Y-108489761D01*
X273564333Y-108946904D01*
X274059571Y-108946904D01*
G04 #@! TO.C,M2*
X303535476Y-158567380D02*
X303535476Y-157567380D01*
X303868809Y-158281666D01*
X304202142Y-157567380D01*
X304202142Y-158567380D01*
X304630714Y-157662619D02*
X304678333Y-157615000D01*
X304773571Y-157567380D01*
X305011666Y-157567380D01*
X305106904Y-157615000D01*
X305154523Y-157662619D01*
X305202142Y-157757857D01*
X305202142Y-157853095D01*
X305154523Y-157995952D01*
X304583095Y-158567380D01*
X305202142Y-158567380D01*
X303485476Y-120467380D02*
X303485476Y-119467380D01*
X303818809Y-120181666D01*
X304152142Y-119467380D01*
X304152142Y-120467380D01*
X304580714Y-119562619D02*
X304628333Y-119515000D01*
X304723571Y-119467380D01*
X304961666Y-119467380D01*
X305056904Y-119515000D01*
X305104523Y-119562619D01*
X305152142Y-119657857D01*
X305152142Y-119753095D01*
X305104523Y-119895952D01*
X304533095Y-120467380D01*
X305152142Y-120467380D01*
X249285476Y-158567380D02*
X249285476Y-157567380D01*
X249618809Y-158281666D01*
X249952142Y-157567380D01*
X249952142Y-158567380D01*
X250380714Y-157662619D02*
X250428333Y-157615000D01*
X250523571Y-157567380D01*
X250761666Y-157567380D01*
X250856904Y-157615000D01*
X250904523Y-157662619D01*
X250952142Y-157757857D01*
X250952142Y-157853095D01*
X250904523Y-157995952D01*
X250333095Y-158567380D01*
X250952142Y-158567380D01*
G04 #@! TD*
M02*
