M48
;DRILL file {KiCad (5.0.1)-3} date 26.04.2020 21:35:39
;FORMAT={-:-/ absolute / inch / decimal}
FMAT,2
INCH,TZ
T1C0.0250
T2C0.0320
T3C0.0390
T4C0.0430
T5C0.0590
T6C0.0591
T7C0.0866
T8C0.1693
%
G90
G05
M72
T1
X9.695Y-4.4
X9.695Y-5.15
X9.695Y-5.9
X9.695Y-6.65
X9.71Y-4.46
X9.71Y-5.21
X9.71Y-5.96
X9.71Y-6.71
X9.895Y-4.46
X9.895Y-5.21
X9.895Y-5.96
X9.895Y-6.71
X9.905Y-4.4
X9.905Y-5.15
X9.905Y-5.9
X9.905Y-6.65
X9.95Y-5.15
X9.95Y-5.9
X9.95Y-6.65
X10.0552Y-5.4197
X10.0552Y-5.5181
X10.0552Y-5.9965
X10.0926Y-5.272
X10.1517Y-5.4197
X10.1517Y-5.7445
X10.1517Y-5.7445
X10.1911Y-6.0004
X10.2875Y-5.9
X10.288Y-6.6505
X10.2941Y-5.3539
X10.3289Y-6.1382
X10.445Y-4.4
X10.445Y-5.15
X10.445Y-5.9
X10.445Y-6.65
X10.46Y-4.46
X10.46Y-5.21
X10.46Y-5.96
X10.46Y-6.71
X10.645Y-4.46
X10.645Y-5.21
X10.645Y-5.96
X10.645Y-6.71
X10.655Y-4.4
X10.655Y-5.15
X10.655Y-5.774
X10.655Y-5.9
X10.655Y-6.65
X10.7Y-5.15
X10.7Y-5.9
X10.7Y-6.65
X10.8486Y-5.901
X10.8486Y-6.651
X10.9391Y-5.3933
X10.9417Y-4.4494
X10.9457Y-4.2722
X11.0375Y-4.6126
X11.0402Y-5.2949
X11.0769Y-4.7012
X11.195Y-4.4
X11.195Y-5.15
X11.195Y-5.9
X11.195Y-6.65
X11.21Y-4.46
X11.21Y-5.21
X11.21Y-5.96
X11.21Y-6.71
X11.395Y-4.46
X11.395Y-5.21
X11.395Y-5.96
X11.395Y-6.71
X11.405Y-4.4
X11.405Y-5.15
X11.405Y-5.9
X11.405Y-6.65
X11.45Y-5.15
X11.45Y-5.9
X11.45Y-6.65
X11.552Y-4.2909
X11.7659Y-5.902
X11.7669Y-6.651
X11.7875Y-5.15
X11.945Y-4.4
X11.945Y-5.15
X11.945Y-5.9
X11.945Y-6.65
X11.96Y-4.46
X11.96Y-5.21
X11.96Y-5.96
X11.96Y-6.71
X12.145Y-4.46
X12.145Y-5.21
X12.145Y-5.96
X12.145Y-6.71
X12.155Y-4.4
X12.155Y-5.15
X12.155Y-5.9
X12.155Y-6.65
T2
X9.65Y-6.05
X9.95Y-6.05
X9.65Y-5.3
X9.95Y-5.3
X12.Y-6.05
X12.1Y-6.05
X12.Y-4.55
X12.1Y-4.55
X11.15Y-5.3
X11.45Y-5.3
X10.5Y-5.3
X10.6Y-5.3
X9.65Y-4.55
X9.95Y-4.55
X11.25Y-4.55
X11.35Y-4.55
X11.9Y-6.8
X12.2Y-6.8
X9.75Y-6.8
X9.85Y-6.8
X10.5Y-6.8
X10.6Y-6.8
X11.25Y-6.05
X11.35Y-6.05
X11.9Y-4.55
X12.2Y-4.55
X11.9Y-6.05
X12.2Y-6.05
X10.5Y-4.55
X10.6Y-4.55
X10.5Y-6.05
X10.6Y-6.05
X11.25Y-6.8
X11.35Y-6.8
X12.Y-5.3
X12.1Y-5.3
X10.4Y-4.55
X10.7Y-4.55
X9.75Y-5.3
X9.85Y-5.3
X10.4Y-5.3
X10.7Y-5.3
X9.75Y-6.05
X9.85Y-6.05
X11.25Y-5.3
X11.35Y-5.3
X11.15Y-4.55
X11.45Y-4.55
X11.9Y-5.3
X12.2Y-5.3
X11.15Y-6.8
X11.45Y-6.8
X10.4Y-6.05
X10.7Y-6.05
X10.4Y-6.8
X10.7Y-6.8
X11.15Y-6.05
X11.45Y-6.05
X9.75Y-4.55
X9.85Y-4.55
X9.65Y-6.8
X9.95Y-6.8
X12.Y-6.8
X12.1Y-6.8
T3
X11.1Y-5.95
X11.5Y-5.95
X9.6Y-5.2
X10.Y-5.2
X11.85Y-5.95
X12.25Y-5.95
X11.85Y-4.45
X12.25Y-4.45
X11.85Y-5.2
X12.25Y-5.2
X10.35Y-6.7
X10.75Y-6.7
X10.35Y-5.95
X10.75Y-5.95
X11.1Y-5.2
X11.5Y-5.2
X9.6Y-4.45
X10.Y-4.45
X9.6Y-5.95
X10.Y-5.95
X11.85Y-6.7
X12.25Y-6.7
X10.35Y-5.2
X10.75Y-5.2
X11.1Y-4.45
X11.5Y-4.45
X10.35Y-4.45
X10.75Y-4.45
X9.6Y-6.7
X10.Y-6.7
X11.1Y-6.7
X11.5Y-6.7
T4
X10.241Y-4.175
X10.241Y-4.375
X10.241Y-4.575
X10.241Y-4.775
X10.241Y-4.975
X10.241Y-5.175
X10.259Y-4.275
X10.259Y-4.475
X10.259Y-4.675
X10.259Y-4.875
X10.259Y-5.075
X10.259Y-5.275
X10.841Y-4.275
X10.841Y-4.475
X10.841Y-4.675
X10.841Y-4.875
X10.841Y-5.075
X10.841Y-5.275
X10.859Y-4.175
X10.859Y-4.375
X10.859Y-4.575
X10.859Y-4.775
X10.859Y-4.975
X10.859Y-5.175
T5
X11.9Y-4.25
X11.9516Y-4.1925
X11.15Y-5.75
X11.2016Y-5.6925
X9.65Y-5.75
X9.7016Y-5.6925
X11.15Y-4.25
X11.2016Y-4.1925
X11.9Y-5.75
X11.9516Y-5.6925
X11.9Y-5.
X11.9516Y-4.9425
X10.4Y-5.75
X10.4516Y-5.6925
X10.4Y-4.25
X10.4516Y-4.1925
X9.65Y-6.5
X9.7016Y-6.4425
X10.4Y-6.5
X10.4516Y-6.4425
X9.65Y-5.
X9.7016Y-4.9425
X10.4Y-5.
X10.4516Y-4.9425
X11.15Y-5.
X11.2016Y-4.9425
X9.65Y-4.25
X9.7016Y-4.1925
X11.9Y-6.5
X11.9516Y-6.4425
X11.15Y-6.5
X11.2016Y-6.4425
T6
X10.117Y-4.1083
X10.117Y-4.3642
T7
X9.8165Y-4.725
X11.85Y-6.225
X11.85Y-4.725
X9.975Y-6.225
T8
X10.0165Y-4.725
X10.175Y-6.225
X11.675Y-4.725
X11.675Y-6.225
T5
X12.15Y-4.15G85X12.1484Y-4.1728
G05
X11.4Y-5.65G85X11.3984Y-5.6728
G05
X9.9Y-5.65G85X9.8984Y-5.6728
G05
X11.4Y-4.15G85X11.3984Y-4.1728
G05
X12.15Y-5.65G85X12.1484Y-5.6728
G05
X12.15Y-4.9G85X12.1484Y-4.9228
G05
X10.65Y-5.65G85X10.6484Y-5.6728
G05
X10.65Y-4.15G85X10.6484Y-4.1728
G05
X9.9Y-6.4G85X9.8984Y-6.4228
G05
X10.65Y-6.4G85X10.6484Y-6.4228
G05
X9.9Y-4.9G85X9.8984Y-4.9228
G05
X10.65Y-4.9G85X10.6484Y-4.9228
G05
X11.4Y-4.9G85X11.3984Y-4.9228
G05
X9.9Y-4.15G85X9.8984Y-4.1728
G05
X12.15Y-6.4G85X12.1484Y-6.4228
G05
X11.4Y-6.4G85X11.3984Y-6.4228
G05
T0
M30
