  0
SECTION
  2
HEADER
  9
$ANGBASE
  50
0.0
  9
$ANGDIR
  70
  1
  9
$MEASUREMENT
  70
0
  0
ENDSEC
  0
SECTION
  2
TABLES
  0
TABLE
  2
LTYPE
  70
4
  0
LTYPE
  5
40F
  2
CONTINUOUS
  70
0
  3
Solid line
  72
65
  73
0
  40
0.0
  0
LTYPE
  5
410
  2
DASHDOT
 70
0
  3
Dash Dot ____ _ ____ _
 72
65
 73
4
 40
2.0
 49
1.25
 49
-0.25
 49
0.25
 49
-0.25
  0
LTYPE
  5
411
  2
DASHED
 70
0
  3
Dashed __ __ __ __ __
 72
65
 73
2
 40
0.75
 49
0.5
 49
-0.25
  0
LTYPE
  5
43B
  2
DOTTED
 70
0
  3
Dotted .  .  .  .
 72
65
 73
2
 40
0.2
 49
0.0
 49
-0.2
  0
ENDTAB
  0
TABLE
  2
STYLE
  70
4
  0
STYLE
  2
KICAD
  70
0
  40
0
  41
1
  42
1
  50
0
  71
0
  3
isocp.shx
  0
STYLE
  2
KICADB
  70
0
  40
0
  41
1
  42
1
  50
0
  71
0
  3
isocp.shx
  0
STYLE
  2
KICADI
  70
0
  40
0
  41
1
  42
1
  50
15
  71
0
  3
isocp.shx
  0
STYLE
  2
KICADBI
  70
0
  40
0
  41
1
  42
1
  50
15
  71
0
  3
isocp.shx
  0
ENDTAB
  0
TABLE
  2
LAYER
  70
30
  0
LAYER
  2
BLACK
  70
0
  62
7
  6
CONTINUOUS
  0
LAYER
  2
GRAY1
  70
0
  62
251
  6
CONTINUOUS
  0
LAYER
  2
GRAY2
  70
0
  62
8
  6
CONTINUOUS
  0
LAYER
  2
GRAY3
  70
0
  62
9
  6
CONTINUOUS
  0
LAYER
  2
WHITE
  70
0
  62
7
  6
CONTINUOUS
  0
LAYER
  2
LYELLOW
  70
0
  62
51
  6
CONTINUOUS
  0
LAYER
  2
BLUE1
  70
0
  62
178
  6
CONTINUOUS
  0
LAYER
  2
GREEN1
  70
0
  62
98
  6
CONTINUOUS
  0
LAYER
  2
CYAN1
  70
0
  62
138
  6
CONTINUOUS
  0
LAYER
  2
RED1
  70
0
  62
18
  6
CONTINUOUS
  0
LAYER
  2
MAGENTA1
  70
0
  62
228
  6
CONTINUOUS
  0
LAYER
  2
BROWN1
  70
0
  62
58
  6
CONTINUOUS
  0
LAYER
  2
BLUE2
  70
0
  62
5
  6
CONTINUOUS
  0
LAYER
  2
GREEN2
  70
0
  62
3
  6
CONTINUOUS
  0
LAYER
  2
CYAN2
  70
0
  62
4
  6
CONTINUOUS
  0
LAYER
  2
RED2
  70
0
  62
1
  6
CONTINUOUS
  0
LAYER
  2
MAGENTA2
  70
0
  62
6
  6
CONTINUOUS
  0
LAYER
  2
BROWN2
  70
0
  62
54
  6
CONTINUOUS
  0
LAYER
  2
BLUE3
  70
0
  62
171
  6
CONTINUOUS
  0
LAYER
  2
GREEN3
  70
0
  62
91
  6
CONTINUOUS
  0
LAYER
  2
CYAN3
  70
0
  62
131
  6
CONTINUOUS
  0
LAYER
  2
RED3
  70
0
  62
11
  6
CONTINUOUS
  0
LAYER
  2
MAGENTA3
  70
0
  62
221
  6
CONTINUOUS
  0
LAYER
  2
YELLOW3
  70
0
  62
2
  6
CONTINUOUS
  0
LAYER
  2
BLUE4
  70
0
  62
5
  6
CONTINUOUS
  0
LAYER
  2
GREEN4
  70
0
  62
3
  6
CONTINUOUS
  0
LAYER
  2
CYAN4
  70
0
  62
4
  6
CONTINUOUS
  0
LAYER
  2
RED4
  70
0
  62
1
  6
CONTINUOUS
  0
LAYER
  2
MAGENTA4
  70
0
  62
6
  6
CONTINUOUS
  0
LAYER
  2
YELLOW4
  70
0
  62
2
  6
CONTINUOUS
  0
ENDTAB
  0
ENDSEC
  0
SECTION
  2
ENTITIES
0
LINE
8
BLACK
6
CONTINUOUS
10
267.462
20
-175.832
11
266.573
21
-175.832
0
LINE
8
BLACK
6
CONTINUOUS
10
266.573
20
-175.832
11
266.573
21
-174.434
0
LINE
8
BLACK
6
CONTINUOUS
10
266.573
20
-174.434
11
267.462
21
-174.434
0
LINE
8
BLACK
6
CONTINUOUS
10
267.462
20
-174.434
11
267.462
21
-175.832
0
LINE
8
BLACK
6
CONTINUOUS
10
269.367
20
-175.832
11
268.478
21
-175.832
0
LINE
8
BLACK
6
CONTINUOUS
10
268.478
20
-175.832
11
268.478
21
-174.434
0
LINE
8
BLACK
6
CONTINUOUS
10
268.478
20
-174.434
11
269.367
21
-174.434
0
LINE
8
BLACK
6
CONTINUOUS
10
269.367
20
-174.434
11
269.367
21
-175.832
0
LINE
8
BLACK
6
CONTINUOUS
10
248.412
20
-175.832
11
247.523
21
-175.832
0
LINE
8
BLACK
6
CONTINUOUS
10
247.523
20
-175.832
11
247.523
21
-174.434
0
LINE
8
BLACK
6
CONTINUOUS
10
247.523
20
-174.434
11
248.412
21
-174.434
0
LINE
8
BLACK
6
CONTINUOUS
10
248.412
20
-174.434
11
248.412
21
-175.832
0
LINE
8
BLACK
6
CONTINUOUS
10
250.317
20
-175.832
11
249.428
21
-175.832
0
LINE
8
BLACK
6
CONTINUOUS
10
249.428
20
-175.832
11
249.428
21
-174.434
0
LINE
8
BLACK
6
CONTINUOUS
10
249.428
20
-174.434
11
250.317
21
-174.434
0
LINE
8
BLACK
6
CONTINUOUS
10
250.317
20
-174.434
11
250.317
21
-175.832
0
LINE
8
BLACK
6
CONTINUOUS
10
286.512
20
-175.832
11
285.623
21
-175.832
0
LINE
8
BLACK
6
CONTINUOUS
10
285.623
20
-175.832
11
285.623
21
-174.434
0
LINE
8
BLACK
6
CONTINUOUS
10
285.623
20
-174.434
11
286.512
21
-174.434
0
LINE
8
BLACK
6
CONTINUOUS
10
286.512
20
-174.434
11
286.512
21
-175.832
0
LINE
8
BLACK
6
CONTINUOUS
10
288.417
20
-175.832
11
287.528
21
-175.832
0
LINE
8
BLACK
6
CONTINUOUS
10
287.528
20
-175.832
11
287.528
21
-174.434
0
LINE
8
BLACK
6
CONTINUOUS
10
287.528
20
-174.434
11
288.417
21
-174.434
0
LINE
8
BLACK
6
CONTINUOUS
10
288.417
20
-174.434
11
288.417
21
-175.832
0
LINE
8
BLACK
6
CONTINUOUS
10
305.562
20
-175.832
11
304.673
21
-175.832
0
LINE
8
BLACK
6
CONTINUOUS
10
304.673
20
-175.832
11
304.673
21
-174.434
0
LINE
8
BLACK
6
CONTINUOUS
10
304.673
20
-174.434
11
305.562
21
-174.434
0
LINE
8
BLACK
6
CONTINUOUS
10
305.562
20
-174.434
11
305.562
21
-175.832
0
LINE
8
BLACK
6
CONTINUOUS
10
307.467
20
-175.832
11
306.578
21
-175.832
0
LINE
8
BLACK
6
CONTINUOUS
10
306.578
20
-175.832
11
306.578
21
-174.434
0
LINE
8
BLACK
6
CONTINUOUS
10
306.578
20
-174.434
11
307.467
21
-174.434
0
LINE
8
BLACK
6
CONTINUOUS
10
307.467
20
-174.434
11
307.467
21
-175.832
0
LINE
8
BLACK
6
CONTINUOUS
10
248.412
20
-171.386
11
247.523
21
-171.386
0
LINE
8
BLACK
6
CONTINUOUS
10
247.523
20
-171.386
11
247.523
21
-169.989
0
LINE
8
BLACK
6
CONTINUOUS
10
247.523
20
-169.989
11
248.412
21
-169.989
0
LINE
8
BLACK
6
CONTINUOUS
10
248.412
20
-169.989
11
248.412
21
-171.386
0
LINE
8
BLACK
6
CONTINUOUS
10
250.317
20
-171.386
11
249.428
21
-171.386
0
LINE
8
BLACK
6
CONTINUOUS
10
249.428
20
-171.386
11
249.428
21
-169.989
0
LINE
8
BLACK
6
CONTINUOUS
10
249.428
20
-169.989
11
250.317
21
-169.989
0
LINE
8
BLACK
6
CONTINUOUS
10
250.317
20
-169.989
11
250.317
21
-171.386
0
LINE
8
BLACK
6
CONTINUOUS
10
307.467
20
-171.386
11
306.578
21
-171.386
0
LINE
8
BLACK
6
CONTINUOUS
10
306.578
20
-171.386
11
306.578
21
-169.989
0
LINE
8
BLACK
6
CONTINUOUS
10
306.578
20
-169.989
11
307.467
21
-169.989
0
LINE
8
BLACK
6
CONTINUOUS
10
307.467
20
-169.989
11
307.467
21
-171.386
0
LINE
8
BLACK
6
CONTINUOUS
10
305.562
20
-171.386
11
304.673
21
-171.386
0
LINE
8
BLACK
6
CONTINUOUS
10
304.673
20
-171.386
11
304.673
21
-169.989
0
LINE
8
BLACK
6
CONTINUOUS
10
304.673
20
-169.989
11
305.562
21
-169.989
0
LINE
8
BLACK
6
CONTINUOUS
10
305.562
20
-169.989
11
305.562
21
-171.386
0
LINE
8
BLACK
6
CONTINUOUS
10
288.417
20
-171.386
11
287.528
21
-171.386
0
LINE
8
BLACK
6
CONTINUOUS
10
287.528
20
-171.386
11
287.528
21
-169.989
0
LINE
8
BLACK
6
CONTINUOUS
10
287.528
20
-169.989
11
288.417
21
-169.989
0
LINE
8
BLACK
6
CONTINUOUS
10
288.417
20
-169.989
11
288.417
21
-171.386
0
LINE
8
BLACK
6
CONTINUOUS
10
286.512
20
-171.386
11
285.623
21
-171.386
0
LINE
8
BLACK
6
CONTINUOUS
10
285.623
20
-171.386
11
285.623
21
-169.989
0
LINE
8
BLACK
6
CONTINUOUS
10
285.623
20
-169.989
11
286.512
21
-169.989
0
LINE
8
BLACK
6
CONTINUOUS
10
286.512
20
-169.989
11
286.512
21
-171.386
0
LINE
8
BLACK
6
CONTINUOUS
10
269.367
20
-171.386
11
268.478
21
-171.386
0
LINE
8
BLACK
6
CONTINUOUS
10
268.478
20
-171.386
11
268.478
21
-169.989
0
LINE
8
BLACK
6
CONTINUOUS
10
268.478
20
-169.989
11
269.367
21
-169.989
0
LINE
8
BLACK
6
CONTINUOUS
10
269.367
20
-169.989
11
269.367
21
-171.386
0
LINE
8
BLACK
6
CONTINUOUS
10
267.462
20
-171.386
11
266.573
21
-171.386
0
LINE
8
BLACK
6
CONTINUOUS
10
266.573
20
-171.386
11
266.573
21
-169.989
0
LINE
8
BLACK
6
CONTINUOUS
10
266.573
20
-169.989
11
267.462
21
-169.989
0
LINE
8
BLACK
6
CONTINUOUS
10
267.462
20
-169.989
11
267.462
21
-171.386
0
LINE
8
BLACK
6
CONTINUOUS
10
305.562
20
-156.781
11
304.673
21
-156.781
0
LINE
8
BLACK
6
CONTINUOUS
10
304.673
20
-156.781
11
304.673
21
-155.385
0
LINE
8
BLACK
6
CONTINUOUS
10
304.673
20
-155.385
11
305.562
21
-155.385
0
LINE
8
BLACK
6
CONTINUOUS
10
305.562
20
-155.385
11
305.562
21
-156.781
0
LINE
8
BLACK
6
CONTINUOUS
10
307.467
20
-156.781
11
306.578
21
-156.781
0
LINE
8
BLACK
6
CONTINUOUS
10
306.578
20
-156.781
11
306.578
21
-155.385
0
LINE
8
BLACK
6
CONTINUOUS
10
306.578
20
-155.385
11
307.467
21
-155.385
0
LINE
8
BLACK
6
CONTINUOUS
10
307.467
20
-155.385
11
307.467
21
-156.781
0
LINE
8
BLACK
6
CONTINUOUS
10
286.512
20
-156.781
11
285.623
21
-156.781
0
LINE
8
BLACK
6
CONTINUOUS
10
285.623
20
-156.781
11
285.623
21
-155.385
0
LINE
8
BLACK
6
CONTINUOUS
10
285.623
20
-155.385
11
286.512
21
-155.385
0
LINE
8
BLACK
6
CONTINUOUS
10
286.512
20
-155.385
11
286.512
21
-156.781
0
LINE
8
BLACK
6
CONTINUOUS
10
288.417
20
-156.781
11
287.528
21
-156.781
0
LINE
8
BLACK
6
CONTINUOUS
10
287.528
20
-156.781
11
287.528
21
-155.385
0
LINE
8
BLACK
6
CONTINUOUS
10
287.528
20
-155.385
11
288.417
21
-155.385
0
LINE
8
BLACK
6
CONTINUOUS
10
288.417
20
-155.385
11
288.417
21
-156.781
0
LINE
8
BLACK
6
CONTINUOUS
10
250.317
20
-156.781
11
249.428
21
-156.781
0
LINE
8
BLACK
6
CONTINUOUS
10
249.428
20
-156.781
11
249.428
21
-155.385
0
LINE
8
BLACK
6
CONTINUOUS
10
249.428
20
-155.385
11
250.317
21
-155.385
0
LINE
8
BLACK
6
CONTINUOUS
10
250.317
20
-155.385
11
250.317
21
-156.781
0
LINE
8
BLACK
6
CONTINUOUS
10
269.367
20
-156.781
11
268.478
21
-156.781
0
LINE
8
BLACK
6
CONTINUOUS
10
268.478
20
-156.781
11
268.478
21
-155.385
0
LINE
8
BLACK
6
CONTINUOUS
10
268.478
20
-155.385
11
269.367
21
-155.385
0
LINE
8
BLACK
6
CONTINUOUS
10
269.367
20
-155.385
11
269.367
21
-156.781
0
LINE
8
BLACK
6
CONTINUOUS
10
267.462
20
-156.781
11
266.573
21
-156.781
0
LINE
8
BLACK
6
CONTINUOUS
10
266.573
20
-156.781
11
266.573
21
-155.385
0
LINE
8
BLACK
6
CONTINUOUS
10
266.573
20
-155.385
11
267.462
21
-155.385
0
LINE
8
BLACK
6
CONTINUOUS
10
267.462
20
-155.385
11
267.462
21
-156.781
0
LINE
8
BLACK
6
CONTINUOUS
10
248.412
20
-156.781
11
247.523
21
-156.781
0
LINE
8
BLACK
6
CONTINUOUS
10
247.523
20
-156.781
11
247.523
21
-155.385
0
LINE
8
BLACK
6
CONTINUOUS
10
247.523
20
-155.385
11
248.412
21
-155.385
0
LINE
8
BLACK
6
CONTINUOUS
10
248.412
20
-155.385
11
248.412
21
-156.781
0
LINE
8
BLACK
6
CONTINUOUS
10
307.467
20
-152.337
11
306.578
21
-152.337
0
LINE
8
BLACK
6
CONTINUOUS
10
306.578
20
-152.337
11
306.578
21
-150.939
0
LINE
8
BLACK
6
CONTINUOUS
10
306.578
20
-150.939
11
307.467
21
-150.939
0
LINE
8
BLACK
6
CONTINUOUS
10
307.467
20
-150.939
11
307.467
21
-152.337
0
LINE
8
BLACK
6
CONTINUOUS
10
305.562
20
-152.337
11
304.673
21
-152.337
0
LINE
8
BLACK
6
CONTINUOUS
10
304.673
20
-152.337
11
304.673
21
-150.939
0
LINE
8
BLACK
6
CONTINUOUS
10
304.673
20
-150.939
11
305.562
21
-150.939
0
LINE
8
BLACK
6
CONTINUOUS
10
305.562
20
-150.939
11
305.562
21
-152.337
0
LINE
8
BLACK
6
CONTINUOUS
10
250.317
20
-152.337
11
249.428
21
-152.337
0
LINE
8
BLACK
6
CONTINUOUS
10
249.428
20
-152.337
11
249.428
21
-150.939
0
LINE
8
BLACK
6
CONTINUOUS
10
249.428
20
-150.939
11
250.317
21
-150.939
0
LINE
8
BLACK
6
CONTINUOUS
10
250.317
20
-150.939
11
250.317
21
-152.337
0
LINE
8
BLACK
6
CONTINUOUS
10
288.417
20
-152.337
11
287.528
21
-152.337
0
LINE
8
BLACK
6
CONTINUOUS
10
287.528
20
-152.337
11
287.528
21
-150.939
0
LINE
8
BLACK
6
CONTINUOUS
10
287.528
20
-150.939
11
288.417
21
-150.939
0
LINE
8
BLACK
6
CONTINUOUS
10
288.417
20
-150.939
11
288.417
21
-152.337
0
LINE
8
BLACK
6
CONTINUOUS
10
286.512
20
-152.337
11
285.623
21
-152.337
0
LINE
8
BLACK
6
CONTINUOUS
10
285.623
20
-152.337
11
285.623
21
-150.939
0
LINE
8
BLACK
6
CONTINUOUS
10
285.623
20
-150.939
11
286.512
21
-150.939
0
LINE
8
BLACK
6
CONTINUOUS
10
286.512
20
-150.939
11
286.512
21
-152.337
0
LINE
8
BLACK
6
CONTINUOUS
10
269.367
20
-152.337
11
268.478
21
-152.337
0
LINE
8
BLACK
6
CONTINUOUS
10
268.478
20
-152.337
11
268.478
21
-150.939
0
LINE
8
BLACK
6
CONTINUOUS
10
268.478
20
-150.939
11
269.367
21
-150.939
0
LINE
8
BLACK
6
CONTINUOUS
10
269.367
20
-150.939
11
269.367
21
-152.337
0
LINE
8
BLACK
6
CONTINUOUS
10
267.462
20
-152.337
11
266.573
21
-152.337
0
LINE
8
BLACK
6
CONTINUOUS
10
266.573
20
-152.337
11
266.573
21
-150.939
0
LINE
8
BLACK
6
CONTINUOUS
10
266.573
20
-150.939
11
267.462
21
-150.939
0
LINE
8
BLACK
6
CONTINUOUS
10
267.462
20
-150.939
11
267.462
21
-152.337
0
LINE
8
BLACK
6
CONTINUOUS
10
248.412
20
-152.337
11
247.523
21
-152.337
0
LINE
8
BLACK
6
CONTINUOUS
10
247.523
20
-152.337
11
247.523
21
-150.939
0
LINE
8
BLACK
6
CONTINUOUS
10
247.523
20
-150.939
11
248.412
21
-150.939
0
LINE
8
BLACK
6
CONTINUOUS
10
248.412
20
-150.939
11
248.412
21
-152.337
0
LINE
8
BLACK
6
CONTINUOUS
10
278.253
20
-147.11
11
277.453
21
-147.11
0
LINE
8
BLACK
6
CONTINUOUS
10
277.453
20
-147.11
11
277.453
21
-145.21
0
LINE
8
BLACK
6
CONTINUOUS
10
277.453
20
-145.21
11
278.253
21
-145.21
0
LINE
8
BLACK
6
CONTINUOUS
10
278.253
20
-145.21
11
278.253
21
-147.11
0
LINE
8
BLACK
6
CONTINUOUS
10
277.303
20
-144.11
11
276.503
21
-144.11
0
LINE
8
BLACK
6
CONTINUOUS
10
276.503
20
-144.11
11
276.503
21
-142.21
0
LINE
8
BLACK
6
CONTINUOUS
10
276.503
20
-142.21
11
277.303
21
-142.21
0
LINE
8
BLACK
6
CONTINUOUS
10
277.303
20
-142.21
11
277.303
21
-144.11
0
LINE
8
BLACK
6
CONTINUOUS
10
279.203
20
-144.11
11
278.403
21
-144.11
0
LINE
8
BLACK
6
CONTINUOUS
10
278.403
20
-144.11
11
278.403
21
-142.21
0
LINE
8
BLACK
6
CONTINUOUS
10
278.403
20
-142.21
11
279.203
21
-142.21
0
LINE
8
BLACK
6
CONTINUOUS
10
279.203
20
-142.21
11
279.203
21
-144.11
0
LINE
8
BLACK
6
CONTINUOUS
10
276.051
20
-140.557
11
274.654
21
-140.557
0
LINE
8
BLACK
6
CONTINUOUS
10
274.654
20
-140.557
11
274.654
21
-139.668
0
LINE
8
BLACK
6
CONTINUOUS
10
274.654
20
-139.668
11
276.051
21
-139.668
0
LINE
8
BLACK
6
CONTINUOUS
10
276.051
20
-139.668
11
276.051
21
-140.557
0
LINE
8
BLACK
6
CONTINUOUS
10
276.051
20
-138.652
11
274.654
21
-138.652
0
LINE
8
BLACK
6
CONTINUOUS
10
274.654
20
-138.652
11
274.654
21
-137.763
0
LINE
8
BLACK
6
CONTINUOUS
10
274.654
20
-137.763
11
276.051
21
-137.763
0
LINE
8
BLACK
6
CONTINUOUS
10
276.051
20
-137.763
11
276.051
21
-138.652
0
LINE
8
BLACK
6
CONTINUOUS
10
267.462
20
-137.731
11
266.573
21
-137.731
0
LINE
8
BLACK
6
CONTINUOUS
10
266.573
20
-137.731
11
266.573
21
-136.334
0
LINE
8
BLACK
6
CONTINUOUS
10
266.573
20
-136.334
11
267.462
21
-136.334
0
LINE
8
BLACK
6
CONTINUOUS
10
267.462
20
-136.334
11
267.462
21
-137.731
0
LINE
8
BLACK
6
CONTINUOUS
10
269.367
20
-137.731
11
268.478
21
-137.731
0
LINE
8
BLACK
6
CONTINUOUS
10
268.478
20
-137.731
11
268.478
21
-136.334
0
LINE
8
BLACK
6
CONTINUOUS
10
268.478
20
-136.334
11
269.367
21
-136.334
0
LINE
8
BLACK
6
CONTINUOUS
10
269.367
20
-136.334
11
269.367
21
-137.731
0
LINE
8
BLACK
6
CONTINUOUS
10
286.512
20
-137.731
11
285.623
21
-137.731
0
LINE
8
BLACK
6
CONTINUOUS
10
285.623
20
-137.731
11
285.623
21
-136.334
0
LINE
8
BLACK
6
CONTINUOUS
10
285.623
20
-136.334
11
286.512
21
-136.334
0
LINE
8
BLACK
6
CONTINUOUS
10
286.512
20
-136.334
11
286.512
21
-137.731
0
LINE
8
BLACK
6
CONTINUOUS
10
288.417
20
-137.731
11
287.528
21
-137.731
0
LINE
8
BLACK
6
CONTINUOUS
10
287.528
20
-137.731
11
287.528
21
-136.334
0
LINE
8
BLACK
6
CONTINUOUS
10
287.528
20
-136.334
11
288.417
21
-136.334
0
LINE
8
BLACK
6
CONTINUOUS
10
288.417
20
-136.334
11
288.417
21
-137.731
0
LINE
8
BLACK
6
CONTINUOUS
10
305.562
20
-137.731
11
304.673
21
-137.731
0
LINE
8
BLACK
6
CONTINUOUS
10
304.673
20
-137.731
11
304.673
21
-136.334
0
LINE
8
BLACK
6
CONTINUOUS
10
304.673
20
-136.334
11
305.562
21
-136.334
0
LINE
8
BLACK
6
CONTINUOUS
10
305.562
20
-136.334
11
305.562
21
-137.731
0
LINE
8
BLACK
6
CONTINUOUS
10
307.467
20
-137.731
11
306.578
21
-137.731
0
LINE
8
BLACK
6
CONTINUOUS
10
306.578
20
-137.731
11
306.578
21
-136.334
0
LINE
8
BLACK
6
CONTINUOUS
10
306.578
20
-136.334
11
307.467
21
-136.334
0
LINE
8
BLACK
6
CONTINUOUS
10
307.467
20
-136.334
11
307.467
21
-137.731
0
LINE
8
BLACK
6
CONTINUOUS
10
250.317
20
-137.731
11
249.428
21
-137.731
0
LINE
8
BLACK
6
CONTINUOUS
10
249.428
20
-137.731
11
249.428
21
-136.334
0
LINE
8
BLACK
6
CONTINUOUS
10
249.428
20
-136.334
11
250.317
21
-136.334
0
LINE
8
BLACK
6
CONTINUOUS
10
250.317
20
-136.334
11
250.317
21
-137.731
0
LINE
8
BLACK
6
CONTINUOUS
10
248.412
20
-137.731
11
247.523
21
-137.731
0
LINE
8
BLACK
6
CONTINUOUS
10
247.523
20
-137.731
11
247.523
21
-136.334
0
LINE
8
BLACK
6
CONTINUOUS
10
247.523
20
-136.334
11
248.412
21
-136.334
0
LINE
8
BLACK
6
CONTINUOUS
10
248.412
20
-136.334
11
248.412
21
-137.731
0
LINE
8
BLACK
6
CONTINUOUS
10
269.367
20
-133.286
11
268.478
21
-133.286
0
LINE
8
BLACK
6
CONTINUOUS
10
268.478
20
-133.286
11
268.478
21
-131.889
0
LINE
8
BLACK
6
CONTINUOUS
10
268.478
20
-131.889
11
269.367
21
-131.889
0
LINE
8
BLACK
6
CONTINUOUS
10
269.367
20
-131.889
11
269.367
21
-133.286
0
LINE
8
BLACK
6
CONTINUOUS
10
248.412
20
-133.286
11
247.523
21
-133.286
0
LINE
8
BLACK
6
CONTINUOUS
10
247.523
20
-133.286
11
247.523
21
-131.889
0
LINE
8
BLACK
6
CONTINUOUS
10
247.523
20
-131.889
11
248.412
21
-131.889
0
LINE
8
BLACK
6
CONTINUOUS
10
248.412
20
-131.889
11
248.412
21
-133.286
0
LINE
8
BLACK
6
CONTINUOUS
10
250.317
20
-133.286
11
249.428
21
-133.286
0
LINE
8
BLACK
6
CONTINUOUS
10
249.428
20
-133.286
11
249.428
21
-131.889
0
LINE
8
BLACK
6
CONTINUOUS
10
249.428
20
-131.889
11
250.317
21
-131.889
0
LINE
8
BLACK
6
CONTINUOUS
10
250.317
20
-131.889
11
250.317
21
-133.286
0
LINE
8
BLACK
6
CONTINUOUS
10
305.562
20
-133.286
11
304.673
21
-133.286
0
LINE
8
BLACK
6
CONTINUOUS
10
304.673
20
-133.286
11
304.673
21
-131.889
0
LINE
8
BLACK
6
CONTINUOUS
10
304.673
20
-131.889
11
305.562
21
-131.889
0
LINE
8
BLACK
6
CONTINUOUS
10
305.562
20
-131.889
11
305.562
21
-133.286
0
LINE
8
BLACK
6
CONTINUOUS
10
267.462
20
-133.286
11
266.573
21
-133.286
0
LINE
8
BLACK
6
CONTINUOUS
10
266.573
20
-133.286
11
266.573
21
-131.889
0
LINE
8
BLACK
6
CONTINUOUS
10
266.573
20
-131.889
11
267.462
21
-131.889
0
LINE
8
BLACK
6
CONTINUOUS
10
267.462
20
-131.889
11
267.462
21
-133.286
0
LINE
8
BLACK
6
CONTINUOUS
10
286.512
20
-133.286
11
285.623
21
-133.286
0
LINE
8
BLACK
6
CONTINUOUS
10
285.623
20
-133.286
11
285.623
21
-131.889
0
LINE
8
BLACK
6
CONTINUOUS
10
285.623
20
-131.889
11
286.512
21
-131.889
0
LINE
8
BLACK
6
CONTINUOUS
10
286.512
20
-131.889
11
286.512
21
-133.286
0
LINE
8
BLACK
6
CONTINUOUS
10
288.417
20
-133.286
11
287.528
21
-133.286
0
LINE
8
BLACK
6
CONTINUOUS
10
287.528
20
-133.286
11
287.528
21
-131.889
0
LINE
8
BLACK
6
CONTINUOUS
10
287.528
20
-131.889
11
288.417
21
-131.889
0
LINE
8
BLACK
6
CONTINUOUS
10
288.417
20
-131.889
11
288.417
21
-133.286
0
LINE
8
BLACK
6
CONTINUOUS
10
307.467
20
-133.286
11
306.578
21
-133.286
0
LINE
8
BLACK
6
CONTINUOUS
10
306.578
20
-133.286
11
306.578
21
-131.889
0
LINE
8
BLACK
6
CONTINUOUS
10
306.578
20
-131.889
11
307.467
21
-131.889
0
LINE
8
BLACK
6
CONTINUOUS
10
307.467
20
-131.889
11
307.467
21
-133.286
0
LINE
8
BLACK
6
CONTINUOUS
10
244.737
20
-119.163
11
243.848
21
-119.163
0
LINE
8
BLACK
6
CONTINUOUS
10
243.848
20
-119.163
11
243.848
21
-117.766
0
LINE
8
BLACK
6
CONTINUOUS
10
243.848
20
-117.766
11
244.737
21
-117.766
0
LINE
8
BLACK
6
CONTINUOUS
10
244.737
20
-117.766
11
244.737
21
-119.163
0
LINE
8
BLACK
6
CONTINUOUS
10
246.642
20
-119.163
11
245.753
21
-119.163
0
LINE
8
BLACK
6
CONTINUOUS
10
245.753
20
-119.163
11
245.753
21
-117.766
0
LINE
8
BLACK
6
CONTINUOUS
10
245.753
20
-117.766
11
246.642
21
-117.766
0
LINE
8
BLACK
6
CONTINUOUS
10
246.642
20
-117.766
11
246.642
21
-119.163
0
LINE
8
BLACK
6
CONTINUOUS
10
288.417
20
-118.681
11
287.528
21
-118.681
0
LINE
8
BLACK
6
CONTINUOUS
10
287.528
20
-118.681
11
287.528
21
-117.284
0
LINE
8
BLACK
6
CONTINUOUS
10
287.528
20
-117.284
11
288.417
21
-117.284
0
LINE
8
BLACK
6
CONTINUOUS
10
288.417
20
-117.284
11
288.417
21
-118.681
0
LINE
8
BLACK
6
CONTINUOUS
10
286.512
20
-118.681
11
285.623
21
-118.681
0
LINE
8
BLACK
6
CONTINUOUS
10
285.623
20
-118.681
11
285.623
21
-117.284
0
LINE
8
BLACK
6
CONTINUOUS
10
285.623
20
-117.284
11
286.512
21
-117.284
0
LINE
8
BLACK
6
CONTINUOUS
10
286.512
20
-117.284
11
286.512
21
-118.681
0
LINE
8
BLACK
6
CONTINUOUS
10
307.467
20
-118.681
11
306.578
21
-118.681
0
LINE
8
BLACK
6
CONTINUOUS
10
306.578
20
-118.681
11
306.578
21
-117.284
0
LINE
8
BLACK
6
CONTINUOUS
10
306.578
20
-117.284
11
307.467
21
-117.284
0
LINE
8
BLACK
6
CONTINUOUS
10
307.467
20
-117.284
11
307.467
21
-118.681
0
LINE
8
BLACK
6
CONTINUOUS
10
305.562
20
-118.681
11
304.673
21
-118.681
0
LINE
8
BLACK
6
CONTINUOUS
10
304.673
20
-118.681
11
304.673
21
-117.284
0
LINE
8
BLACK
6
CONTINUOUS
10
304.673
20
-117.284
11
305.562
21
-117.284
0
LINE
8
BLACK
6
CONTINUOUS
10
305.562
20
-117.284
11
305.562
21
-118.681
0
LINE
8
BLACK
6
CONTINUOUS
10
269.367
20
-118.681
11
268.478
21
-118.681
0
LINE
8
BLACK
6
CONTINUOUS
10
268.478
20
-118.681
11
268.478
21
-117.284
0
LINE
8
BLACK
6
CONTINUOUS
10
268.478
20
-117.284
11
269.367
21
-117.284
0
LINE
8
BLACK
6
CONTINUOUS
10
269.367
20
-117.284
11
269.367
21
-118.681
0
LINE
8
BLACK
6
CONTINUOUS
10
267.462
20
-118.681
11
266.573
21
-118.681
0
LINE
8
BLACK
6
CONTINUOUS
10
266.573
20
-118.681
11
266.573
21
-117.284
0
LINE
8
BLACK
6
CONTINUOUS
10
266.573
20
-117.284
11
267.462
21
-117.284
0
LINE
8
BLACK
6
CONTINUOUS
10
267.462
20
-117.284
11
267.462
21
-118.681
0
LINE
8
BLACK
6
CONTINUOUS
10
269.367
20
-114.236
11
268.478
21
-114.236
0
LINE
8
BLACK
6
CONTINUOUS
10
268.478
20
-114.236
11
268.478
21
-112.84
0
LINE
8
BLACK
6
CONTINUOUS
10
268.478
20
-112.84
11
269.367
21
-112.84
0
LINE
8
BLACK
6
CONTINUOUS
10
269.367
20
-112.84
11
269.367
21
-114.236
0
LINE
8
BLACK
6
CONTINUOUS
10
250.317
20
-114.236
11
249.428
21
-114.236
0
LINE
8
BLACK
6
CONTINUOUS
10
249.428
20
-114.236
11
249.428
21
-112.84
0
LINE
8
BLACK
6
CONTINUOUS
10
249.428
20
-112.84
11
250.317
21
-112.84
0
LINE
8
BLACK
6
CONTINUOUS
10
250.317
20
-112.84
11
250.317
21
-114.236
0
LINE
8
BLACK
6
CONTINUOUS
10
248.412
20
-114.236
11
247.523
21
-114.236
0
LINE
8
BLACK
6
CONTINUOUS
10
247.523
20
-114.236
11
247.523
21
-112.84
0
LINE
8
BLACK
6
CONTINUOUS
10
247.523
20
-112.84
11
248.412
21
-112.84
0
LINE
8
BLACK
6
CONTINUOUS
10
248.412
20
-112.84
11
248.412
21
-114.236
0
LINE
8
BLACK
6
CONTINUOUS
10
267.462
20
-114.236
11
266.573
21
-114.236
0
LINE
8
BLACK
6
CONTINUOUS
10
266.573
20
-114.236
11
266.573
21
-112.84
0
LINE
8
BLACK
6
CONTINUOUS
10
266.573
20
-112.84
11
267.462
21
-112.84
0
LINE
8
BLACK
6
CONTINUOUS
10
267.462
20
-112.84
11
267.462
21
-114.236
0
LINE
8
BLACK
6
CONTINUOUS
10
307.467
20
-114.236
11
306.578
21
-114.236
0
LINE
8
BLACK
6
CONTINUOUS
10
306.578
20
-114.236
11
306.578
21
-112.84
0
LINE
8
BLACK
6
CONTINUOUS
10
306.578
20
-112.84
11
307.467
21
-112.84
0
LINE
8
BLACK
6
CONTINUOUS
10
307.467
20
-112.84
11
307.467
21
-114.236
0
LINE
8
BLACK
6
CONTINUOUS
10
286.512
20
-114.236
11
285.623
21
-114.236
0
LINE
8
BLACK
6
CONTINUOUS
10
285.623
20
-114.236
11
285.623
21
-112.84
0
LINE
8
BLACK
6
CONTINUOUS
10
285.623
20
-112.84
11
286.512
21
-112.84
0
LINE
8
BLACK
6
CONTINUOUS
10
286.512
20
-112.84
11
286.512
21
-114.236
0
LINE
8
BLACK
6
CONTINUOUS
10
288.417
20
-114.236
11
287.528
21
-114.236
0
LINE
8
BLACK
6
CONTINUOUS
10
287.528
20
-114.236
11
287.528
21
-112.84
0
LINE
8
BLACK
6
CONTINUOUS
10
287.528
20
-112.84
11
288.417
21
-112.84
0
LINE
8
BLACK
6
CONTINUOUS
10
288.417
20
-112.84
11
288.417
21
-114.236
0
LINE
8
BLACK
6
CONTINUOUS
10
305.562
20
-114.236
11
304.673
21
-114.236
0
LINE
8
BLACK
6
CONTINUOUS
10
304.673
20
-114.236
11
304.673
21
-112.84
0
LINE
8
BLACK
6
CONTINUOUS
10
304.673
20
-112.84
11
305.562
21
-112.84
0
LINE
8
BLACK
6
CONTINUOUS
10
305.562
20
-112.84
11
305.562
21
-114.236
  0
ENDSEC
  0
EOF
