G04 #@! TF.GenerationSoftware,KiCad,Pcbnew,(5.0.1)-3*
G04 #@! TF.CreationDate,2020-04-26T21:35:37+05:00*
G04 #@! TF.ProjectId,amoeba-4x4-keypad,616D6F6562612D3478342D6B65797061,rev?*
G04 #@! TF.SameCoordinates,Original*
G04 #@! TF.FileFunction,Paste,Bot*
G04 #@! TF.FilePolarity,Positive*
%FSLAX46Y46*%
G04 Gerber Fmt 4.6, Leading zero omitted, Abs format (unit mm)*
G04 Created by KiCad (PCBNEW (5.0.1)-3) date 26.04.2020 21:35:37*
%MOMM*%
%LPD*%
G01*
G04 APERTURE LIST*
%ADD10R,1.397000X0.889000*%
%ADD11R,0.889000X1.397000*%
%ADD12R,0.800000X1.900000*%
G04 APERTURE END LIST*
D10*
G04 #@! TO.C,R1*
X275353000Y-138207500D03*
X275353000Y-140112500D03*
G04 #@! TD*
D11*
G04 #@! TO.C,D1*
X267017500Y-175133000D03*
X268922500Y-175133000D03*
G04 #@! TD*
G04 #@! TO.C,R1*
X267017500Y-170688000D03*
X268922500Y-170688000D03*
G04 #@! TD*
G04 #@! TO.C,R1*
X286067500Y-170688000D03*
X287972500Y-170688000D03*
G04 #@! TD*
G04 #@! TO.C,D1*
X286067500Y-175133000D03*
X287972500Y-175133000D03*
G04 #@! TD*
G04 #@! TO.C,D1*
X305117500Y-175133000D03*
X307022500Y-175133000D03*
G04 #@! TD*
G04 #@! TO.C,R1*
X305117500Y-170688000D03*
X307022500Y-170688000D03*
G04 #@! TD*
G04 #@! TO.C,D1*
X249872500Y-175133000D03*
X247967500Y-175133000D03*
G04 #@! TD*
G04 #@! TO.C,R1*
X249872500Y-170688000D03*
X247967500Y-170688000D03*
G04 #@! TD*
G04 #@! TO.C,D1*
X267017500Y-156083000D03*
X268922500Y-156083000D03*
G04 #@! TD*
G04 #@! TO.C,R1*
X267017500Y-151638000D03*
X268922500Y-151638000D03*
G04 #@! TD*
G04 #@! TO.C,R1*
X286067500Y-151638000D03*
X287972500Y-151638000D03*
G04 #@! TD*
G04 #@! TO.C,D1*
X286067500Y-156083000D03*
X287972500Y-156083000D03*
G04 #@! TD*
G04 #@! TO.C,D1*
X305117500Y-156083000D03*
X307022500Y-156083000D03*
G04 #@! TD*
G04 #@! TO.C,R1*
X305117500Y-151638000D03*
X307022500Y-151638000D03*
G04 #@! TD*
G04 #@! TO.C,D1*
X249872500Y-156083000D03*
X247967500Y-156083000D03*
G04 #@! TD*
G04 #@! TO.C,R1*
X249872500Y-151638000D03*
X247967500Y-151638000D03*
G04 #@! TD*
G04 #@! TO.C,D1*
X267017500Y-137033000D03*
X268922500Y-137033000D03*
G04 #@! TD*
G04 #@! TO.C,R1*
X267017500Y-132588000D03*
X268922500Y-132588000D03*
G04 #@! TD*
G04 #@! TO.C,R1*
X286067500Y-132588000D03*
X287972500Y-132588000D03*
G04 #@! TD*
G04 #@! TO.C,D1*
X286067500Y-137033000D03*
X287972500Y-137033000D03*
G04 #@! TD*
G04 #@! TO.C,D1*
X305117500Y-137033000D03*
X307022500Y-137033000D03*
G04 #@! TD*
G04 #@! TO.C,R1*
X305117500Y-132588000D03*
X307022500Y-132588000D03*
G04 #@! TD*
G04 #@! TO.C,D1*
X249872500Y-137033000D03*
X247967500Y-137033000D03*
G04 #@! TD*
G04 #@! TO.C,R1*
X249872500Y-132588000D03*
X247967500Y-132588000D03*
G04 #@! TD*
G04 #@! TO.C,D1*
X307022500Y-117983000D03*
X305117500Y-117983000D03*
G04 #@! TD*
G04 #@! TO.C,R1*
X307022500Y-113538000D03*
X305117500Y-113538000D03*
G04 #@! TD*
G04 #@! TO.C,D1*
X287972500Y-117983000D03*
X286067500Y-117983000D03*
G04 #@! TD*
G04 #@! TO.C,R1*
X287972500Y-113538000D03*
X286067500Y-113538000D03*
G04 #@! TD*
G04 #@! TO.C,D1*
X268922500Y-117983000D03*
X267017500Y-117983000D03*
G04 #@! TD*
G04 #@! TO.C,R1*
X268922500Y-113538000D03*
X267017500Y-113538000D03*
G04 #@! TD*
G04 #@! TO.C,D1*
X244292500Y-118465000D03*
X246197500Y-118465000D03*
G04 #@! TD*
G04 #@! TO.C,R1*
X247967500Y-113538000D03*
X249872500Y-113538000D03*
G04 #@! TD*
D12*
G04 #@! TO.C,Q1*
X277853000Y-146160000D03*
X278803000Y-143160000D03*
X276903000Y-143160000D03*
G04 #@! TD*
M02*
