G04 #@! TF.GenerationSoftware,KiCad,Pcbnew,(5.0.1)-3*
G04 #@! TF.CreationDate,2020-04-26T21:35:37+05:00*
G04 #@! TF.ProjectId,amoeba-4x4-keypad,616D6F6562612D3478342D6B65797061,rev?*
G04 #@! TF.SameCoordinates,Original*
G04 #@! TF.FileFunction,Profile,NP*
%FSLAX46Y46*%
G04 Gerber Fmt 4.6, Leading zero omitted, Abs format (unit mm)*
G04 Created by KiCad (PCBNEW (5.0.1)-3) date 26.04.2020 21:35:37*
%MOMM*%
%LPD*%
G01*
G04 APERTURE LIST*
%ADD10C,0.100000*%
%ADD11C,1.498600*%
G04 APERTURE END LIST*
D10*
X241808000Y-176784000D02*
X313055000Y-176784000D01*
X240665000Y-103378000D02*
X240665000Y-104521000D01*
X314325000Y-103505000D02*
X314325000Y-104648000D01*
X259080000Y-102235000D02*
X313055000Y-102235000D01*
X259080000Y-102235000D02*
X241830000Y-102235000D01*
X315468000Y-172212000D02*
G75*
G03X314325000Y-173355000I0J-1143000D01*
G01*
X313055000Y-176784000D02*
G75*
G03X314325000Y-175514000I0J1270000D01*
G01*
X315468000Y-162941000D02*
G75*
G02X314325000Y-161798000I0J1143000D01*
G01*
X314198000Y-167640000D02*
G75*
G03X315468000Y-168910000I1270000J0D01*
G01*
X315468000Y-172212000D02*
X315468000Y-168910000D01*
X315468000Y-162941000D02*
X315468000Y-166370000D01*
D11*
X270470000Y-163140000D02*
X270510000Y-162560000D01*
X289520000Y-163140000D02*
X289560000Y-162560000D01*
D10*
X314325000Y-175514000D02*
X314325000Y-173355000D01*
X315468000Y-166370000D02*
G75*
G03X314198000Y-167640000I0J-1270000D01*
G01*
D11*
X308570000Y-163140000D02*
X308610000Y-162560000D01*
D10*
X251420000Y-163140000D02*
X251460000Y-162560000D01*
X270470000Y-163140000D02*
X270510000Y-162560000D01*
X289520000Y-163140000D02*
X289560000Y-162560000D01*
X308570000Y-163140000D02*
X308610000Y-162560000D01*
X241808000Y-176784000D02*
G75*
G02X240665000Y-175641000I0J1143000D01*
G01*
X240665000Y-173482000D02*
X240665000Y-175641000D01*
X240665000Y-173482000D02*
G75*
G03X239522000Y-172339000I-1143000J0D01*
G01*
X239522000Y-162814000D02*
G75*
G03X240665000Y-161671000I0J1143000D01*
G01*
X239522000Y-168910000D02*
G75*
G03X240792000Y-167640000I0J1270000D01*
G01*
X240792000Y-167640000D02*
G75*
G03X239522000Y-166370000I-1270000J0D01*
G01*
X239522000Y-168910000D02*
X239522000Y-172339000D01*
D11*
X251420000Y-163140000D02*
X251460000Y-162560000D01*
D10*
X239522000Y-162814000D02*
X239522000Y-166370000D01*
X315468000Y-153162000D02*
G75*
G03X314325000Y-154305000I0J-1143000D01*
G01*
X315468000Y-143891000D02*
G75*
G02X314325000Y-142748000I0J1143000D01*
G01*
X314198000Y-148590000D02*
G75*
G03X315468000Y-149860000I1270000J0D01*
G01*
X315468000Y-153162000D02*
X315468000Y-149860000D01*
X315468000Y-143891000D02*
X315468000Y-147320000D01*
D11*
X270470000Y-144090000D02*
X270510000Y-143510000D01*
X289520000Y-144090000D02*
X289560000Y-143510000D01*
D10*
X314325000Y-161798000D02*
X314325000Y-154305000D01*
X315468000Y-147320000D02*
G75*
G03X314198000Y-148590000I0J-1270000D01*
G01*
D11*
X308570000Y-144090000D02*
X308610000Y-143510000D01*
D10*
X251420000Y-144090000D02*
X251460000Y-143510000D01*
X270470000Y-144090000D02*
X270510000Y-143510000D01*
X289520000Y-144090000D02*
X289560000Y-143510000D01*
X308570000Y-144090000D02*
X308610000Y-143510000D01*
X240665000Y-154432000D02*
X240665000Y-161671000D01*
X240665000Y-154432000D02*
G75*
G03X239522000Y-153289000I-1143000J0D01*
G01*
X239522000Y-143764000D02*
G75*
G03X240665000Y-142621000I0J1143000D01*
G01*
X239522000Y-149860000D02*
G75*
G03X240792000Y-148590000I0J1270000D01*
G01*
X240792000Y-148590000D02*
G75*
G03X239522000Y-147320000I-1270000J0D01*
G01*
X239522000Y-149860000D02*
X239522000Y-153289000D01*
D11*
X251420000Y-144090000D02*
X251460000Y-143510000D01*
D10*
X239522000Y-143764000D02*
X239522000Y-147320000D01*
X315468000Y-134112000D02*
G75*
G03X314325000Y-135255000I0J-1143000D01*
G01*
X315468000Y-124841000D02*
G75*
G02X314325000Y-123698000I0J1143000D01*
G01*
X314198000Y-129540000D02*
G75*
G03X315468000Y-130810000I1270000J0D01*
G01*
X315468000Y-134112000D02*
X315468000Y-130810000D01*
X315468000Y-124841000D02*
X315468000Y-128270000D01*
D11*
X270470000Y-125040000D02*
X270510000Y-124460000D01*
X289520000Y-125040000D02*
X289560000Y-124460000D01*
D10*
X314325000Y-142748000D02*
X314325000Y-135255000D01*
X315468000Y-128270000D02*
G75*
G03X314198000Y-129540000I0J-1270000D01*
G01*
D11*
X308570000Y-125040000D02*
X308610000Y-124460000D01*
D10*
X251420000Y-125040000D02*
X251460000Y-124460000D01*
X270470000Y-125040000D02*
X270510000Y-124460000D01*
X289520000Y-125040000D02*
X289560000Y-124460000D01*
X308570000Y-125040000D02*
X308610000Y-124460000D01*
X240665000Y-135382000D02*
X240665000Y-142621000D01*
X240665000Y-135382000D02*
G75*
G03X239522000Y-134239000I-1143000J0D01*
G01*
X239522000Y-124714000D02*
G75*
G03X240665000Y-123571000I0J1143000D01*
G01*
X239522000Y-130810000D02*
G75*
G03X240792000Y-129540000I0J1270000D01*
G01*
X240792000Y-129540000D02*
G75*
G03X239522000Y-128270000I-1270000J0D01*
G01*
X239522000Y-130810000D02*
X239522000Y-134239000D01*
D11*
X251420000Y-125040000D02*
X251460000Y-124460000D01*
D10*
X239522000Y-124714000D02*
X239522000Y-128270000D01*
X251420000Y-105990000D02*
X251460000Y-105410000D01*
X270470000Y-105990000D02*
X270510000Y-105410000D01*
X289520000Y-105990000D02*
X289560000Y-105410000D01*
X308570000Y-105990000D02*
X308610000Y-105410000D01*
X315468000Y-115062000D02*
G75*
G03X314325000Y-116205000I0J-1143000D01*
G01*
X314325000Y-123698000D02*
X314325000Y-116205000D01*
X313055000Y-102235000D02*
G75*
G02X314325000Y-103505000I0J-1270000D01*
G01*
X315468000Y-105791000D02*
G75*
G02X314325000Y-104648000I0J1143000D01*
G01*
X315468000Y-109220000D02*
G75*
G03X314198000Y-110490000I0J-1270000D01*
G01*
X314198000Y-110490000D02*
G75*
G03X315468000Y-111760000I1270000J0D01*
G01*
X315468000Y-115062000D02*
X315468000Y-111760000D01*
D11*
X308570000Y-105990000D02*
X308610000Y-105410000D01*
D10*
X315468000Y-105791000D02*
X315468000Y-109220000D01*
D11*
X289520000Y-105990000D02*
X289560000Y-105410000D01*
X270470000Y-105990000D02*
X270510000Y-105410000D01*
D10*
X239522000Y-105664000D02*
X239522000Y-109220000D01*
D11*
X251420000Y-105990000D02*
X251460000Y-105410000D01*
D10*
X239522000Y-111760000D02*
X239522000Y-115189000D01*
X239522000Y-111760000D02*
G75*
G03X240792000Y-110490000I0J1270000D01*
G01*
X240792000Y-110490000D02*
G75*
G03X239522000Y-109220000I-1270000J0D01*
G01*
X239522000Y-105664000D02*
G75*
G03X240665000Y-104521000I0J1143000D01*
G01*
X241829996Y-102235212D02*
G75*
G03X240665000Y-103378000I-21996J-1142788D01*
G01*
X240665000Y-116332000D02*
G75*
G03X239522000Y-115189000I-1143000J0D01*
G01*
X240665000Y-116332000D02*
X240665000Y-123571000D01*
M02*
