G04 #@! TF.GenerationSoftware,KiCad,Pcbnew,(5.0.1)-3*
G04 #@! TF.CreationDate,2020-04-26T21:35:37+05:00*
G04 #@! TF.ProjectId,amoeba-4x4-keypad,616D6F6562612D3478342D6B65797061,rev?*
G04 #@! TF.SameCoordinates,Original*
G04 #@! TF.FileFunction,Legend,Bot*
G04 #@! TF.FilePolarity,Positive*
%FSLAX46Y46*%
G04 Gerber Fmt 4.6, Leading zero omitted, Abs format (unit mm)*
G04 Created by KiCad (PCBNEW (5.0.1)-3) date 26.04.2020 21:35:37*
%MOMM*%
%LPD*%
G01*
G04 APERTURE LIST*
%ADD10C,0.187500*%
%ADD11C,0.100000*%
%ADD12C,0.150000*%
%ADD13C,0.099060*%
%ADD14C,0.300000*%
%ADD15C,0.200000*%
%ADD16C,0.381000*%
%ADD17C,0.304800*%
%ADD18C,0.120000*%
G04 APERTURE END LIST*
D10*
X270323571Y-120573035D02*
X270323571Y-119823035D01*
X270037857Y-119823035D01*
X269966428Y-119858750D01*
X269930714Y-119894464D01*
X269895000Y-119965892D01*
X269895000Y-120073035D01*
X269930714Y-120144464D01*
X269966428Y-120180178D01*
X270037857Y-120215892D01*
X270323571Y-120215892D01*
X269573571Y-120573035D02*
X269573571Y-120073035D01*
X269573571Y-120215892D02*
X269537857Y-120144464D01*
X269502142Y-120108750D01*
X269430714Y-120073035D01*
X269359285Y-120073035D01*
X269002142Y-120573035D02*
X269073571Y-120537321D01*
X269109285Y-120501607D01*
X269145000Y-120430178D01*
X269145000Y-120215892D01*
X269109285Y-120144464D01*
X269073571Y-120108750D01*
X269002142Y-120073035D01*
X268895000Y-120073035D01*
X268823571Y-120108750D01*
X268787857Y-120144464D01*
X268752142Y-120215892D01*
X268752142Y-120430178D01*
X268787857Y-120501607D01*
X268823571Y-120537321D01*
X268895000Y-120573035D01*
X269002142Y-120573035D01*
X267859285Y-120573035D02*
X267859285Y-119823035D01*
X267609285Y-120358750D01*
X267359285Y-119823035D01*
X267359285Y-120573035D01*
X267002142Y-120573035D02*
X267002142Y-120073035D01*
X267002142Y-119823035D02*
X267037857Y-119858750D01*
X267002142Y-119894464D01*
X266966428Y-119858750D01*
X267002142Y-119823035D01*
X267002142Y-119894464D01*
X266323571Y-120537321D02*
X266395000Y-120573035D01*
X266537857Y-120573035D01*
X266609285Y-120537321D01*
X266645000Y-120501607D01*
X266680714Y-120430178D01*
X266680714Y-120215892D01*
X266645000Y-120144464D01*
X266609285Y-120108750D01*
X266537857Y-120073035D01*
X266395000Y-120073035D01*
X266323571Y-120108750D01*
X266002142Y-120573035D02*
X266002142Y-120073035D01*
X266002142Y-120215892D02*
X265966428Y-120144464D01*
X265930714Y-120108750D01*
X265859285Y-120073035D01*
X265787857Y-120073035D01*
X265430714Y-120573035D02*
X265502142Y-120537321D01*
X265537857Y-120501607D01*
X265573571Y-120430178D01*
X265573571Y-120215892D01*
X265537857Y-120144464D01*
X265502142Y-120108750D01*
X265430714Y-120073035D01*
X265323571Y-120073035D01*
X265252142Y-120108750D01*
X265216428Y-120144464D01*
X265180714Y-120215892D01*
X265180714Y-120430178D01*
X265216428Y-120501607D01*
X265252142Y-120537321D01*
X265323571Y-120573035D01*
X265430714Y-120573035D01*
X270912857Y-121885535D02*
X270984285Y-121849821D01*
X271020000Y-121814107D01*
X271055714Y-121742678D01*
X271055714Y-121528392D01*
X271020000Y-121456964D01*
X270984285Y-121421250D01*
X270912857Y-121385535D01*
X270805714Y-121385535D01*
X270734285Y-121421250D01*
X270698571Y-121456964D01*
X270662857Y-121528392D01*
X270662857Y-121742678D01*
X270698571Y-121814107D01*
X270734285Y-121849821D01*
X270805714Y-121885535D01*
X270912857Y-121885535D01*
X270341428Y-121385535D02*
X270341428Y-121885535D01*
X270341428Y-121456964D02*
X270305714Y-121421250D01*
X270234285Y-121385535D01*
X270127142Y-121385535D01*
X270055714Y-121421250D01*
X270020000Y-121492678D01*
X270020000Y-121885535D01*
X269198571Y-121385535D02*
X268912857Y-121385535D01*
X269091428Y-121135535D02*
X269091428Y-121778392D01*
X269055714Y-121849821D01*
X268984285Y-121885535D01*
X268912857Y-121885535D01*
X268662857Y-121885535D02*
X268662857Y-121135535D01*
X268341428Y-121885535D02*
X268341428Y-121492678D01*
X268377142Y-121421250D01*
X268448571Y-121385535D01*
X268555714Y-121385535D01*
X268627142Y-121421250D01*
X268662857Y-121456964D01*
X267984285Y-121885535D02*
X267984285Y-121385535D01*
X267984285Y-121135535D02*
X268020000Y-121171250D01*
X267984285Y-121206964D01*
X267948571Y-121171250D01*
X267984285Y-121135535D01*
X267984285Y-121206964D01*
X267662857Y-121849821D02*
X267591428Y-121885535D01*
X267448571Y-121885535D01*
X267377142Y-121849821D01*
X267341428Y-121778392D01*
X267341428Y-121742678D01*
X267377142Y-121671250D01*
X267448571Y-121635535D01*
X267555714Y-121635535D01*
X267627142Y-121599821D01*
X267662857Y-121528392D01*
X267662857Y-121492678D01*
X267627142Y-121421250D01*
X267555714Y-121385535D01*
X267448571Y-121385535D01*
X267377142Y-121421250D01*
X266484285Y-121849821D02*
X266412857Y-121885535D01*
X266270000Y-121885535D01*
X266198571Y-121849821D01*
X266162857Y-121778392D01*
X266162857Y-121742678D01*
X266198571Y-121671250D01*
X266270000Y-121635535D01*
X266377142Y-121635535D01*
X266448571Y-121599821D01*
X266484285Y-121528392D01*
X266484285Y-121492678D01*
X266448571Y-121421250D01*
X266377142Y-121385535D01*
X266270000Y-121385535D01*
X266198571Y-121421250D01*
X265841428Y-121885535D02*
X265841428Y-121385535D01*
X265841428Y-121135535D02*
X265877142Y-121171250D01*
X265841428Y-121206964D01*
X265805714Y-121171250D01*
X265841428Y-121135535D01*
X265841428Y-121206964D01*
X265162857Y-121885535D02*
X265162857Y-121135535D01*
X265162857Y-121849821D02*
X265234285Y-121885535D01*
X265377142Y-121885535D01*
X265448571Y-121849821D01*
X265484285Y-121814107D01*
X265520000Y-121742678D01*
X265520000Y-121528392D01*
X265484285Y-121456964D01*
X265448571Y-121421250D01*
X265377142Y-121385535D01*
X265234285Y-121385535D01*
X265162857Y-121421250D01*
X264520000Y-121849821D02*
X264591428Y-121885535D01*
X264734285Y-121885535D01*
X264805714Y-121849821D01*
X264841428Y-121778392D01*
X264841428Y-121492678D01*
X264805714Y-121421250D01*
X264734285Y-121385535D01*
X264591428Y-121385535D01*
X264520000Y-121421250D01*
X264484285Y-121492678D01*
X264484285Y-121564107D01*
X264841428Y-121635535D01*
D11*
X300503482Y-136966116D02*
X300503482Y-134966116D01*
X294503482Y-133966116D02*
X292503482Y-134966116D01*
X300503482Y-134966116D02*
X298503482Y-133966116D01*
X290503482Y-138466116D02*
X292503482Y-137466116D01*
X292503482Y-134966116D02*
X294503482Y-135966116D01*
X294503482Y-135966116D02*
X292503482Y-136966116D01*
X292503482Y-134966116D02*
X292503482Y-136966116D01*
X296503482Y-134966116D02*
X294503482Y-133966116D01*
X298503482Y-133966116D02*
X296503482Y-134966116D01*
X302503482Y-138466116D02*
X300503482Y-137466116D01*
X300503482Y-136966116D02*
X298503482Y-135966116D01*
X298503482Y-137966116D02*
X300503482Y-136966116D01*
X294503482Y-142966116D02*
X294503482Y-145466116D01*
X296503482Y-136966116D02*
X298503482Y-137966116D01*
X298503482Y-145466116D02*
X296503482Y-144466116D01*
X290503482Y-140966116D02*
X290503482Y-138466116D01*
X300503482Y-136966116D02*
X300503482Y-139466116D01*
X296503482Y-143966116D02*
X294503482Y-142966116D01*
X298503482Y-145466116D02*
X298503482Y-142966116D01*
X292503482Y-136966116D02*
X294503482Y-137966116D01*
X296503482Y-144466116D02*
X294503482Y-145466116D01*
X298503482Y-140466116D02*
X296503482Y-141466116D01*
X292503482Y-139466116D02*
X292503482Y-136966116D01*
X290503482Y-138466116D02*
X292503482Y-139466116D01*
X296503482Y-139466116D02*
X296503482Y-136966116D01*
X292503482Y-141966116D02*
X290503482Y-140966116D01*
X296503482Y-139466116D02*
X294503482Y-140466116D01*
X294503482Y-145466116D02*
X292503482Y-144466116D01*
X300503482Y-144466116D02*
X298503482Y-145466116D01*
X300503482Y-141966116D02*
X300503482Y-144466116D01*
X302503482Y-138466116D02*
X302503482Y-140966116D01*
X300503482Y-139466116D02*
X302503482Y-138466116D01*
X294503482Y-140466116D02*
X294503482Y-137966116D01*
X298503482Y-135966116D02*
X300503482Y-134966116D01*
X292503482Y-144466116D02*
X292503482Y-141966116D01*
X302503482Y-140966116D02*
X300503482Y-141966116D01*
X294503482Y-137966116D02*
X296503482Y-136966116D01*
X298503482Y-142966116D02*
X296503482Y-143966116D01*
X298503482Y-140466116D02*
X296503482Y-139466116D01*
X296503482Y-143966116D02*
X296503482Y-144466116D01*
X298503482Y-137966116D02*
X298503482Y-140466116D01*
X296503482Y-141466116D02*
X294503482Y-140466116D01*
D12*
X257255857Y-105652857D02*
X257284428Y-105738571D01*
X257284428Y-105881428D01*
X257255857Y-105938571D01*
X257227285Y-105967142D01*
X257170142Y-105995714D01*
X257113000Y-105995714D01*
X257055857Y-105967142D01*
X257027285Y-105938571D01*
X256998714Y-105881428D01*
X256970142Y-105767142D01*
X256941571Y-105710000D01*
X256913000Y-105681428D01*
X256855857Y-105652857D01*
X256798714Y-105652857D01*
X256741571Y-105681428D01*
X256713000Y-105710000D01*
X256684428Y-105767142D01*
X256684428Y-105910000D01*
X256713000Y-105995714D01*
X256684428Y-106195714D02*
X257284428Y-106338571D01*
X256855857Y-106452857D01*
X257284428Y-106567142D01*
X256684428Y-106710000D01*
X257341571Y-106795714D02*
X257341571Y-107252857D01*
X257284428Y-107395714D02*
X256684428Y-107395714D01*
X256684428Y-107624285D01*
X256713000Y-107681428D01*
X256741571Y-107710000D01*
X256798714Y-107738571D01*
X256884428Y-107738571D01*
X256941571Y-107710000D01*
X256970142Y-107681428D01*
X256998714Y-107624285D01*
X256998714Y-107395714D01*
X256684428Y-107995714D02*
X257170142Y-107995714D01*
X257227285Y-108024285D01*
X257255857Y-108052857D01*
X257284428Y-108110000D01*
X257284428Y-108224285D01*
X257255857Y-108281428D01*
X257227285Y-108310000D01*
X257170142Y-108338571D01*
X256684428Y-108338571D01*
X257255857Y-108595714D02*
X257284428Y-108681428D01*
X257284428Y-108824285D01*
X257255857Y-108881428D01*
X257227285Y-108910000D01*
X257170142Y-108938571D01*
X257113000Y-108938571D01*
X257055857Y-108910000D01*
X257027285Y-108881428D01*
X256998714Y-108824285D01*
X256970142Y-108710000D01*
X256941571Y-108652857D01*
X256913000Y-108624285D01*
X256855857Y-108595714D01*
X256798714Y-108595714D01*
X256741571Y-108624285D01*
X256713000Y-108652857D01*
X256684428Y-108710000D01*
X256684428Y-108852857D01*
X256713000Y-108938571D01*
X257284428Y-109195714D02*
X256684428Y-109195714D01*
X256970142Y-109195714D02*
X256970142Y-109538571D01*
X257284428Y-109538571D02*
X256684428Y-109538571D01*
X255243316Y-104674165D02*
X255243316Y-110674165D01*
X255243316Y-104674165D02*
X255493316Y-104674165D01*
X255243316Y-110674165D02*
X255493316Y-110674165D01*
X258743316Y-104674165D02*
X258493316Y-104674165D01*
X258743316Y-110674165D02*
X258493316Y-110674165D01*
X258743316Y-104674165D02*
X258743316Y-110674165D01*
X248654285Y-113872928D02*
X248854285Y-113587214D01*
X248997142Y-113872928D02*
X248997142Y-113272928D01*
X248768571Y-113272928D01*
X248711428Y-113301500D01*
X248682857Y-113330071D01*
X248654285Y-113387214D01*
X248654285Y-113472928D01*
X248682857Y-113530071D01*
X248711428Y-113558642D01*
X248768571Y-113587214D01*
X248997142Y-113587214D01*
D13*
G04 #@! TO.C,R1*
X274591000Y-137636000D02*
X274591000Y-138652000D01*
X276115000Y-137636000D02*
X274591000Y-137636000D01*
X276115000Y-138652000D02*
X276115000Y-137636000D01*
X276115000Y-140684000D02*
X276115000Y-139668000D01*
X274591000Y-140684000D02*
X276115000Y-140684000D01*
X274591000Y-139668000D02*
X274591000Y-140684000D01*
X274718000Y-140811000D02*
G75*
G03X274718000Y-140811000I-127000J0D01*
G01*
D14*
G04 #@! TO.C,D1*
X268497000Y-176149000D02*
X269621000Y-176149000D01*
X269621000Y-176149000D02*
X269621000Y-174117000D01*
X269621000Y-174117000D02*
X268497000Y-174117000D01*
X267416000Y-176149000D02*
X266319000Y-176149000D01*
X266319000Y-176149000D02*
X266319000Y-174117000D01*
X266319000Y-174117000D02*
X267416000Y-174117000D01*
D15*
X268224000Y-175514000D02*
X268224000Y-174752000D01*
X267779500Y-175514000D02*
X267779500Y-174752000D01*
X267779500Y-174752000D02*
X268160500Y-175133000D01*
X268160500Y-175133000D02*
X267779500Y-175514000D01*
D16*
G04 #@! TO.C,R0*
X264795000Y-171450000D02*
X271145000Y-171450000D01*
X271145000Y-171450000D02*
X271145000Y-168910000D01*
X271145000Y-168910000D02*
X264795000Y-168910000D01*
X264795000Y-168910000D02*
X264795000Y-171450000D01*
X273050000Y-170180000D02*
X271145000Y-170180000D01*
X262890000Y-170180000D02*
X264795000Y-170180000D01*
D17*
G04 #@! TO.C,D0*
X271780000Y-172720000D02*
X271018000Y-172720000D01*
X271018000Y-172720000D02*
X271018000Y-173736000D01*
X271018000Y-173736000D02*
X264922000Y-173736000D01*
X264922000Y-173736000D02*
X264922000Y-172720000D01*
X264922000Y-172720000D02*
X264160000Y-172720000D01*
X264922000Y-172720000D02*
X264922000Y-171704000D01*
X264922000Y-171704000D02*
X271018000Y-171704000D01*
X271018000Y-171704000D02*
X271018000Y-172720000D01*
X270510000Y-173736000D02*
X270510000Y-171704000D01*
X270256000Y-171704000D02*
X270256000Y-173736000D01*
D13*
G04 #@! TO.C,R1*
X266446000Y-169926000D02*
G75*
G03X266446000Y-169926000I-127000J0D01*
G01*
X267462000Y-169926000D02*
X266446000Y-169926000D01*
X266446000Y-169926000D02*
X266446000Y-171450000D01*
X266446000Y-171450000D02*
X267462000Y-171450000D01*
X268478000Y-171450000D02*
X269494000Y-171450000D01*
X269494000Y-171450000D02*
X269494000Y-169926000D01*
X269494000Y-169926000D02*
X268478000Y-169926000D01*
X285496000Y-169926000D02*
G75*
G03X285496000Y-169926000I-127000J0D01*
G01*
X286512000Y-169926000D02*
X285496000Y-169926000D01*
X285496000Y-169926000D02*
X285496000Y-171450000D01*
X285496000Y-171450000D02*
X286512000Y-171450000D01*
X287528000Y-171450000D02*
X288544000Y-171450000D01*
X288544000Y-171450000D02*
X288544000Y-169926000D01*
X288544000Y-169926000D02*
X287528000Y-169926000D01*
D17*
G04 #@! TO.C,D0*
X290830000Y-172720000D02*
X290068000Y-172720000D01*
X290068000Y-172720000D02*
X290068000Y-173736000D01*
X290068000Y-173736000D02*
X283972000Y-173736000D01*
X283972000Y-173736000D02*
X283972000Y-172720000D01*
X283972000Y-172720000D02*
X283210000Y-172720000D01*
X283972000Y-172720000D02*
X283972000Y-171704000D01*
X283972000Y-171704000D02*
X290068000Y-171704000D01*
X290068000Y-171704000D02*
X290068000Y-172720000D01*
X289560000Y-173736000D02*
X289560000Y-171704000D01*
X289306000Y-171704000D02*
X289306000Y-173736000D01*
D14*
G04 #@! TO.C,D1*
X287547000Y-176149000D02*
X288671000Y-176149000D01*
X288671000Y-176149000D02*
X288671000Y-174117000D01*
X288671000Y-174117000D02*
X287547000Y-174117000D01*
X286466000Y-176149000D02*
X285369000Y-176149000D01*
X285369000Y-176149000D02*
X285369000Y-174117000D01*
X285369000Y-174117000D02*
X286466000Y-174117000D01*
D15*
X287274000Y-175514000D02*
X287274000Y-174752000D01*
X286829500Y-175514000D02*
X286829500Y-174752000D01*
X286829500Y-174752000D02*
X287210500Y-175133000D01*
X287210500Y-175133000D02*
X286829500Y-175514000D01*
D16*
G04 #@! TO.C,R0*
X283845000Y-171450000D02*
X290195000Y-171450000D01*
X290195000Y-171450000D02*
X290195000Y-168910000D01*
X290195000Y-168910000D02*
X283845000Y-168910000D01*
X283845000Y-168910000D02*
X283845000Y-171450000D01*
X292100000Y-170180000D02*
X290195000Y-170180000D01*
X281940000Y-170180000D02*
X283845000Y-170180000D01*
D17*
G04 #@! TO.C,D0*
X309880000Y-172720000D02*
X309118000Y-172720000D01*
X309118000Y-172720000D02*
X309118000Y-173736000D01*
X309118000Y-173736000D02*
X303022000Y-173736000D01*
X303022000Y-173736000D02*
X303022000Y-172720000D01*
X303022000Y-172720000D02*
X302260000Y-172720000D01*
X303022000Y-172720000D02*
X303022000Y-171704000D01*
X303022000Y-171704000D02*
X309118000Y-171704000D01*
X309118000Y-171704000D02*
X309118000Y-172720000D01*
X308610000Y-173736000D02*
X308610000Y-171704000D01*
X308356000Y-171704000D02*
X308356000Y-173736000D01*
D14*
G04 #@! TO.C,D1*
X306597000Y-176149000D02*
X307721000Y-176149000D01*
X307721000Y-176149000D02*
X307721000Y-174117000D01*
X307721000Y-174117000D02*
X306597000Y-174117000D01*
X305516000Y-176149000D02*
X304419000Y-176149000D01*
X304419000Y-176149000D02*
X304419000Y-174117000D01*
X304419000Y-174117000D02*
X305516000Y-174117000D01*
D15*
X306324000Y-175514000D02*
X306324000Y-174752000D01*
X305879500Y-175514000D02*
X305879500Y-174752000D01*
X305879500Y-174752000D02*
X306260500Y-175133000D01*
X306260500Y-175133000D02*
X305879500Y-175514000D01*
D16*
G04 #@! TO.C,R0*
X302895000Y-171450000D02*
X309245000Y-171450000D01*
X309245000Y-171450000D02*
X309245000Y-168910000D01*
X309245000Y-168910000D02*
X302895000Y-168910000D01*
X302895000Y-168910000D02*
X302895000Y-171450000D01*
X311150000Y-170180000D02*
X309245000Y-170180000D01*
X300990000Y-170180000D02*
X302895000Y-170180000D01*
D13*
G04 #@! TO.C,R1*
X304546000Y-169926000D02*
G75*
G03X304546000Y-169926000I-127000J0D01*
G01*
X305562000Y-169926000D02*
X304546000Y-169926000D01*
X304546000Y-169926000D02*
X304546000Y-171450000D01*
X304546000Y-171450000D02*
X305562000Y-171450000D01*
X306578000Y-171450000D02*
X307594000Y-171450000D01*
X307594000Y-171450000D02*
X307594000Y-169926000D01*
X307594000Y-169926000D02*
X306578000Y-169926000D01*
D17*
G04 #@! TO.C,D0*
X251206000Y-171704000D02*
X251206000Y-173736000D01*
X251460000Y-173736000D02*
X251460000Y-171704000D01*
X251968000Y-171704000D02*
X251968000Y-172720000D01*
X245872000Y-171704000D02*
X251968000Y-171704000D01*
X245872000Y-172720000D02*
X245872000Y-171704000D01*
X245872000Y-172720000D02*
X245110000Y-172720000D01*
X245872000Y-173736000D02*
X245872000Y-172720000D01*
X251968000Y-173736000D02*
X245872000Y-173736000D01*
X251968000Y-172720000D02*
X251968000Y-173736000D01*
X252730000Y-172720000D02*
X251968000Y-172720000D01*
D16*
G04 #@! TO.C,R0*
X243840000Y-170180000D02*
X245745000Y-170180000D01*
X254000000Y-170180000D02*
X252095000Y-170180000D01*
X245745000Y-168910000D02*
X245745000Y-171450000D01*
X252095000Y-168910000D02*
X245745000Y-168910000D01*
X252095000Y-171450000D02*
X252095000Y-168910000D01*
X245745000Y-171450000D02*
X252095000Y-171450000D01*
D15*
G04 #@! TO.C,D1*
X249110500Y-175133000D02*
X248729500Y-175514000D01*
X248729500Y-174752000D02*
X249110500Y-175133000D01*
X248729500Y-175514000D02*
X248729500Y-174752000D01*
X249174000Y-175514000D02*
X249174000Y-174752000D01*
D14*
X247269000Y-174117000D02*
X248366000Y-174117000D01*
X247269000Y-176149000D02*
X247269000Y-174117000D01*
X248366000Y-176149000D02*
X247269000Y-176149000D01*
X250571000Y-174117000D02*
X249447000Y-174117000D01*
X250571000Y-176149000D02*
X250571000Y-174117000D01*
X249447000Y-176149000D02*
X250571000Y-176149000D01*
D13*
G04 #@! TO.C,R1*
X250444000Y-169926000D02*
X249428000Y-169926000D01*
X250444000Y-171450000D02*
X250444000Y-169926000D01*
X249428000Y-171450000D02*
X250444000Y-171450000D01*
X247396000Y-171450000D02*
X248412000Y-171450000D01*
X247396000Y-169926000D02*
X247396000Y-171450000D01*
X248412000Y-169926000D02*
X247396000Y-169926000D01*
X247396000Y-169926000D02*
G75*
G03X247396000Y-169926000I-127000J0D01*
G01*
D14*
G04 #@! TO.C,D1*
X268497000Y-157099000D02*
X269621000Y-157099000D01*
X269621000Y-157099000D02*
X269621000Y-155067000D01*
X269621000Y-155067000D02*
X268497000Y-155067000D01*
X267416000Y-157099000D02*
X266319000Y-157099000D01*
X266319000Y-157099000D02*
X266319000Y-155067000D01*
X266319000Y-155067000D02*
X267416000Y-155067000D01*
D15*
X268224000Y-156464000D02*
X268224000Y-155702000D01*
X267779500Y-156464000D02*
X267779500Y-155702000D01*
X267779500Y-155702000D02*
X268160500Y-156083000D01*
X268160500Y-156083000D02*
X267779500Y-156464000D01*
D16*
G04 #@! TO.C,R0*
X264795000Y-152400000D02*
X271145000Y-152400000D01*
X271145000Y-152400000D02*
X271145000Y-149860000D01*
X271145000Y-149860000D02*
X264795000Y-149860000D01*
X264795000Y-149860000D02*
X264795000Y-152400000D01*
X273050000Y-151130000D02*
X271145000Y-151130000D01*
X262890000Y-151130000D02*
X264795000Y-151130000D01*
D17*
G04 #@! TO.C,D0*
X271780000Y-153670000D02*
X271018000Y-153670000D01*
X271018000Y-153670000D02*
X271018000Y-154686000D01*
X271018000Y-154686000D02*
X264922000Y-154686000D01*
X264922000Y-154686000D02*
X264922000Y-153670000D01*
X264922000Y-153670000D02*
X264160000Y-153670000D01*
X264922000Y-153670000D02*
X264922000Y-152654000D01*
X264922000Y-152654000D02*
X271018000Y-152654000D01*
X271018000Y-152654000D02*
X271018000Y-153670000D01*
X270510000Y-154686000D02*
X270510000Y-152654000D01*
X270256000Y-152654000D02*
X270256000Y-154686000D01*
D13*
G04 #@! TO.C,R1*
X266446000Y-150876000D02*
G75*
G03X266446000Y-150876000I-127000J0D01*
G01*
X267462000Y-150876000D02*
X266446000Y-150876000D01*
X266446000Y-150876000D02*
X266446000Y-152400000D01*
X266446000Y-152400000D02*
X267462000Y-152400000D01*
X268478000Y-152400000D02*
X269494000Y-152400000D01*
X269494000Y-152400000D02*
X269494000Y-150876000D01*
X269494000Y-150876000D02*
X268478000Y-150876000D01*
X285496000Y-150876000D02*
G75*
G03X285496000Y-150876000I-127000J0D01*
G01*
X286512000Y-150876000D02*
X285496000Y-150876000D01*
X285496000Y-150876000D02*
X285496000Y-152400000D01*
X285496000Y-152400000D02*
X286512000Y-152400000D01*
X287528000Y-152400000D02*
X288544000Y-152400000D01*
X288544000Y-152400000D02*
X288544000Y-150876000D01*
X288544000Y-150876000D02*
X287528000Y-150876000D01*
D17*
G04 #@! TO.C,D0*
X290830000Y-153670000D02*
X290068000Y-153670000D01*
X290068000Y-153670000D02*
X290068000Y-154686000D01*
X290068000Y-154686000D02*
X283972000Y-154686000D01*
X283972000Y-154686000D02*
X283972000Y-153670000D01*
X283972000Y-153670000D02*
X283210000Y-153670000D01*
X283972000Y-153670000D02*
X283972000Y-152654000D01*
X283972000Y-152654000D02*
X290068000Y-152654000D01*
X290068000Y-152654000D02*
X290068000Y-153670000D01*
X289560000Y-154686000D02*
X289560000Y-152654000D01*
X289306000Y-152654000D02*
X289306000Y-154686000D01*
D14*
G04 #@! TO.C,D1*
X287547000Y-157099000D02*
X288671000Y-157099000D01*
X288671000Y-157099000D02*
X288671000Y-155067000D01*
X288671000Y-155067000D02*
X287547000Y-155067000D01*
X286466000Y-157099000D02*
X285369000Y-157099000D01*
X285369000Y-157099000D02*
X285369000Y-155067000D01*
X285369000Y-155067000D02*
X286466000Y-155067000D01*
D15*
X287274000Y-156464000D02*
X287274000Y-155702000D01*
X286829500Y-156464000D02*
X286829500Y-155702000D01*
X286829500Y-155702000D02*
X287210500Y-156083000D01*
X287210500Y-156083000D02*
X286829500Y-156464000D01*
D16*
G04 #@! TO.C,R0*
X283845000Y-152400000D02*
X290195000Y-152400000D01*
X290195000Y-152400000D02*
X290195000Y-149860000D01*
X290195000Y-149860000D02*
X283845000Y-149860000D01*
X283845000Y-149860000D02*
X283845000Y-152400000D01*
X292100000Y-151130000D02*
X290195000Y-151130000D01*
X281940000Y-151130000D02*
X283845000Y-151130000D01*
D17*
G04 #@! TO.C,D0*
X309880000Y-153670000D02*
X309118000Y-153670000D01*
X309118000Y-153670000D02*
X309118000Y-154686000D01*
X309118000Y-154686000D02*
X303022000Y-154686000D01*
X303022000Y-154686000D02*
X303022000Y-153670000D01*
X303022000Y-153670000D02*
X302260000Y-153670000D01*
X303022000Y-153670000D02*
X303022000Y-152654000D01*
X303022000Y-152654000D02*
X309118000Y-152654000D01*
X309118000Y-152654000D02*
X309118000Y-153670000D01*
X308610000Y-154686000D02*
X308610000Y-152654000D01*
X308356000Y-152654000D02*
X308356000Y-154686000D01*
D14*
G04 #@! TO.C,D1*
X306597000Y-157099000D02*
X307721000Y-157099000D01*
X307721000Y-157099000D02*
X307721000Y-155067000D01*
X307721000Y-155067000D02*
X306597000Y-155067000D01*
X305516000Y-157099000D02*
X304419000Y-157099000D01*
X304419000Y-157099000D02*
X304419000Y-155067000D01*
X304419000Y-155067000D02*
X305516000Y-155067000D01*
D15*
X306324000Y-156464000D02*
X306324000Y-155702000D01*
X305879500Y-156464000D02*
X305879500Y-155702000D01*
X305879500Y-155702000D02*
X306260500Y-156083000D01*
X306260500Y-156083000D02*
X305879500Y-156464000D01*
D16*
G04 #@! TO.C,R0*
X302895000Y-152400000D02*
X309245000Y-152400000D01*
X309245000Y-152400000D02*
X309245000Y-149860000D01*
X309245000Y-149860000D02*
X302895000Y-149860000D01*
X302895000Y-149860000D02*
X302895000Y-152400000D01*
X311150000Y-151130000D02*
X309245000Y-151130000D01*
X300990000Y-151130000D02*
X302895000Y-151130000D01*
D13*
G04 #@! TO.C,R1*
X304546000Y-150876000D02*
G75*
G03X304546000Y-150876000I-127000J0D01*
G01*
X305562000Y-150876000D02*
X304546000Y-150876000D01*
X304546000Y-150876000D02*
X304546000Y-152400000D01*
X304546000Y-152400000D02*
X305562000Y-152400000D01*
X306578000Y-152400000D02*
X307594000Y-152400000D01*
X307594000Y-152400000D02*
X307594000Y-150876000D01*
X307594000Y-150876000D02*
X306578000Y-150876000D01*
D17*
G04 #@! TO.C,D0*
X251206000Y-152654000D02*
X251206000Y-154686000D01*
X251460000Y-154686000D02*
X251460000Y-152654000D01*
X251968000Y-152654000D02*
X251968000Y-153670000D01*
X245872000Y-152654000D02*
X251968000Y-152654000D01*
X245872000Y-153670000D02*
X245872000Y-152654000D01*
X245872000Y-153670000D02*
X245110000Y-153670000D01*
X245872000Y-154686000D02*
X245872000Y-153670000D01*
X251968000Y-154686000D02*
X245872000Y-154686000D01*
X251968000Y-153670000D02*
X251968000Y-154686000D01*
X252730000Y-153670000D02*
X251968000Y-153670000D01*
D16*
G04 #@! TO.C,R0*
X243840000Y-151130000D02*
X245745000Y-151130000D01*
X254000000Y-151130000D02*
X252095000Y-151130000D01*
X245745000Y-149860000D02*
X245745000Y-152400000D01*
X252095000Y-149860000D02*
X245745000Y-149860000D01*
X252095000Y-152400000D02*
X252095000Y-149860000D01*
X245745000Y-152400000D02*
X252095000Y-152400000D01*
D15*
G04 #@! TO.C,D1*
X249110500Y-156083000D02*
X248729500Y-156464000D01*
X248729500Y-155702000D02*
X249110500Y-156083000D01*
X248729500Y-156464000D02*
X248729500Y-155702000D01*
X249174000Y-156464000D02*
X249174000Y-155702000D01*
D14*
X247269000Y-155067000D02*
X248366000Y-155067000D01*
X247269000Y-157099000D02*
X247269000Y-155067000D01*
X248366000Y-157099000D02*
X247269000Y-157099000D01*
X250571000Y-155067000D02*
X249447000Y-155067000D01*
X250571000Y-157099000D02*
X250571000Y-155067000D01*
X249447000Y-157099000D02*
X250571000Y-157099000D01*
D13*
G04 #@! TO.C,R1*
X250444000Y-150876000D02*
X249428000Y-150876000D01*
X250444000Y-152400000D02*
X250444000Y-150876000D01*
X249428000Y-152400000D02*
X250444000Y-152400000D01*
X247396000Y-152400000D02*
X248412000Y-152400000D01*
X247396000Y-150876000D02*
X247396000Y-152400000D01*
X248412000Y-150876000D02*
X247396000Y-150876000D01*
X247396000Y-150876000D02*
G75*
G03X247396000Y-150876000I-127000J0D01*
G01*
D14*
G04 #@! TO.C,D1*
X268497000Y-138049000D02*
X269621000Y-138049000D01*
X269621000Y-138049000D02*
X269621000Y-136017000D01*
X269621000Y-136017000D02*
X268497000Y-136017000D01*
X267416000Y-138049000D02*
X266319000Y-138049000D01*
X266319000Y-138049000D02*
X266319000Y-136017000D01*
X266319000Y-136017000D02*
X267416000Y-136017000D01*
D15*
X268224000Y-137414000D02*
X268224000Y-136652000D01*
X267779500Y-137414000D02*
X267779500Y-136652000D01*
X267779500Y-136652000D02*
X268160500Y-137033000D01*
X268160500Y-137033000D02*
X267779500Y-137414000D01*
D16*
G04 #@! TO.C,R0*
X264795000Y-133350000D02*
X271145000Y-133350000D01*
X271145000Y-133350000D02*
X271145000Y-130810000D01*
X271145000Y-130810000D02*
X264795000Y-130810000D01*
X264795000Y-130810000D02*
X264795000Y-133350000D01*
X273050000Y-132080000D02*
X271145000Y-132080000D01*
X262890000Y-132080000D02*
X264795000Y-132080000D01*
D17*
G04 #@! TO.C,D0*
X271780000Y-134620000D02*
X271018000Y-134620000D01*
X271018000Y-134620000D02*
X271018000Y-135636000D01*
X271018000Y-135636000D02*
X264922000Y-135636000D01*
X264922000Y-135636000D02*
X264922000Y-134620000D01*
X264922000Y-134620000D02*
X264160000Y-134620000D01*
X264922000Y-134620000D02*
X264922000Y-133604000D01*
X264922000Y-133604000D02*
X271018000Y-133604000D01*
X271018000Y-133604000D02*
X271018000Y-134620000D01*
X270510000Y-135636000D02*
X270510000Y-133604000D01*
X270256000Y-133604000D02*
X270256000Y-135636000D01*
D13*
G04 #@! TO.C,R1*
X266446000Y-131826000D02*
G75*
G03X266446000Y-131826000I-127000J0D01*
G01*
X267462000Y-131826000D02*
X266446000Y-131826000D01*
X266446000Y-131826000D02*
X266446000Y-133350000D01*
X266446000Y-133350000D02*
X267462000Y-133350000D01*
X268478000Y-133350000D02*
X269494000Y-133350000D01*
X269494000Y-133350000D02*
X269494000Y-131826000D01*
X269494000Y-131826000D02*
X268478000Y-131826000D01*
X285496000Y-131826000D02*
G75*
G03X285496000Y-131826000I-127000J0D01*
G01*
X286512000Y-131826000D02*
X285496000Y-131826000D01*
X285496000Y-131826000D02*
X285496000Y-133350000D01*
X285496000Y-133350000D02*
X286512000Y-133350000D01*
X287528000Y-133350000D02*
X288544000Y-133350000D01*
X288544000Y-133350000D02*
X288544000Y-131826000D01*
X288544000Y-131826000D02*
X287528000Y-131826000D01*
D17*
G04 #@! TO.C,D0*
X290830000Y-134620000D02*
X290068000Y-134620000D01*
X290068000Y-134620000D02*
X290068000Y-135636000D01*
X290068000Y-135636000D02*
X283972000Y-135636000D01*
X283972000Y-135636000D02*
X283972000Y-134620000D01*
X283972000Y-134620000D02*
X283210000Y-134620000D01*
X283972000Y-134620000D02*
X283972000Y-133604000D01*
X283972000Y-133604000D02*
X290068000Y-133604000D01*
X290068000Y-133604000D02*
X290068000Y-134620000D01*
X289560000Y-135636000D02*
X289560000Y-133604000D01*
X289306000Y-133604000D02*
X289306000Y-135636000D01*
D14*
G04 #@! TO.C,D1*
X287547000Y-138049000D02*
X288671000Y-138049000D01*
X288671000Y-138049000D02*
X288671000Y-136017000D01*
X288671000Y-136017000D02*
X287547000Y-136017000D01*
X286466000Y-138049000D02*
X285369000Y-138049000D01*
X285369000Y-138049000D02*
X285369000Y-136017000D01*
X285369000Y-136017000D02*
X286466000Y-136017000D01*
D15*
X287274000Y-137414000D02*
X287274000Y-136652000D01*
X286829500Y-137414000D02*
X286829500Y-136652000D01*
X286829500Y-136652000D02*
X287210500Y-137033000D01*
X287210500Y-137033000D02*
X286829500Y-137414000D01*
D16*
G04 #@! TO.C,R0*
X283845000Y-133350000D02*
X290195000Y-133350000D01*
X290195000Y-133350000D02*
X290195000Y-130810000D01*
X290195000Y-130810000D02*
X283845000Y-130810000D01*
X283845000Y-130810000D02*
X283845000Y-133350000D01*
X292100000Y-132080000D02*
X290195000Y-132080000D01*
X281940000Y-132080000D02*
X283845000Y-132080000D01*
D17*
G04 #@! TO.C,D0*
X309880000Y-134620000D02*
X309118000Y-134620000D01*
X309118000Y-134620000D02*
X309118000Y-135636000D01*
X309118000Y-135636000D02*
X303022000Y-135636000D01*
X303022000Y-135636000D02*
X303022000Y-134620000D01*
X303022000Y-134620000D02*
X302260000Y-134620000D01*
X303022000Y-134620000D02*
X303022000Y-133604000D01*
X303022000Y-133604000D02*
X309118000Y-133604000D01*
X309118000Y-133604000D02*
X309118000Y-134620000D01*
X308610000Y-135636000D02*
X308610000Y-133604000D01*
X308356000Y-133604000D02*
X308356000Y-135636000D01*
D14*
G04 #@! TO.C,D1*
X306597000Y-138049000D02*
X307721000Y-138049000D01*
X307721000Y-138049000D02*
X307721000Y-136017000D01*
X307721000Y-136017000D02*
X306597000Y-136017000D01*
X305516000Y-138049000D02*
X304419000Y-138049000D01*
X304419000Y-138049000D02*
X304419000Y-136017000D01*
X304419000Y-136017000D02*
X305516000Y-136017000D01*
D15*
X306324000Y-137414000D02*
X306324000Y-136652000D01*
X305879500Y-137414000D02*
X305879500Y-136652000D01*
X305879500Y-136652000D02*
X306260500Y-137033000D01*
X306260500Y-137033000D02*
X305879500Y-137414000D01*
D16*
G04 #@! TO.C,R0*
X302895000Y-133350000D02*
X309245000Y-133350000D01*
X309245000Y-133350000D02*
X309245000Y-130810000D01*
X309245000Y-130810000D02*
X302895000Y-130810000D01*
X302895000Y-130810000D02*
X302895000Y-133350000D01*
X311150000Y-132080000D02*
X309245000Y-132080000D01*
X300990000Y-132080000D02*
X302895000Y-132080000D01*
D13*
G04 #@! TO.C,R1*
X304546000Y-131826000D02*
G75*
G03X304546000Y-131826000I-127000J0D01*
G01*
X305562000Y-131826000D02*
X304546000Y-131826000D01*
X304546000Y-131826000D02*
X304546000Y-133350000D01*
X304546000Y-133350000D02*
X305562000Y-133350000D01*
X306578000Y-133350000D02*
X307594000Y-133350000D01*
X307594000Y-133350000D02*
X307594000Y-131826000D01*
X307594000Y-131826000D02*
X306578000Y-131826000D01*
D17*
G04 #@! TO.C,D0*
X251206000Y-133604000D02*
X251206000Y-135636000D01*
X251460000Y-135636000D02*
X251460000Y-133604000D01*
X251968000Y-133604000D02*
X251968000Y-134620000D01*
X245872000Y-133604000D02*
X251968000Y-133604000D01*
X245872000Y-134620000D02*
X245872000Y-133604000D01*
X245872000Y-134620000D02*
X245110000Y-134620000D01*
X245872000Y-135636000D02*
X245872000Y-134620000D01*
X251968000Y-135636000D02*
X245872000Y-135636000D01*
X251968000Y-134620000D02*
X251968000Y-135636000D01*
X252730000Y-134620000D02*
X251968000Y-134620000D01*
D16*
G04 #@! TO.C,R0*
X243840000Y-132080000D02*
X245745000Y-132080000D01*
X254000000Y-132080000D02*
X252095000Y-132080000D01*
X245745000Y-130810000D02*
X245745000Y-133350000D01*
X252095000Y-130810000D02*
X245745000Y-130810000D01*
X252095000Y-133350000D02*
X252095000Y-130810000D01*
X245745000Y-133350000D02*
X252095000Y-133350000D01*
D15*
G04 #@! TO.C,D1*
X249110500Y-137033000D02*
X248729500Y-137414000D01*
X248729500Y-136652000D02*
X249110500Y-137033000D01*
X248729500Y-137414000D02*
X248729500Y-136652000D01*
X249174000Y-137414000D02*
X249174000Y-136652000D01*
D14*
X247269000Y-136017000D02*
X248366000Y-136017000D01*
X247269000Y-138049000D02*
X247269000Y-136017000D01*
X248366000Y-138049000D02*
X247269000Y-138049000D01*
X250571000Y-136017000D02*
X249447000Y-136017000D01*
X250571000Y-138049000D02*
X250571000Y-136017000D01*
X249447000Y-138049000D02*
X250571000Y-138049000D01*
D13*
G04 #@! TO.C,R1*
X250444000Y-131826000D02*
X249428000Y-131826000D01*
X250444000Y-133350000D02*
X250444000Y-131826000D01*
X249428000Y-133350000D02*
X250444000Y-133350000D01*
X247396000Y-133350000D02*
X248412000Y-133350000D01*
X247396000Y-131826000D02*
X247396000Y-133350000D01*
X248412000Y-131826000D02*
X247396000Y-131826000D01*
X247396000Y-131826000D02*
G75*
G03X247396000Y-131826000I-127000J0D01*
G01*
D17*
G04 #@! TO.C,D0*
X308356000Y-114554000D02*
X308356000Y-116586000D01*
X308610000Y-116586000D02*
X308610000Y-114554000D01*
X309118000Y-114554000D02*
X309118000Y-115570000D01*
X303022000Y-114554000D02*
X309118000Y-114554000D01*
X303022000Y-115570000D02*
X303022000Y-114554000D01*
X303022000Y-115570000D02*
X302260000Y-115570000D01*
X303022000Y-116586000D02*
X303022000Y-115570000D01*
X309118000Y-116586000D02*
X303022000Y-116586000D01*
X309118000Y-115570000D02*
X309118000Y-116586000D01*
X309880000Y-115570000D02*
X309118000Y-115570000D01*
D16*
G04 #@! TO.C,R0*
X300990000Y-113030000D02*
X302895000Y-113030000D01*
X311150000Y-113030000D02*
X309245000Y-113030000D01*
X302895000Y-111760000D02*
X302895000Y-114300000D01*
X309245000Y-111760000D02*
X302895000Y-111760000D01*
X309245000Y-114300000D02*
X309245000Y-111760000D01*
X302895000Y-114300000D02*
X309245000Y-114300000D01*
D15*
G04 #@! TO.C,D1*
X306260500Y-117983000D02*
X305879500Y-118364000D01*
X305879500Y-117602000D02*
X306260500Y-117983000D01*
X305879500Y-118364000D02*
X305879500Y-117602000D01*
X306324000Y-118364000D02*
X306324000Y-117602000D01*
D14*
X304419000Y-116967000D02*
X305516000Y-116967000D01*
X304419000Y-118999000D02*
X304419000Y-116967000D01*
X305516000Y-118999000D02*
X304419000Y-118999000D01*
X307721000Y-116967000D02*
X306597000Y-116967000D01*
X307721000Y-118999000D02*
X307721000Y-116967000D01*
X306597000Y-118999000D02*
X307721000Y-118999000D01*
D13*
G04 #@! TO.C,R1*
X307594000Y-112776000D02*
X306578000Y-112776000D01*
X307594000Y-114300000D02*
X307594000Y-112776000D01*
X306578000Y-114300000D02*
X307594000Y-114300000D01*
X304546000Y-114300000D02*
X305562000Y-114300000D01*
X304546000Y-112776000D02*
X304546000Y-114300000D01*
X305562000Y-112776000D02*
X304546000Y-112776000D01*
X304546000Y-112776000D02*
G75*
G03X304546000Y-112776000I-127000J0D01*
G01*
D17*
G04 #@! TO.C,D0*
X289306000Y-114554000D02*
X289306000Y-116586000D01*
X289560000Y-116586000D02*
X289560000Y-114554000D01*
X290068000Y-114554000D02*
X290068000Y-115570000D01*
X283972000Y-114554000D02*
X290068000Y-114554000D01*
X283972000Y-115570000D02*
X283972000Y-114554000D01*
X283972000Y-115570000D02*
X283210000Y-115570000D01*
X283972000Y-116586000D02*
X283972000Y-115570000D01*
X290068000Y-116586000D02*
X283972000Y-116586000D01*
X290068000Y-115570000D02*
X290068000Y-116586000D01*
X290830000Y-115570000D02*
X290068000Y-115570000D01*
D16*
G04 #@! TO.C,R0*
X281940000Y-113030000D02*
X283845000Y-113030000D01*
X292100000Y-113030000D02*
X290195000Y-113030000D01*
X283845000Y-111760000D02*
X283845000Y-114300000D01*
X290195000Y-111760000D02*
X283845000Y-111760000D01*
X290195000Y-114300000D02*
X290195000Y-111760000D01*
X283845000Y-114300000D02*
X290195000Y-114300000D01*
D15*
G04 #@! TO.C,D1*
X287210500Y-117983000D02*
X286829500Y-118364000D01*
X286829500Y-117602000D02*
X287210500Y-117983000D01*
X286829500Y-118364000D02*
X286829500Y-117602000D01*
X287274000Y-118364000D02*
X287274000Y-117602000D01*
D14*
X285369000Y-116967000D02*
X286466000Y-116967000D01*
X285369000Y-118999000D02*
X285369000Y-116967000D01*
X286466000Y-118999000D02*
X285369000Y-118999000D01*
X288671000Y-116967000D02*
X287547000Y-116967000D01*
X288671000Y-118999000D02*
X288671000Y-116967000D01*
X287547000Y-118999000D02*
X288671000Y-118999000D01*
D13*
G04 #@! TO.C,R1*
X288544000Y-112776000D02*
X287528000Y-112776000D01*
X288544000Y-114300000D02*
X288544000Y-112776000D01*
X287528000Y-114300000D02*
X288544000Y-114300000D01*
X285496000Y-114300000D02*
X286512000Y-114300000D01*
X285496000Y-112776000D02*
X285496000Y-114300000D01*
X286512000Y-112776000D02*
X285496000Y-112776000D01*
X285496000Y-112776000D02*
G75*
G03X285496000Y-112776000I-127000J0D01*
G01*
D17*
G04 #@! TO.C,D0*
X270256000Y-114554000D02*
X270256000Y-116586000D01*
X270510000Y-116586000D02*
X270510000Y-114554000D01*
X271018000Y-114554000D02*
X271018000Y-115570000D01*
X264922000Y-114554000D02*
X271018000Y-114554000D01*
X264922000Y-115570000D02*
X264922000Y-114554000D01*
X264922000Y-115570000D02*
X264160000Y-115570000D01*
X264922000Y-116586000D02*
X264922000Y-115570000D01*
X271018000Y-116586000D02*
X264922000Y-116586000D01*
X271018000Y-115570000D02*
X271018000Y-116586000D01*
X271780000Y-115570000D02*
X271018000Y-115570000D01*
D16*
G04 #@! TO.C,R0*
X262890000Y-113030000D02*
X264795000Y-113030000D01*
X273050000Y-113030000D02*
X271145000Y-113030000D01*
X264795000Y-111760000D02*
X264795000Y-114300000D01*
X271145000Y-111760000D02*
X264795000Y-111760000D01*
X271145000Y-114300000D02*
X271145000Y-111760000D01*
X264795000Y-114300000D02*
X271145000Y-114300000D01*
D15*
G04 #@! TO.C,D1*
X268160500Y-117983000D02*
X267779500Y-118364000D01*
X267779500Y-117602000D02*
X268160500Y-117983000D01*
X267779500Y-118364000D02*
X267779500Y-117602000D01*
X268224000Y-118364000D02*
X268224000Y-117602000D01*
D14*
X266319000Y-116967000D02*
X267416000Y-116967000D01*
X266319000Y-118999000D02*
X266319000Y-116967000D01*
X267416000Y-118999000D02*
X266319000Y-118999000D01*
X269621000Y-116967000D02*
X268497000Y-116967000D01*
X269621000Y-118999000D02*
X269621000Y-116967000D01*
X268497000Y-118999000D02*
X269621000Y-118999000D01*
D13*
G04 #@! TO.C,R1*
X269494000Y-112776000D02*
X268478000Y-112776000D01*
X269494000Y-114300000D02*
X269494000Y-112776000D01*
X268478000Y-114300000D02*
X269494000Y-114300000D01*
X266446000Y-114300000D02*
X267462000Y-114300000D01*
X266446000Y-112776000D02*
X266446000Y-114300000D01*
X267462000Y-112776000D02*
X266446000Y-112776000D01*
X266446000Y-112776000D02*
G75*
G03X266446000Y-112776000I-127000J0D01*
G01*
D16*
G04 #@! TO.C,R0*
X245745000Y-114300000D02*
X252095000Y-114300000D01*
X252095000Y-114300000D02*
X252095000Y-111760000D01*
X252095000Y-111760000D02*
X245745000Y-111760000D01*
X245745000Y-111760000D02*
X245745000Y-114300000D01*
X254000000Y-113030000D02*
X252095000Y-113030000D01*
X243840000Y-113030000D02*
X245745000Y-113030000D01*
D17*
G04 #@! TO.C,D0*
X252730000Y-115570000D02*
X251968000Y-115570000D01*
X251968000Y-115570000D02*
X251968000Y-116586000D01*
X251968000Y-116586000D02*
X245872000Y-116586000D01*
X245872000Y-116586000D02*
X245872000Y-115570000D01*
X245872000Y-115570000D02*
X245110000Y-115570000D01*
X245872000Y-115570000D02*
X245872000Y-114554000D01*
X245872000Y-114554000D02*
X251968000Y-114554000D01*
X251968000Y-114554000D02*
X251968000Y-115570000D01*
X251460000Y-116586000D02*
X251460000Y-114554000D01*
X251206000Y-114554000D02*
X251206000Y-116586000D01*
D14*
G04 #@! TO.C,D1*
X245772000Y-119481000D02*
X246896000Y-119481000D01*
X246896000Y-119481000D02*
X246896000Y-117449000D01*
X246896000Y-117449000D02*
X245772000Y-117449000D01*
X244691000Y-119481000D02*
X243594000Y-119481000D01*
X243594000Y-119481000D02*
X243594000Y-117449000D01*
X243594000Y-117449000D02*
X244691000Y-117449000D01*
D15*
X245499000Y-118846000D02*
X245499000Y-118084000D01*
X245054500Y-118846000D02*
X245054500Y-118084000D01*
X245054500Y-118084000D02*
X245435500Y-118465000D01*
X245435500Y-118465000D02*
X245054500Y-118846000D01*
D13*
G04 #@! TO.C,R1*
X247396000Y-112776000D02*
G75*
G03X247396000Y-112776000I-127000J0D01*
G01*
X248412000Y-112776000D02*
X247396000Y-112776000D01*
X247396000Y-112776000D02*
X247396000Y-114300000D01*
X247396000Y-114300000D02*
X248412000Y-114300000D01*
X249428000Y-114300000D02*
X250444000Y-114300000D01*
X250444000Y-114300000D02*
X250444000Y-112776000D01*
X250444000Y-112776000D02*
X249428000Y-112776000D01*
D16*
G04 #@! TO.C,U1*
X274320000Y-104775000D02*
X276860000Y-104775000D01*
X276860000Y-102235000D02*
X276860000Y-104775000D01*
X259080000Y-102235000D02*
X276860000Y-102235000D01*
X259080000Y-104775000D02*
X259080000Y-102235000D01*
D12*
G36*
X263038432Y-111254360D02*
X263038432Y-111454360D01*
X263138432Y-111454360D01*
X263138432Y-111254360D01*
X263038432Y-111254360D01*
G37*
X263038432Y-111254360D02*
X263038432Y-111454360D01*
X263138432Y-111454360D01*
X263138432Y-111254360D01*
X263038432Y-111254360D01*
G36*
X263438432Y-110654360D02*
X263438432Y-111454360D01*
X263538432Y-111454360D01*
X263538432Y-110654360D01*
X263438432Y-110654360D01*
G37*
X263438432Y-110654360D02*
X263438432Y-111454360D01*
X263538432Y-111454360D01*
X263538432Y-110654360D01*
X263438432Y-110654360D01*
G36*
X263038432Y-110654360D02*
X263038432Y-110754360D01*
X263538432Y-110754360D01*
X263538432Y-110654360D01*
X263038432Y-110654360D01*
G37*
X263038432Y-110654360D02*
X263038432Y-110754360D01*
X263538432Y-110754360D01*
X263538432Y-110654360D01*
X263038432Y-110654360D01*
G36*
X263238432Y-111054360D02*
X263238432Y-111154360D01*
X263338432Y-111154360D01*
X263338432Y-111054360D01*
X263238432Y-111054360D01*
G37*
X263238432Y-111054360D02*
X263238432Y-111154360D01*
X263338432Y-111154360D01*
X263338432Y-111054360D01*
X263238432Y-111054360D01*
G36*
X263038432Y-110654360D02*
X263038432Y-110954360D01*
X263138432Y-110954360D01*
X263138432Y-110654360D01*
X263038432Y-110654360D01*
G37*
X263038432Y-110654360D02*
X263038432Y-110954360D01*
X263138432Y-110954360D01*
X263138432Y-110654360D01*
X263038432Y-110654360D01*
D16*
X274320000Y-107315000D02*
X276860000Y-107315000D01*
X274320000Y-104775000D02*
X274320000Y-107315000D01*
X259080000Y-135255000D02*
X259080000Y-104775000D01*
X276860000Y-135255000D02*
X259080000Y-135255000D01*
X276860000Y-104775000D02*
X276860000Y-135255000D01*
D18*
G04 #@! TO.C,Q1*
X279433000Y-145420000D02*
X279433000Y-143960000D01*
X276273000Y-145420000D02*
X276273000Y-142260000D01*
X276273000Y-145420000D02*
X277203000Y-145420000D01*
X279433000Y-145420000D02*
X278503000Y-145420000D01*
G04 #@! TO.C,U1*
D12*
X273732348Y-105606904D02*
X273275205Y-105606904D01*
X273503776Y-106406904D02*
X273503776Y-105606904D01*
X273084729Y-105606904D02*
X272551395Y-106406904D01*
X272551395Y-105606904D02*
X273084729Y-106406904D01*
X272094252Y-105606904D02*
X272018062Y-105606904D01*
X271941872Y-105645000D01*
X271903776Y-105683095D01*
X271865681Y-105759285D01*
X271827586Y-105911666D01*
X271827586Y-106102142D01*
X271865681Y-106254523D01*
X271903776Y-106330714D01*
X271941872Y-106368809D01*
X272018062Y-106406904D01*
X272094252Y-106406904D01*
X272170443Y-106368809D01*
X272208538Y-106330714D01*
X272246633Y-106254523D01*
X272284729Y-106102142D01*
X272284729Y-105911666D01*
X272246633Y-105759285D01*
X272208538Y-105683095D01*
X272170443Y-105645000D01*
X272094252Y-105606904D01*
X270913300Y-105568809D02*
X271599014Y-106597380D01*
X270646633Y-106406904D02*
X270646633Y-105606904D01*
X270456157Y-105606904D01*
X270341872Y-105645000D01*
X270265681Y-105721190D01*
X270227586Y-105797380D01*
X270189491Y-105949761D01*
X270189491Y-106064047D01*
X270227586Y-106216428D01*
X270265681Y-106292619D01*
X270341872Y-106368809D01*
X270456157Y-106406904D01*
X270646633Y-106406904D01*
X269922824Y-105606904D02*
X269427586Y-105606904D01*
X269694252Y-105911666D01*
X269579967Y-105911666D01*
X269503776Y-105949761D01*
X269465681Y-105987857D01*
X269427586Y-106064047D01*
X269427586Y-106254523D01*
X269465681Y-106330714D01*
X269503776Y-106368809D01*
X269579967Y-106406904D01*
X269808538Y-106406904D01*
X269884729Y-106368809D01*
X269922824Y-106330714D01*
X274021476Y-108946904D02*
X274021476Y-108146904D01*
X273831000Y-108146904D01*
X273716714Y-108185000D01*
X273640523Y-108261190D01*
X273602428Y-108337380D01*
X273564333Y-108489761D01*
X273564333Y-108604047D01*
X273602428Y-108756428D01*
X273640523Y-108832619D01*
X273716714Y-108908809D01*
X273831000Y-108946904D01*
X274021476Y-108946904D01*
X273259571Y-108223095D02*
X273221476Y-108185000D01*
X273145285Y-108146904D01*
X272954809Y-108146904D01*
X272878619Y-108185000D01*
X272840523Y-108223095D01*
X272802428Y-108299285D01*
X272802428Y-108375476D01*
X272840523Y-108489761D01*
X273297666Y-108946904D01*
X272802428Y-108946904D01*
X274021476Y-119106904D02*
X274021476Y-118306904D01*
X273831000Y-118306904D01*
X273716714Y-118345000D01*
X273640523Y-118421190D01*
X273602428Y-118497380D01*
X273564333Y-118649761D01*
X273564333Y-118764047D01*
X273602428Y-118916428D01*
X273640523Y-118992619D01*
X273716714Y-119068809D01*
X273831000Y-119106904D01*
X274021476Y-119106904D01*
X273069095Y-118306904D02*
X272992904Y-118306904D01*
X272916714Y-118345000D01*
X272878619Y-118383095D01*
X272840523Y-118459285D01*
X272802428Y-118611666D01*
X272802428Y-118802142D01*
X272840523Y-118954523D01*
X272878619Y-119030714D01*
X272916714Y-119068809D01*
X272992904Y-119106904D01*
X273069095Y-119106904D01*
X273145285Y-119068809D01*
X273183380Y-119030714D01*
X273221476Y-118954523D01*
X273259571Y-118802142D01*
X273259571Y-118611666D01*
X273221476Y-118459285D01*
X273183380Y-118383095D01*
X273145285Y-118345000D01*
X273069095Y-118306904D01*
X274021476Y-116566904D02*
X274021476Y-115766904D01*
X273831000Y-115766904D01*
X273716714Y-115805000D01*
X273640523Y-115881190D01*
X273602428Y-115957380D01*
X273564333Y-116109761D01*
X273564333Y-116224047D01*
X273602428Y-116376428D01*
X273640523Y-116452619D01*
X273716714Y-116528809D01*
X273831000Y-116566904D01*
X274021476Y-116566904D01*
X272802428Y-116566904D02*
X273259571Y-116566904D01*
X273031000Y-116566904D02*
X273031000Y-115766904D01*
X273107190Y-115881190D01*
X273183380Y-115957380D01*
X273259571Y-115995476D01*
X274040523Y-113265000D02*
X274116714Y-113226904D01*
X274231000Y-113226904D01*
X274345285Y-113265000D01*
X274421476Y-113341190D01*
X274459571Y-113417380D01*
X274497666Y-113569761D01*
X274497666Y-113684047D01*
X274459571Y-113836428D01*
X274421476Y-113912619D01*
X274345285Y-113988809D01*
X274231000Y-114026904D01*
X274154809Y-114026904D01*
X274040523Y-113988809D01*
X274002428Y-113950714D01*
X274002428Y-113684047D01*
X274154809Y-113684047D01*
X273659571Y-114026904D02*
X273659571Y-113226904D01*
X273202428Y-114026904D01*
X273202428Y-113226904D01*
X272821476Y-114026904D02*
X272821476Y-113226904D01*
X272631000Y-113226904D01*
X272516714Y-113265000D01*
X272440523Y-113341190D01*
X272402428Y-113417380D01*
X272364333Y-113569761D01*
X272364333Y-113684047D01*
X272402428Y-113836428D01*
X272440523Y-113912619D01*
X272516714Y-113988809D01*
X272631000Y-114026904D01*
X272821476Y-114026904D01*
X274040523Y-110725000D02*
X274116714Y-110686904D01*
X274231000Y-110686904D01*
X274345285Y-110725000D01*
X274421476Y-110801190D01*
X274459571Y-110877380D01*
X274497666Y-111029761D01*
X274497666Y-111144047D01*
X274459571Y-111296428D01*
X274421476Y-111372619D01*
X274345285Y-111448809D01*
X274231000Y-111486904D01*
X274154809Y-111486904D01*
X274040523Y-111448809D01*
X274002428Y-111410714D01*
X274002428Y-111144047D01*
X274154809Y-111144047D01*
X273659571Y-111486904D02*
X273659571Y-110686904D01*
X273202428Y-111486904D01*
X273202428Y-110686904D01*
X272821476Y-111486904D02*
X272821476Y-110686904D01*
X272631000Y-110686904D01*
X272516714Y-110725000D01*
X272440523Y-110801190D01*
X272402428Y-110877380D01*
X272364333Y-111029761D01*
X272364333Y-111144047D01*
X272402428Y-111296428D01*
X272440523Y-111372619D01*
X272516714Y-111448809D01*
X272631000Y-111486904D01*
X272821476Y-111486904D01*
X274021476Y-121646904D02*
X274021476Y-120846904D01*
X273831000Y-120846904D01*
X273716714Y-120885000D01*
X273640523Y-120961190D01*
X273602428Y-121037380D01*
X273564333Y-121189761D01*
X273564333Y-121304047D01*
X273602428Y-121456428D01*
X273640523Y-121532619D01*
X273716714Y-121608809D01*
X273831000Y-121646904D01*
X274021476Y-121646904D01*
X272878619Y-121113571D02*
X272878619Y-121646904D01*
X273069095Y-120808809D02*
X273259571Y-121380238D01*
X272764333Y-121380238D01*
X273564333Y-124110714D02*
X273602428Y-124148809D01*
X273716714Y-124186904D01*
X273792904Y-124186904D01*
X273907190Y-124148809D01*
X273983380Y-124072619D01*
X274021476Y-123996428D01*
X274059571Y-123844047D01*
X274059571Y-123729761D01*
X274021476Y-123577380D01*
X273983380Y-123501190D01*
X273907190Y-123425000D01*
X273792904Y-123386904D01*
X273716714Y-123386904D01*
X273602428Y-123425000D01*
X273564333Y-123463095D01*
X272878619Y-123386904D02*
X273031000Y-123386904D01*
X273107190Y-123425000D01*
X273145285Y-123463095D01*
X273221476Y-123577380D01*
X273259571Y-123729761D01*
X273259571Y-124034523D01*
X273221476Y-124110714D01*
X273183380Y-124148809D01*
X273107190Y-124186904D01*
X272954809Y-124186904D01*
X272878619Y-124148809D01*
X272840523Y-124110714D01*
X272802428Y-124034523D01*
X272802428Y-123844047D01*
X272840523Y-123767857D01*
X272878619Y-123729761D01*
X272954809Y-123691666D01*
X273107190Y-123691666D01*
X273183380Y-123729761D01*
X273221476Y-123767857D01*
X273259571Y-123844047D01*
X274021476Y-126726904D02*
X274021476Y-125926904D01*
X273831000Y-125926904D01*
X273716714Y-125965000D01*
X273640523Y-126041190D01*
X273602428Y-126117380D01*
X273564333Y-126269761D01*
X273564333Y-126384047D01*
X273602428Y-126536428D01*
X273640523Y-126612619D01*
X273716714Y-126688809D01*
X273831000Y-126726904D01*
X274021476Y-126726904D01*
X273297666Y-125926904D02*
X272764333Y-125926904D01*
X273107190Y-126726904D01*
X273983380Y-128847857D02*
X273716714Y-128847857D01*
X273602428Y-129266904D02*
X273983380Y-129266904D01*
X273983380Y-128466904D01*
X273602428Y-128466904D01*
X272916714Y-128466904D02*
X273069095Y-128466904D01*
X273145285Y-128505000D01*
X273183380Y-128543095D01*
X273259571Y-128657380D01*
X273297666Y-128809761D01*
X273297666Y-129114523D01*
X273259571Y-129190714D01*
X273221476Y-129228809D01*
X273145285Y-129266904D01*
X272992904Y-129266904D01*
X272916714Y-129228809D01*
X272878619Y-129190714D01*
X272840523Y-129114523D01*
X272840523Y-128924047D01*
X272878619Y-128847857D01*
X272916714Y-128809761D01*
X272992904Y-128771666D01*
X273145285Y-128771666D01*
X273221476Y-128809761D01*
X273259571Y-128847857D01*
X273297666Y-128924047D01*
X273754809Y-131387857D02*
X273640523Y-131425952D01*
X273602428Y-131464047D01*
X273564333Y-131540238D01*
X273564333Y-131654523D01*
X273602428Y-131730714D01*
X273640523Y-131768809D01*
X273716714Y-131806904D01*
X274021476Y-131806904D01*
X274021476Y-131006904D01*
X273754809Y-131006904D01*
X273678619Y-131045000D01*
X273640523Y-131083095D01*
X273602428Y-131159285D01*
X273602428Y-131235476D01*
X273640523Y-131311666D01*
X273678619Y-131349761D01*
X273754809Y-131387857D01*
X274021476Y-131387857D01*
X272878619Y-131273571D02*
X272878619Y-131806904D01*
X273069095Y-130968809D02*
X273259571Y-131540238D01*
X272764333Y-131540238D01*
X273754809Y-133927857D02*
X273640523Y-133965952D01*
X273602428Y-134004047D01*
X273564333Y-134080238D01*
X273564333Y-134194523D01*
X273602428Y-134270714D01*
X273640523Y-134308809D01*
X273716714Y-134346904D01*
X274021476Y-134346904D01*
X274021476Y-133546904D01*
X273754809Y-133546904D01*
X273678619Y-133585000D01*
X273640523Y-133623095D01*
X273602428Y-133699285D01*
X273602428Y-133775476D01*
X273640523Y-133851666D01*
X273678619Y-133889761D01*
X273754809Y-133927857D01*
X274021476Y-133927857D01*
X272840523Y-133546904D02*
X273221476Y-133546904D01*
X273259571Y-133927857D01*
X273221476Y-133889761D01*
X273145285Y-133851666D01*
X272954809Y-133851666D01*
X272878619Y-133889761D01*
X272840523Y-133927857D01*
X272802428Y-134004047D01*
X272802428Y-134194523D01*
X272840523Y-134270714D01*
X272878619Y-134308809D01*
X272954809Y-134346904D01*
X273145285Y-134346904D01*
X273221476Y-134308809D01*
X273259571Y-134270714D01*
X262832809Y-133927857D02*
X262718523Y-133965952D01*
X262680428Y-134004047D01*
X262642333Y-134080238D01*
X262642333Y-134194523D01*
X262680428Y-134270714D01*
X262718523Y-134308809D01*
X262794714Y-134346904D01*
X263099476Y-134346904D01*
X263099476Y-133546904D01*
X262832809Y-133546904D01*
X262756619Y-133585000D01*
X262718523Y-133623095D01*
X262680428Y-133699285D01*
X262680428Y-133775476D01*
X262718523Y-133851666D01*
X262756619Y-133889761D01*
X262832809Y-133927857D01*
X263099476Y-133927857D01*
X261956619Y-133546904D02*
X262109000Y-133546904D01*
X262185190Y-133585000D01*
X262223285Y-133623095D01*
X262299476Y-133737380D01*
X262337571Y-133889761D01*
X262337571Y-134194523D01*
X262299476Y-134270714D01*
X262261380Y-134308809D01*
X262185190Y-134346904D01*
X262032809Y-134346904D01*
X261956619Y-134308809D01*
X261918523Y-134270714D01*
X261880428Y-134194523D01*
X261880428Y-134004047D01*
X261918523Y-133927857D01*
X261956619Y-133889761D01*
X262032809Y-133851666D01*
X262185190Y-133851666D01*
X262261380Y-133889761D01*
X262299476Y-133927857D01*
X262337571Y-134004047D01*
X262832809Y-128847857D02*
X262718523Y-128885952D01*
X262680428Y-128924047D01*
X262642333Y-129000238D01*
X262642333Y-129114523D01*
X262680428Y-129190714D01*
X262718523Y-129228809D01*
X262794714Y-129266904D01*
X263099476Y-129266904D01*
X263099476Y-128466904D01*
X262832809Y-128466904D01*
X262756619Y-128505000D01*
X262718523Y-128543095D01*
X262680428Y-128619285D01*
X262680428Y-128695476D01*
X262718523Y-128771666D01*
X262756619Y-128809761D01*
X262832809Y-128847857D01*
X263099476Y-128847857D01*
X262375666Y-128466904D02*
X261880428Y-128466904D01*
X262147095Y-128771666D01*
X262032809Y-128771666D01*
X261956619Y-128809761D01*
X261918523Y-128847857D01*
X261880428Y-128924047D01*
X261880428Y-129114523D01*
X261918523Y-129190714D01*
X261956619Y-129228809D01*
X262032809Y-129266904D01*
X262261380Y-129266904D01*
X262337571Y-129228809D01*
X262375666Y-129190714D01*
X262832809Y-126307857D02*
X262718523Y-126345952D01*
X262680428Y-126384047D01*
X262642333Y-126460238D01*
X262642333Y-126574523D01*
X262680428Y-126650714D01*
X262718523Y-126688809D01*
X262794714Y-126726904D01*
X263099476Y-126726904D01*
X263099476Y-125926904D01*
X262832809Y-125926904D01*
X262756619Y-125965000D01*
X262718523Y-126003095D01*
X262680428Y-126079285D01*
X262680428Y-126155476D01*
X262718523Y-126231666D01*
X262756619Y-126269761D01*
X262832809Y-126307857D01*
X263099476Y-126307857D01*
X261880428Y-126726904D02*
X262337571Y-126726904D01*
X262109000Y-126726904D02*
X262109000Y-125926904D01*
X262185190Y-126041190D01*
X262261380Y-126117380D01*
X262337571Y-126155476D01*
X262775666Y-116147857D02*
X263042333Y-116147857D01*
X263042333Y-116566904D02*
X263042333Y-115766904D01*
X262661380Y-115766904D01*
X262013761Y-116033571D02*
X262013761Y-116566904D01*
X262204238Y-115728809D02*
X262394714Y-116300238D01*
X261899476Y-116300238D01*
X263575666Y-113226904D02*
X263309000Y-114026904D01*
X263042333Y-113226904D01*
X262318523Y-113950714D02*
X262356619Y-113988809D01*
X262470904Y-114026904D01*
X262547095Y-114026904D01*
X262661380Y-113988809D01*
X262737571Y-113912619D01*
X262775666Y-113836428D01*
X262813761Y-113684047D01*
X262813761Y-113569761D01*
X262775666Y-113417380D01*
X262737571Y-113341190D01*
X262661380Y-113265000D01*
X262547095Y-113226904D01*
X262470904Y-113226904D01*
X262356619Y-113265000D01*
X262318523Y-113303095D01*
X261518523Y-113950714D02*
X261556619Y-113988809D01*
X261670904Y-114026904D01*
X261747095Y-114026904D01*
X261861380Y-113988809D01*
X261937571Y-113912619D01*
X261975666Y-113836428D01*
X262013761Y-113684047D01*
X262013761Y-113569761D01*
X261975666Y-113417380D01*
X261937571Y-113341190D01*
X261861380Y-113265000D01*
X261747095Y-113226904D01*
X261670904Y-113226904D01*
X261556619Y-113265000D01*
X261518523Y-113303095D01*
X262770213Y-111418809D02*
X262655927Y-111456904D01*
X262465451Y-111456904D01*
X262389260Y-111418809D01*
X262351165Y-111380714D01*
X262313070Y-111304523D01*
X262313070Y-111228333D01*
X262351165Y-111152142D01*
X262389260Y-111114047D01*
X262465451Y-111075952D01*
X262617832Y-111037857D01*
X262694022Y-110999761D01*
X262732118Y-110961666D01*
X262770213Y-110885476D01*
X262770213Y-110809285D01*
X262732118Y-110733095D01*
X262694022Y-110695000D01*
X262617832Y-110656904D01*
X262427356Y-110656904D01*
X262313070Y-110695000D01*
X262084499Y-110656904D02*
X261627356Y-110656904D01*
X261855927Y-111456904D02*
X261855927Y-110656904D01*
X263118523Y-108185000D02*
X263194714Y-108146904D01*
X263309000Y-108146904D01*
X263423285Y-108185000D01*
X263499476Y-108261190D01*
X263537571Y-108337380D01*
X263575666Y-108489761D01*
X263575666Y-108604047D01*
X263537571Y-108756428D01*
X263499476Y-108832619D01*
X263423285Y-108908809D01*
X263309000Y-108946904D01*
X263232809Y-108946904D01*
X263118523Y-108908809D01*
X263080428Y-108870714D01*
X263080428Y-108604047D01*
X263232809Y-108604047D01*
X262737571Y-108946904D02*
X262737571Y-108146904D01*
X262280428Y-108946904D01*
X262280428Y-108146904D01*
X261899476Y-108946904D02*
X261899476Y-108146904D01*
X261709000Y-108146904D01*
X261594714Y-108185000D01*
X261518523Y-108261190D01*
X261480428Y-108337380D01*
X261442333Y-108489761D01*
X261442333Y-108604047D01*
X261480428Y-108756428D01*
X261518523Y-108832619D01*
X261594714Y-108908809D01*
X261709000Y-108946904D01*
X261899476Y-108946904D01*
X263061380Y-106406904D02*
X263328047Y-106025952D01*
X263518523Y-106406904D02*
X263518523Y-105606904D01*
X263213761Y-105606904D01*
X263137571Y-105645000D01*
X263099476Y-105683095D01*
X263061380Y-105759285D01*
X263061380Y-105873571D01*
X263099476Y-105949761D01*
X263137571Y-105987857D01*
X263213761Y-106025952D01*
X263518523Y-106025952D01*
X262756619Y-106178333D02*
X262375666Y-106178333D01*
X262832809Y-106406904D02*
X262566142Y-105606904D01*
X262299476Y-106406904D01*
X262109000Y-105606904D02*
X261918523Y-106406904D01*
X261766142Y-105835476D01*
X261613761Y-106406904D01*
X261423285Y-105606904D01*
X262775666Y-118687857D02*
X263042333Y-118687857D01*
X263042333Y-119106904D02*
X263042333Y-118306904D01*
X262661380Y-118306904D01*
X261975666Y-118306904D02*
X262356619Y-118306904D01*
X262394714Y-118687857D01*
X262356619Y-118649761D01*
X262280428Y-118611666D01*
X262089952Y-118611666D01*
X262013761Y-118649761D01*
X261975666Y-118687857D01*
X261937571Y-118764047D01*
X261937571Y-118954523D01*
X261975666Y-119030714D01*
X262013761Y-119068809D01*
X262089952Y-119106904D01*
X262280428Y-119106904D01*
X262356619Y-119068809D01*
X262394714Y-119030714D01*
X262775666Y-121227857D02*
X263042333Y-121227857D01*
X263042333Y-121646904D02*
X263042333Y-120846904D01*
X262661380Y-120846904D01*
X262013761Y-120846904D02*
X262166142Y-120846904D01*
X262242333Y-120885000D01*
X262280428Y-120923095D01*
X262356619Y-121037380D01*
X262394714Y-121189761D01*
X262394714Y-121494523D01*
X262356619Y-121570714D01*
X262318523Y-121608809D01*
X262242333Y-121646904D01*
X262089952Y-121646904D01*
X262013761Y-121608809D01*
X261975666Y-121570714D01*
X261937571Y-121494523D01*
X261937571Y-121304047D01*
X261975666Y-121227857D01*
X262013761Y-121189761D01*
X262089952Y-121151666D01*
X262242333Y-121151666D01*
X262318523Y-121189761D01*
X262356619Y-121227857D01*
X262394714Y-121304047D01*
X262775666Y-123767857D02*
X263042333Y-123767857D01*
X263042333Y-124186904D02*
X263042333Y-123386904D01*
X262661380Y-123386904D01*
X262432809Y-123386904D02*
X261899476Y-123386904D01*
X262242333Y-124186904D01*
X262832809Y-131387857D02*
X262718523Y-131425952D01*
X262680428Y-131464047D01*
X262642333Y-131540238D01*
X262642333Y-131654523D01*
X262680428Y-131730714D01*
X262718523Y-131768809D01*
X262794714Y-131806904D01*
X263099476Y-131806904D01*
X263099476Y-131006904D01*
X262832809Y-131006904D01*
X262756619Y-131045000D01*
X262718523Y-131083095D01*
X262680428Y-131159285D01*
X262680428Y-131235476D01*
X262718523Y-131311666D01*
X262756619Y-131349761D01*
X262832809Y-131387857D01*
X263099476Y-131387857D01*
X262337571Y-131083095D02*
X262299476Y-131045000D01*
X262223285Y-131006904D01*
X262032809Y-131006904D01*
X261956619Y-131045000D01*
X261918523Y-131083095D01*
X261880428Y-131159285D01*
X261880428Y-131235476D01*
X261918523Y-131349761D01*
X262375666Y-131806904D01*
X261880428Y-131806904D01*
G04 #@! TO.C,Q1*
X275900619Y-144564761D02*
X275853000Y-144469523D01*
X275757761Y-144374285D01*
X275614904Y-144231428D01*
X275567285Y-144136190D01*
X275567285Y-144040952D01*
X275805380Y-144088571D02*
X275757761Y-143993333D01*
X275662523Y-143898095D01*
X275472047Y-143850476D01*
X275138714Y-143850476D01*
X274948238Y-143898095D01*
X274853000Y-143993333D01*
X274805380Y-144088571D01*
X274805380Y-144279047D01*
X274853000Y-144374285D01*
X274948238Y-144469523D01*
X275138714Y-144517142D01*
X275472047Y-144517142D01*
X275662523Y-144469523D01*
X275757761Y-144374285D01*
X275805380Y-144279047D01*
X275805380Y-144088571D01*
X275805380Y-145469523D02*
X275805380Y-144898095D01*
X275805380Y-145183809D02*
X274805380Y-145183809D01*
X274948238Y-145088571D01*
X275043476Y-144993333D01*
X275091095Y-144898095D01*
G04 #@! TD*
M02*
