  0
SECTION
  2
HEADER
  9
$ANGBASE
  50
0.0
  9
$ANGDIR
  70
  1
  9
$MEASUREMENT
  70
0
  0
ENDSEC
  0
SECTION
  2
TABLES
  0
TABLE
  2
LTYPE
  70
4
  0
LTYPE
  5
40F
  2
CONTINUOUS
  70
0
  3
Solid line
  72
65
  73
0
  40
0.0
  0
LTYPE
  5
410
  2
DASHDOT
 70
0
  3
Dash Dot ____ _ ____ _
 72
65
 73
4
 40
2.0
 49
1.25
 49
-0.25
 49
0.25
 49
-0.25
  0
LTYPE
  5
411
  2
DASHED
 70
0
  3
Dashed __ __ __ __ __
 72
65
 73
2
 40
0.75
 49
0.5
 49
-0.25
  0
LTYPE
  5
43B
  2
DOTTED
 70
0
  3
Dotted .  .  .  .
 72
65
 73
2
 40
0.2
 49
0.0
 49
-0.2
  0
ENDTAB
  0
TABLE
  2
STYLE
  70
4
  0
STYLE
  2
KICAD
  70
0
  40
0
  41
1
  42
1
  50
0
  71
0
  3
isocp.shx
  0
STYLE
  2
KICADB
  70
0
  40
0
  41
1
  42
1
  50
0
  71
0
  3
isocp.shx
  0
STYLE
  2
KICADI
  70
0
  40
0
  41
1
  42
1
  50
15
  71
0
  3
isocp.shx
  0
STYLE
  2
KICADBI
  70
0
  40
0
  41
1
  42
1
  50
15
  71
0
  3
isocp.shx
  0
ENDTAB
  0
TABLE
  2
LAYER
  70
30
  0
LAYER
  2
BLACK
  70
0
  62
7
  6
CONTINUOUS
  0
LAYER
  2
GRAY1
  70
0
  62
251
  6
CONTINUOUS
  0
LAYER
  2
GRAY2
  70
0
  62
8
  6
CONTINUOUS
  0
LAYER
  2
GRAY3
  70
0
  62
9
  6
CONTINUOUS
  0
LAYER
  2
WHITE
  70
0
  62
7
  6
CONTINUOUS
  0
LAYER
  2
LYELLOW
  70
0
  62
51
  6
CONTINUOUS
  0
LAYER
  2
BLUE1
  70
0
  62
178
  6
CONTINUOUS
  0
LAYER
  2
GREEN1
  70
0
  62
98
  6
CONTINUOUS
  0
LAYER
  2
CYAN1
  70
0
  62
138
  6
CONTINUOUS
  0
LAYER
  2
RED1
  70
0
  62
18
  6
CONTINUOUS
  0
LAYER
  2
MAGENTA1
  70
0
  62
228
  6
CONTINUOUS
  0
LAYER
  2
BROWN1
  70
0
  62
58
  6
CONTINUOUS
  0
LAYER
  2
BLUE2
  70
0
  62
5
  6
CONTINUOUS
  0
LAYER
  2
GREEN2
  70
0
  62
3
  6
CONTINUOUS
  0
LAYER
  2
CYAN2
  70
0
  62
4
  6
CONTINUOUS
  0
LAYER
  2
RED2
  70
0
  62
1
  6
CONTINUOUS
  0
LAYER
  2
MAGENTA2
  70
0
  62
6
  6
CONTINUOUS
  0
LAYER
  2
BROWN2
  70
0
  62
54
  6
CONTINUOUS
  0
LAYER
  2
BLUE3
  70
0
  62
171
  6
CONTINUOUS
  0
LAYER
  2
GREEN3
  70
0
  62
91
  6
CONTINUOUS
  0
LAYER
  2
CYAN3
  70
0
  62
131
  6
CONTINUOUS
  0
LAYER
  2
RED3
  70
0
  62
11
  6
CONTINUOUS
  0
LAYER
  2
MAGENTA3
  70
0
  62
221
  6
CONTINUOUS
  0
LAYER
  2
YELLOW3
  70
0
  62
2
  6
CONTINUOUS
  0
LAYER
  2
BLUE4
  70
0
  62
5
  6
CONTINUOUS
  0
LAYER
  2
GREEN4
  70
0
  62
3
  6
CONTINUOUS
  0
LAYER
  2
CYAN4
  70
0
  62
4
  6
CONTINUOUS
  0
LAYER
  2
RED4
  70
0
  62
1
  6
CONTINUOUS
  0
LAYER
  2
MAGENTA4
  70
0
  62
6
  6
CONTINUOUS
  0
LAYER
  2
YELLOW4
  70
0
  62
2
  6
CONTINUOUS
  0
ENDTAB
  0
ENDSEC
  0
SECTION
  2
ENTITIES
0
LINE
8
BLACK
6
CONTINUOUS
10
325.328
20
-96.8406
11
325.909
21
-96.9171
0
LINE
8
BLACK
6
CONTINUOUS
10
325.909
20
-96.9171
11
325.921
21
-96.9205
0
LINE
8
BLACK
6
CONTINUOUS
10
325.921
20
-96.9205
11
326.464
21
-97.1452
0
LINE
8
BLACK
6
CONTINUOUS
10
326.464
20
-97.1452
11
326.475
21
-97.1518
0
LINE
8
BLACK
6
CONTINUOUS
10
326.475
20
-97.1518
11
326.941
21
-97.5093
0
LINE
8
BLACK
6
CONTINUOUS
10
326.941
20
-97.5093
11
326.941
21
-97.5093
0
LINE
8
BLACK
6
CONTINUOUS
10
326.941
20
-97.5093
11
326.951
21
-97.5186
0
LINE
8
BLACK
6
CONTINUOUS
10
326.951
20
-97.5186
11
327.308
21
-97.9846
0
LINE
8
BLACK
6
CONTINUOUS
10
327.308
20
-97.9846
11
327.315
21
-97.9959
0
LINE
8
BLACK
6
CONTINUOUS
10
327.315
20
-97.9959
11
327.54
21
-98.5385
0
LINE
8
BLACK
6
CONTINUOUS
10
327.54
20
-98.5385
11
327.543
21
-98.5511
0
LINE
8
BLACK
6
CONTINUOUS
10
327.543
20
-98.5511
11
327.619
21
-99.1324
0
LINE
8
BLACK
6
CONTINUOUS
10
327.619
20
-99.1324
11
327.62
21
-99.1356
0
LINE
8
BLACK
6
CONTINUOUS
10
327.62
20
-99.1356
11
327.62
21
-170.844
0
LINE
8
BLACK
6
CONTINUOUS
10
327.62
20
-170.844
11
327.619
21
-170.848
0
LINE
8
BLACK
6
CONTINUOUS
10
327.619
20
-170.848
11
327.543
21
-171.429
0
LINE
8
BLACK
6
CONTINUOUS
10
327.543
20
-171.429
11
327.54
21
-171.441
0
LINE
8
BLACK
6
CONTINUOUS
10
327.54
20
-171.441
11
327.315
21
-171.984
0
LINE
8
BLACK
6
CONTINUOUS
10
327.315
20
-171.984
11
327.308
21
-171.995
0
LINE
8
BLACK
6
CONTINUOUS
10
327.308
20
-171.995
11
326.951
21
-172.461
0
LINE
8
BLACK
6
CONTINUOUS
10
326.951
20
-172.461
11
326.941
21
-172.471
0
LINE
8
BLACK
6
CONTINUOUS
10
326.941
20
-172.471
11
326.941
21
-172.471
0
LINE
8
BLACK
6
CONTINUOUS
10
326.941
20
-172.471
11
326.475
21
-172.828
0
LINE
8
BLACK
6
CONTINUOUS
10
326.475
20
-172.828
11
326.464
21
-172.835
0
LINE
8
BLACK
6
CONTINUOUS
10
326.464
20
-172.835
11
325.921
21
-173.06
0
LINE
8
BLACK
6
CONTINUOUS
10
325.921
20
-173.06
11
325.909
21
-173.063
0
LINE
8
BLACK
6
CONTINUOUS
10
325.909
20
-173.063
11
325.328
21
-173.139
0
LINE
8
BLACK
6
CONTINUOUS
10
325.328
20
-173.139
11
325.324
21
-173.14
0
LINE
8
BLACK
6
CONTINUOUS
10
325.324
20
-173.14
11
253.616
21
-173.14
0
LINE
8
BLACK
6
CONTINUOUS
10
253.616
20
-173.14
11
253.612
21
-173.139
0
LINE
8
BLACK
6
CONTINUOUS
10
253.612
20
-173.139
11
253.031
21
-173.063
0
LINE
8
BLACK
6
CONTINUOUS
10
253.031
20
-173.063
11
253.019
21
-173.06
0
LINE
8
BLACK
6
CONTINUOUS
10
253.019
20
-173.06
11
252.476
21
-172.835
0
LINE
8
BLACK
6
CONTINUOUS
10
252.476
20
-172.835
11
252.465
21
-172.828
0
LINE
8
BLACK
6
CONTINUOUS
10
252.465
20
-172.828
11
251.999
21
-172.471
0
LINE
8
BLACK
6
CONTINUOUS
10
251.999
20
-172.471
11
251.989
21
-172.461
0
LINE
8
BLACK
6
CONTINUOUS
10
251.989
20
-172.461
11
251.989
21
-172.461
0
LINE
8
BLACK
6
CONTINUOUS
10
251.989
20
-172.461
11
251.632
21
-171.995
0
LINE
8
BLACK
6
CONTINUOUS
10
251.632
20
-171.995
11
251.625
21
-171.984
0
LINE
8
BLACK
6
CONTINUOUS
10
251.625
20
-171.984
11
251.4
21
-171.441
0
LINE
8
BLACK
6
CONTINUOUS
10
251.4
20
-171.441
11
251.397
21
-171.429
0
LINE
8
BLACK
6
CONTINUOUS
10
251.397
20
-171.429
11
251.321
21
-170.848
0
LINE
8
BLACK
6
CONTINUOUS
10
251.321
20
-170.848
11
251.32
21
-170.844
0
LINE
8
BLACK
6
CONTINUOUS
10
251.32
20
-170.844
11
251.32
21
-99.1356
0
LINE
8
BLACK
6
CONTINUOUS
10
251.32
20
-99.1356
11
251.321
21
-99.1324
0
LINE
8
BLACK
6
CONTINUOUS
10
251.321
20
-99.1324
11
251.397
21
-98.5511
0
LINE
8
BLACK
6
CONTINUOUS
10
251.397
20
-98.5511
11
251.4
21
-98.5385
0
LINE
8
BLACK
6
CONTINUOUS
10
251.4
20
-98.5385
11
251.625
21
-97.9959
0
LINE
8
BLACK
6
CONTINUOUS
10
251.625
20
-97.9959
11
251.632
21
-97.9846
0
LINE
8
BLACK
6
CONTINUOUS
10
251.632
20
-97.9846
11
251.989
21
-97.5186
0
LINE
8
BLACK
6
CONTINUOUS
10
251.989
20
-97.5186
11
251.989
21
-97.5186
0
LINE
8
BLACK
6
CONTINUOUS
10
251.989
20
-97.5186
11
251.999
21
-97.5093
0
LINE
8
BLACK
6
CONTINUOUS
10
251.999
20
-97.5093
11
252.465
21
-97.1518
0
LINE
8
BLACK
6
CONTINUOUS
10
252.465
20
-97.1518
11
252.476
21
-97.1452
0
LINE
8
BLACK
6
CONTINUOUS
10
252.476
20
-97.1452
11
253.019
21
-96.9205
0
LINE
8
BLACK
6
CONTINUOUS
10
253.019
20
-96.9205
11
253.031
21
-96.9171
0
LINE
8
BLACK
6
CONTINUOUS
10
253.031
20
-96.9171
11
253.612
21
-96.8406
0
LINE
8
BLACK
6
CONTINUOUS
10
253.612
20
-96.8406
11
253.616
21
-96.84
0
LINE
8
BLACK
6
CONTINUOUS
10
253.616
20
-96.84
11
325.324
21
-96.84
0
LINE
8
BLACK
6
CONTINUOUS
10
325.324
20
-96.84
11
325.328
21
-96.8406
0
LINE
8
BLACK
6
CONTINUOUS
10
253.623
20
-96.94
11
253.051
21
-97.0154
0
LINE
8
BLACK
6
CONTINUOUS
10
253.051
20
-97.0154
11
252.52
21
-97.2351
0
LINE
8
BLACK
6
CONTINUOUS
10
252.52
20
-97.2351
11
252.065
21
-97.5847
0
LINE
8
BLACK
6
CONTINUOUS
10
252.065
20
-97.5847
11
251.715
21
-98.0402
0
LINE
8
BLACK
6
CONTINUOUS
10
251.715
20
-98.0402
11
251.495
21
-98.5707
0
LINE
8
BLACK
6
CONTINUOUS
10
251.495
20
-98.5707
11
251.42
21
-99.1433
0
LINE
8
BLACK
6
CONTINUOUS
10
251.42
20
-99.1433
11
251.42
21
-170.837
0
LINE
8
BLACK
6
CONTINUOUS
10
251.42
20
-170.837
11
251.495
21
-171.409
0
LINE
8
BLACK
6
CONTINUOUS
10
251.495
20
-171.409
11
251.715
21
-171.94
0
LINE
8
BLACK
6
CONTINUOUS
10
251.715
20
-171.94
11
252.065
21
-172.395
0
LINE
8
BLACK
6
CONTINUOUS
10
252.065
20
-172.395
11
252.52
21
-172.745
0
LINE
8
BLACK
6
CONTINUOUS
10
252.52
20
-172.745
11
253.051
21
-172.965
0
LINE
8
BLACK
6
CONTINUOUS
10
253.051
20
-172.965
11
253.623
21
-173.04
0
LINE
8
BLACK
6
CONTINUOUS
10
253.623
20
-173.04
11
325.317
21
-173.04
0
LINE
8
BLACK
6
CONTINUOUS
10
325.317
20
-173.04
11
325.889
21
-172.965
0
LINE
8
BLACK
6
CONTINUOUS
10
325.889
20
-172.965
11
326.42
21
-172.745
0
LINE
8
BLACK
6
CONTINUOUS
10
326.42
20
-172.745
11
326.875
21
-172.395
0
LINE
8
BLACK
6
CONTINUOUS
10
326.875
20
-172.395
11
327.225
21
-171.94
0
LINE
8
BLACK
6
CONTINUOUS
10
327.225
20
-171.94
11
327.445
21
-171.409
0
LINE
8
BLACK
6
CONTINUOUS
10
327.445
20
-171.409
11
327.52
21
-170.837
0
LINE
8
BLACK
6
CONTINUOUS
10
327.52
20
-170.837
11
327.52
21
-99.1433
0
LINE
8
BLACK
6
CONTINUOUS
10
327.52
20
-99.1433
11
327.445
21
-98.5707
0
LINE
8
BLACK
6
CONTINUOUS
10
327.445
20
-98.5707
11
327.225
21
-98.0402
0
LINE
8
BLACK
6
CONTINUOUS
10
327.225
20
-98.0402
11
326.875
21
-97.5847
0
LINE
8
BLACK
6
CONTINUOUS
10
326.875
20
-97.5847
11
326.42
21
-97.2351
0
LINE
8
BLACK
6
CONTINUOUS
10
326.42
20
-97.2351
11
325.889
21
-97.0154
0
LINE
8
BLACK
6
CONTINUOUS
10
325.889
20
-97.0154
11
325.317
21
-96.94
0
LINE
8
BLACK
6
CONTINUOUS
10
325.317
20
-96.94
11
253.623
21
-96.94
  0
ENDSEC
  0
EOF
