G04 #@! TF.GenerationSoftware,KiCad,Pcbnew,(5.0.1)-3*
G04 #@! TF.CreationDate,2020-04-26T16:36:33+05:00*
G04 #@! TF.ProjectId,hybrid_plate,6879627269645F706C6174652E6B6963,rev?*
G04 #@! TF.SameCoordinates,Original*
G04 #@! TF.FileFunction,Copper,L1,Top,Signal*
G04 #@! TF.FilePolarity,Positive*
%FSLAX46Y46*%
G04 Gerber Fmt 4.6, Leading zero omitted, Abs format (unit mm)*
G04 Created by KiCad (PCBNEW (5.0.1)-3) date 26.04.2020 16:36:33*
%MOMM*%
%LPD*%
G01*
G04 APERTURE LIST*
G04 #@! TA.AperFunction,ComponentPad*
%ADD10C,1.000000*%
G04 #@! TD*
G04 #@! TA.AperFunction,Conductor*
%ADD11C,0.150000*%
G04 #@! TD*
G04 #@! TA.AperFunction,ComponentPad*
%ADD12C,4.000000*%
G04 #@! TD*
G04 #@! TA.AperFunction,NonConductor*
%ADD13C,0.254000*%
G04 #@! TD*
G04 APERTURE END LIST*
D10*
G04 #@! TO.P,REF\002A\002A,1*
G04 #@! TO.N,N/C*
X292320000Y-167590000D03*
D11*
G04 #@! TD*
G04 #@! TO.N,N/C*
G04 #@! TO.C,REF\002A\002A*
G36*
X292820000Y-170840000D02*
X291820000Y-170840000D01*
X291820000Y-164340000D01*
X292820000Y-164340000D01*
X292820000Y-170840000D01*
X292820000Y-170840000D01*
G37*
D10*
G04 #@! TO.P,REF\002A\002A,1*
G04 #@! TO.N,N/C*
X292320000Y-159690000D03*
D11*
G04 #@! TD*
G04 #@! TO.N,N/C*
G04 #@! TO.C,REF\002A\002A*
G36*
X292820000Y-162940000D02*
X291820000Y-162940000D01*
X291820000Y-156440000D01*
X292820000Y-156440000D01*
X292820000Y-162940000D01*
X292820000Y-162940000D01*
G37*
D10*
G04 #@! TO.P,REF\002A\002A,1*
G04 #@! TO.N,N/C*
X305720000Y-167590000D03*
D11*
G04 #@! TD*
G04 #@! TO.N,N/C*
G04 #@! TO.C,REF\002A\002A*
G36*
X305220000Y-164340000D02*
X306220000Y-164340000D01*
X306220000Y-170840000D01*
X305220000Y-170840000D01*
X305220000Y-164340000D01*
X305220000Y-164340000D01*
G37*
D10*
G04 #@! TO.P,REF\002A\002A,1*
G04 #@! TO.N,N/C*
X299020000Y-156940000D03*
D11*
G04 #@! TD*
G04 #@! TO.N,N/C*
G04 #@! TO.C,REF\002A\002A*
G36*
X306020000Y-156440000D02*
X306020000Y-157440000D01*
X292020000Y-157440000D01*
X292020000Y-156440000D01*
X306020000Y-156440000D01*
X306020000Y-156440000D01*
G37*
D10*
G04 #@! TO.P,REF\002A\002A,1*
G04 #@! TO.N,N/C*
X299020000Y-170340000D03*
D11*
G04 #@! TD*
G04 #@! TO.N,N/C*
G04 #@! TO.C,REF\002A\002A*
G36*
X292020000Y-170840000D02*
X292020000Y-169840000D01*
X306020000Y-169840000D01*
X306020000Y-170840000D01*
X292020000Y-170840000D01*
X292020000Y-170840000D01*
G37*
D10*
G04 #@! TO.P,REF\002A\002A,1*
G04 #@! TO.N,N/C*
X305720000Y-159690000D03*
D11*
G04 #@! TD*
G04 #@! TO.N,N/C*
G04 #@! TO.C,REF\002A\002A*
G36*
X305220000Y-156440000D02*
X306220000Y-156440000D01*
X306220000Y-162940000D01*
X305220000Y-162940000D01*
X305220000Y-156440000D01*
X305220000Y-156440000D01*
G37*
D10*
G04 #@! TO.P,REF\002A\002A,1*
G04 #@! TO.N,N/C*
X273270000Y-167590000D03*
D11*
G04 #@! TD*
G04 #@! TO.N,N/C*
G04 #@! TO.C,REF\002A\002A*
G36*
X273770000Y-170840000D02*
X272770000Y-170840000D01*
X272770000Y-164340000D01*
X273770000Y-164340000D01*
X273770000Y-170840000D01*
X273770000Y-170840000D01*
G37*
D10*
G04 #@! TO.P,REF\002A\002A,1*
G04 #@! TO.N,N/C*
X273270000Y-159690000D03*
D11*
G04 #@! TD*
G04 #@! TO.N,N/C*
G04 #@! TO.C,REF\002A\002A*
G36*
X273770000Y-162940000D02*
X272770000Y-162940000D01*
X272770000Y-156440000D01*
X273770000Y-156440000D01*
X273770000Y-162940000D01*
X273770000Y-162940000D01*
G37*
D10*
G04 #@! TO.P,REF\002A\002A,1*
G04 #@! TO.N,N/C*
X286670000Y-167590000D03*
D11*
G04 #@! TD*
G04 #@! TO.N,N/C*
G04 #@! TO.C,REF\002A\002A*
G36*
X286170000Y-164340000D02*
X287170000Y-164340000D01*
X287170000Y-170840000D01*
X286170000Y-170840000D01*
X286170000Y-164340000D01*
X286170000Y-164340000D01*
G37*
D10*
G04 #@! TO.P,REF\002A\002A,1*
G04 #@! TO.N,N/C*
X279970000Y-156940000D03*
D11*
G04 #@! TD*
G04 #@! TO.N,N/C*
G04 #@! TO.C,REF\002A\002A*
G36*
X286970000Y-156440000D02*
X286970000Y-157440000D01*
X272970000Y-157440000D01*
X272970000Y-156440000D01*
X286970000Y-156440000D01*
X286970000Y-156440000D01*
G37*
D10*
G04 #@! TO.P,REF\002A\002A,1*
G04 #@! TO.N,N/C*
X279970000Y-170340000D03*
D11*
G04 #@! TD*
G04 #@! TO.N,N/C*
G04 #@! TO.C,REF\002A\002A*
G36*
X272970000Y-170840000D02*
X272970000Y-169840000D01*
X286970000Y-169840000D01*
X286970000Y-170840000D01*
X272970000Y-170840000D01*
X272970000Y-170840000D01*
G37*
D10*
G04 #@! TO.P,REF\002A\002A,1*
G04 #@! TO.N,N/C*
X286670000Y-159690000D03*
D11*
G04 #@! TD*
G04 #@! TO.N,N/C*
G04 #@! TO.C,REF\002A\002A*
G36*
X286170000Y-156440000D02*
X287170000Y-156440000D01*
X287170000Y-162940000D01*
X286170000Y-162940000D01*
X286170000Y-156440000D01*
X286170000Y-156440000D01*
G37*
D10*
G04 #@! TO.P,REF\002A\002A,1*
G04 #@! TO.N,N/C*
X254220000Y-167590000D03*
D11*
G04 #@! TD*
G04 #@! TO.N,N/C*
G04 #@! TO.C,REF\002A\002A*
G36*
X254720000Y-170840000D02*
X253720000Y-170840000D01*
X253720000Y-164340000D01*
X254720000Y-164340000D01*
X254720000Y-170840000D01*
X254720000Y-170840000D01*
G37*
D10*
G04 #@! TO.P,REF\002A\002A,1*
G04 #@! TO.N,N/C*
X254220000Y-159690000D03*
D11*
G04 #@! TD*
G04 #@! TO.N,N/C*
G04 #@! TO.C,REF\002A\002A*
G36*
X254720000Y-162940000D02*
X253720000Y-162940000D01*
X253720000Y-156440000D01*
X254720000Y-156440000D01*
X254720000Y-162940000D01*
X254720000Y-162940000D01*
G37*
D10*
G04 #@! TO.P,REF\002A\002A,1*
G04 #@! TO.N,N/C*
X267620000Y-167590000D03*
D11*
G04 #@! TD*
G04 #@! TO.N,N/C*
G04 #@! TO.C,REF\002A\002A*
G36*
X267120000Y-164340000D02*
X268120000Y-164340000D01*
X268120000Y-170840000D01*
X267120000Y-170840000D01*
X267120000Y-164340000D01*
X267120000Y-164340000D01*
G37*
D10*
G04 #@! TO.P,REF\002A\002A,1*
G04 #@! TO.N,N/C*
X260920000Y-156940000D03*
D11*
G04 #@! TD*
G04 #@! TO.N,N/C*
G04 #@! TO.C,REF\002A\002A*
G36*
X267920000Y-156440000D02*
X267920000Y-157440000D01*
X253920000Y-157440000D01*
X253920000Y-156440000D01*
X267920000Y-156440000D01*
X267920000Y-156440000D01*
G37*
D10*
G04 #@! TO.P,REF\002A\002A,1*
G04 #@! TO.N,N/C*
X260920000Y-170340000D03*
D11*
G04 #@! TD*
G04 #@! TO.N,N/C*
G04 #@! TO.C,REF\002A\002A*
G36*
X253920000Y-170840000D02*
X253920000Y-169840000D01*
X267920000Y-169840000D01*
X267920000Y-170840000D01*
X253920000Y-170840000D01*
X253920000Y-170840000D01*
G37*
D10*
G04 #@! TO.P,REF\002A\002A,1*
G04 #@! TO.N,N/C*
X267620000Y-159690000D03*
D11*
G04 #@! TD*
G04 #@! TO.N,N/C*
G04 #@! TO.C,REF\002A\002A*
G36*
X267120000Y-156440000D02*
X268120000Y-156440000D01*
X268120000Y-162940000D01*
X267120000Y-162940000D01*
X267120000Y-156440000D01*
X267120000Y-156440000D01*
G37*
D10*
G04 #@! TO.P,REF\002A\002A,1*
G04 #@! TO.N,N/C*
X311370000Y-167590000D03*
D11*
G04 #@! TD*
G04 #@! TO.N,N/C*
G04 #@! TO.C,REF\002A\002A*
G36*
X311870000Y-170840000D02*
X310870000Y-170840000D01*
X310870000Y-164340000D01*
X311870000Y-164340000D01*
X311870000Y-170840000D01*
X311870000Y-170840000D01*
G37*
D10*
G04 #@! TO.P,REF\002A\002A,1*
G04 #@! TO.N,N/C*
X311370000Y-159690000D03*
D11*
G04 #@! TD*
G04 #@! TO.N,N/C*
G04 #@! TO.C,REF\002A\002A*
G36*
X311870000Y-162940000D02*
X310870000Y-162940000D01*
X310870000Y-156440000D01*
X311870000Y-156440000D01*
X311870000Y-162940000D01*
X311870000Y-162940000D01*
G37*
D10*
G04 #@! TO.P,REF\002A\002A,1*
G04 #@! TO.N,N/C*
X324770000Y-167590000D03*
D11*
G04 #@! TD*
G04 #@! TO.N,N/C*
G04 #@! TO.C,REF\002A\002A*
G36*
X324270000Y-164340000D02*
X325270000Y-164340000D01*
X325270000Y-170840000D01*
X324270000Y-170840000D01*
X324270000Y-164340000D01*
X324270000Y-164340000D01*
G37*
D10*
G04 #@! TO.P,REF\002A\002A,1*
G04 #@! TO.N,N/C*
X318070000Y-156940000D03*
D11*
G04 #@! TD*
G04 #@! TO.N,N/C*
G04 #@! TO.C,REF\002A\002A*
G36*
X325070000Y-156440000D02*
X325070000Y-157440000D01*
X311070000Y-157440000D01*
X311070000Y-156440000D01*
X325070000Y-156440000D01*
X325070000Y-156440000D01*
G37*
D10*
G04 #@! TO.P,REF\002A\002A,1*
G04 #@! TO.N,N/C*
X318070000Y-170340000D03*
D11*
G04 #@! TD*
G04 #@! TO.N,N/C*
G04 #@! TO.C,REF\002A\002A*
G36*
X311070000Y-170840000D02*
X311070000Y-169840000D01*
X325070000Y-169840000D01*
X325070000Y-170840000D01*
X311070000Y-170840000D01*
X311070000Y-170840000D01*
G37*
D10*
G04 #@! TO.P,REF\002A\002A,1*
G04 #@! TO.N,N/C*
X324770000Y-159690000D03*
D11*
G04 #@! TD*
G04 #@! TO.N,N/C*
G04 #@! TO.C,REF\002A\002A*
G36*
X324270000Y-156440000D02*
X325270000Y-156440000D01*
X325270000Y-162940000D01*
X324270000Y-162940000D01*
X324270000Y-156440000D01*
X324270000Y-156440000D01*
G37*
D10*
G04 #@! TO.P,REF\002A\002A,1*
G04 #@! TO.N,N/C*
X311370000Y-148540000D03*
D11*
G04 #@! TD*
G04 #@! TO.N,N/C*
G04 #@! TO.C,REF\002A\002A*
G36*
X311870000Y-151790000D02*
X310870000Y-151790000D01*
X310870000Y-145290000D01*
X311870000Y-145290000D01*
X311870000Y-151790000D01*
X311870000Y-151790000D01*
G37*
D10*
G04 #@! TO.P,REF\002A\002A,1*
G04 #@! TO.N,N/C*
X311370000Y-140640000D03*
D11*
G04 #@! TD*
G04 #@! TO.N,N/C*
G04 #@! TO.C,REF\002A\002A*
G36*
X311870000Y-143890000D02*
X310870000Y-143890000D01*
X310870000Y-137390000D01*
X311870000Y-137390000D01*
X311870000Y-143890000D01*
X311870000Y-143890000D01*
G37*
D10*
G04 #@! TO.P,REF\002A\002A,1*
G04 #@! TO.N,N/C*
X324770000Y-148540000D03*
D11*
G04 #@! TD*
G04 #@! TO.N,N/C*
G04 #@! TO.C,REF\002A\002A*
G36*
X324270000Y-145290000D02*
X325270000Y-145290000D01*
X325270000Y-151790000D01*
X324270000Y-151790000D01*
X324270000Y-145290000D01*
X324270000Y-145290000D01*
G37*
D10*
G04 #@! TO.P,REF\002A\002A,1*
G04 #@! TO.N,N/C*
X318070000Y-137890000D03*
D11*
G04 #@! TD*
G04 #@! TO.N,N/C*
G04 #@! TO.C,REF\002A\002A*
G36*
X325070000Y-137390000D02*
X325070000Y-138390000D01*
X311070000Y-138390000D01*
X311070000Y-137390000D01*
X325070000Y-137390000D01*
X325070000Y-137390000D01*
G37*
D10*
G04 #@! TO.P,REF\002A\002A,1*
G04 #@! TO.N,N/C*
X318070000Y-151290000D03*
D11*
G04 #@! TD*
G04 #@! TO.N,N/C*
G04 #@! TO.C,REF\002A\002A*
G36*
X311070000Y-151790000D02*
X311070000Y-150790000D01*
X325070000Y-150790000D01*
X325070000Y-151790000D01*
X311070000Y-151790000D01*
X311070000Y-151790000D01*
G37*
D10*
G04 #@! TO.P,REF\002A\002A,1*
G04 #@! TO.N,N/C*
X324770000Y-140640000D03*
D11*
G04 #@! TD*
G04 #@! TO.N,N/C*
G04 #@! TO.C,REF\002A\002A*
G36*
X324270000Y-137390000D02*
X325270000Y-137390000D01*
X325270000Y-143890000D01*
X324270000Y-143890000D01*
X324270000Y-137390000D01*
X324270000Y-137390000D01*
G37*
D10*
G04 #@! TO.P,REF\002A\002A,1*
G04 #@! TO.N,N/C*
X292320000Y-148540000D03*
D11*
G04 #@! TD*
G04 #@! TO.N,N/C*
G04 #@! TO.C,REF\002A\002A*
G36*
X292820000Y-151790000D02*
X291820000Y-151790000D01*
X291820000Y-145290000D01*
X292820000Y-145290000D01*
X292820000Y-151790000D01*
X292820000Y-151790000D01*
G37*
D10*
G04 #@! TO.P,REF\002A\002A,1*
G04 #@! TO.N,N/C*
X292320000Y-140640000D03*
D11*
G04 #@! TD*
G04 #@! TO.N,N/C*
G04 #@! TO.C,REF\002A\002A*
G36*
X292820000Y-143890000D02*
X291820000Y-143890000D01*
X291820000Y-137390000D01*
X292820000Y-137390000D01*
X292820000Y-143890000D01*
X292820000Y-143890000D01*
G37*
D10*
G04 #@! TO.P,REF\002A\002A,1*
G04 #@! TO.N,N/C*
X305720000Y-148540000D03*
D11*
G04 #@! TD*
G04 #@! TO.N,N/C*
G04 #@! TO.C,REF\002A\002A*
G36*
X305220000Y-145290000D02*
X306220000Y-145290000D01*
X306220000Y-151790000D01*
X305220000Y-151790000D01*
X305220000Y-145290000D01*
X305220000Y-145290000D01*
G37*
D10*
G04 #@! TO.P,REF\002A\002A,1*
G04 #@! TO.N,N/C*
X299020000Y-137890000D03*
D11*
G04 #@! TD*
G04 #@! TO.N,N/C*
G04 #@! TO.C,REF\002A\002A*
G36*
X306020000Y-137390000D02*
X306020000Y-138390000D01*
X292020000Y-138390000D01*
X292020000Y-137390000D01*
X306020000Y-137390000D01*
X306020000Y-137390000D01*
G37*
D10*
G04 #@! TO.P,REF\002A\002A,1*
G04 #@! TO.N,N/C*
X299020000Y-151290000D03*
D11*
G04 #@! TD*
G04 #@! TO.N,N/C*
G04 #@! TO.C,REF\002A\002A*
G36*
X292020000Y-151790000D02*
X292020000Y-150790000D01*
X306020000Y-150790000D01*
X306020000Y-151790000D01*
X292020000Y-151790000D01*
X292020000Y-151790000D01*
G37*
D10*
G04 #@! TO.P,REF\002A\002A,1*
G04 #@! TO.N,N/C*
X305720000Y-140640000D03*
D11*
G04 #@! TD*
G04 #@! TO.N,N/C*
G04 #@! TO.C,REF\002A\002A*
G36*
X305220000Y-137390000D02*
X306220000Y-137390000D01*
X306220000Y-143890000D01*
X305220000Y-143890000D01*
X305220000Y-137390000D01*
X305220000Y-137390000D01*
G37*
D10*
G04 #@! TO.P,REF\002A\002A,1*
G04 #@! TO.N,N/C*
X273270000Y-148540000D03*
D11*
G04 #@! TD*
G04 #@! TO.N,N/C*
G04 #@! TO.C,REF\002A\002A*
G36*
X273770000Y-151790000D02*
X272770000Y-151790000D01*
X272770000Y-145290000D01*
X273770000Y-145290000D01*
X273770000Y-151790000D01*
X273770000Y-151790000D01*
G37*
D10*
G04 #@! TO.P,REF\002A\002A,1*
G04 #@! TO.N,N/C*
X273270000Y-140640000D03*
D11*
G04 #@! TD*
G04 #@! TO.N,N/C*
G04 #@! TO.C,REF\002A\002A*
G36*
X273770000Y-143890000D02*
X272770000Y-143890000D01*
X272770000Y-137390000D01*
X273770000Y-137390000D01*
X273770000Y-143890000D01*
X273770000Y-143890000D01*
G37*
D10*
G04 #@! TO.P,REF\002A\002A,1*
G04 #@! TO.N,N/C*
X286670000Y-148540000D03*
D11*
G04 #@! TD*
G04 #@! TO.N,N/C*
G04 #@! TO.C,REF\002A\002A*
G36*
X286170000Y-145290000D02*
X287170000Y-145290000D01*
X287170000Y-151790000D01*
X286170000Y-151790000D01*
X286170000Y-145290000D01*
X286170000Y-145290000D01*
G37*
D10*
G04 #@! TO.P,REF\002A\002A,1*
G04 #@! TO.N,N/C*
X279970000Y-137890000D03*
D11*
G04 #@! TD*
G04 #@! TO.N,N/C*
G04 #@! TO.C,REF\002A\002A*
G36*
X286970000Y-137390000D02*
X286970000Y-138390000D01*
X272970000Y-138390000D01*
X272970000Y-137390000D01*
X286970000Y-137390000D01*
X286970000Y-137390000D01*
G37*
D10*
G04 #@! TO.P,REF\002A\002A,1*
G04 #@! TO.N,N/C*
X279970000Y-151290000D03*
D11*
G04 #@! TD*
G04 #@! TO.N,N/C*
G04 #@! TO.C,REF\002A\002A*
G36*
X272970000Y-151790000D02*
X272970000Y-150790000D01*
X286970000Y-150790000D01*
X286970000Y-151790000D01*
X272970000Y-151790000D01*
X272970000Y-151790000D01*
G37*
D10*
G04 #@! TO.P,REF\002A\002A,1*
G04 #@! TO.N,N/C*
X286670000Y-140640000D03*
D11*
G04 #@! TD*
G04 #@! TO.N,N/C*
G04 #@! TO.C,REF\002A\002A*
G36*
X286170000Y-137390000D02*
X287170000Y-137390000D01*
X287170000Y-143890000D01*
X286170000Y-143890000D01*
X286170000Y-137390000D01*
X286170000Y-137390000D01*
G37*
D10*
G04 #@! TO.P,REF\002A\002A,1*
G04 #@! TO.N,N/C*
X254220000Y-148540000D03*
D11*
G04 #@! TD*
G04 #@! TO.N,N/C*
G04 #@! TO.C,REF\002A\002A*
G36*
X254720000Y-151790000D02*
X253720000Y-151790000D01*
X253720000Y-145290000D01*
X254720000Y-145290000D01*
X254720000Y-151790000D01*
X254720000Y-151790000D01*
G37*
D10*
G04 #@! TO.P,REF\002A\002A,1*
G04 #@! TO.N,N/C*
X254220000Y-140640000D03*
D11*
G04 #@! TD*
G04 #@! TO.N,N/C*
G04 #@! TO.C,REF\002A\002A*
G36*
X254720000Y-143890000D02*
X253720000Y-143890000D01*
X253720000Y-137390000D01*
X254720000Y-137390000D01*
X254720000Y-143890000D01*
X254720000Y-143890000D01*
G37*
D10*
G04 #@! TO.P,REF\002A\002A,1*
G04 #@! TO.N,N/C*
X267620000Y-148540000D03*
D11*
G04 #@! TD*
G04 #@! TO.N,N/C*
G04 #@! TO.C,REF\002A\002A*
G36*
X267120000Y-145290000D02*
X268120000Y-145290000D01*
X268120000Y-151790000D01*
X267120000Y-151790000D01*
X267120000Y-145290000D01*
X267120000Y-145290000D01*
G37*
D10*
G04 #@! TO.P,REF\002A\002A,1*
G04 #@! TO.N,N/C*
X260920000Y-137890000D03*
D11*
G04 #@! TD*
G04 #@! TO.N,N/C*
G04 #@! TO.C,REF\002A\002A*
G36*
X267920000Y-137390000D02*
X267920000Y-138390000D01*
X253920000Y-138390000D01*
X253920000Y-137390000D01*
X267920000Y-137390000D01*
X267920000Y-137390000D01*
G37*
D10*
G04 #@! TO.P,REF\002A\002A,1*
G04 #@! TO.N,N/C*
X260920000Y-151290000D03*
D11*
G04 #@! TD*
G04 #@! TO.N,N/C*
G04 #@! TO.C,REF\002A\002A*
G36*
X253920000Y-151790000D02*
X253920000Y-150790000D01*
X267920000Y-150790000D01*
X267920000Y-151790000D01*
X253920000Y-151790000D01*
X253920000Y-151790000D01*
G37*
D10*
G04 #@! TO.P,REF\002A\002A,1*
G04 #@! TO.N,N/C*
X267620000Y-140640000D03*
D11*
G04 #@! TD*
G04 #@! TO.N,N/C*
G04 #@! TO.C,REF\002A\002A*
G36*
X267120000Y-137390000D02*
X268120000Y-137390000D01*
X268120000Y-143890000D01*
X267120000Y-143890000D01*
X267120000Y-137390000D01*
X267120000Y-137390000D01*
G37*
D10*
G04 #@! TO.P,REF\002A\002A,1*
G04 #@! TO.N,N/C*
X254220000Y-129490000D03*
D11*
G04 #@! TD*
G04 #@! TO.N,N/C*
G04 #@! TO.C,REF\002A\002A*
G36*
X254720000Y-132740000D02*
X253720000Y-132740000D01*
X253720000Y-126240000D01*
X254720000Y-126240000D01*
X254720000Y-132740000D01*
X254720000Y-132740000D01*
G37*
D10*
G04 #@! TO.P,REF\002A\002A,1*
G04 #@! TO.N,N/C*
X254220000Y-121590000D03*
D11*
G04 #@! TD*
G04 #@! TO.N,N/C*
G04 #@! TO.C,REF\002A\002A*
G36*
X254720000Y-124840000D02*
X253720000Y-124840000D01*
X253720000Y-118340000D01*
X254720000Y-118340000D01*
X254720000Y-124840000D01*
X254720000Y-124840000D01*
G37*
D10*
G04 #@! TO.P,REF\002A\002A,1*
G04 #@! TO.N,N/C*
X267620000Y-129490000D03*
D11*
G04 #@! TD*
G04 #@! TO.N,N/C*
G04 #@! TO.C,REF\002A\002A*
G36*
X267120000Y-126240000D02*
X268120000Y-126240000D01*
X268120000Y-132740000D01*
X267120000Y-132740000D01*
X267120000Y-126240000D01*
X267120000Y-126240000D01*
G37*
D10*
G04 #@! TO.P,REF\002A\002A,1*
G04 #@! TO.N,N/C*
X260920000Y-118840000D03*
D11*
G04 #@! TD*
G04 #@! TO.N,N/C*
G04 #@! TO.C,REF\002A\002A*
G36*
X267920000Y-118340000D02*
X267920000Y-119340000D01*
X253920000Y-119340000D01*
X253920000Y-118340000D01*
X267920000Y-118340000D01*
X267920000Y-118340000D01*
G37*
D10*
G04 #@! TO.P,REF\002A\002A,1*
G04 #@! TO.N,N/C*
X260920000Y-132240000D03*
D11*
G04 #@! TD*
G04 #@! TO.N,N/C*
G04 #@! TO.C,REF\002A\002A*
G36*
X253920000Y-132740000D02*
X253920000Y-131740000D01*
X267920000Y-131740000D01*
X267920000Y-132740000D01*
X253920000Y-132740000D01*
X253920000Y-132740000D01*
G37*
D10*
G04 #@! TO.P,REF\002A\002A,1*
G04 #@! TO.N,N/C*
X267620000Y-121590000D03*
D11*
G04 #@! TD*
G04 #@! TO.N,N/C*
G04 #@! TO.C,REF\002A\002A*
G36*
X267120000Y-118340000D02*
X268120000Y-118340000D01*
X268120000Y-124840000D01*
X267120000Y-124840000D01*
X267120000Y-118340000D01*
X267120000Y-118340000D01*
G37*
D10*
G04 #@! TO.P,REF\002A\002A,1*
G04 #@! TO.N,N/C*
X273270000Y-129490000D03*
D11*
G04 #@! TD*
G04 #@! TO.N,N/C*
G04 #@! TO.C,REF\002A\002A*
G36*
X273770000Y-132740000D02*
X272770000Y-132740000D01*
X272770000Y-126240000D01*
X273770000Y-126240000D01*
X273770000Y-132740000D01*
X273770000Y-132740000D01*
G37*
D10*
G04 #@! TO.P,REF\002A\002A,1*
G04 #@! TO.N,N/C*
X273270000Y-121590000D03*
D11*
G04 #@! TD*
G04 #@! TO.N,N/C*
G04 #@! TO.C,REF\002A\002A*
G36*
X273770000Y-124840000D02*
X272770000Y-124840000D01*
X272770000Y-118340000D01*
X273770000Y-118340000D01*
X273770000Y-124840000D01*
X273770000Y-124840000D01*
G37*
D10*
G04 #@! TO.P,REF\002A\002A,1*
G04 #@! TO.N,N/C*
X286670000Y-129490000D03*
D11*
G04 #@! TD*
G04 #@! TO.N,N/C*
G04 #@! TO.C,REF\002A\002A*
G36*
X286170000Y-126240000D02*
X287170000Y-126240000D01*
X287170000Y-132740000D01*
X286170000Y-132740000D01*
X286170000Y-126240000D01*
X286170000Y-126240000D01*
G37*
D10*
G04 #@! TO.P,REF\002A\002A,1*
G04 #@! TO.N,N/C*
X279970000Y-118840000D03*
D11*
G04 #@! TD*
G04 #@! TO.N,N/C*
G04 #@! TO.C,REF\002A\002A*
G36*
X286970000Y-118340000D02*
X286970000Y-119340000D01*
X272970000Y-119340000D01*
X272970000Y-118340000D01*
X286970000Y-118340000D01*
X286970000Y-118340000D01*
G37*
D10*
G04 #@! TO.P,REF\002A\002A,1*
G04 #@! TO.N,N/C*
X279970000Y-132240000D03*
D11*
G04 #@! TD*
G04 #@! TO.N,N/C*
G04 #@! TO.C,REF\002A\002A*
G36*
X272970000Y-132740000D02*
X272970000Y-131740000D01*
X286970000Y-131740000D01*
X286970000Y-132740000D01*
X272970000Y-132740000D01*
X272970000Y-132740000D01*
G37*
D10*
G04 #@! TO.P,REF\002A\002A,1*
G04 #@! TO.N,N/C*
X286670000Y-121590000D03*
D11*
G04 #@! TD*
G04 #@! TO.N,N/C*
G04 #@! TO.C,REF\002A\002A*
G36*
X286170000Y-118340000D02*
X287170000Y-118340000D01*
X287170000Y-124840000D01*
X286170000Y-124840000D01*
X286170000Y-118340000D01*
X286170000Y-118340000D01*
G37*
D10*
G04 #@! TO.P,REF\002A\002A,1*
G04 #@! TO.N,N/C*
X292320000Y-129490000D03*
D11*
G04 #@! TD*
G04 #@! TO.N,N/C*
G04 #@! TO.C,REF\002A\002A*
G36*
X292820000Y-132740000D02*
X291820000Y-132740000D01*
X291820000Y-126240000D01*
X292820000Y-126240000D01*
X292820000Y-132740000D01*
X292820000Y-132740000D01*
G37*
D10*
G04 #@! TO.P,REF\002A\002A,1*
G04 #@! TO.N,N/C*
X292320000Y-121590000D03*
D11*
G04 #@! TD*
G04 #@! TO.N,N/C*
G04 #@! TO.C,REF\002A\002A*
G36*
X292820000Y-124840000D02*
X291820000Y-124840000D01*
X291820000Y-118340000D01*
X292820000Y-118340000D01*
X292820000Y-124840000D01*
X292820000Y-124840000D01*
G37*
D10*
G04 #@! TO.P,REF\002A\002A,1*
G04 #@! TO.N,N/C*
X305720000Y-129490000D03*
D11*
G04 #@! TD*
G04 #@! TO.N,N/C*
G04 #@! TO.C,REF\002A\002A*
G36*
X305220000Y-126240000D02*
X306220000Y-126240000D01*
X306220000Y-132740000D01*
X305220000Y-132740000D01*
X305220000Y-126240000D01*
X305220000Y-126240000D01*
G37*
D10*
G04 #@! TO.P,REF\002A\002A,1*
G04 #@! TO.N,N/C*
X299020000Y-118840000D03*
D11*
G04 #@! TD*
G04 #@! TO.N,N/C*
G04 #@! TO.C,REF\002A\002A*
G36*
X306020000Y-118340000D02*
X306020000Y-119340000D01*
X292020000Y-119340000D01*
X292020000Y-118340000D01*
X306020000Y-118340000D01*
X306020000Y-118340000D01*
G37*
D10*
G04 #@! TO.P,REF\002A\002A,1*
G04 #@! TO.N,N/C*
X299020000Y-132240000D03*
D11*
G04 #@! TD*
G04 #@! TO.N,N/C*
G04 #@! TO.C,REF\002A\002A*
G36*
X292020000Y-132740000D02*
X292020000Y-131740000D01*
X306020000Y-131740000D01*
X306020000Y-132740000D01*
X292020000Y-132740000D01*
X292020000Y-132740000D01*
G37*
D10*
G04 #@! TO.P,REF\002A\002A,1*
G04 #@! TO.N,N/C*
X305720000Y-121590000D03*
D11*
G04 #@! TD*
G04 #@! TO.N,N/C*
G04 #@! TO.C,REF\002A\002A*
G36*
X305220000Y-118340000D02*
X306220000Y-118340000D01*
X306220000Y-124840000D01*
X305220000Y-124840000D01*
X305220000Y-118340000D01*
X305220000Y-118340000D01*
G37*
D10*
G04 #@! TO.P,REF\002A\002A,1*
G04 #@! TO.N,N/C*
X311370000Y-129490000D03*
D11*
G04 #@! TD*
G04 #@! TO.N,N/C*
G04 #@! TO.C,REF\002A\002A*
G36*
X311870000Y-132740000D02*
X310870000Y-132740000D01*
X310870000Y-126240000D01*
X311870000Y-126240000D01*
X311870000Y-132740000D01*
X311870000Y-132740000D01*
G37*
D10*
G04 #@! TO.P,REF\002A\002A,1*
G04 #@! TO.N,N/C*
X311370000Y-121590000D03*
D11*
G04 #@! TD*
G04 #@! TO.N,N/C*
G04 #@! TO.C,REF\002A\002A*
G36*
X311870000Y-124840000D02*
X310870000Y-124840000D01*
X310870000Y-118340000D01*
X311870000Y-118340000D01*
X311870000Y-124840000D01*
X311870000Y-124840000D01*
G37*
D10*
G04 #@! TO.P,REF\002A\002A,1*
G04 #@! TO.N,N/C*
X324770000Y-129490000D03*
D11*
G04 #@! TD*
G04 #@! TO.N,N/C*
G04 #@! TO.C,REF\002A\002A*
G36*
X324270000Y-126240000D02*
X325270000Y-126240000D01*
X325270000Y-132740000D01*
X324270000Y-132740000D01*
X324270000Y-126240000D01*
X324270000Y-126240000D01*
G37*
D10*
G04 #@! TO.P,REF\002A\002A,1*
G04 #@! TO.N,N/C*
X318070000Y-118840000D03*
D11*
G04 #@! TD*
G04 #@! TO.N,N/C*
G04 #@! TO.C,REF\002A\002A*
G36*
X325070000Y-118340000D02*
X325070000Y-119340000D01*
X311070000Y-119340000D01*
X311070000Y-118340000D01*
X325070000Y-118340000D01*
X325070000Y-118340000D01*
G37*
D10*
G04 #@! TO.P,REF\002A\002A,1*
G04 #@! TO.N,N/C*
X318070000Y-132240000D03*
D11*
G04 #@! TD*
G04 #@! TO.N,N/C*
G04 #@! TO.C,REF\002A\002A*
G36*
X311070000Y-132740000D02*
X311070000Y-131740000D01*
X325070000Y-131740000D01*
X325070000Y-132740000D01*
X311070000Y-132740000D01*
X311070000Y-132740000D01*
G37*
D10*
G04 #@! TO.P,REF\002A\002A,1*
G04 #@! TO.N,N/C*
X324770000Y-121590000D03*
D11*
G04 #@! TD*
G04 #@! TO.N,N/C*
G04 #@! TO.C,REF\002A\002A*
G36*
X324270000Y-118340000D02*
X325270000Y-118340000D01*
X325270000Y-124840000D01*
X324270000Y-124840000D01*
X324270000Y-118340000D01*
X324270000Y-118340000D01*
G37*
D10*
G04 #@! TO.P,REF\002A\002A,1*
G04 #@! TO.N,N/C*
X311370000Y-110440000D03*
D11*
G04 #@! TD*
G04 #@! TO.N,N/C*
G04 #@! TO.C,REF\002A\002A*
G36*
X311870000Y-113690000D02*
X310870000Y-113690000D01*
X310870000Y-107190000D01*
X311870000Y-107190000D01*
X311870000Y-113690000D01*
X311870000Y-113690000D01*
G37*
D10*
G04 #@! TO.P,REF\002A\002A,1*
G04 #@! TO.N,N/C*
X311370000Y-102540000D03*
D11*
G04 #@! TD*
G04 #@! TO.N,N/C*
G04 #@! TO.C,REF\002A\002A*
G36*
X311870000Y-105790000D02*
X310870000Y-105790000D01*
X310870000Y-99290000D01*
X311870000Y-99290000D01*
X311870000Y-105790000D01*
X311870000Y-105790000D01*
G37*
D10*
G04 #@! TO.P,REF\002A\002A,1*
G04 #@! TO.N,N/C*
X324770000Y-110440000D03*
D11*
G04 #@! TD*
G04 #@! TO.N,N/C*
G04 #@! TO.C,REF\002A\002A*
G36*
X324270000Y-107190000D02*
X325270000Y-107190000D01*
X325270000Y-113690000D01*
X324270000Y-113690000D01*
X324270000Y-107190000D01*
X324270000Y-107190000D01*
G37*
D10*
G04 #@! TO.P,REF\002A\002A,1*
G04 #@! TO.N,N/C*
X318070000Y-99790000D03*
D11*
G04 #@! TD*
G04 #@! TO.N,N/C*
G04 #@! TO.C,REF\002A\002A*
G36*
X325070000Y-99290000D02*
X325070000Y-100290000D01*
X311070000Y-100290000D01*
X311070000Y-99290000D01*
X325070000Y-99290000D01*
X325070000Y-99290000D01*
G37*
D10*
G04 #@! TO.P,REF\002A\002A,1*
G04 #@! TO.N,N/C*
X318070000Y-113190000D03*
D11*
G04 #@! TD*
G04 #@! TO.N,N/C*
G04 #@! TO.C,REF\002A\002A*
G36*
X311070000Y-113690000D02*
X311070000Y-112690000D01*
X325070000Y-112690000D01*
X325070000Y-113690000D01*
X311070000Y-113690000D01*
X311070000Y-113690000D01*
G37*
D10*
G04 #@! TO.P,REF\002A\002A,1*
G04 #@! TO.N,N/C*
X324770000Y-102540000D03*
D11*
G04 #@! TD*
G04 #@! TO.N,N/C*
G04 #@! TO.C,REF\002A\002A*
G36*
X324270000Y-99290000D02*
X325270000Y-99290000D01*
X325270000Y-105790000D01*
X324270000Y-105790000D01*
X324270000Y-99290000D01*
X324270000Y-99290000D01*
G37*
D10*
G04 #@! TO.P,REF\002A\002A,1*
G04 #@! TO.N,N/C*
X292320000Y-110440000D03*
D11*
G04 #@! TD*
G04 #@! TO.N,N/C*
G04 #@! TO.C,REF\002A\002A*
G36*
X292820000Y-113690000D02*
X291820000Y-113690000D01*
X291820000Y-107190000D01*
X292820000Y-107190000D01*
X292820000Y-113690000D01*
X292820000Y-113690000D01*
G37*
D10*
G04 #@! TO.P,REF\002A\002A,1*
G04 #@! TO.N,N/C*
X292320000Y-102540000D03*
D11*
G04 #@! TD*
G04 #@! TO.N,N/C*
G04 #@! TO.C,REF\002A\002A*
G36*
X292820000Y-105790000D02*
X291820000Y-105790000D01*
X291820000Y-99290000D01*
X292820000Y-99290000D01*
X292820000Y-105790000D01*
X292820000Y-105790000D01*
G37*
D10*
G04 #@! TO.P,REF\002A\002A,1*
G04 #@! TO.N,N/C*
X305720000Y-110440000D03*
D11*
G04 #@! TD*
G04 #@! TO.N,N/C*
G04 #@! TO.C,REF\002A\002A*
G36*
X305220000Y-107190000D02*
X306220000Y-107190000D01*
X306220000Y-113690000D01*
X305220000Y-113690000D01*
X305220000Y-107190000D01*
X305220000Y-107190000D01*
G37*
D10*
G04 #@! TO.P,REF\002A\002A,1*
G04 #@! TO.N,N/C*
X299020000Y-99790000D03*
D11*
G04 #@! TD*
G04 #@! TO.N,N/C*
G04 #@! TO.C,REF\002A\002A*
G36*
X306020000Y-99290000D02*
X306020000Y-100290000D01*
X292020000Y-100290000D01*
X292020000Y-99290000D01*
X306020000Y-99290000D01*
X306020000Y-99290000D01*
G37*
D10*
G04 #@! TO.P,REF\002A\002A,1*
G04 #@! TO.N,N/C*
X299020000Y-113190000D03*
D11*
G04 #@! TD*
G04 #@! TO.N,N/C*
G04 #@! TO.C,REF\002A\002A*
G36*
X292020000Y-113690000D02*
X292020000Y-112690000D01*
X306020000Y-112690000D01*
X306020000Y-113690000D01*
X292020000Y-113690000D01*
X292020000Y-113690000D01*
G37*
D10*
G04 #@! TO.P,REF\002A\002A,1*
G04 #@! TO.N,N/C*
X305720000Y-102540000D03*
D11*
G04 #@! TD*
G04 #@! TO.N,N/C*
G04 #@! TO.C,REF\002A\002A*
G36*
X305220000Y-99290000D02*
X306220000Y-99290000D01*
X306220000Y-105790000D01*
X305220000Y-105790000D01*
X305220000Y-99290000D01*
X305220000Y-99290000D01*
G37*
D10*
G04 #@! TO.P,REF\002A\002A,1*
G04 #@! TO.N,N/C*
X273270000Y-110440000D03*
D11*
G04 #@! TD*
G04 #@! TO.N,N/C*
G04 #@! TO.C,REF\002A\002A*
G36*
X273770000Y-113690000D02*
X272770000Y-113690000D01*
X272770000Y-107190000D01*
X273770000Y-107190000D01*
X273770000Y-113690000D01*
X273770000Y-113690000D01*
G37*
D10*
G04 #@! TO.P,REF\002A\002A,1*
G04 #@! TO.N,N/C*
X273270000Y-102540000D03*
D11*
G04 #@! TD*
G04 #@! TO.N,N/C*
G04 #@! TO.C,REF\002A\002A*
G36*
X273770000Y-105790000D02*
X272770000Y-105790000D01*
X272770000Y-99290000D01*
X273770000Y-99290000D01*
X273770000Y-105790000D01*
X273770000Y-105790000D01*
G37*
D10*
G04 #@! TO.P,REF\002A\002A,1*
G04 #@! TO.N,N/C*
X286670000Y-110440000D03*
D11*
G04 #@! TD*
G04 #@! TO.N,N/C*
G04 #@! TO.C,REF\002A\002A*
G36*
X286170000Y-107190000D02*
X287170000Y-107190000D01*
X287170000Y-113690000D01*
X286170000Y-113690000D01*
X286170000Y-107190000D01*
X286170000Y-107190000D01*
G37*
D10*
G04 #@! TO.P,REF\002A\002A,1*
G04 #@! TO.N,N/C*
X279970000Y-99790000D03*
D11*
G04 #@! TD*
G04 #@! TO.N,N/C*
G04 #@! TO.C,REF\002A\002A*
G36*
X286970000Y-99290000D02*
X286970000Y-100290000D01*
X272970000Y-100290000D01*
X272970000Y-99290000D01*
X286970000Y-99290000D01*
X286970000Y-99290000D01*
G37*
D10*
G04 #@! TO.P,REF\002A\002A,1*
G04 #@! TO.N,N/C*
X279970000Y-113190000D03*
D11*
G04 #@! TD*
G04 #@! TO.N,N/C*
G04 #@! TO.C,REF\002A\002A*
G36*
X272970000Y-113690000D02*
X272970000Y-112690000D01*
X286970000Y-112690000D01*
X286970000Y-113690000D01*
X272970000Y-113690000D01*
X272970000Y-113690000D01*
G37*
D10*
G04 #@! TO.P,REF\002A\002A,1*
G04 #@! TO.N,N/C*
X286670000Y-102540000D03*
D11*
G04 #@! TD*
G04 #@! TO.N,N/C*
G04 #@! TO.C,REF\002A\002A*
G36*
X286170000Y-99290000D02*
X287170000Y-99290000D01*
X287170000Y-105790000D01*
X286170000Y-105790000D01*
X286170000Y-99290000D01*
X286170000Y-99290000D01*
G37*
D10*
G04 #@! TO.P,REF\002A\002A,1*
G04 #@! TO.N,N/C*
X267620000Y-102540000D03*
D11*
G04 #@! TD*
G04 #@! TO.N,N/C*
G04 #@! TO.C,REF\002A\002A*
G36*
X267120000Y-99290000D02*
X268120000Y-99290000D01*
X268120000Y-105790000D01*
X267120000Y-105790000D01*
X267120000Y-99290000D01*
X267120000Y-99290000D01*
G37*
D10*
G04 #@! TO.P,REF\002A\002A,1*
G04 #@! TO.N,N/C*
X260920000Y-113190000D03*
D11*
G04 #@! TD*
G04 #@! TO.N,N/C*
G04 #@! TO.C,REF\002A\002A*
G36*
X253920000Y-113690000D02*
X253920000Y-112690000D01*
X267920000Y-112690000D01*
X267920000Y-113690000D01*
X253920000Y-113690000D01*
X253920000Y-113690000D01*
G37*
D10*
G04 #@! TO.P,REF\002A\002A,1*
G04 #@! TO.N,N/C*
X260920000Y-99790000D03*
D11*
G04 #@! TD*
G04 #@! TO.N,N/C*
G04 #@! TO.C,REF\002A\002A*
G36*
X267920000Y-99290000D02*
X267920000Y-100290000D01*
X253920000Y-100290000D01*
X253920000Y-99290000D01*
X267920000Y-99290000D01*
X267920000Y-99290000D01*
G37*
D10*
G04 #@! TO.P,REF\002A\002A,1*
G04 #@! TO.N,N/C*
X267620000Y-110440000D03*
D11*
G04 #@! TD*
G04 #@! TO.N,N/C*
G04 #@! TO.C,REF\002A\002A*
G36*
X267120000Y-107190000D02*
X268120000Y-107190000D01*
X268120000Y-113690000D01*
X267120000Y-113690000D01*
X267120000Y-107190000D01*
X267120000Y-107190000D01*
G37*
D10*
G04 #@! TO.P,REF\002A\002A,1*
G04 #@! TO.N,N/C*
X254220000Y-102540000D03*
D11*
G04 #@! TD*
G04 #@! TO.N,N/C*
G04 #@! TO.C,REF\002A\002A*
G36*
X254720000Y-105790000D02*
X253720000Y-105790000D01*
X253720000Y-99290000D01*
X254720000Y-99290000D01*
X254720000Y-105790000D01*
X254720000Y-105790000D01*
G37*
D10*
G04 #@! TO.P,REF\002A\002A,1*
G04 #@! TO.N,N/C*
X254220000Y-110440000D03*
D11*
G04 #@! TD*
G04 #@! TO.N,N/C*
G04 #@! TO.C,REF\002A\002A*
G36*
X254720000Y-113690000D02*
X253720000Y-113690000D01*
X253720000Y-107190000D01*
X254720000Y-107190000D01*
X254720000Y-113690000D01*
X254720000Y-113690000D01*
G37*
D12*
G04 #@! TO.P,REF\002A\002A,1*
G04 #@! TO.N,N/C*
X265657500Y-115940000D03*
G04 #@! TD*
G04 #@! TO.P,REF\002A\002A,1*
G04 #@! TO.N,N/C*
X308520000Y-115940000D03*
G04 #@! TD*
G04 #@! TO.P,REF\002A\002A,1*
G04 #@! TO.N,N/C*
X308520000Y-154040000D03*
G04 #@! TD*
G04 #@! TO.P,REF\002A\002A,1*
G04 #@! TO.N,N/C*
X270420000Y-154040000D03*
G04 #@! TD*
D13*
G36*
X325623340Y-97608028D02*
X325915123Y-97696122D01*
X326088932Y-97788538D01*
X326670786Y-98370392D01*
X326759687Y-98534811D01*
X326849818Y-98825976D01*
X326885000Y-99160711D01*
X326885001Y-170806485D01*
X326851972Y-171143340D01*
X326771925Y-171408469D01*
X325889731Y-172290663D01*
X325634026Y-172369817D01*
X325299289Y-172405000D01*
X253653505Y-172405000D01*
X253316660Y-172371972D01*
X253024877Y-172283878D01*
X252851068Y-172191462D01*
X252269214Y-171609608D01*
X252180313Y-171445189D01*
X252090183Y-171154026D01*
X252055000Y-170819289D01*
X252055000Y-164340000D01*
X253081928Y-164340000D01*
X253081928Y-170840000D01*
X253094188Y-170964482D01*
X253130498Y-171084180D01*
X253189463Y-171194494D01*
X253268815Y-171291185D01*
X253365506Y-171370537D01*
X253475820Y-171429502D01*
X253595518Y-171465812D01*
X253720000Y-171478072D01*
X268120000Y-171478072D01*
X268244482Y-171465812D01*
X268364180Y-171429502D01*
X268474494Y-171370537D01*
X268571185Y-171291185D01*
X268650537Y-171194494D01*
X268709502Y-171084180D01*
X268745812Y-170964482D01*
X268758072Y-170840000D01*
X268758072Y-164340000D01*
X272131928Y-164340000D01*
X272131928Y-170840000D01*
X272144188Y-170964482D01*
X272180498Y-171084180D01*
X272239463Y-171194494D01*
X272318815Y-171291185D01*
X272415506Y-171370537D01*
X272525820Y-171429502D01*
X272645518Y-171465812D01*
X272770000Y-171478072D01*
X287170000Y-171478072D01*
X287294482Y-171465812D01*
X287414180Y-171429502D01*
X287524494Y-171370537D01*
X287621185Y-171291185D01*
X287700537Y-171194494D01*
X287759502Y-171084180D01*
X287795812Y-170964482D01*
X287808072Y-170840000D01*
X287808072Y-164340000D01*
X291181928Y-164340000D01*
X291181928Y-170840000D01*
X291194188Y-170964482D01*
X291230498Y-171084180D01*
X291289463Y-171194494D01*
X291368815Y-171291185D01*
X291465506Y-171370537D01*
X291575820Y-171429502D01*
X291695518Y-171465812D01*
X291820000Y-171478072D01*
X306220000Y-171478072D01*
X306344482Y-171465812D01*
X306464180Y-171429502D01*
X306574494Y-171370537D01*
X306671185Y-171291185D01*
X306750537Y-171194494D01*
X306809502Y-171084180D01*
X306845812Y-170964482D01*
X306858072Y-170840000D01*
X306858072Y-164340000D01*
X310231928Y-164340000D01*
X310231928Y-170840000D01*
X310244188Y-170964482D01*
X310280498Y-171084180D01*
X310339463Y-171194494D01*
X310418815Y-171291185D01*
X310515506Y-171370537D01*
X310625820Y-171429502D01*
X310745518Y-171465812D01*
X310870000Y-171478072D01*
X325270000Y-171478072D01*
X325394482Y-171465812D01*
X325514180Y-171429502D01*
X325624494Y-171370537D01*
X325721185Y-171291185D01*
X325800537Y-171194494D01*
X325859502Y-171084180D01*
X325895812Y-170964482D01*
X325908072Y-170840000D01*
X325908072Y-164340000D01*
X325895812Y-164215518D01*
X325859502Y-164095820D01*
X325800537Y-163985506D01*
X325721185Y-163888815D01*
X325624494Y-163809463D01*
X325514180Y-163750498D01*
X325394482Y-163714188D01*
X325270000Y-163701928D01*
X324270000Y-163701928D01*
X324145518Y-163714188D01*
X324025820Y-163750498D01*
X323915506Y-163809463D01*
X323818815Y-163888815D01*
X323739463Y-163985506D01*
X323680498Y-164095820D01*
X323644188Y-164215518D01*
X323631928Y-164340000D01*
X323631928Y-169201928D01*
X312508072Y-169201928D01*
X312508072Y-164340000D01*
X312495812Y-164215518D01*
X312459502Y-164095820D01*
X312400537Y-163985506D01*
X312321185Y-163888815D01*
X312224494Y-163809463D01*
X312114180Y-163750498D01*
X311994482Y-163714188D01*
X311870000Y-163701928D01*
X310870000Y-163701928D01*
X310745518Y-163714188D01*
X310625820Y-163750498D01*
X310515506Y-163809463D01*
X310418815Y-163888815D01*
X310339463Y-163985506D01*
X310280498Y-164095820D01*
X310244188Y-164215518D01*
X310231928Y-164340000D01*
X306858072Y-164340000D01*
X306845812Y-164215518D01*
X306809502Y-164095820D01*
X306750537Y-163985506D01*
X306671185Y-163888815D01*
X306574494Y-163809463D01*
X306464180Y-163750498D01*
X306344482Y-163714188D01*
X306220000Y-163701928D01*
X305220000Y-163701928D01*
X305095518Y-163714188D01*
X304975820Y-163750498D01*
X304865506Y-163809463D01*
X304768815Y-163888815D01*
X304689463Y-163985506D01*
X304630498Y-164095820D01*
X304594188Y-164215518D01*
X304581928Y-164340000D01*
X304581928Y-169201928D01*
X293458072Y-169201928D01*
X293458072Y-164340000D01*
X293445812Y-164215518D01*
X293409502Y-164095820D01*
X293350537Y-163985506D01*
X293271185Y-163888815D01*
X293174494Y-163809463D01*
X293064180Y-163750498D01*
X292944482Y-163714188D01*
X292820000Y-163701928D01*
X291820000Y-163701928D01*
X291695518Y-163714188D01*
X291575820Y-163750498D01*
X291465506Y-163809463D01*
X291368815Y-163888815D01*
X291289463Y-163985506D01*
X291230498Y-164095820D01*
X291194188Y-164215518D01*
X291181928Y-164340000D01*
X287808072Y-164340000D01*
X287795812Y-164215518D01*
X287759502Y-164095820D01*
X287700537Y-163985506D01*
X287621185Y-163888815D01*
X287524494Y-163809463D01*
X287414180Y-163750498D01*
X287294482Y-163714188D01*
X287170000Y-163701928D01*
X286170000Y-163701928D01*
X286045518Y-163714188D01*
X285925820Y-163750498D01*
X285815506Y-163809463D01*
X285718815Y-163888815D01*
X285639463Y-163985506D01*
X285580498Y-164095820D01*
X285544188Y-164215518D01*
X285531928Y-164340000D01*
X285531928Y-169201928D01*
X274408072Y-169201928D01*
X274408072Y-164340000D01*
X274395812Y-164215518D01*
X274359502Y-164095820D01*
X274300537Y-163985506D01*
X274221185Y-163888815D01*
X274124494Y-163809463D01*
X274014180Y-163750498D01*
X273894482Y-163714188D01*
X273770000Y-163701928D01*
X272770000Y-163701928D01*
X272645518Y-163714188D01*
X272525820Y-163750498D01*
X272415506Y-163809463D01*
X272318815Y-163888815D01*
X272239463Y-163985506D01*
X272180498Y-164095820D01*
X272144188Y-164215518D01*
X272131928Y-164340000D01*
X268758072Y-164340000D01*
X268745812Y-164215518D01*
X268709502Y-164095820D01*
X268650537Y-163985506D01*
X268571185Y-163888815D01*
X268474494Y-163809463D01*
X268364180Y-163750498D01*
X268244482Y-163714188D01*
X268120000Y-163701928D01*
X267120000Y-163701928D01*
X266995518Y-163714188D01*
X266875820Y-163750498D01*
X266765506Y-163809463D01*
X266668815Y-163888815D01*
X266589463Y-163985506D01*
X266530498Y-164095820D01*
X266494188Y-164215518D01*
X266481928Y-164340000D01*
X266481928Y-169201928D01*
X255358072Y-169201928D01*
X255358072Y-164340000D01*
X255345812Y-164215518D01*
X255309502Y-164095820D01*
X255250537Y-163985506D01*
X255171185Y-163888815D01*
X255074494Y-163809463D01*
X254964180Y-163750498D01*
X254844482Y-163714188D01*
X254720000Y-163701928D01*
X253720000Y-163701928D01*
X253595518Y-163714188D01*
X253475820Y-163750498D01*
X253365506Y-163809463D01*
X253268815Y-163888815D01*
X253189463Y-163985506D01*
X253130498Y-164095820D01*
X253094188Y-164215518D01*
X253081928Y-164340000D01*
X252055000Y-164340000D01*
X252055000Y-156440000D01*
X253081928Y-156440000D01*
X253081928Y-162940000D01*
X253094188Y-163064482D01*
X253130498Y-163184180D01*
X253189463Y-163294494D01*
X253268815Y-163391185D01*
X253365506Y-163470537D01*
X253475820Y-163529502D01*
X253595518Y-163565812D01*
X253720000Y-163578072D01*
X254720000Y-163578072D01*
X254844482Y-163565812D01*
X254964180Y-163529502D01*
X255074494Y-163470537D01*
X255171185Y-163391185D01*
X255250537Y-163294494D01*
X255309502Y-163184180D01*
X255345812Y-163064482D01*
X255358072Y-162940000D01*
X255358072Y-158078072D01*
X266481928Y-158078072D01*
X266481928Y-162940000D01*
X266494188Y-163064482D01*
X266530498Y-163184180D01*
X266589463Y-163294494D01*
X266668815Y-163391185D01*
X266765506Y-163470537D01*
X266875820Y-163529502D01*
X266995518Y-163565812D01*
X267120000Y-163578072D01*
X268120000Y-163578072D01*
X268244482Y-163565812D01*
X268364180Y-163529502D01*
X268474494Y-163470537D01*
X268571185Y-163391185D01*
X268650537Y-163294494D01*
X268709502Y-163184180D01*
X268745812Y-163064482D01*
X268758072Y-162940000D01*
X268758072Y-156440000D01*
X268745812Y-156315518D01*
X268709502Y-156195820D01*
X268650537Y-156085506D01*
X268571185Y-155988815D01*
X268474494Y-155909463D01*
X268364180Y-155850498D01*
X268244482Y-155814188D01*
X268120000Y-155801928D01*
X253720000Y-155801928D01*
X253595518Y-155814188D01*
X253475820Y-155850498D01*
X253365506Y-155909463D01*
X253268815Y-155988815D01*
X253189463Y-156085506D01*
X253130498Y-156195820D01*
X253094188Y-156315518D01*
X253081928Y-156440000D01*
X252055000Y-156440000D01*
X252055000Y-145290000D01*
X253081928Y-145290000D01*
X253081928Y-151790000D01*
X253094188Y-151914482D01*
X253130498Y-152034180D01*
X253189463Y-152144494D01*
X253268815Y-152241185D01*
X253365506Y-152320537D01*
X253475820Y-152379502D01*
X253595518Y-152415812D01*
X253720000Y-152428072D01*
X268120000Y-152428072D01*
X268244482Y-152415812D01*
X268359466Y-152380932D01*
X268230835Y-152573441D01*
X268205742Y-152588228D01*
X268150765Y-152693275D01*
X268084893Y-152791859D01*
X268030709Y-152922670D01*
X267965062Y-153048105D01*
X267931637Y-153161850D01*
X267886261Y-153271399D01*
X267858637Y-153410276D01*
X267818725Y-153546098D01*
X267808133Y-153664175D01*
X267785000Y-153780475D01*
X267785000Y-153922069D01*
X267772352Y-154063071D01*
X267785000Y-154180949D01*
X267785000Y-154299525D01*
X267812624Y-154438401D01*
X267827727Y-154579159D01*
X267863127Y-154692300D01*
X267886261Y-154808601D01*
X267940448Y-154939420D01*
X267982721Y-155074526D01*
X268043549Y-155188329D01*
X268084893Y-155288141D01*
X268144910Y-155377963D01*
X268205742Y-155491772D01*
X268230835Y-155506559D01*
X268373262Y-155719715D01*
X268740285Y-156086738D01*
X268953441Y-156229165D01*
X268968228Y-156254258D01*
X269073275Y-156309235D01*
X269171859Y-156375107D01*
X269302670Y-156429291D01*
X269428105Y-156494938D01*
X269541850Y-156528363D01*
X269651399Y-156573739D01*
X269790276Y-156601363D01*
X269926098Y-156641275D01*
X270044175Y-156651867D01*
X270160475Y-156675000D01*
X270302069Y-156675000D01*
X270443071Y-156687648D01*
X270560949Y-156675000D01*
X270679525Y-156675000D01*
X270818401Y-156647376D01*
X270959159Y-156632273D01*
X271072300Y-156596873D01*
X271188601Y-156573739D01*
X271319420Y-156519552D01*
X271454526Y-156477279D01*
X271524271Y-156440000D01*
X272131928Y-156440000D01*
X272131928Y-162940000D01*
X272144188Y-163064482D01*
X272180498Y-163184180D01*
X272239463Y-163294494D01*
X272318815Y-163391185D01*
X272415506Y-163470537D01*
X272525820Y-163529502D01*
X272645518Y-163565812D01*
X272770000Y-163578072D01*
X273770000Y-163578072D01*
X273894482Y-163565812D01*
X274014180Y-163529502D01*
X274124494Y-163470537D01*
X274221185Y-163391185D01*
X274300537Y-163294494D01*
X274359502Y-163184180D01*
X274395812Y-163064482D01*
X274408072Y-162940000D01*
X274408072Y-158078072D01*
X285531928Y-158078072D01*
X285531928Y-162940000D01*
X285544188Y-163064482D01*
X285580498Y-163184180D01*
X285639463Y-163294494D01*
X285718815Y-163391185D01*
X285815506Y-163470537D01*
X285925820Y-163529502D01*
X286045518Y-163565812D01*
X286170000Y-163578072D01*
X287170000Y-163578072D01*
X287294482Y-163565812D01*
X287414180Y-163529502D01*
X287524494Y-163470537D01*
X287621185Y-163391185D01*
X287700537Y-163294494D01*
X287759502Y-163184180D01*
X287795812Y-163064482D01*
X287808072Y-162940000D01*
X287808072Y-156440000D01*
X291181928Y-156440000D01*
X291181928Y-162940000D01*
X291194188Y-163064482D01*
X291230498Y-163184180D01*
X291289463Y-163294494D01*
X291368815Y-163391185D01*
X291465506Y-163470537D01*
X291575820Y-163529502D01*
X291695518Y-163565812D01*
X291820000Y-163578072D01*
X292820000Y-163578072D01*
X292944482Y-163565812D01*
X293064180Y-163529502D01*
X293174494Y-163470537D01*
X293271185Y-163391185D01*
X293350537Y-163294494D01*
X293409502Y-163184180D01*
X293445812Y-163064482D01*
X293458072Y-162940000D01*
X293458072Y-158078072D01*
X304581928Y-158078072D01*
X304581928Y-162940000D01*
X304594188Y-163064482D01*
X304630498Y-163184180D01*
X304689463Y-163294494D01*
X304768815Y-163391185D01*
X304865506Y-163470537D01*
X304975820Y-163529502D01*
X305095518Y-163565812D01*
X305220000Y-163578072D01*
X306220000Y-163578072D01*
X306344482Y-163565812D01*
X306464180Y-163529502D01*
X306574494Y-163470537D01*
X306671185Y-163391185D01*
X306750537Y-163294494D01*
X306809502Y-163184180D01*
X306845812Y-163064482D01*
X306858072Y-162940000D01*
X306858072Y-156440000D01*
X306845812Y-156315518D01*
X306809502Y-156195820D01*
X306750537Y-156085506D01*
X306671185Y-155988815D01*
X306574494Y-155909463D01*
X306464180Y-155850498D01*
X306344482Y-155814188D01*
X306220000Y-155801928D01*
X291820000Y-155801928D01*
X291695518Y-155814188D01*
X291575820Y-155850498D01*
X291465506Y-155909463D01*
X291368815Y-155988815D01*
X291289463Y-156085506D01*
X291230498Y-156195820D01*
X291194188Y-156315518D01*
X291181928Y-156440000D01*
X287808072Y-156440000D01*
X287795812Y-156315518D01*
X287759502Y-156195820D01*
X287700537Y-156085506D01*
X287621185Y-155988815D01*
X287524494Y-155909463D01*
X287414180Y-155850498D01*
X287294482Y-155814188D01*
X287170000Y-155801928D01*
X272770000Y-155801928D01*
X272645518Y-155814188D01*
X272525820Y-155850498D01*
X272415506Y-155909463D01*
X272318815Y-155988815D01*
X272239463Y-156085506D01*
X272180498Y-156195820D01*
X272144188Y-156315518D01*
X272131928Y-156440000D01*
X271524271Y-156440000D01*
X271568329Y-156416451D01*
X271668141Y-156375107D01*
X271757963Y-156315090D01*
X271871772Y-156254258D01*
X271886559Y-156229165D01*
X272099715Y-156086738D01*
X272466738Y-155719715D01*
X272609165Y-155506559D01*
X272634258Y-155491772D01*
X272689235Y-155386725D01*
X272755107Y-155288141D01*
X272809291Y-155157330D01*
X272874938Y-155031895D01*
X272908363Y-154918150D01*
X272953739Y-154808601D01*
X272981363Y-154669724D01*
X273021275Y-154533902D01*
X273031867Y-154415825D01*
X273055000Y-154299525D01*
X273055000Y-154157931D01*
X273067648Y-154016929D01*
X273055000Y-153899051D01*
X273055000Y-153780475D01*
X273027376Y-153641599D01*
X273012273Y-153500841D01*
X272976873Y-153387700D01*
X272953739Y-153271399D01*
X272899552Y-153140580D01*
X272857279Y-153005474D01*
X272796451Y-152891671D01*
X272755107Y-152791859D01*
X272695090Y-152702037D01*
X272634258Y-152588228D01*
X272609165Y-152573441D01*
X272466738Y-152360285D01*
X272440177Y-152333724D01*
X272525820Y-152379502D01*
X272645518Y-152415812D01*
X272770000Y-152428072D01*
X287170000Y-152428072D01*
X287294482Y-152415812D01*
X287414180Y-152379502D01*
X287524494Y-152320537D01*
X287621185Y-152241185D01*
X287700537Y-152144494D01*
X287759502Y-152034180D01*
X287795812Y-151914482D01*
X287808072Y-151790000D01*
X287808072Y-145290000D01*
X291181928Y-145290000D01*
X291181928Y-151790000D01*
X291194188Y-151914482D01*
X291230498Y-152034180D01*
X291289463Y-152144494D01*
X291368815Y-152241185D01*
X291465506Y-152320537D01*
X291575820Y-152379502D01*
X291695518Y-152415812D01*
X291820000Y-152428072D01*
X306220000Y-152428072D01*
X306344482Y-152415812D01*
X306459466Y-152380932D01*
X306330835Y-152573441D01*
X306305742Y-152588228D01*
X306250765Y-152693275D01*
X306184893Y-152791859D01*
X306130709Y-152922670D01*
X306065062Y-153048105D01*
X306031637Y-153161850D01*
X305986261Y-153271399D01*
X305958637Y-153410276D01*
X305918725Y-153546098D01*
X305908133Y-153664175D01*
X305885000Y-153780475D01*
X305885000Y-153922069D01*
X305872352Y-154063071D01*
X305885000Y-154180949D01*
X305885000Y-154299525D01*
X305912624Y-154438401D01*
X305927727Y-154579159D01*
X305963127Y-154692300D01*
X305986261Y-154808601D01*
X306040448Y-154939420D01*
X306082721Y-155074526D01*
X306143549Y-155188329D01*
X306184893Y-155288141D01*
X306244910Y-155377963D01*
X306305742Y-155491772D01*
X306330835Y-155506559D01*
X306473262Y-155719715D01*
X306840285Y-156086738D01*
X307053441Y-156229165D01*
X307068228Y-156254258D01*
X307173275Y-156309235D01*
X307271859Y-156375107D01*
X307402670Y-156429291D01*
X307528105Y-156494938D01*
X307641850Y-156528363D01*
X307751399Y-156573739D01*
X307890276Y-156601363D01*
X308026098Y-156641275D01*
X308144175Y-156651867D01*
X308260475Y-156675000D01*
X308402069Y-156675000D01*
X308543071Y-156687648D01*
X308660949Y-156675000D01*
X308779525Y-156675000D01*
X308918401Y-156647376D01*
X309059159Y-156632273D01*
X309172300Y-156596873D01*
X309288601Y-156573739D01*
X309419420Y-156519552D01*
X309554526Y-156477279D01*
X309624271Y-156440000D01*
X310231928Y-156440000D01*
X310231928Y-162940000D01*
X310244188Y-163064482D01*
X310280498Y-163184180D01*
X310339463Y-163294494D01*
X310418815Y-163391185D01*
X310515506Y-163470537D01*
X310625820Y-163529502D01*
X310745518Y-163565812D01*
X310870000Y-163578072D01*
X311870000Y-163578072D01*
X311994482Y-163565812D01*
X312114180Y-163529502D01*
X312224494Y-163470537D01*
X312321185Y-163391185D01*
X312400537Y-163294494D01*
X312459502Y-163184180D01*
X312495812Y-163064482D01*
X312508072Y-162940000D01*
X312508072Y-158078072D01*
X323631928Y-158078072D01*
X323631928Y-162940000D01*
X323644188Y-163064482D01*
X323680498Y-163184180D01*
X323739463Y-163294494D01*
X323818815Y-163391185D01*
X323915506Y-163470537D01*
X324025820Y-163529502D01*
X324145518Y-163565812D01*
X324270000Y-163578072D01*
X325270000Y-163578072D01*
X325394482Y-163565812D01*
X325514180Y-163529502D01*
X325624494Y-163470537D01*
X325721185Y-163391185D01*
X325800537Y-163294494D01*
X325859502Y-163184180D01*
X325895812Y-163064482D01*
X325908072Y-162940000D01*
X325908072Y-156440000D01*
X325895812Y-156315518D01*
X325859502Y-156195820D01*
X325800537Y-156085506D01*
X325721185Y-155988815D01*
X325624494Y-155909463D01*
X325514180Y-155850498D01*
X325394482Y-155814188D01*
X325270000Y-155801928D01*
X310870000Y-155801928D01*
X310745518Y-155814188D01*
X310625820Y-155850498D01*
X310515506Y-155909463D01*
X310418815Y-155988815D01*
X310339463Y-156085506D01*
X310280498Y-156195820D01*
X310244188Y-156315518D01*
X310231928Y-156440000D01*
X309624271Y-156440000D01*
X309668329Y-156416451D01*
X309768141Y-156375107D01*
X309857963Y-156315090D01*
X309971772Y-156254258D01*
X309986559Y-156229165D01*
X310199715Y-156086738D01*
X310566738Y-155719715D01*
X310709165Y-155506559D01*
X310734258Y-155491772D01*
X310789235Y-155386725D01*
X310855107Y-155288141D01*
X310909291Y-155157330D01*
X310974938Y-155031895D01*
X311008363Y-154918150D01*
X311053739Y-154808601D01*
X311081363Y-154669724D01*
X311121275Y-154533902D01*
X311131867Y-154415825D01*
X311155000Y-154299525D01*
X311155000Y-154157931D01*
X311167648Y-154016929D01*
X311155000Y-153899051D01*
X311155000Y-153780475D01*
X311127376Y-153641599D01*
X311112273Y-153500841D01*
X311076873Y-153387700D01*
X311053739Y-153271399D01*
X310999552Y-153140580D01*
X310957279Y-153005474D01*
X310896451Y-152891671D01*
X310855107Y-152791859D01*
X310795090Y-152702037D01*
X310734258Y-152588228D01*
X310709165Y-152573441D01*
X310566738Y-152360285D01*
X310540177Y-152333724D01*
X310625820Y-152379502D01*
X310745518Y-152415812D01*
X310870000Y-152428072D01*
X325270000Y-152428072D01*
X325394482Y-152415812D01*
X325514180Y-152379502D01*
X325624494Y-152320537D01*
X325721185Y-152241185D01*
X325800537Y-152144494D01*
X325859502Y-152034180D01*
X325895812Y-151914482D01*
X325908072Y-151790000D01*
X325908072Y-145290000D01*
X325895812Y-145165518D01*
X325859502Y-145045820D01*
X325800537Y-144935506D01*
X325721185Y-144838815D01*
X325624494Y-144759463D01*
X325514180Y-144700498D01*
X325394482Y-144664188D01*
X325270000Y-144651928D01*
X324270000Y-144651928D01*
X324145518Y-144664188D01*
X324025820Y-144700498D01*
X323915506Y-144759463D01*
X323818815Y-144838815D01*
X323739463Y-144935506D01*
X323680498Y-145045820D01*
X323644188Y-145165518D01*
X323631928Y-145290000D01*
X323631928Y-150151928D01*
X312508072Y-150151928D01*
X312508072Y-145290000D01*
X312495812Y-145165518D01*
X312459502Y-145045820D01*
X312400537Y-144935506D01*
X312321185Y-144838815D01*
X312224494Y-144759463D01*
X312114180Y-144700498D01*
X311994482Y-144664188D01*
X311870000Y-144651928D01*
X310870000Y-144651928D01*
X310745518Y-144664188D01*
X310625820Y-144700498D01*
X310515506Y-144759463D01*
X310418815Y-144838815D01*
X310339463Y-144935506D01*
X310280498Y-145045820D01*
X310244188Y-145165518D01*
X310231928Y-145290000D01*
X310231928Y-151790000D01*
X310244188Y-151914482D01*
X310280498Y-152034180D01*
X310326276Y-152119823D01*
X310199715Y-151993262D01*
X309986559Y-151850835D01*
X309971772Y-151825742D01*
X309866725Y-151770765D01*
X309768141Y-151704893D01*
X309637330Y-151650709D01*
X309511895Y-151585062D01*
X309398150Y-151551637D01*
X309288601Y-151506261D01*
X309149724Y-151478637D01*
X309013902Y-151438725D01*
X308895825Y-151428133D01*
X308779525Y-151405000D01*
X308637931Y-151405000D01*
X308496929Y-151392352D01*
X308379051Y-151405000D01*
X308260475Y-151405000D01*
X308121599Y-151432624D01*
X307980841Y-151447727D01*
X307867700Y-151483127D01*
X307751399Y-151506261D01*
X307620580Y-151560448D01*
X307485474Y-151602721D01*
X307371671Y-151663549D01*
X307271859Y-151704893D01*
X307182037Y-151764910D01*
X307068228Y-151825742D01*
X307053441Y-151850835D01*
X306840285Y-151993262D01*
X306813915Y-152019632D01*
X306845812Y-151914482D01*
X306858072Y-151790000D01*
X306858072Y-145290000D01*
X306845812Y-145165518D01*
X306809502Y-145045820D01*
X306750537Y-144935506D01*
X306671185Y-144838815D01*
X306574494Y-144759463D01*
X306464180Y-144700498D01*
X306344482Y-144664188D01*
X306220000Y-144651928D01*
X305220000Y-144651928D01*
X305095518Y-144664188D01*
X304975820Y-144700498D01*
X304865506Y-144759463D01*
X304768815Y-144838815D01*
X304689463Y-144935506D01*
X304630498Y-145045820D01*
X304594188Y-145165518D01*
X304581928Y-145290000D01*
X304581928Y-150151928D01*
X293458072Y-150151928D01*
X293458072Y-145290000D01*
X293445812Y-145165518D01*
X293409502Y-145045820D01*
X293350537Y-144935506D01*
X293271185Y-144838815D01*
X293174494Y-144759463D01*
X293064180Y-144700498D01*
X292944482Y-144664188D01*
X292820000Y-144651928D01*
X291820000Y-144651928D01*
X291695518Y-144664188D01*
X291575820Y-144700498D01*
X291465506Y-144759463D01*
X291368815Y-144838815D01*
X291289463Y-144935506D01*
X291230498Y-145045820D01*
X291194188Y-145165518D01*
X291181928Y-145290000D01*
X287808072Y-145290000D01*
X287795812Y-145165518D01*
X287759502Y-145045820D01*
X287700537Y-144935506D01*
X287621185Y-144838815D01*
X287524494Y-144759463D01*
X287414180Y-144700498D01*
X287294482Y-144664188D01*
X287170000Y-144651928D01*
X286170000Y-144651928D01*
X286045518Y-144664188D01*
X285925820Y-144700498D01*
X285815506Y-144759463D01*
X285718815Y-144838815D01*
X285639463Y-144935506D01*
X285580498Y-145045820D01*
X285544188Y-145165518D01*
X285531928Y-145290000D01*
X285531928Y-150151928D01*
X274408072Y-150151928D01*
X274408072Y-145290000D01*
X274395812Y-145165518D01*
X274359502Y-145045820D01*
X274300537Y-144935506D01*
X274221185Y-144838815D01*
X274124494Y-144759463D01*
X274014180Y-144700498D01*
X273894482Y-144664188D01*
X273770000Y-144651928D01*
X272770000Y-144651928D01*
X272645518Y-144664188D01*
X272525820Y-144700498D01*
X272415506Y-144759463D01*
X272318815Y-144838815D01*
X272239463Y-144935506D01*
X272180498Y-145045820D01*
X272144188Y-145165518D01*
X272131928Y-145290000D01*
X272131928Y-151790000D01*
X272144188Y-151914482D01*
X272180498Y-152034180D01*
X272226276Y-152119823D01*
X272099715Y-151993262D01*
X271886559Y-151850835D01*
X271871772Y-151825742D01*
X271766725Y-151770765D01*
X271668141Y-151704893D01*
X271537330Y-151650709D01*
X271411895Y-151585062D01*
X271298150Y-151551637D01*
X271188601Y-151506261D01*
X271049724Y-151478637D01*
X270913902Y-151438725D01*
X270795825Y-151428133D01*
X270679525Y-151405000D01*
X270537931Y-151405000D01*
X270396929Y-151392352D01*
X270279051Y-151405000D01*
X270160475Y-151405000D01*
X270021599Y-151432624D01*
X269880841Y-151447727D01*
X269767700Y-151483127D01*
X269651399Y-151506261D01*
X269520580Y-151560448D01*
X269385474Y-151602721D01*
X269271671Y-151663549D01*
X269171859Y-151704893D01*
X269082037Y-151764910D01*
X268968228Y-151825742D01*
X268953441Y-151850835D01*
X268740285Y-151993262D01*
X268713915Y-152019632D01*
X268745812Y-151914482D01*
X268758072Y-151790000D01*
X268758072Y-145290000D01*
X268745812Y-145165518D01*
X268709502Y-145045820D01*
X268650537Y-144935506D01*
X268571185Y-144838815D01*
X268474494Y-144759463D01*
X268364180Y-144700498D01*
X268244482Y-144664188D01*
X268120000Y-144651928D01*
X267120000Y-144651928D01*
X266995518Y-144664188D01*
X266875820Y-144700498D01*
X266765506Y-144759463D01*
X266668815Y-144838815D01*
X266589463Y-144935506D01*
X266530498Y-145045820D01*
X266494188Y-145165518D01*
X266481928Y-145290000D01*
X266481928Y-150151928D01*
X255358072Y-150151928D01*
X255358072Y-145290000D01*
X255345812Y-145165518D01*
X255309502Y-145045820D01*
X255250537Y-144935506D01*
X255171185Y-144838815D01*
X255074494Y-144759463D01*
X254964180Y-144700498D01*
X254844482Y-144664188D01*
X254720000Y-144651928D01*
X253720000Y-144651928D01*
X253595518Y-144664188D01*
X253475820Y-144700498D01*
X253365506Y-144759463D01*
X253268815Y-144838815D01*
X253189463Y-144935506D01*
X253130498Y-145045820D01*
X253094188Y-145165518D01*
X253081928Y-145290000D01*
X252055000Y-145290000D01*
X252055000Y-137390000D01*
X253081928Y-137390000D01*
X253081928Y-143890000D01*
X253094188Y-144014482D01*
X253130498Y-144134180D01*
X253189463Y-144244494D01*
X253268815Y-144341185D01*
X253365506Y-144420537D01*
X253475820Y-144479502D01*
X253595518Y-144515812D01*
X253720000Y-144528072D01*
X254720000Y-144528072D01*
X254844482Y-144515812D01*
X254964180Y-144479502D01*
X255074494Y-144420537D01*
X255171185Y-144341185D01*
X255250537Y-144244494D01*
X255309502Y-144134180D01*
X255345812Y-144014482D01*
X255358072Y-143890000D01*
X255358072Y-139028072D01*
X266481928Y-139028072D01*
X266481928Y-143890000D01*
X266494188Y-144014482D01*
X266530498Y-144134180D01*
X266589463Y-144244494D01*
X266668815Y-144341185D01*
X266765506Y-144420537D01*
X266875820Y-144479502D01*
X266995518Y-144515812D01*
X267120000Y-144528072D01*
X268120000Y-144528072D01*
X268244482Y-144515812D01*
X268364180Y-144479502D01*
X268474494Y-144420537D01*
X268571185Y-144341185D01*
X268650537Y-144244494D01*
X268709502Y-144134180D01*
X268745812Y-144014482D01*
X268758072Y-143890000D01*
X268758072Y-137390000D01*
X272131928Y-137390000D01*
X272131928Y-143890000D01*
X272144188Y-144014482D01*
X272180498Y-144134180D01*
X272239463Y-144244494D01*
X272318815Y-144341185D01*
X272415506Y-144420537D01*
X272525820Y-144479502D01*
X272645518Y-144515812D01*
X272770000Y-144528072D01*
X273770000Y-144528072D01*
X273894482Y-144515812D01*
X274014180Y-144479502D01*
X274124494Y-144420537D01*
X274221185Y-144341185D01*
X274300537Y-144244494D01*
X274359502Y-144134180D01*
X274395812Y-144014482D01*
X274408072Y-143890000D01*
X274408072Y-139028072D01*
X285531928Y-139028072D01*
X285531928Y-143890000D01*
X285544188Y-144014482D01*
X285580498Y-144134180D01*
X285639463Y-144244494D01*
X285718815Y-144341185D01*
X285815506Y-144420537D01*
X285925820Y-144479502D01*
X286045518Y-144515812D01*
X286170000Y-144528072D01*
X287170000Y-144528072D01*
X287294482Y-144515812D01*
X287414180Y-144479502D01*
X287524494Y-144420537D01*
X287621185Y-144341185D01*
X287700537Y-144244494D01*
X287759502Y-144134180D01*
X287795812Y-144014482D01*
X287808072Y-143890000D01*
X287808072Y-137390000D01*
X291181928Y-137390000D01*
X291181928Y-143890000D01*
X291194188Y-144014482D01*
X291230498Y-144134180D01*
X291289463Y-144244494D01*
X291368815Y-144341185D01*
X291465506Y-144420537D01*
X291575820Y-144479502D01*
X291695518Y-144515812D01*
X291820000Y-144528072D01*
X292820000Y-144528072D01*
X292944482Y-144515812D01*
X293064180Y-144479502D01*
X293174494Y-144420537D01*
X293271185Y-144341185D01*
X293350537Y-144244494D01*
X293409502Y-144134180D01*
X293445812Y-144014482D01*
X293458072Y-143890000D01*
X293458072Y-139028072D01*
X304581928Y-139028072D01*
X304581928Y-143890000D01*
X304594188Y-144014482D01*
X304630498Y-144134180D01*
X304689463Y-144244494D01*
X304768815Y-144341185D01*
X304865506Y-144420537D01*
X304975820Y-144479502D01*
X305095518Y-144515812D01*
X305220000Y-144528072D01*
X306220000Y-144528072D01*
X306344482Y-144515812D01*
X306464180Y-144479502D01*
X306574494Y-144420537D01*
X306671185Y-144341185D01*
X306750537Y-144244494D01*
X306809502Y-144134180D01*
X306845812Y-144014482D01*
X306858072Y-143890000D01*
X306858072Y-137390000D01*
X310231928Y-137390000D01*
X310231928Y-143890000D01*
X310244188Y-144014482D01*
X310280498Y-144134180D01*
X310339463Y-144244494D01*
X310418815Y-144341185D01*
X310515506Y-144420537D01*
X310625820Y-144479502D01*
X310745518Y-144515812D01*
X310870000Y-144528072D01*
X311870000Y-144528072D01*
X311994482Y-144515812D01*
X312114180Y-144479502D01*
X312224494Y-144420537D01*
X312321185Y-144341185D01*
X312400537Y-144244494D01*
X312459502Y-144134180D01*
X312495812Y-144014482D01*
X312508072Y-143890000D01*
X312508072Y-139028072D01*
X323631928Y-139028072D01*
X323631928Y-143890000D01*
X323644188Y-144014482D01*
X323680498Y-144134180D01*
X323739463Y-144244494D01*
X323818815Y-144341185D01*
X323915506Y-144420537D01*
X324025820Y-144479502D01*
X324145518Y-144515812D01*
X324270000Y-144528072D01*
X325270000Y-144528072D01*
X325394482Y-144515812D01*
X325514180Y-144479502D01*
X325624494Y-144420537D01*
X325721185Y-144341185D01*
X325800537Y-144244494D01*
X325859502Y-144134180D01*
X325895812Y-144014482D01*
X325908072Y-143890000D01*
X325908072Y-137390000D01*
X325895812Y-137265518D01*
X325859502Y-137145820D01*
X325800537Y-137035506D01*
X325721185Y-136938815D01*
X325624494Y-136859463D01*
X325514180Y-136800498D01*
X325394482Y-136764188D01*
X325270000Y-136751928D01*
X310870000Y-136751928D01*
X310745518Y-136764188D01*
X310625820Y-136800498D01*
X310515506Y-136859463D01*
X310418815Y-136938815D01*
X310339463Y-137035506D01*
X310280498Y-137145820D01*
X310244188Y-137265518D01*
X310231928Y-137390000D01*
X306858072Y-137390000D01*
X306845812Y-137265518D01*
X306809502Y-137145820D01*
X306750537Y-137035506D01*
X306671185Y-136938815D01*
X306574494Y-136859463D01*
X306464180Y-136800498D01*
X306344482Y-136764188D01*
X306220000Y-136751928D01*
X291820000Y-136751928D01*
X291695518Y-136764188D01*
X291575820Y-136800498D01*
X291465506Y-136859463D01*
X291368815Y-136938815D01*
X291289463Y-137035506D01*
X291230498Y-137145820D01*
X291194188Y-137265518D01*
X291181928Y-137390000D01*
X287808072Y-137390000D01*
X287795812Y-137265518D01*
X287759502Y-137145820D01*
X287700537Y-137035506D01*
X287621185Y-136938815D01*
X287524494Y-136859463D01*
X287414180Y-136800498D01*
X287294482Y-136764188D01*
X287170000Y-136751928D01*
X272770000Y-136751928D01*
X272645518Y-136764188D01*
X272525820Y-136800498D01*
X272415506Y-136859463D01*
X272318815Y-136938815D01*
X272239463Y-137035506D01*
X272180498Y-137145820D01*
X272144188Y-137265518D01*
X272131928Y-137390000D01*
X268758072Y-137390000D01*
X268745812Y-137265518D01*
X268709502Y-137145820D01*
X268650537Y-137035506D01*
X268571185Y-136938815D01*
X268474494Y-136859463D01*
X268364180Y-136800498D01*
X268244482Y-136764188D01*
X268120000Y-136751928D01*
X253720000Y-136751928D01*
X253595518Y-136764188D01*
X253475820Y-136800498D01*
X253365506Y-136859463D01*
X253268815Y-136938815D01*
X253189463Y-137035506D01*
X253130498Y-137145820D01*
X253094188Y-137265518D01*
X253081928Y-137390000D01*
X252055000Y-137390000D01*
X252055000Y-126240000D01*
X253081928Y-126240000D01*
X253081928Y-132740000D01*
X253094188Y-132864482D01*
X253130498Y-132984180D01*
X253189463Y-133094494D01*
X253268815Y-133191185D01*
X253365506Y-133270537D01*
X253475820Y-133329502D01*
X253595518Y-133365812D01*
X253720000Y-133378072D01*
X268120000Y-133378072D01*
X268244482Y-133365812D01*
X268364180Y-133329502D01*
X268474494Y-133270537D01*
X268571185Y-133191185D01*
X268650537Y-133094494D01*
X268709502Y-132984180D01*
X268745812Y-132864482D01*
X268758072Y-132740000D01*
X268758072Y-126240000D01*
X272131928Y-126240000D01*
X272131928Y-132740000D01*
X272144188Y-132864482D01*
X272180498Y-132984180D01*
X272239463Y-133094494D01*
X272318815Y-133191185D01*
X272415506Y-133270537D01*
X272525820Y-133329502D01*
X272645518Y-133365812D01*
X272770000Y-133378072D01*
X287170000Y-133378072D01*
X287294482Y-133365812D01*
X287414180Y-133329502D01*
X287524494Y-133270537D01*
X287621185Y-133191185D01*
X287700537Y-133094494D01*
X287759502Y-132984180D01*
X287795812Y-132864482D01*
X287808072Y-132740000D01*
X287808072Y-126240000D01*
X291181928Y-126240000D01*
X291181928Y-132740000D01*
X291194188Y-132864482D01*
X291230498Y-132984180D01*
X291289463Y-133094494D01*
X291368815Y-133191185D01*
X291465506Y-133270537D01*
X291575820Y-133329502D01*
X291695518Y-133365812D01*
X291820000Y-133378072D01*
X306220000Y-133378072D01*
X306344482Y-133365812D01*
X306464180Y-133329502D01*
X306574494Y-133270537D01*
X306671185Y-133191185D01*
X306750537Y-133094494D01*
X306809502Y-132984180D01*
X306845812Y-132864482D01*
X306858072Y-132740000D01*
X306858072Y-126240000D01*
X310231928Y-126240000D01*
X310231928Y-132740000D01*
X310244188Y-132864482D01*
X310280498Y-132984180D01*
X310339463Y-133094494D01*
X310418815Y-133191185D01*
X310515506Y-133270537D01*
X310625820Y-133329502D01*
X310745518Y-133365812D01*
X310870000Y-133378072D01*
X325270000Y-133378072D01*
X325394482Y-133365812D01*
X325514180Y-133329502D01*
X325624494Y-133270537D01*
X325721185Y-133191185D01*
X325800537Y-133094494D01*
X325859502Y-132984180D01*
X325895812Y-132864482D01*
X325908072Y-132740000D01*
X325908072Y-126240000D01*
X325895812Y-126115518D01*
X325859502Y-125995820D01*
X325800537Y-125885506D01*
X325721185Y-125788815D01*
X325624494Y-125709463D01*
X325514180Y-125650498D01*
X325394482Y-125614188D01*
X325270000Y-125601928D01*
X324270000Y-125601928D01*
X324145518Y-125614188D01*
X324025820Y-125650498D01*
X323915506Y-125709463D01*
X323818815Y-125788815D01*
X323739463Y-125885506D01*
X323680498Y-125995820D01*
X323644188Y-126115518D01*
X323631928Y-126240000D01*
X323631928Y-131101928D01*
X312508072Y-131101928D01*
X312508072Y-126240000D01*
X312495812Y-126115518D01*
X312459502Y-125995820D01*
X312400537Y-125885506D01*
X312321185Y-125788815D01*
X312224494Y-125709463D01*
X312114180Y-125650498D01*
X311994482Y-125614188D01*
X311870000Y-125601928D01*
X310870000Y-125601928D01*
X310745518Y-125614188D01*
X310625820Y-125650498D01*
X310515506Y-125709463D01*
X310418815Y-125788815D01*
X310339463Y-125885506D01*
X310280498Y-125995820D01*
X310244188Y-126115518D01*
X310231928Y-126240000D01*
X306858072Y-126240000D01*
X306845812Y-126115518D01*
X306809502Y-125995820D01*
X306750537Y-125885506D01*
X306671185Y-125788815D01*
X306574494Y-125709463D01*
X306464180Y-125650498D01*
X306344482Y-125614188D01*
X306220000Y-125601928D01*
X305220000Y-125601928D01*
X305095518Y-125614188D01*
X304975820Y-125650498D01*
X304865506Y-125709463D01*
X304768815Y-125788815D01*
X304689463Y-125885506D01*
X304630498Y-125995820D01*
X304594188Y-126115518D01*
X304581928Y-126240000D01*
X304581928Y-131101928D01*
X293458072Y-131101928D01*
X293458072Y-126240000D01*
X293445812Y-126115518D01*
X293409502Y-125995820D01*
X293350537Y-125885506D01*
X293271185Y-125788815D01*
X293174494Y-125709463D01*
X293064180Y-125650498D01*
X292944482Y-125614188D01*
X292820000Y-125601928D01*
X291820000Y-125601928D01*
X291695518Y-125614188D01*
X291575820Y-125650498D01*
X291465506Y-125709463D01*
X291368815Y-125788815D01*
X291289463Y-125885506D01*
X291230498Y-125995820D01*
X291194188Y-126115518D01*
X291181928Y-126240000D01*
X287808072Y-126240000D01*
X287795812Y-126115518D01*
X287759502Y-125995820D01*
X287700537Y-125885506D01*
X287621185Y-125788815D01*
X287524494Y-125709463D01*
X287414180Y-125650498D01*
X287294482Y-125614188D01*
X287170000Y-125601928D01*
X286170000Y-125601928D01*
X286045518Y-125614188D01*
X285925820Y-125650498D01*
X285815506Y-125709463D01*
X285718815Y-125788815D01*
X285639463Y-125885506D01*
X285580498Y-125995820D01*
X285544188Y-126115518D01*
X285531928Y-126240000D01*
X285531928Y-131101928D01*
X274408072Y-131101928D01*
X274408072Y-126240000D01*
X274395812Y-126115518D01*
X274359502Y-125995820D01*
X274300537Y-125885506D01*
X274221185Y-125788815D01*
X274124494Y-125709463D01*
X274014180Y-125650498D01*
X273894482Y-125614188D01*
X273770000Y-125601928D01*
X272770000Y-125601928D01*
X272645518Y-125614188D01*
X272525820Y-125650498D01*
X272415506Y-125709463D01*
X272318815Y-125788815D01*
X272239463Y-125885506D01*
X272180498Y-125995820D01*
X272144188Y-126115518D01*
X272131928Y-126240000D01*
X268758072Y-126240000D01*
X268745812Y-126115518D01*
X268709502Y-125995820D01*
X268650537Y-125885506D01*
X268571185Y-125788815D01*
X268474494Y-125709463D01*
X268364180Y-125650498D01*
X268244482Y-125614188D01*
X268120000Y-125601928D01*
X267120000Y-125601928D01*
X266995518Y-125614188D01*
X266875820Y-125650498D01*
X266765506Y-125709463D01*
X266668815Y-125788815D01*
X266589463Y-125885506D01*
X266530498Y-125995820D01*
X266494188Y-126115518D01*
X266481928Y-126240000D01*
X266481928Y-131101928D01*
X255358072Y-131101928D01*
X255358072Y-126240000D01*
X255345812Y-126115518D01*
X255309502Y-125995820D01*
X255250537Y-125885506D01*
X255171185Y-125788815D01*
X255074494Y-125709463D01*
X254964180Y-125650498D01*
X254844482Y-125614188D01*
X254720000Y-125601928D01*
X253720000Y-125601928D01*
X253595518Y-125614188D01*
X253475820Y-125650498D01*
X253365506Y-125709463D01*
X253268815Y-125788815D01*
X253189463Y-125885506D01*
X253130498Y-125995820D01*
X253094188Y-126115518D01*
X253081928Y-126240000D01*
X252055000Y-126240000D01*
X252055000Y-107190000D01*
X253081928Y-107190000D01*
X253081928Y-113690000D01*
X253094188Y-113814482D01*
X253130498Y-113934180D01*
X253189463Y-114044494D01*
X253268815Y-114141185D01*
X253365506Y-114220537D01*
X253475820Y-114279502D01*
X253595518Y-114315812D01*
X253720000Y-114328072D01*
X263565468Y-114328072D01*
X263468335Y-114473441D01*
X263443242Y-114488228D01*
X263388265Y-114593275D01*
X263322393Y-114691859D01*
X263268209Y-114822670D01*
X263202562Y-114948105D01*
X263169137Y-115061850D01*
X263123761Y-115171399D01*
X263096137Y-115310276D01*
X263056225Y-115446098D01*
X263045633Y-115564175D01*
X263022500Y-115680475D01*
X263022500Y-115822069D01*
X263009852Y-115963071D01*
X263022500Y-116080949D01*
X263022500Y-116199525D01*
X263050124Y-116338401D01*
X263065227Y-116479159D01*
X263100627Y-116592300D01*
X263123761Y-116708601D01*
X263177948Y-116839420D01*
X263220221Y-116974526D01*
X263281049Y-117088329D01*
X263322393Y-117188141D01*
X263382410Y-117277963D01*
X263443242Y-117391772D01*
X263468335Y-117406559D01*
X263610762Y-117619715D01*
X263692975Y-117701928D01*
X253720000Y-117701928D01*
X253595518Y-117714188D01*
X253475820Y-117750498D01*
X253365506Y-117809463D01*
X253268815Y-117888815D01*
X253189463Y-117985506D01*
X253130498Y-118095820D01*
X253094188Y-118215518D01*
X253081928Y-118340000D01*
X253081928Y-124840000D01*
X253094188Y-124964482D01*
X253130498Y-125084180D01*
X253189463Y-125194494D01*
X253268815Y-125291185D01*
X253365506Y-125370537D01*
X253475820Y-125429502D01*
X253595518Y-125465812D01*
X253720000Y-125478072D01*
X254720000Y-125478072D01*
X254844482Y-125465812D01*
X254964180Y-125429502D01*
X255074494Y-125370537D01*
X255171185Y-125291185D01*
X255250537Y-125194494D01*
X255309502Y-125084180D01*
X255345812Y-124964482D01*
X255358072Y-124840000D01*
X255358072Y-119978072D01*
X266481928Y-119978072D01*
X266481928Y-124840000D01*
X266494188Y-124964482D01*
X266530498Y-125084180D01*
X266589463Y-125194494D01*
X266668815Y-125291185D01*
X266765506Y-125370537D01*
X266875820Y-125429502D01*
X266995518Y-125465812D01*
X267120000Y-125478072D01*
X268120000Y-125478072D01*
X268244482Y-125465812D01*
X268364180Y-125429502D01*
X268474494Y-125370537D01*
X268571185Y-125291185D01*
X268650537Y-125194494D01*
X268709502Y-125084180D01*
X268745812Y-124964482D01*
X268758072Y-124840000D01*
X268758072Y-118340000D01*
X272131928Y-118340000D01*
X272131928Y-124840000D01*
X272144188Y-124964482D01*
X272180498Y-125084180D01*
X272239463Y-125194494D01*
X272318815Y-125291185D01*
X272415506Y-125370537D01*
X272525820Y-125429502D01*
X272645518Y-125465812D01*
X272770000Y-125478072D01*
X273770000Y-125478072D01*
X273894482Y-125465812D01*
X274014180Y-125429502D01*
X274124494Y-125370537D01*
X274221185Y-125291185D01*
X274300537Y-125194494D01*
X274359502Y-125084180D01*
X274395812Y-124964482D01*
X274408072Y-124840000D01*
X274408072Y-119978072D01*
X285531928Y-119978072D01*
X285531928Y-124840000D01*
X285544188Y-124964482D01*
X285580498Y-125084180D01*
X285639463Y-125194494D01*
X285718815Y-125291185D01*
X285815506Y-125370537D01*
X285925820Y-125429502D01*
X286045518Y-125465812D01*
X286170000Y-125478072D01*
X287170000Y-125478072D01*
X287294482Y-125465812D01*
X287414180Y-125429502D01*
X287524494Y-125370537D01*
X287621185Y-125291185D01*
X287700537Y-125194494D01*
X287759502Y-125084180D01*
X287795812Y-124964482D01*
X287808072Y-124840000D01*
X287808072Y-118340000D01*
X291181928Y-118340000D01*
X291181928Y-124840000D01*
X291194188Y-124964482D01*
X291230498Y-125084180D01*
X291289463Y-125194494D01*
X291368815Y-125291185D01*
X291465506Y-125370537D01*
X291575820Y-125429502D01*
X291695518Y-125465812D01*
X291820000Y-125478072D01*
X292820000Y-125478072D01*
X292944482Y-125465812D01*
X293064180Y-125429502D01*
X293174494Y-125370537D01*
X293271185Y-125291185D01*
X293350537Y-125194494D01*
X293409502Y-125084180D01*
X293445812Y-124964482D01*
X293458072Y-124840000D01*
X293458072Y-119978072D01*
X304581928Y-119978072D01*
X304581928Y-124840000D01*
X304594188Y-124964482D01*
X304630498Y-125084180D01*
X304689463Y-125194494D01*
X304768815Y-125291185D01*
X304865506Y-125370537D01*
X304975820Y-125429502D01*
X305095518Y-125465812D01*
X305220000Y-125478072D01*
X306220000Y-125478072D01*
X306344482Y-125465812D01*
X306464180Y-125429502D01*
X306574494Y-125370537D01*
X306671185Y-125291185D01*
X306750537Y-125194494D01*
X306809502Y-125084180D01*
X306845812Y-124964482D01*
X306858072Y-124840000D01*
X306858072Y-118340000D01*
X306845812Y-118215518D01*
X306809502Y-118095820D01*
X306750537Y-117985506D01*
X306671185Y-117888815D01*
X306574494Y-117809463D01*
X306464180Y-117750498D01*
X306344482Y-117714188D01*
X306220000Y-117701928D01*
X291820000Y-117701928D01*
X291695518Y-117714188D01*
X291575820Y-117750498D01*
X291465506Y-117809463D01*
X291368815Y-117888815D01*
X291289463Y-117985506D01*
X291230498Y-118095820D01*
X291194188Y-118215518D01*
X291181928Y-118340000D01*
X287808072Y-118340000D01*
X287795812Y-118215518D01*
X287759502Y-118095820D01*
X287700537Y-117985506D01*
X287621185Y-117888815D01*
X287524494Y-117809463D01*
X287414180Y-117750498D01*
X287294482Y-117714188D01*
X287170000Y-117701928D01*
X272770000Y-117701928D01*
X272645518Y-117714188D01*
X272525820Y-117750498D01*
X272415506Y-117809463D01*
X272318815Y-117888815D01*
X272239463Y-117985506D01*
X272180498Y-118095820D01*
X272144188Y-118215518D01*
X272131928Y-118340000D01*
X268758072Y-118340000D01*
X268745812Y-118215518D01*
X268709502Y-118095820D01*
X268650537Y-117985506D01*
X268571185Y-117888815D01*
X268474494Y-117809463D01*
X268364180Y-117750498D01*
X268244482Y-117714188D01*
X268120000Y-117701928D01*
X267622025Y-117701928D01*
X267704238Y-117619715D01*
X267846665Y-117406559D01*
X267871758Y-117391772D01*
X267926735Y-117286725D01*
X267992607Y-117188141D01*
X268046791Y-117057330D01*
X268112438Y-116931895D01*
X268145863Y-116818150D01*
X268191239Y-116708601D01*
X268218863Y-116569724D01*
X268258775Y-116433902D01*
X268269367Y-116315825D01*
X268292500Y-116199525D01*
X268292500Y-116057931D01*
X268305148Y-115916929D01*
X268292500Y-115799051D01*
X268292500Y-115680475D01*
X268264876Y-115541599D01*
X268249773Y-115400841D01*
X268214373Y-115287700D01*
X268191239Y-115171399D01*
X268137052Y-115040580D01*
X268094779Y-114905474D01*
X268033951Y-114791671D01*
X267992607Y-114691859D01*
X267932590Y-114602037D01*
X267871758Y-114488228D01*
X267846665Y-114473441D01*
X267749532Y-114328072D01*
X268120000Y-114328072D01*
X268244482Y-114315812D01*
X268364180Y-114279502D01*
X268474494Y-114220537D01*
X268571185Y-114141185D01*
X268650537Y-114044494D01*
X268709502Y-113934180D01*
X268745812Y-113814482D01*
X268758072Y-113690000D01*
X268758072Y-107190000D01*
X272131928Y-107190000D01*
X272131928Y-113690000D01*
X272144188Y-113814482D01*
X272180498Y-113934180D01*
X272239463Y-114044494D01*
X272318815Y-114141185D01*
X272415506Y-114220537D01*
X272525820Y-114279502D01*
X272645518Y-114315812D01*
X272770000Y-114328072D01*
X287170000Y-114328072D01*
X287294482Y-114315812D01*
X287414180Y-114279502D01*
X287524494Y-114220537D01*
X287621185Y-114141185D01*
X287700537Y-114044494D01*
X287759502Y-113934180D01*
X287795812Y-113814482D01*
X287808072Y-113690000D01*
X287808072Y-107190000D01*
X291181928Y-107190000D01*
X291181928Y-113690000D01*
X291194188Y-113814482D01*
X291230498Y-113934180D01*
X291289463Y-114044494D01*
X291368815Y-114141185D01*
X291465506Y-114220537D01*
X291575820Y-114279502D01*
X291695518Y-114315812D01*
X291820000Y-114328072D01*
X306220000Y-114328072D01*
X306344482Y-114315812D01*
X306459466Y-114280932D01*
X306330835Y-114473441D01*
X306305742Y-114488228D01*
X306250765Y-114593275D01*
X306184893Y-114691859D01*
X306130709Y-114822670D01*
X306065062Y-114948105D01*
X306031637Y-115061850D01*
X305986261Y-115171399D01*
X305958637Y-115310276D01*
X305918725Y-115446098D01*
X305908133Y-115564175D01*
X305885000Y-115680475D01*
X305885000Y-115822069D01*
X305872352Y-115963071D01*
X305885000Y-116080949D01*
X305885000Y-116199525D01*
X305912624Y-116338401D01*
X305927727Y-116479159D01*
X305963127Y-116592300D01*
X305986261Y-116708601D01*
X306040448Y-116839420D01*
X306082721Y-116974526D01*
X306143549Y-117088329D01*
X306184893Y-117188141D01*
X306244910Y-117277963D01*
X306305742Y-117391772D01*
X306330835Y-117406559D01*
X306473262Y-117619715D01*
X306840285Y-117986738D01*
X307053441Y-118129165D01*
X307068228Y-118154258D01*
X307173275Y-118209235D01*
X307271859Y-118275107D01*
X307402670Y-118329291D01*
X307528105Y-118394938D01*
X307641850Y-118428363D01*
X307751399Y-118473739D01*
X307890276Y-118501363D01*
X308026098Y-118541275D01*
X308144175Y-118551867D01*
X308260475Y-118575000D01*
X308402069Y-118575000D01*
X308543071Y-118587648D01*
X308660949Y-118575000D01*
X308779525Y-118575000D01*
X308918401Y-118547376D01*
X309059159Y-118532273D01*
X309172300Y-118496873D01*
X309288601Y-118473739D01*
X309419420Y-118419552D01*
X309554526Y-118377279D01*
X309624271Y-118340000D01*
X310231928Y-118340000D01*
X310231928Y-124840000D01*
X310244188Y-124964482D01*
X310280498Y-125084180D01*
X310339463Y-125194494D01*
X310418815Y-125291185D01*
X310515506Y-125370537D01*
X310625820Y-125429502D01*
X310745518Y-125465812D01*
X310870000Y-125478072D01*
X311870000Y-125478072D01*
X311994482Y-125465812D01*
X312114180Y-125429502D01*
X312224494Y-125370537D01*
X312321185Y-125291185D01*
X312400537Y-125194494D01*
X312459502Y-125084180D01*
X312495812Y-124964482D01*
X312508072Y-124840000D01*
X312508072Y-119978072D01*
X323631928Y-119978072D01*
X323631928Y-124840000D01*
X323644188Y-124964482D01*
X323680498Y-125084180D01*
X323739463Y-125194494D01*
X323818815Y-125291185D01*
X323915506Y-125370537D01*
X324025820Y-125429502D01*
X324145518Y-125465812D01*
X324270000Y-125478072D01*
X325270000Y-125478072D01*
X325394482Y-125465812D01*
X325514180Y-125429502D01*
X325624494Y-125370537D01*
X325721185Y-125291185D01*
X325800537Y-125194494D01*
X325859502Y-125084180D01*
X325895812Y-124964482D01*
X325908072Y-124840000D01*
X325908072Y-118340000D01*
X325895812Y-118215518D01*
X325859502Y-118095820D01*
X325800537Y-117985506D01*
X325721185Y-117888815D01*
X325624494Y-117809463D01*
X325514180Y-117750498D01*
X325394482Y-117714188D01*
X325270000Y-117701928D01*
X310870000Y-117701928D01*
X310745518Y-117714188D01*
X310625820Y-117750498D01*
X310515506Y-117809463D01*
X310418815Y-117888815D01*
X310339463Y-117985506D01*
X310280498Y-118095820D01*
X310244188Y-118215518D01*
X310231928Y-118340000D01*
X309624271Y-118340000D01*
X309668329Y-118316451D01*
X309768141Y-118275107D01*
X309857963Y-118215090D01*
X309971772Y-118154258D01*
X309986559Y-118129165D01*
X310199715Y-117986738D01*
X310566738Y-117619715D01*
X310709165Y-117406559D01*
X310734258Y-117391772D01*
X310789235Y-117286725D01*
X310855107Y-117188141D01*
X310909291Y-117057330D01*
X310974938Y-116931895D01*
X311008363Y-116818150D01*
X311053739Y-116708601D01*
X311081363Y-116569724D01*
X311121275Y-116433902D01*
X311131867Y-116315825D01*
X311155000Y-116199525D01*
X311155000Y-116057931D01*
X311167648Y-115916929D01*
X311155000Y-115799051D01*
X311155000Y-115680475D01*
X311127376Y-115541599D01*
X311112273Y-115400841D01*
X311076873Y-115287700D01*
X311053739Y-115171399D01*
X310999552Y-115040580D01*
X310957279Y-114905474D01*
X310896451Y-114791671D01*
X310855107Y-114691859D01*
X310795090Y-114602037D01*
X310734258Y-114488228D01*
X310709165Y-114473441D01*
X310566738Y-114260285D01*
X310540177Y-114233724D01*
X310625820Y-114279502D01*
X310745518Y-114315812D01*
X310870000Y-114328072D01*
X325270000Y-114328072D01*
X325394482Y-114315812D01*
X325514180Y-114279502D01*
X325624494Y-114220537D01*
X325721185Y-114141185D01*
X325800537Y-114044494D01*
X325859502Y-113934180D01*
X325895812Y-113814482D01*
X325908072Y-113690000D01*
X325908072Y-107190000D01*
X325895812Y-107065518D01*
X325859502Y-106945820D01*
X325800537Y-106835506D01*
X325721185Y-106738815D01*
X325624494Y-106659463D01*
X325514180Y-106600498D01*
X325394482Y-106564188D01*
X325270000Y-106551928D01*
X324270000Y-106551928D01*
X324145518Y-106564188D01*
X324025820Y-106600498D01*
X323915506Y-106659463D01*
X323818815Y-106738815D01*
X323739463Y-106835506D01*
X323680498Y-106945820D01*
X323644188Y-107065518D01*
X323631928Y-107190000D01*
X323631928Y-112051928D01*
X312508072Y-112051928D01*
X312508072Y-107190000D01*
X312495812Y-107065518D01*
X312459502Y-106945820D01*
X312400537Y-106835506D01*
X312321185Y-106738815D01*
X312224494Y-106659463D01*
X312114180Y-106600498D01*
X311994482Y-106564188D01*
X311870000Y-106551928D01*
X310870000Y-106551928D01*
X310745518Y-106564188D01*
X310625820Y-106600498D01*
X310515506Y-106659463D01*
X310418815Y-106738815D01*
X310339463Y-106835506D01*
X310280498Y-106945820D01*
X310244188Y-107065518D01*
X310231928Y-107190000D01*
X310231928Y-113690000D01*
X310244188Y-113814482D01*
X310280498Y-113934180D01*
X310326276Y-114019823D01*
X310199715Y-113893262D01*
X309986559Y-113750835D01*
X309971772Y-113725742D01*
X309866725Y-113670765D01*
X309768141Y-113604893D01*
X309637330Y-113550709D01*
X309511895Y-113485062D01*
X309398150Y-113451637D01*
X309288601Y-113406261D01*
X309149724Y-113378637D01*
X309013902Y-113338725D01*
X308895825Y-113328133D01*
X308779525Y-113305000D01*
X308637931Y-113305000D01*
X308496929Y-113292352D01*
X308379051Y-113305000D01*
X308260475Y-113305000D01*
X308121599Y-113332624D01*
X307980841Y-113347727D01*
X307867700Y-113383127D01*
X307751399Y-113406261D01*
X307620580Y-113460448D01*
X307485474Y-113502721D01*
X307371671Y-113563549D01*
X307271859Y-113604893D01*
X307182037Y-113664910D01*
X307068228Y-113725742D01*
X307053441Y-113750835D01*
X306840285Y-113893262D01*
X306813915Y-113919632D01*
X306845812Y-113814482D01*
X306858072Y-113690000D01*
X306858072Y-107190000D01*
X306845812Y-107065518D01*
X306809502Y-106945820D01*
X306750537Y-106835506D01*
X306671185Y-106738815D01*
X306574494Y-106659463D01*
X306464180Y-106600498D01*
X306344482Y-106564188D01*
X306220000Y-106551928D01*
X305220000Y-106551928D01*
X305095518Y-106564188D01*
X304975820Y-106600498D01*
X304865506Y-106659463D01*
X304768815Y-106738815D01*
X304689463Y-106835506D01*
X304630498Y-106945820D01*
X304594188Y-107065518D01*
X304581928Y-107190000D01*
X304581928Y-112051928D01*
X293458072Y-112051928D01*
X293458072Y-107190000D01*
X293445812Y-107065518D01*
X293409502Y-106945820D01*
X293350537Y-106835506D01*
X293271185Y-106738815D01*
X293174494Y-106659463D01*
X293064180Y-106600498D01*
X292944482Y-106564188D01*
X292820000Y-106551928D01*
X291820000Y-106551928D01*
X291695518Y-106564188D01*
X291575820Y-106600498D01*
X291465506Y-106659463D01*
X291368815Y-106738815D01*
X291289463Y-106835506D01*
X291230498Y-106945820D01*
X291194188Y-107065518D01*
X291181928Y-107190000D01*
X287808072Y-107190000D01*
X287795812Y-107065518D01*
X287759502Y-106945820D01*
X287700537Y-106835506D01*
X287621185Y-106738815D01*
X287524494Y-106659463D01*
X287414180Y-106600498D01*
X287294482Y-106564188D01*
X287170000Y-106551928D01*
X286170000Y-106551928D01*
X286045518Y-106564188D01*
X285925820Y-106600498D01*
X285815506Y-106659463D01*
X285718815Y-106738815D01*
X285639463Y-106835506D01*
X285580498Y-106945820D01*
X285544188Y-107065518D01*
X285531928Y-107190000D01*
X285531928Y-112051928D01*
X274408072Y-112051928D01*
X274408072Y-107190000D01*
X274395812Y-107065518D01*
X274359502Y-106945820D01*
X274300537Y-106835506D01*
X274221185Y-106738815D01*
X274124494Y-106659463D01*
X274014180Y-106600498D01*
X273894482Y-106564188D01*
X273770000Y-106551928D01*
X272770000Y-106551928D01*
X272645518Y-106564188D01*
X272525820Y-106600498D01*
X272415506Y-106659463D01*
X272318815Y-106738815D01*
X272239463Y-106835506D01*
X272180498Y-106945820D01*
X272144188Y-107065518D01*
X272131928Y-107190000D01*
X268758072Y-107190000D01*
X268745812Y-107065518D01*
X268709502Y-106945820D01*
X268650537Y-106835506D01*
X268571185Y-106738815D01*
X268474494Y-106659463D01*
X268364180Y-106600498D01*
X268244482Y-106564188D01*
X268120000Y-106551928D01*
X267120000Y-106551928D01*
X266995518Y-106564188D01*
X266875820Y-106600498D01*
X266765506Y-106659463D01*
X266668815Y-106738815D01*
X266589463Y-106835506D01*
X266530498Y-106945820D01*
X266494188Y-107065518D01*
X266481928Y-107190000D01*
X266481928Y-112051928D01*
X255358072Y-112051928D01*
X255358072Y-107190000D01*
X255345812Y-107065518D01*
X255309502Y-106945820D01*
X255250537Y-106835506D01*
X255171185Y-106738815D01*
X255074494Y-106659463D01*
X254964180Y-106600498D01*
X254844482Y-106564188D01*
X254720000Y-106551928D01*
X253720000Y-106551928D01*
X253595518Y-106564188D01*
X253475820Y-106600498D01*
X253365506Y-106659463D01*
X253268815Y-106738815D01*
X253189463Y-106835506D01*
X253130498Y-106945820D01*
X253094188Y-107065518D01*
X253081928Y-107190000D01*
X252055000Y-107190000D01*
X252055000Y-99290000D01*
X253081928Y-99290000D01*
X253081928Y-105790000D01*
X253094188Y-105914482D01*
X253130498Y-106034180D01*
X253189463Y-106144494D01*
X253268815Y-106241185D01*
X253365506Y-106320537D01*
X253475820Y-106379502D01*
X253595518Y-106415812D01*
X253720000Y-106428072D01*
X254720000Y-106428072D01*
X254844482Y-106415812D01*
X254964180Y-106379502D01*
X255074494Y-106320537D01*
X255171185Y-106241185D01*
X255250537Y-106144494D01*
X255309502Y-106034180D01*
X255345812Y-105914482D01*
X255358072Y-105790000D01*
X255358072Y-100928072D01*
X266481928Y-100928072D01*
X266481928Y-105790000D01*
X266494188Y-105914482D01*
X266530498Y-106034180D01*
X266589463Y-106144494D01*
X266668815Y-106241185D01*
X266765506Y-106320537D01*
X266875820Y-106379502D01*
X266995518Y-106415812D01*
X267120000Y-106428072D01*
X268120000Y-106428072D01*
X268244482Y-106415812D01*
X268364180Y-106379502D01*
X268474494Y-106320537D01*
X268571185Y-106241185D01*
X268650537Y-106144494D01*
X268709502Y-106034180D01*
X268745812Y-105914482D01*
X268758072Y-105790000D01*
X268758072Y-99290000D01*
X272131928Y-99290000D01*
X272131928Y-105790000D01*
X272144188Y-105914482D01*
X272180498Y-106034180D01*
X272239463Y-106144494D01*
X272318815Y-106241185D01*
X272415506Y-106320537D01*
X272525820Y-106379502D01*
X272645518Y-106415812D01*
X272770000Y-106428072D01*
X273770000Y-106428072D01*
X273894482Y-106415812D01*
X274014180Y-106379502D01*
X274124494Y-106320537D01*
X274221185Y-106241185D01*
X274300537Y-106144494D01*
X274359502Y-106034180D01*
X274395812Y-105914482D01*
X274408072Y-105790000D01*
X274408072Y-100928072D01*
X285531928Y-100928072D01*
X285531928Y-105790000D01*
X285544188Y-105914482D01*
X285580498Y-106034180D01*
X285639463Y-106144494D01*
X285718815Y-106241185D01*
X285815506Y-106320537D01*
X285925820Y-106379502D01*
X286045518Y-106415812D01*
X286170000Y-106428072D01*
X287170000Y-106428072D01*
X287294482Y-106415812D01*
X287414180Y-106379502D01*
X287524494Y-106320537D01*
X287621185Y-106241185D01*
X287700537Y-106144494D01*
X287759502Y-106034180D01*
X287795812Y-105914482D01*
X287808072Y-105790000D01*
X287808072Y-99290000D01*
X291181928Y-99290000D01*
X291181928Y-105790000D01*
X291194188Y-105914482D01*
X291230498Y-106034180D01*
X291289463Y-106144494D01*
X291368815Y-106241185D01*
X291465506Y-106320537D01*
X291575820Y-106379502D01*
X291695518Y-106415812D01*
X291820000Y-106428072D01*
X292820000Y-106428072D01*
X292944482Y-106415812D01*
X293064180Y-106379502D01*
X293174494Y-106320537D01*
X293271185Y-106241185D01*
X293350537Y-106144494D01*
X293409502Y-106034180D01*
X293445812Y-105914482D01*
X293458072Y-105790000D01*
X293458072Y-100928072D01*
X304581928Y-100928072D01*
X304581928Y-105790000D01*
X304594188Y-105914482D01*
X304630498Y-106034180D01*
X304689463Y-106144494D01*
X304768815Y-106241185D01*
X304865506Y-106320537D01*
X304975820Y-106379502D01*
X305095518Y-106415812D01*
X305220000Y-106428072D01*
X306220000Y-106428072D01*
X306344482Y-106415812D01*
X306464180Y-106379502D01*
X306574494Y-106320537D01*
X306671185Y-106241185D01*
X306750537Y-106144494D01*
X306809502Y-106034180D01*
X306845812Y-105914482D01*
X306858072Y-105790000D01*
X306858072Y-99290000D01*
X310231928Y-99290000D01*
X310231928Y-105790000D01*
X310244188Y-105914482D01*
X310280498Y-106034180D01*
X310339463Y-106144494D01*
X310418815Y-106241185D01*
X310515506Y-106320537D01*
X310625820Y-106379502D01*
X310745518Y-106415812D01*
X310870000Y-106428072D01*
X311870000Y-106428072D01*
X311994482Y-106415812D01*
X312114180Y-106379502D01*
X312224494Y-106320537D01*
X312321185Y-106241185D01*
X312400537Y-106144494D01*
X312459502Y-106034180D01*
X312495812Y-105914482D01*
X312508072Y-105790000D01*
X312508072Y-100928072D01*
X323631928Y-100928072D01*
X323631928Y-105790000D01*
X323644188Y-105914482D01*
X323680498Y-106034180D01*
X323739463Y-106144494D01*
X323818815Y-106241185D01*
X323915506Y-106320537D01*
X324025820Y-106379502D01*
X324145518Y-106415812D01*
X324270000Y-106428072D01*
X325270000Y-106428072D01*
X325394482Y-106415812D01*
X325514180Y-106379502D01*
X325624494Y-106320537D01*
X325721185Y-106241185D01*
X325800537Y-106144494D01*
X325859502Y-106034180D01*
X325895812Y-105914482D01*
X325908072Y-105790000D01*
X325908072Y-99290000D01*
X325895812Y-99165518D01*
X325859502Y-99045820D01*
X325800537Y-98935506D01*
X325721185Y-98838815D01*
X325624494Y-98759463D01*
X325514180Y-98700498D01*
X325394482Y-98664188D01*
X325270000Y-98651928D01*
X310870000Y-98651928D01*
X310745518Y-98664188D01*
X310625820Y-98700498D01*
X310515506Y-98759463D01*
X310418815Y-98838815D01*
X310339463Y-98935506D01*
X310280498Y-99045820D01*
X310244188Y-99165518D01*
X310231928Y-99290000D01*
X306858072Y-99290000D01*
X306845812Y-99165518D01*
X306809502Y-99045820D01*
X306750537Y-98935506D01*
X306671185Y-98838815D01*
X306574494Y-98759463D01*
X306464180Y-98700498D01*
X306344482Y-98664188D01*
X306220000Y-98651928D01*
X291820000Y-98651928D01*
X291695518Y-98664188D01*
X291575820Y-98700498D01*
X291465506Y-98759463D01*
X291368815Y-98838815D01*
X291289463Y-98935506D01*
X291230498Y-99045820D01*
X291194188Y-99165518D01*
X291181928Y-99290000D01*
X287808072Y-99290000D01*
X287795812Y-99165518D01*
X287759502Y-99045820D01*
X287700537Y-98935506D01*
X287621185Y-98838815D01*
X287524494Y-98759463D01*
X287414180Y-98700498D01*
X287294482Y-98664188D01*
X287170000Y-98651928D01*
X272770000Y-98651928D01*
X272645518Y-98664188D01*
X272525820Y-98700498D01*
X272415506Y-98759463D01*
X272318815Y-98838815D01*
X272239463Y-98935506D01*
X272180498Y-99045820D01*
X272144188Y-99165518D01*
X272131928Y-99290000D01*
X268758072Y-99290000D01*
X268745812Y-99165518D01*
X268709502Y-99045820D01*
X268650537Y-98935506D01*
X268571185Y-98838815D01*
X268474494Y-98759463D01*
X268364180Y-98700498D01*
X268244482Y-98664188D01*
X268120000Y-98651928D01*
X253720000Y-98651928D01*
X253595518Y-98664188D01*
X253475820Y-98700498D01*
X253365506Y-98759463D01*
X253268815Y-98838815D01*
X253189463Y-98935506D01*
X253130498Y-99045820D01*
X253094188Y-99165518D01*
X253081928Y-99290000D01*
X252055000Y-99290000D01*
X252055000Y-99173504D01*
X252088028Y-98836660D01*
X252176122Y-98544877D01*
X252319214Y-98275761D01*
X252511855Y-98039560D01*
X252746698Y-97845281D01*
X253014811Y-97700313D01*
X253305976Y-97610182D01*
X253640711Y-97575000D01*
X325286496Y-97575000D01*
X325623340Y-97608028D01*
X325623340Y-97608028D01*
G37*
X325623340Y-97608028D02*
X325915123Y-97696122D01*
X326088932Y-97788538D01*
X326670786Y-98370392D01*
X326759687Y-98534811D01*
X326849818Y-98825976D01*
X326885000Y-99160711D01*
X326885001Y-170806485D01*
X326851972Y-171143340D01*
X326771925Y-171408469D01*
X325889731Y-172290663D01*
X325634026Y-172369817D01*
X325299289Y-172405000D01*
X253653505Y-172405000D01*
X253316660Y-172371972D01*
X253024877Y-172283878D01*
X252851068Y-172191462D01*
X252269214Y-171609608D01*
X252180313Y-171445189D01*
X252090183Y-171154026D01*
X252055000Y-170819289D01*
X252055000Y-164340000D01*
X253081928Y-164340000D01*
X253081928Y-170840000D01*
X253094188Y-170964482D01*
X253130498Y-171084180D01*
X253189463Y-171194494D01*
X253268815Y-171291185D01*
X253365506Y-171370537D01*
X253475820Y-171429502D01*
X253595518Y-171465812D01*
X253720000Y-171478072D01*
X268120000Y-171478072D01*
X268244482Y-171465812D01*
X268364180Y-171429502D01*
X268474494Y-171370537D01*
X268571185Y-171291185D01*
X268650537Y-171194494D01*
X268709502Y-171084180D01*
X268745812Y-170964482D01*
X268758072Y-170840000D01*
X268758072Y-164340000D01*
X272131928Y-164340000D01*
X272131928Y-170840000D01*
X272144188Y-170964482D01*
X272180498Y-171084180D01*
X272239463Y-171194494D01*
X272318815Y-171291185D01*
X272415506Y-171370537D01*
X272525820Y-171429502D01*
X272645518Y-171465812D01*
X272770000Y-171478072D01*
X287170000Y-171478072D01*
X287294482Y-171465812D01*
X287414180Y-171429502D01*
X287524494Y-171370537D01*
X287621185Y-171291185D01*
X287700537Y-171194494D01*
X287759502Y-171084180D01*
X287795812Y-170964482D01*
X287808072Y-170840000D01*
X287808072Y-164340000D01*
X291181928Y-164340000D01*
X291181928Y-170840000D01*
X291194188Y-170964482D01*
X291230498Y-171084180D01*
X291289463Y-171194494D01*
X291368815Y-171291185D01*
X291465506Y-171370537D01*
X291575820Y-171429502D01*
X291695518Y-171465812D01*
X291820000Y-171478072D01*
X306220000Y-171478072D01*
X306344482Y-171465812D01*
X306464180Y-171429502D01*
X306574494Y-171370537D01*
X306671185Y-171291185D01*
X306750537Y-171194494D01*
X306809502Y-171084180D01*
X306845812Y-170964482D01*
X306858072Y-170840000D01*
X306858072Y-164340000D01*
X310231928Y-164340000D01*
X310231928Y-170840000D01*
X310244188Y-170964482D01*
X310280498Y-171084180D01*
X310339463Y-171194494D01*
X310418815Y-171291185D01*
X310515506Y-171370537D01*
X310625820Y-171429502D01*
X310745518Y-171465812D01*
X310870000Y-171478072D01*
X325270000Y-171478072D01*
X325394482Y-171465812D01*
X325514180Y-171429502D01*
X325624494Y-171370537D01*
X325721185Y-171291185D01*
X325800537Y-171194494D01*
X325859502Y-171084180D01*
X325895812Y-170964482D01*
X325908072Y-170840000D01*
X325908072Y-164340000D01*
X325895812Y-164215518D01*
X325859502Y-164095820D01*
X325800537Y-163985506D01*
X325721185Y-163888815D01*
X325624494Y-163809463D01*
X325514180Y-163750498D01*
X325394482Y-163714188D01*
X325270000Y-163701928D01*
X324270000Y-163701928D01*
X324145518Y-163714188D01*
X324025820Y-163750498D01*
X323915506Y-163809463D01*
X323818815Y-163888815D01*
X323739463Y-163985506D01*
X323680498Y-164095820D01*
X323644188Y-164215518D01*
X323631928Y-164340000D01*
X323631928Y-169201928D01*
X312508072Y-169201928D01*
X312508072Y-164340000D01*
X312495812Y-164215518D01*
X312459502Y-164095820D01*
X312400537Y-163985506D01*
X312321185Y-163888815D01*
X312224494Y-163809463D01*
X312114180Y-163750498D01*
X311994482Y-163714188D01*
X311870000Y-163701928D01*
X310870000Y-163701928D01*
X310745518Y-163714188D01*
X310625820Y-163750498D01*
X310515506Y-163809463D01*
X310418815Y-163888815D01*
X310339463Y-163985506D01*
X310280498Y-164095820D01*
X310244188Y-164215518D01*
X310231928Y-164340000D01*
X306858072Y-164340000D01*
X306845812Y-164215518D01*
X306809502Y-164095820D01*
X306750537Y-163985506D01*
X306671185Y-163888815D01*
X306574494Y-163809463D01*
X306464180Y-163750498D01*
X306344482Y-163714188D01*
X306220000Y-163701928D01*
X305220000Y-163701928D01*
X305095518Y-163714188D01*
X304975820Y-163750498D01*
X304865506Y-163809463D01*
X304768815Y-163888815D01*
X304689463Y-163985506D01*
X304630498Y-164095820D01*
X304594188Y-164215518D01*
X304581928Y-164340000D01*
X304581928Y-169201928D01*
X293458072Y-169201928D01*
X293458072Y-164340000D01*
X293445812Y-164215518D01*
X293409502Y-164095820D01*
X293350537Y-163985506D01*
X293271185Y-163888815D01*
X293174494Y-163809463D01*
X293064180Y-163750498D01*
X292944482Y-163714188D01*
X292820000Y-163701928D01*
X291820000Y-163701928D01*
X291695518Y-163714188D01*
X291575820Y-163750498D01*
X291465506Y-163809463D01*
X291368815Y-163888815D01*
X291289463Y-163985506D01*
X291230498Y-164095820D01*
X291194188Y-164215518D01*
X291181928Y-164340000D01*
X287808072Y-164340000D01*
X287795812Y-164215518D01*
X287759502Y-164095820D01*
X287700537Y-163985506D01*
X287621185Y-163888815D01*
X287524494Y-163809463D01*
X287414180Y-163750498D01*
X287294482Y-163714188D01*
X287170000Y-163701928D01*
X286170000Y-163701928D01*
X286045518Y-163714188D01*
X285925820Y-163750498D01*
X285815506Y-163809463D01*
X285718815Y-163888815D01*
X285639463Y-163985506D01*
X285580498Y-164095820D01*
X285544188Y-164215518D01*
X285531928Y-164340000D01*
X285531928Y-169201928D01*
X274408072Y-169201928D01*
X274408072Y-164340000D01*
X274395812Y-164215518D01*
X274359502Y-164095820D01*
X274300537Y-163985506D01*
X274221185Y-163888815D01*
X274124494Y-163809463D01*
X274014180Y-163750498D01*
X273894482Y-163714188D01*
X273770000Y-163701928D01*
X272770000Y-163701928D01*
X272645518Y-163714188D01*
X272525820Y-163750498D01*
X272415506Y-163809463D01*
X272318815Y-163888815D01*
X272239463Y-163985506D01*
X272180498Y-164095820D01*
X272144188Y-164215518D01*
X272131928Y-164340000D01*
X268758072Y-164340000D01*
X268745812Y-164215518D01*
X268709502Y-164095820D01*
X268650537Y-163985506D01*
X268571185Y-163888815D01*
X268474494Y-163809463D01*
X268364180Y-163750498D01*
X268244482Y-163714188D01*
X268120000Y-163701928D01*
X267120000Y-163701928D01*
X266995518Y-163714188D01*
X266875820Y-163750498D01*
X266765506Y-163809463D01*
X266668815Y-163888815D01*
X266589463Y-163985506D01*
X266530498Y-164095820D01*
X266494188Y-164215518D01*
X266481928Y-164340000D01*
X266481928Y-169201928D01*
X255358072Y-169201928D01*
X255358072Y-164340000D01*
X255345812Y-164215518D01*
X255309502Y-164095820D01*
X255250537Y-163985506D01*
X255171185Y-163888815D01*
X255074494Y-163809463D01*
X254964180Y-163750498D01*
X254844482Y-163714188D01*
X254720000Y-163701928D01*
X253720000Y-163701928D01*
X253595518Y-163714188D01*
X253475820Y-163750498D01*
X253365506Y-163809463D01*
X253268815Y-163888815D01*
X253189463Y-163985506D01*
X253130498Y-164095820D01*
X253094188Y-164215518D01*
X253081928Y-164340000D01*
X252055000Y-164340000D01*
X252055000Y-156440000D01*
X253081928Y-156440000D01*
X253081928Y-162940000D01*
X253094188Y-163064482D01*
X253130498Y-163184180D01*
X253189463Y-163294494D01*
X253268815Y-163391185D01*
X253365506Y-163470537D01*
X253475820Y-163529502D01*
X253595518Y-163565812D01*
X253720000Y-163578072D01*
X254720000Y-163578072D01*
X254844482Y-163565812D01*
X254964180Y-163529502D01*
X255074494Y-163470537D01*
X255171185Y-163391185D01*
X255250537Y-163294494D01*
X255309502Y-163184180D01*
X255345812Y-163064482D01*
X255358072Y-162940000D01*
X255358072Y-158078072D01*
X266481928Y-158078072D01*
X266481928Y-162940000D01*
X266494188Y-163064482D01*
X266530498Y-163184180D01*
X266589463Y-163294494D01*
X266668815Y-163391185D01*
X266765506Y-163470537D01*
X266875820Y-163529502D01*
X266995518Y-163565812D01*
X267120000Y-163578072D01*
X268120000Y-163578072D01*
X268244482Y-163565812D01*
X268364180Y-163529502D01*
X268474494Y-163470537D01*
X268571185Y-163391185D01*
X268650537Y-163294494D01*
X268709502Y-163184180D01*
X268745812Y-163064482D01*
X268758072Y-162940000D01*
X268758072Y-156440000D01*
X268745812Y-156315518D01*
X268709502Y-156195820D01*
X268650537Y-156085506D01*
X268571185Y-155988815D01*
X268474494Y-155909463D01*
X268364180Y-155850498D01*
X268244482Y-155814188D01*
X268120000Y-155801928D01*
X253720000Y-155801928D01*
X253595518Y-155814188D01*
X253475820Y-155850498D01*
X253365506Y-155909463D01*
X253268815Y-155988815D01*
X253189463Y-156085506D01*
X253130498Y-156195820D01*
X253094188Y-156315518D01*
X253081928Y-156440000D01*
X252055000Y-156440000D01*
X252055000Y-145290000D01*
X253081928Y-145290000D01*
X253081928Y-151790000D01*
X253094188Y-151914482D01*
X253130498Y-152034180D01*
X253189463Y-152144494D01*
X253268815Y-152241185D01*
X253365506Y-152320537D01*
X253475820Y-152379502D01*
X253595518Y-152415812D01*
X253720000Y-152428072D01*
X268120000Y-152428072D01*
X268244482Y-152415812D01*
X268359466Y-152380932D01*
X268230835Y-152573441D01*
X268205742Y-152588228D01*
X268150765Y-152693275D01*
X268084893Y-152791859D01*
X268030709Y-152922670D01*
X267965062Y-153048105D01*
X267931637Y-153161850D01*
X267886261Y-153271399D01*
X267858637Y-153410276D01*
X267818725Y-153546098D01*
X267808133Y-153664175D01*
X267785000Y-153780475D01*
X267785000Y-153922069D01*
X267772352Y-154063071D01*
X267785000Y-154180949D01*
X267785000Y-154299525D01*
X267812624Y-154438401D01*
X267827727Y-154579159D01*
X267863127Y-154692300D01*
X267886261Y-154808601D01*
X267940448Y-154939420D01*
X267982721Y-155074526D01*
X268043549Y-155188329D01*
X268084893Y-155288141D01*
X268144910Y-155377963D01*
X268205742Y-155491772D01*
X268230835Y-155506559D01*
X268373262Y-155719715D01*
X268740285Y-156086738D01*
X268953441Y-156229165D01*
X268968228Y-156254258D01*
X269073275Y-156309235D01*
X269171859Y-156375107D01*
X269302670Y-156429291D01*
X269428105Y-156494938D01*
X269541850Y-156528363D01*
X269651399Y-156573739D01*
X269790276Y-156601363D01*
X269926098Y-156641275D01*
X270044175Y-156651867D01*
X270160475Y-156675000D01*
X270302069Y-156675000D01*
X270443071Y-156687648D01*
X270560949Y-156675000D01*
X270679525Y-156675000D01*
X270818401Y-156647376D01*
X270959159Y-156632273D01*
X271072300Y-156596873D01*
X271188601Y-156573739D01*
X271319420Y-156519552D01*
X271454526Y-156477279D01*
X271524271Y-156440000D01*
X272131928Y-156440000D01*
X272131928Y-162940000D01*
X272144188Y-163064482D01*
X272180498Y-163184180D01*
X272239463Y-163294494D01*
X272318815Y-163391185D01*
X272415506Y-163470537D01*
X272525820Y-163529502D01*
X272645518Y-163565812D01*
X272770000Y-163578072D01*
X273770000Y-163578072D01*
X273894482Y-163565812D01*
X274014180Y-163529502D01*
X274124494Y-163470537D01*
X274221185Y-163391185D01*
X274300537Y-163294494D01*
X274359502Y-163184180D01*
X274395812Y-163064482D01*
X274408072Y-162940000D01*
X274408072Y-158078072D01*
X285531928Y-158078072D01*
X285531928Y-162940000D01*
X285544188Y-163064482D01*
X285580498Y-163184180D01*
X285639463Y-163294494D01*
X285718815Y-163391185D01*
X285815506Y-163470537D01*
X285925820Y-163529502D01*
X286045518Y-163565812D01*
X286170000Y-163578072D01*
X287170000Y-163578072D01*
X287294482Y-163565812D01*
X287414180Y-163529502D01*
X287524494Y-163470537D01*
X287621185Y-163391185D01*
X287700537Y-163294494D01*
X287759502Y-163184180D01*
X287795812Y-163064482D01*
X287808072Y-162940000D01*
X287808072Y-156440000D01*
X291181928Y-156440000D01*
X291181928Y-162940000D01*
X291194188Y-163064482D01*
X291230498Y-163184180D01*
X291289463Y-163294494D01*
X291368815Y-163391185D01*
X291465506Y-163470537D01*
X291575820Y-163529502D01*
X291695518Y-163565812D01*
X291820000Y-163578072D01*
X292820000Y-163578072D01*
X292944482Y-163565812D01*
X293064180Y-163529502D01*
X293174494Y-163470537D01*
X293271185Y-163391185D01*
X293350537Y-163294494D01*
X293409502Y-163184180D01*
X293445812Y-163064482D01*
X293458072Y-162940000D01*
X293458072Y-158078072D01*
X304581928Y-158078072D01*
X304581928Y-162940000D01*
X304594188Y-163064482D01*
X304630498Y-163184180D01*
X304689463Y-163294494D01*
X304768815Y-163391185D01*
X304865506Y-163470537D01*
X304975820Y-163529502D01*
X305095518Y-163565812D01*
X305220000Y-163578072D01*
X306220000Y-163578072D01*
X306344482Y-163565812D01*
X306464180Y-163529502D01*
X306574494Y-163470537D01*
X306671185Y-163391185D01*
X306750537Y-163294494D01*
X306809502Y-163184180D01*
X306845812Y-163064482D01*
X306858072Y-162940000D01*
X306858072Y-156440000D01*
X306845812Y-156315518D01*
X306809502Y-156195820D01*
X306750537Y-156085506D01*
X306671185Y-155988815D01*
X306574494Y-155909463D01*
X306464180Y-155850498D01*
X306344482Y-155814188D01*
X306220000Y-155801928D01*
X291820000Y-155801928D01*
X291695518Y-155814188D01*
X291575820Y-155850498D01*
X291465506Y-155909463D01*
X291368815Y-155988815D01*
X291289463Y-156085506D01*
X291230498Y-156195820D01*
X291194188Y-156315518D01*
X291181928Y-156440000D01*
X287808072Y-156440000D01*
X287795812Y-156315518D01*
X287759502Y-156195820D01*
X287700537Y-156085506D01*
X287621185Y-155988815D01*
X287524494Y-155909463D01*
X287414180Y-155850498D01*
X287294482Y-155814188D01*
X287170000Y-155801928D01*
X272770000Y-155801928D01*
X272645518Y-155814188D01*
X272525820Y-155850498D01*
X272415506Y-155909463D01*
X272318815Y-155988815D01*
X272239463Y-156085506D01*
X272180498Y-156195820D01*
X272144188Y-156315518D01*
X272131928Y-156440000D01*
X271524271Y-156440000D01*
X271568329Y-156416451D01*
X271668141Y-156375107D01*
X271757963Y-156315090D01*
X271871772Y-156254258D01*
X271886559Y-156229165D01*
X272099715Y-156086738D01*
X272466738Y-155719715D01*
X272609165Y-155506559D01*
X272634258Y-155491772D01*
X272689235Y-155386725D01*
X272755107Y-155288141D01*
X272809291Y-155157330D01*
X272874938Y-155031895D01*
X272908363Y-154918150D01*
X272953739Y-154808601D01*
X272981363Y-154669724D01*
X273021275Y-154533902D01*
X273031867Y-154415825D01*
X273055000Y-154299525D01*
X273055000Y-154157931D01*
X273067648Y-154016929D01*
X273055000Y-153899051D01*
X273055000Y-153780475D01*
X273027376Y-153641599D01*
X273012273Y-153500841D01*
X272976873Y-153387700D01*
X272953739Y-153271399D01*
X272899552Y-153140580D01*
X272857279Y-153005474D01*
X272796451Y-152891671D01*
X272755107Y-152791859D01*
X272695090Y-152702037D01*
X272634258Y-152588228D01*
X272609165Y-152573441D01*
X272466738Y-152360285D01*
X272440177Y-152333724D01*
X272525820Y-152379502D01*
X272645518Y-152415812D01*
X272770000Y-152428072D01*
X287170000Y-152428072D01*
X287294482Y-152415812D01*
X287414180Y-152379502D01*
X287524494Y-152320537D01*
X287621185Y-152241185D01*
X287700537Y-152144494D01*
X287759502Y-152034180D01*
X287795812Y-151914482D01*
X287808072Y-151790000D01*
X287808072Y-145290000D01*
X291181928Y-145290000D01*
X291181928Y-151790000D01*
X291194188Y-151914482D01*
X291230498Y-152034180D01*
X291289463Y-152144494D01*
X291368815Y-152241185D01*
X291465506Y-152320537D01*
X291575820Y-152379502D01*
X291695518Y-152415812D01*
X291820000Y-152428072D01*
X306220000Y-152428072D01*
X306344482Y-152415812D01*
X306459466Y-152380932D01*
X306330835Y-152573441D01*
X306305742Y-152588228D01*
X306250765Y-152693275D01*
X306184893Y-152791859D01*
X306130709Y-152922670D01*
X306065062Y-153048105D01*
X306031637Y-153161850D01*
X305986261Y-153271399D01*
X305958637Y-153410276D01*
X305918725Y-153546098D01*
X305908133Y-153664175D01*
X305885000Y-153780475D01*
X305885000Y-153922069D01*
X305872352Y-154063071D01*
X305885000Y-154180949D01*
X305885000Y-154299525D01*
X305912624Y-154438401D01*
X305927727Y-154579159D01*
X305963127Y-154692300D01*
X305986261Y-154808601D01*
X306040448Y-154939420D01*
X306082721Y-155074526D01*
X306143549Y-155188329D01*
X306184893Y-155288141D01*
X306244910Y-155377963D01*
X306305742Y-155491772D01*
X306330835Y-155506559D01*
X306473262Y-155719715D01*
X306840285Y-156086738D01*
X307053441Y-156229165D01*
X307068228Y-156254258D01*
X307173275Y-156309235D01*
X307271859Y-156375107D01*
X307402670Y-156429291D01*
X307528105Y-156494938D01*
X307641850Y-156528363D01*
X307751399Y-156573739D01*
X307890276Y-156601363D01*
X308026098Y-156641275D01*
X308144175Y-156651867D01*
X308260475Y-156675000D01*
X308402069Y-156675000D01*
X308543071Y-156687648D01*
X308660949Y-156675000D01*
X308779525Y-156675000D01*
X308918401Y-156647376D01*
X309059159Y-156632273D01*
X309172300Y-156596873D01*
X309288601Y-156573739D01*
X309419420Y-156519552D01*
X309554526Y-156477279D01*
X309624271Y-156440000D01*
X310231928Y-156440000D01*
X310231928Y-162940000D01*
X310244188Y-163064482D01*
X310280498Y-163184180D01*
X310339463Y-163294494D01*
X310418815Y-163391185D01*
X310515506Y-163470537D01*
X310625820Y-163529502D01*
X310745518Y-163565812D01*
X310870000Y-163578072D01*
X311870000Y-163578072D01*
X311994482Y-163565812D01*
X312114180Y-163529502D01*
X312224494Y-163470537D01*
X312321185Y-163391185D01*
X312400537Y-163294494D01*
X312459502Y-163184180D01*
X312495812Y-163064482D01*
X312508072Y-162940000D01*
X312508072Y-158078072D01*
X323631928Y-158078072D01*
X323631928Y-162940000D01*
X323644188Y-163064482D01*
X323680498Y-163184180D01*
X323739463Y-163294494D01*
X323818815Y-163391185D01*
X323915506Y-163470537D01*
X324025820Y-163529502D01*
X324145518Y-163565812D01*
X324270000Y-163578072D01*
X325270000Y-163578072D01*
X325394482Y-163565812D01*
X325514180Y-163529502D01*
X325624494Y-163470537D01*
X325721185Y-163391185D01*
X325800537Y-163294494D01*
X325859502Y-163184180D01*
X325895812Y-163064482D01*
X325908072Y-162940000D01*
X325908072Y-156440000D01*
X325895812Y-156315518D01*
X325859502Y-156195820D01*
X325800537Y-156085506D01*
X325721185Y-155988815D01*
X325624494Y-155909463D01*
X325514180Y-155850498D01*
X325394482Y-155814188D01*
X325270000Y-155801928D01*
X310870000Y-155801928D01*
X310745518Y-155814188D01*
X310625820Y-155850498D01*
X310515506Y-155909463D01*
X310418815Y-155988815D01*
X310339463Y-156085506D01*
X310280498Y-156195820D01*
X310244188Y-156315518D01*
X310231928Y-156440000D01*
X309624271Y-156440000D01*
X309668329Y-156416451D01*
X309768141Y-156375107D01*
X309857963Y-156315090D01*
X309971772Y-156254258D01*
X309986559Y-156229165D01*
X310199715Y-156086738D01*
X310566738Y-155719715D01*
X310709165Y-155506559D01*
X310734258Y-155491772D01*
X310789235Y-155386725D01*
X310855107Y-155288141D01*
X310909291Y-155157330D01*
X310974938Y-155031895D01*
X311008363Y-154918150D01*
X311053739Y-154808601D01*
X311081363Y-154669724D01*
X311121275Y-154533902D01*
X311131867Y-154415825D01*
X311155000Y-154299525D01*
X311155000Y-154157931D01*
X311167648Y-154016929D01*
X311155000Y-153899051D01*
X311155000Y-153780475D01*
X311127376Y-153641599D01*
X311112273Y-153500841D01*
X311076873Y-153387700D01*
X311053739Y-153271399D01*
X310999552Y-153140580D01*
X310957279Y-153005474D01*
X310896451Y-152891671D01*
X310855107Y-152791859D01*
X310795090Y-152702037D01*
X310734258Y-152588228D01*
X310709165Y-152573441D01*
X310566738Y-152360285D01*
X310540177Y-152333724D01*
X310625820Y-152379502D01*
X310745518Y-152415812D01*
X310870000Y-152428072D01*
X325270000Y-152428072D01*
X325394482Y-152415812D01*
X325514180Y-152379502D01*
X325624494Y-152320537D01*
X325721185Y-152241185D01*
X325800537Y-152144494D01*
X325859502Y-152034180D01*
X325895812Y-151914482D01*
X325908072Y-151790000D01*
X325908072Y-145290000D01*
X325895812Y-145165518D01*
X325859502Y-145045820D01*
X325800537Y-144935506D01*
X325721185Y-144838815D01*
X325624494Y-144759463D01*
X325514180Y-144700498D01*
X325394482Y-144664188D01*
X325270000Y-144651928D01*
X324270000Y-144651928D01*
X324145518Y-144664188D01*
X324025820Y-144700498D01*
X323915506Y-144759463D01*
X323818815Y-144838815D01*
X323739463Y-144935506D01*
X323680498Y-145045820D01*
X323644188Y-145165518D01*
X323631928Y-145290000D01*
X323631928Y-150151928D01*
X312508072Y-150151928D01*
X312508072Y-145290000D01*
X312495812Y-145165518D01*
X312459502Y-145045820D01*
X312400537Y-144935506D01*
X312321185Y-144838815D01*
X312224494Y-144759463D01*
X312114180Y-144700498D01*
X311994482Y-144664188D01*
X311870000Y-144651928D01*
X310870000Y-144651928D01*
X310745518Y-144664188D01*
X310625820Y-144700498D01*
X310515506Y-144759463D01*
X310418815Y-144838815D01*
X310339463Y-144935506D01*
X310280498Y-145045820D01*
X310244188Y-145165518D01*
X310231928Y-145290000D01*
X310231928Y-151790000D01*
X310244188Y-151914482D01*
X310280498Y-152034180D01*
X310326276Y-152119823D01*
X310199715Y-151993262D01*
X309986559Y-151850835D01*
X309971772Y-151825742D01*
X309866725Y-151770765D01*
X309768141Y-151704893D01*
X309637330Y-151650709D01*
X309511895Y-151585062D01*
X309398150Y-151551637D01*
X309288601Y-151506261D01*
X309149724Y-151478637D01*
X309013902Y-151438725D01*
X308895825Y-151428133D01*
X308779525Y-151405000D01*
X308637931Y-151405000D01*
X308496929Y-151392352D01*
X308379051Y-151405000D01*
X308260475Y-151405000D01*
X308121599Y-151432624D01*
X307980841Y-151447727D01*
X307867700Y-151483127D01*
X307751399Y-151506261D01*
X307620580Y-151560448D01*
X307485474Y-151602721D01*
X307371671Y-151663549D01*
X307271859Y-151704893D01*
X307182037Y-151764910D01*
X307068228Y-151825742D01*
X307053441Y-151850835D01*
X306840285Y-151993262D01*
X306813915Y-152019632D01*
X306845812Y-151914482D01*
X306858072Y-151790000D01*
X306858072Y-145290000D01*
X306845812Y-145165518D01*
X306809502Y-145045820D01*
X306750537Y-144935506D01*
X306671185Y-144838815D01*
X306574494Y-144759463D01*
X306464180Y-144700498D01*
X306344482Y-144664188D01*
X306220000Y-144651928D01*
X305220000Y-144651928D01*
X305095518Y-144664188D01*
X304975820Y-144700498D01*
X304865506Y-144759463D01*
X304768815Y-144838815D01*
X304689463Y-144935506D01*
X304630498Y-145045820D01*
X304594188Y-145165518D01*
X304581928Y-145290000D01*
X304581928Y-150151928D01*
X293458072Y-150151928D01*
X293458072Y-145290000D01*
X293445812Y-145165518D01*
X293409502Y-145045820D01*
X293350537Y-144935506D01*
X293271185Y-144838815D01*
X293174494Y-144759463D01*
X293064180Y-144700498D01*
X292944482Y-144664188D01*
X292820000Y-144651928D01*
X291820000Y-144651928D01*
X291695518Y-144664188D01*
X291575820Y-144700498D01*
X291465506Y-144759463D01*
X291368815Y-144838815D01*
X291289463Y-144935506D01*
X291230498Y-145045820D01*
X291194188Y-145165518D01*
X291181928Y-145290000D01*
X287808072Y-145290000D01*
X287795812Y-145165518D01*
X287759502Y-145045820D01*
X287700537Y-144935506D01*
X287621185Y-144838815D01*
X287524494Y-144759463D01*
X287414180Y-144700498D01*
X287294482Y-144664188D01*
X287170000Y-144651928D01*
X286170000Y-144651928D01*
X286045518Y-144664188D01*
X285925820Y-144700498D01*
X285815506Y-144759463D01*
X285718815Y-144838815D01*
X285639463Y-144935506D01*
X285580498Y-145045820D01*
X285544188Y-145165518D01*
X285531928Y-145290000D01*
X285531928Y-150151928D01*
X274408072Y-150151928D01*
X274408072Y-145290000D01*
X274395812Y-145165518D01*
X274359502Y-145045820D01*
X274300537Y-144935506D01*
X274221185Y-144838815D01*
X274124494Y-144759463D01*
X274014180Y-144700498D01*
X273894482Y-144664188D01*
X273770000Y-144651928D01*
X272770000Y-144651928D01*
X272645518Y-144664188D01*
X272525820Y-144700498D01*
X272415506Y-144759463D01*
X272318815Y-144838815D01*
X272239463Y-144935506D01*
X272180498Y-145045820D01*
X272144188Y-145165518D01*
X272131928Y-145290000D01*
X272131928Y-151790000D01*
X272144188Y-151914482D01*
X272180498Y-152034180D01*
X272226276Y-152119823D01*
X272099715Y-151993262D01*
X271886559Y-151850835D01*
X271871772Y-151825742D01*
X271766725Y-151770765D01*
X271668141Y-151704893D01*
X271537330Y-151650709D01*
X271411895Y-151585062D01*
X271298150Y-151551637D01*
X271188601Y-151506261D01*
X271049724Y-151478637D01*
X270913902Y-151438725D01*
X270795825Y-151428133D01*
X270679525Y-151405000D01*
X270537931Y-151405000D01*
X270396929Y-151392352D01*
X270279051Y-151405000D01*
X270160475Y-151405000D01*
X270021599Y-151432624D01*
X269880841Y-151447727D01*
X269767700Y-151483127D01*
X269651399Y-151506261D01*
X269520580Y-151560448D01*
X269385474Y-151602721D01*
X269271671Y-151663549D01*
X269171859Y-151704893D01*
X269082037Y-151764910D01*
X268968228Y-151825742D01*
X268953441Y-151850835D01*
X268740285Y-151993262D01*
X268713915Y-152019632D01*
X268745812Y-151914482D01*
X268758072Y-151790000D01*
X268758072Y-145290000D01*
X268745812Y-145165518D01*
X268709502Y-145045820D01*
X268650537Y-144935506D01*
X268571185Y-144838815D01*
X268474494Y-144759463D01*
X268364180Y-144700498D01*
X268244482Y-144664188D01*
X268120000Y-144651928D01*
X267120000Y-144651928D01*
X266995518Y-144664188D01*
X266875820Y-144700498D01*
X266765506Y-144759463D01*
X266668815Y-144838815D01*
X266589463Y-144935506D01*
X266530498Y-145045820D01*
X266494188Y-145165518D01*
X266481928Y-145290000D01*
X266481928Y-150151928D01*
X255358072Y-150151928D01*
X255358072Y-145290000D01*
X255345812Y-145165518D01*
X255309502Y-145045820D01*
X255250537Y-144935506D01*
X255171185Y-144838815D01*
X255074494Y-144759463D01*
X254964180Y-144700498D01*
X254844482Y-144664188D01*
X254720000Y-144651928D01*
X253720000Y-144651928D01*
X253595518Y-144664188D01*
X253475820Y-144700498D01*
X253365506Y-144759463D01*
X253268815Y-144838815D01*
X253189463Y-144935506D01*
X253130498Y-145045820D01*
X253094188Y-145165518D01*
X253081928Y-145290000D01*
X252055000Y-145290000D01*
X252055000Y-137390000D01*
X253081928Y-137390000D01*
X253081928Y-143890000D01*
X253094188Y-144014482D01*
X253130498Y-144134180D01*
X253189463Y-144244494D01*
X253268815Y-144341185D01*
X253365506Y-144420537D01*
X253475820Y-144479502D01*
X253595518Y-144515812D01*
X253720000Y-144528072D01*
X254720000Y-144528072D01*
X254844482Y-144515812D01*
X254964180Y-144479502D01*
X255074494Y-144420537D01*
X255171185Y-144341185D01*
X255250537Y-144244494D01*
X255309502Y-144134180D01*
X255345812Y-144014482D01*
X255358072Y-143890000D01*
X255358072Y-139028072D01*
X266481928Y-139028072D01*
X266481928Y-143890000D01*
X266494188Y-144014482D01*
X266530498Y-144134180D01*
X266589463Y-144244494D01*
X266668815Y-144341185D01*
X266765506Y-144420537D01*
X266875820Y-144479502D01*
X266995518Y-144515812D01*
X267120000Y-144528072D01*
X268120000Y-144528072D01*
X268244482Y-144515812D01*
X268364180Y-144479502D01*
X268474494Y-144420537D01*
X268571185Y-144341185D01*
X268650537Y-144244494D01*
X268709502Y-144134180D01*
X268745812Y-144014482D01*
X268758072Y-143890000D01*
X268758072Y-137390000D01*
X272131928Y-137390000D01*
X272131928Y-143890000D01*
X272144188Y-144014482D01*
X272180498Y-144134180D01*
X272239463Y-144244494D01*
X272318815Y-144341185D01*
X272415506Y-144420537D01*
X272525820Y-144479502D01*
X272645518Y-144515812D01*
X272770000Y-144528072D01*
X273770000Y-144528072D01*
X273894482Y-144515812D01*
X274014180Y-144479502D01*
X274124494Y-144420537D01*
X274221185Y-144341185D01*
X274300537Y-144244494D01*
X274359502Y-144134180D01*
X274395812Y-144014482D01*
X274408072Y-143890000D01*
X274408072Y-139028072D01*
X285531928Y-139028072D01*
X285531928Y-143890000D01*
X285544188Y-144014482D01*
X285580498Y-144134180D01*
X285639463Y-144244494D01*
X285718815Y-144341185D01*
X285815506Y-144420537D01*
X285925820Y-144479502D01*
X286045518Y-144515812D01*
X286170000Y-144528072D01*
X287170000Y-144528072D01*
X287294482Y-144515812D01*
X287414180Y-144479502D01*
X287524494Y-144420537D01*
X287621185Y-144341185D01*
X287700537Y-144244494D01*
X287759502Y-144134180D01*
X287795812Y-144014482D01*
X287808072Y-143890000D01*
X287808072Y-137390000D01*
X291181928Y-137390000D01*
X291181928Y-143890000D01*
X291194188Y-144014482D01*
X291230498Y-144134180D01*
X291289463Y-144244494D01*
X291368815Y-144341185D01*
X291465506Y-144420537D01*
X291575820Y-144479502D01*
X291695518Y-144515812D01*
X291820000Y-144528072D01*
X292820000Y-144528072D01*
X292944482Y-144515812D01*
X293064180Y-144479502D01*
X293174494Y-144420537D01*
X293271185Y-144341185D01*
X293350537Y-144244494D01*
X293409502Y-144134180D01*
X293445812Y-144014482D01*
X293458072Y-143890000D01*
X293458072Y-139028072D01*
X304581928Y-139028072D01*
X304581928Y-143890000D01*
X304594188Y-144014482D01*
X304630498Y-144134180D01*
X304689463Y-144244494D01*
X304768815Y-144341185D01*
X304865506Y-144420537D01*
X304975820Y-144479502D01*
X305095518Y-144515812D01*
X305220000Y-144528072D01*
X306220000Y-144528072D01*
X306344482Y-144515812D01*
X306464180Y-144479502D01*
X306574494Y-144420537D01*
X306671185Y-144341185D01*
X306750537Y-144244494D01*
X306809502Y-144134180D01*
X306845812Y-144014482D01*
X306858072Y-143890000D01*
X306858072Y-137390000D01*
X310231928Y-137390000D01*
X310231928Y-143890000D01*
X310244188Y-144014482D01*
X310280498Y-144134180D01*
X310339463Y-144244494D01*
X310418815Y-144341185D01*
X310515506Y-144420537D01*
X310625820Y-144479502D01*
X310745518Y-144515812D01*
X310870000Y-144528072D01*
X311870000Y-144528072D01*
X311994482Y-144515812D01*
X312114180Y-144479502D01*
X312224494Y-144420537D01*
X312321185Y-144341185D01*
X312400537Y-144244494D01*
X312459502Y-144134180D01*
X312495812Y-144014482D01*
X312508072Y-143890000D01*
X312508072Y-139028072D01*
X323631928Y-139028072D01*
X323631928Y-143890000D01*
X323644188Y-144014482D01*
X323680498Y-144134180D01*
X323739463Y-144244494D01*
X323818815Y-144341185D01*
X323915506Y-144420537D01*
X324025820Y-144479502D01*
X324145518Y-144515812D01*
X324270000Y-144528072D01*
X325270000Y-144528072D01*
X325394482Y-144515812D01*
X325514180Y-144479502D01*
X325624494Y-144420537D01*
X325721185Y-144341185D01*
X325800537Y-144244494D01*
X325859502Y-144134180D01*
X325895812Y-144014482D01*
X325908072Y-143890000D01*
X325908072Y-137390000D01*
X325895812Y-137265518D01*
X325859502Y-137145820D01*
X325800537Y-137035506D01*
X325721185Y-136938815D01*
X325624494Y-136859463D01*
X325514180Y-136800498D01*
X325394482Y-136764188D01*
X325270000Y-136751928D01*
X310870000Y-136751928D01*
X310745518Y-136764188D01*
X310625820Y-136800498D01*
X310515506Y-136859463D01*
X310418815Y-136938815D01*
X310339463Y-137035506D01*
X310280498Y-137145820D01*
X310244188Y-137265518D01*
X310231928Y-137390000D01*
X306858072Y-137390000D01*
X306845812Y-137265518D01*
X306809502Y-137145820D01*
X306750537Y-137035506D01*
X306671185Y-136938815D01*
X306574494Y-136859463D01*
X306464180Y-136800498D01*
X306344482Y-136764188D01*
X306220000Y-136751928D01*
X291820000Y-136751928D01*
X291695518Y-136764188D01*
X291575820Y-136800498D01*
X291465506Y-136859463D01*
X291368815Y-136938815D01*
X291289463Y-137035506D01*
X291230498Y-137145820D01*
X291194188Y-137265518D01*
X291181928Y-137390000D01*
X287808072Y-137390000D01*
X287795812Y-137265518D01*
X287759502Y-137145820D01*
X287700537Y-137035506D01*
X287621185Y-136938815D01*
X287524494Y-136859463D01*
X287414180Y-136800498D01*
X287294482Y-136764188D01*
X287170000Y-136751928D01*
X272770000Y-136751928D01*
X272645518Y-136764188D01*
X272525820Y-136800498D01*
X272415506Y-136859463D01*
X272318815Y-136938815D01*
X272239463Y-137035506D01*
X272180498Y-137145820D01*
X272144188Y-137265518D01*
X272131928Y-137390000D01*
X268758072Y-137390000D01*
X268745812Y-137265518D01*
X268709502Y-137145820D01*
X268650537Y-137035506D01*
X268571185Y-136938815D01*
X268474494Y-136859463D01*
X268364180Y-136800498D01*
X268244482Y-136764188D01*
X268120000Y-136751928D01*
X253720000Y-136751928D01*
X253595518Y-136764188D01*
X253475820Y-136800498D01*
X253365506Y-136859463D01*
X253268815Y-136938815D01*
X253189463Y-137035506D01*
X253130498Y-137145820D01*
X253094188Y-137265518D01*
X253081928Y-137390000D01*
X252055000Y-137390000D01*
X252055000Y-126240000D01*
X253081928Y-126240000D01*
X253081928Y-132740000D01*
X253094188Y-132864482D01*
X253130498Y-132984180D01*
X253189463Y-133094494D01*
X253268815Y-133191185D01*
X253365506Y-133270537D01*
X253475820Y-133329502D01*
X253595518Y-133365812D01*
X253720000Y-133378072D01*
X268120000Y-133378072D01*
X268244482Y-133365812D01*
X268364180Y-133329502D01*
X268474494Y-133270537D01*
X268571185Y-133191185D01*
X268650537Y-133094494D01*
X268709502Y-132984180D01*
X268745812Y-132864482D01*
X268758072Y-132740000D01*
X268758072Y-126240000D01*
X272131928Y-126240000D01*
X272131928Y-132740000D01*
X272144188Y-132864482D01*
X272180498Y-132984180D01*
X272239463Y-133094494D01*
X272318815Y-133191185D01*
X272415506Y-133270537D01*
X272525820Y-133329502D01*
X272645518Y-133365812D01*
X272770000Y-133378072D01*
X287170000Y-133378072D01*
X287294482Y-133365812D01*
X287414180Y-133329502D01*
X287524494Y-133270537D01*
X287621185Y-133191185D01*
X287700537Y-133094494D01*
X287759502Y-132984180D01*
X287795812Y-132864482D01*
X287808072Y-132740000D01*
X287808072Y-126240000D01*
X291181928Y-126240000D01*
X291181928Y-132740000D01*
X291194188Y-132864482D01*
X291230498Y-132984180D01*
X291289463Y-133094494D01*
X291368815Y-133191185D01*
X291465506Y-133270537D01*
X291575820Y-133329502D01*
X291695518Y-133365812D01*
X291820000Y-133378072D01*
X306220000Y-133378072D01*
X306344482Y-133365812D01*
X306464180Y-133329502D01*
X306574494Y-133270537D01*
X306671185Y-133191185D01*
X306750537Y-133094494D01*
X306809502Y-132984180D01*
X306845812Y-132864482D01*
X306858072Y-132740000D01*
X306858072Y-126240000D01*
X310231928Y-126240000D01*
X310231928Y-132740000D01*
X310244188Y-132864482D01*
X310280498Y-132984180D01*
X310339463Y-133094494D01*
X310418815Y-133191185D01*
X310515506Y-133270537D01*
X310625820Y-133329502D01*
X310745518Y-133365812D01*
X310870000Y-133378072D01*
X325270000Y-133378072D01*
X325394482Y-133365812D01*
X325514180Y-133329502D01*
X325624494Y-133270537D01*
X325721185Y-133191185D01*
X325800537Y-133094494D01*
X325859502Y-132984180D01*
X325895812Y-132864482D01*
X325908072Y-132740000D01*
X325908072Y-126240000D01*
X325895812Y-126115518D01*
X325859502Y-125995820D01*
X325800537Y-125885506D01*
X325721185Y-125788815D01*
X325624494Y-125709463D01*
X325514180Y-125650498D01*
X325394482Y-125614188D01*
X325270000Y-125601928D01*
X324270000Y-125601928D01*
X324145518Y-125614188D01*
X324025820Y-125650498D01*
X323915506Y-125709463D01*
X323818815Y-125788815D01*
X323739463Y-125885506D01*
X323680498Y-125995820D01*
X323644188Y-126115518D01*
X323631928Y-126240000D01*
X323631928Y-131101928D01*
X312508072Y-131101928D01*
X312508072Y-126240000D01*
X312495812Y-126115518D01*
X312459502Y-125995820D01*
X312400537Y-125885506D01*
X312321185Y-125788815D01*
X312224494Y-125709463D01*
X312114180Y-125650498D01*
X311994482Y-125614188D01*
X311870000Y-125601928D01*
X310870000Y-125601928D01*
X310745518Y-125614188D01*
X310625820Y-125650498D01*
X310515506Y-125709463D01*
X310418815Y-125788815D01*
X310339463Y-125885506D01*
X310280498Y-125995820D01*
X310244188Y-126115518D01*
X310231928Y-126240000D01*
X306858072Y-126240000D01*
X306845812Y-126115518D01*
X306809502Y-125995820D01*
X306750537Y-125885506D01*
X306671185Y-125788815D01*
X306574494Y-125709463D01*
X306464180Y-125650498D01*
X306344482Y-125614188D01*
X306220000Y-125601928D01*
X305220000Y-125601928D01*
X305095518Y-125614188D01*
X304975820Y-125650498D01*
X304865506Y-125709463D01*
X304768815Y-125788815D01*
X304689463Y-125885506D01*
X304630498Y-125995820D01*
X304594188Y-126115518D01*
X304581928Y-126240000D01*
X304581928Y-131101928D01*
X293458072Y-131101928D01*
X293458072Y-126240000D01*
X293445812Y-126115518D01*
X293409502Y-125995820D01*
X293350537Y-125885506D01*
X293271185Y-125788815D01*
X293174494Y-125709463D01*
X293064180Y-125650498D01*
X292944482Y-125614188D01*
X292820000Y-125601928D01*
X291820000Y-125601928D01*
X291695518Y-125614188D01*
X291575820Y-125650498D01*
X291465506Y-125709463D01*
X291368815Y-125788815D01*
X291289463Y-125885506D01*
X291230498Y-125995820D01*
X291194188Y-126115518D01*
X291181928Y-126240000D01*
X287808072Y-126240000D01*
X287795812Y-126115518D01*
X287759502Y-125995820D01*
X287700537Y-125885506D01*
X287621185Y-125788815D01*
X287524494Y-125709463D01*
X287414180Y-125650498D01*
X287294482Y-125614188D01*
X287170000Y-125601928D01*
X286170000Y-125601928D01*
X286045518Y-125614188D01*
X285925820Y-125650498D01*
X285815506Y-125709463D01*
X285718815Y-125788815D01*
X285639463Y-125885506D01*
X285580498Y-125995820D01*
X285544188Y-126115518D01*
X285531928Y-126240000D01*
X285531928Y-131101928D01*
X274408072Y-131101928D01*
X274408072Y-126240000D01*
X274395812Y-126115518D01*
X274359502Y-125995820D01*
X274300537Y-125885506D01*
X274221185Y-125788815D01*
X274124494Y-125709463D01*
X274014180Y-125650498D01*
X273894482Y-125614188D01*
X273770000Y-125601928D01*
X272770000Y-125601928D01*
X272645518Y-125614188D01*
X272525820Y-125650498D01*
X272415506Y-125709463D01*
X272318815Y-125788815D01*
X272239463Y-125885506D01*
X272180498Y-125995820D01*
X272144188Y-126115518D01*
X272131928Y-126240000D01*
X268758072Y-126240000D01*
X268745812Y-126115518D01*
X268709502Y-125995820D01*
X268650537Y-125885506D01*
X268571185Y-125788815D01*
X268474494Y-125709463D01*
X268364180Y-125650498D01*
X268244482Y-125614188D01*
X268120000Y-125601928D01*
X267120000Y-125601928D01*
X266995518Y-125614188D01*
X266875820Y-125650498D01*
X266765506Y-125709463D01*
X266668815Y-125788815D01*
X266589463Y-125885506D01*
X266530498Y-125995820D01*
X266494188Y-126115518D01*
X266481928Y-126240000D01*
X266481928Y-131101928D01*
X255358072Y-131101928D01*
X255358072Y-126240000D01*
X255345812Y-126115518D01*
X255309502Y-125995820D01*
X255250537Y-125885506D01*
X255171185Y-125788815D01*
X255074494Y-125709463D01*
X254964180Y-125650498D01*
X254844482Y-125614188D01*
X254720000Y-125601928D01*
X253720000Y-125601928D01*
X253595518Y-125614188D01*
X253475820Y-125650498D01*
X253365506Y-125709463D01*
X253268815Y-125788815D01*
X253189463Y-125885506D01*
X253130498Y-125995820D01*
X253094188Y-126115518D01*
X253081928Y-126240000D01*
X252055000Y-126240000D01*
X252055000Y-107190000D01*
X253081928Y-107190000D01*
X253081928Y-113690000D01*
X253094188Y-113814482D01*
X253130498Y-113934180D01*
X253189463Y-114044494D01*
X253268815Y-114141185D01*
X253365506Y-114220537D01*
X253475820Y-114279502D01*
X253595518Y-114315812D01*
X253720000Y-114328072D01*
X263565468Y-114328072D01*
X263468335Y-114473441D01*
X263443242Y-114488228D01*
X263388265Y-114593275D01*
X263322393Y-114691859D01*
X263268209Y-114822670D01*
X263202562Y-114948105D01*
X263169137Y-115061850D01*
X263123761Y-115171399D01*
X263096137Y-115310276D01*
X263056225Y-115446098D01*
X263045633Y-115564175D01*
X263022500Y-115680475D01*
X263022500Y-115822069D01*
X263009852Y-115963071D01*
X263022500Y-116080949D01*
X263022500Y-116199525D01*
X263050124Y-116338401D01*
X263065227Y-116479159D01*
X263100627Y-116592300D01*
X263123761Y-116708601D01*
X263177948Y-116839420D01*
X263220221Y-116974526D01*
X263281049Y-117088329D01*
X263322393Y-117188141D01*
X263382410Y-117277963D01*
X263443242Y-117391772D01*
X263468335Y-117406559D01*
X263610762Y-117619715D01*
X263692975Y-117701928D01*
X253720000Y-117701928D01*
X253595518Y-117714188D01*
X253475820Y-117750498D01*
X253365506Y-117809463D01*
X253268815Y-117888815D01*
X253189463Y-117985506D01*
X253130498Y-118095820D01*
X253094188Y-118215518D01*
X253081928Y-118340000D01*
X253081928Y-124840000D01*
X253094188Y-124964482D01*
X253130498Y-125084180D01*
X253189463Y-125194494D01*
X253268815Y-125291185D01*
X253365506Y-125370537D01*
X253475820Y-125429502D01*
X253595518Y-125465812D01*
X253720000Y-125478072D01*
X254720000Y-125478072D01*
X254844482Y-125465812D01*
X254964180Y-125429502D01*
X255074494Y-125370537D01*
X255171185Y-125291185D01*
X255250537Y-125194494D01*
X255309502Y-125084180D01*
X255345812Y-124964482D01*
X255358072Y-124840000D01*
X255358072Y-119978072D01*
X266481928Y-119978072D01*
X266481928Y-124840000D01*
X266494188Y-124964482D01*
X266530498Y-125084180D01*
X266589463Y-125194494D01*
X266668815Y-125291185D01*
X266765506Y-125370537D01*
X266875820Y-125429502D01*
X266995518Y-125465812D01*
X267120000Y-125478072D01*
X268120000Y-125478072D01*
X268244482Y-125465812D01*
X268364180Y-125429502D01*
X268474494Y-125370537D01*
X268571185Y-125291185D01*
X268650537Y-125194494D01*
X268709502Y-125084180D01*
X268745812Y-124964482D01*
X268758072Y-124840000D01*
X268758072Y-118340000D01*
X272131928Y-118340000D01*
X272131928Y-124840000D01*
X272144188Y-124964482D01*
X272180498Y-125084180D01*
X272239463Y-125194494D01*
X272318815Y-125291185D01*
X272415506Y-125370537D01*
X272525820Y-125429502D01*
X272645518Y-125465812D01*
X272770000Y-125478072D01*
X273770000Y-125478072D01*
X273894482Y-125465812D01*
X274014180Y-125429502D01*
X274124494Y-125370537D01*
X274221185Y-125291185D01*
X274300537Y-125194494D01*
X274359502Y-125084180D01*
X274395812Y-124964482D01*
X274408072Y-124840000D01*
X274408072Y-119978072D01*
X285531928Y-119978072D01*
X285531928Y-124840000D01*
X285544188Y-124964482D01*
X285580498Y-125084180D01*
X285639463Y-125194494D01*
X285718815Y-125291185D01*
X285815506Y-125370537D01*
X285925820Y-125429502D01*
X286045518Y-125465812D01*
X286170000Y-125478072D01*
X287170000Y-125478072D01*
X287294482Y-125465812D01*
X287414180Y-125429502D01*
X287524494Y-125370537D01*
X287621185Y-125291185D01*
X287700537Y-125194494D01*
X287759502Y-125084180D01*
X287795812Y-124964482D01*
X287808072Y-124840000D01*
X287808072Y-118340000D01*
X291181928Y-118340000D01*
X291181928Y-124840000D01*
X291194188Y-124964482D01*
X291230498Y-125084180D01*
X291289463Y-125194494D01*
X291368815Y-125291185D01*
X291465506Y-125370537D01*
X291575820Y-125429502D01*
X291695518Y-125465812D01*
X291820000Y-125478072D01*
X292820000Y-125478072D01*
X292944482Y-125465812D01*
X293064180Y-125429502D01*
X293174494Y-125370537D01*
X293271185Y-125291185D01*
X293350537Y-125194494D01*
X293409502Y-125084180D01*
X293445812Y-124964482D01*
X293458072Y-124840000D01*
X293458072Y-119978072D01*
X304581928Y-119978072D01*
X304581928Y-124840000D01*
X304594188Y-124964482D01*
X304630498Y-125084180D01*
X304689463Y-125194494D01*
X304768815Y-125291185D01*
X304865506Y-125370537D01*
X304975820Y-125429502D01*
X305095518Y-125465812D01*
X305220000Y-125478072D01*
X306220000Y-125478072D01*
X306344482Y-125465812D01*
X306464180Y-125429502D01*
X306574494Y-125370537D01*
X306671185Y-125291185D01*
X306750537Y-125194494D01*
X306809502Y-125084180D01*
X306845812Y-124964482D01*
X306858072Y-124840000D01*
X306858072Y-118340000D01*
X306845812Y-118215518D01*
X306809502Y-118095820D01*
X306750537Y-117985506D01*
X306671185Y-117888815D01*
X306574494Y-117809463D01*
X306464180Y-117750498D01*
X306344482Y-117714188D01*
X306220000Y-117701928D01*
X291820000Y-117701928D01*
X291695518Y-117714188D01*
X291575820Y-117750498D01*
X291465506Y-117809463D01*
X291368815Y-117888815D01*
X291289463Y-117985506D01*
X291230498Y-118095820D01*
X291194188Y-118215518D01*
X291181928Y-118340000D01*
X287808072Y-118340000D01*
X287795812Y-118215518D01*
X287759502Y-118095820D01*
X287700537Y-117985506D01*
X287621185Y-117888815D01*
X287524494Y-117809463D01*
X287414180Y-117750498D01*
X287294482Y-117714188D01*
X287170000Y-117701928D01*
X272770000Y-117701928D01*
X272645518Y-117714188D01*
X272525820Y-117750498D01*
X272415506Y-117809463D01*
X272318815Y-117888815D01*
X272239463Y-117985506D01*
X272180498Y-118095820D01*
X272144188Y-118215518D01*
X272131928Y-118340000D01*
X268758072Y-118340000D01*
X268745812Y-118215518D01*
X268709502Y-118095820D01*
X268650537Y-117985506D01*
X268571185Y-117888815D01*
X268474494Y-117809463D01*
X268364180Y-117750498D01*
X268244482Y-117714188D01*
X268120000Y-117701928D01*
X267622025Y-117701928D01*
X267704238Y-117619715D01*
X267846665Y-117406559D01*
X267871758Y-117391772D01*
X267926735Y-117286725D01*
X267992607Y-117188141D01*
X268046791Y-117057330D01*
X268112438Y-116931895D01*
X268145863Y-116818150D01*
X268191239Y-116708601D01*
X268218863Y-116569724D01*
X268258775Y-116433902D01*
X268269367Y-116315825D01*
X268292500Y-116199525D01*
X268292500Y-116057931D01*
X268305148Y-115916929D01*
X268292500Y-115799051D01*
X268292500Y-115680475D01*
X268264876Y-115541599D01*
X268249773Y-115400841D01*
X268214373Y-115287700D01*
X268191239Y-115171399D01*
X268137052Y-115040580D01*
X268094779Y-114905474D01*
X268033951Y-114791671D01*
X267992607Y-114691859D01*
X267932590Y-114602037D01*
X267871758Y-114488228D01*
X267846665Y-114473441D01*
X267749532Y-114328072D01*
X268120000Y-114328072D01*
X268244482Y-114315812D01*
X268364180Y-114279502D01*
X268474494Y-114220537D01*
X268571185Y-114141185D01*
X268650537Y-114044494D01*
X268709502Y-113934180D01*
X268745812Y-113814482D01*
X268758072Y-113690000D01*
X268758072Y-107190000D01*
X272131928Y-107190000D01*
X272131928Y-113690000D01*
X272144188Y-113814482D01*
X272180498Y-113934180D01*
X272239463Y-114044494D01*
X272318815Y-114141185D01*
X272415506Y-114220537D01*
X272525820Y-114279502D01*
X272645518Y-114315812D01*
X272770000Y-114328072D01*
X287170000Y-114328072D01*
X287294482Y-114315812D01*
X287414180Y-114279502D01*
X287524494Y-114220537D01*
X287621185Y-114141185D01*
X287700537Y-114044494D01*
X287759502Y-113934180D01*
X287795812Y-113814482D01*
X287808072Y-113690000D01*
X287808072Y-107190000D01*
X291181928Y-107190000D01*
X291181928Y-113690000D01*
X291194188Y-113814482D01*
X291230498Y-113934180D01*
X291289463Y-114044494D01*
X291368815Y-114141185D01*
X291465506Y-114220537D01*
X291575820Y-114279502D01*
X291695518Y-114315812D01*
X291820000Y-114328072D01*
X306220000Y-114328072D01*
X306344482Y-114315812D01*
X306459466Y-114280932D01*
X306330835Y-114473441D01*
X306305742Y-114488228D01*
X306250765Y-114593275D01*
X306184893Y-114691859D01*
X306130709Y-114822670D01*
X306065062Y-114948105D01*
X306031637Y-115061850D01*
X305986261Y-115171399D01*
X305958637Y-115310276D01*
X305918725Y-115446098D01*
X305908133Y-115564175D01*
X305885000Y-115680475D01*
X305885000Y-115822069D01*
X305872352Y-115963071D01*
X305885000Y-116080949D01*
X305885000Y-116199525D01*
X305912624Y-116338401D01*
X305927727Y-116479159D01*
X305963127Y-116592300D01*
X305986261Y-116708601D01*
X306040448Y-116839420D01*
X306082721Y-116974526D01*
X306143549Y-117088329D01*
X306184893Y-117188141D01*
X306244910Y-117277963D01*
X306305742Y-117391772D01*
X306330835Y-117406559D01*
X306473262Y-117619715D01*
X306840285Y-117986738D01*
X307053441Y-118129165D01*
X307068228Y-118154258D01*
X307173275Y-118209235D01*
X307271859Y-118275107D01*
X307402670Y-118329291D01*
X307528105Y-118394938D01*
X307641850Y-118428363D01*
X307751399Y-118473739D01*
X307890276Y-118501363D01*
X308026098Y-118541275D01*
X308144175Y-118551867D01*
X308260475Y-118575000D01*
X308402069Y-118575000D01*
X308543071Y-118587648D01*
X308660949Y-118575000D01*
X308779525Y-118575000D01*
X308918401Y-118547376D01*
X309059159Y-118532273D01*
X309172300Y-118496873D01*
X309288601Y-118473739D01*
X309419420Y-118419552D01*
X309554526Y-118377279D01*
X309624271Y-118340000D01*
X310231928Y-118340000D01*
X310231928Y-124840000D01*
X310244188Y-124964482D01*
X310280498Y-125084180D01*
X310339463Y-125194494D01*
X310418815Y-125291185D01*
X310515506Y-125370537D01*
X310625820Y-125429502D01*
X310745518Y-125465812D01*
X310870000Y-125478072D01*
X311870000Y-125478072D01*
X311994482Y-125465812D01*
X312114180Y-125429502D01*
X312224494Y-125370537D01*
X312321185Y-125291185D01*
X312400537Y-125194494D01*
X312459502Y-125084180D01*
X312495812Y-124964482D01*
X312508072Y-124840000D01*
X312508072Y-119978072D01*
X323631928Y-119978072D01*
X323631928Y-124840000D01*
X323644188Y-124964482D01*
X323680498Y-125084180D01*
X323739463Y-125194494D01*
X323818815Y-125291185D01*
X323915506Y-125370537D01*
X324025820Y-125429502D01*
X324145518Y-125465812D01*
X324270000Y-125478072D01*
X325270000Y-125478072D01*
X325394482Y-125465812D01*
X325514180Y-125429502D01*
X325624494Y-125370537D01*
X325721185Y-125291185D01*
X325800537Y-125194494D01*
X325859502Y-125084180D01*
X325895812Y-124964482D01*
X325908072Y-124840000D01*
X325908072Y-118340000D01*
X325895812Y-118215518D01*
X325859502Y-118095820D01*
X325800537Y-117985506D01*
X325721185Y-117888815D01*
X325624494Y-117809463D01*
X325514180Y-117750498D01*
X325394482Y-117714188D01*
X325270000Y-117701928D01*
X310870000Y-117701928D01*
X310745518Y-117714188D01*
X310625820Y-117750498D01*
X310515506Y-117809463D01*
X310418815Y-117888815D01*
X310339463Y-117985506D01*
X310280498Y-118095820D01*
X310244188Y-118215518D01*
X310231928Y-118340000D01*
X309624271Y-118340000D01*
X309668329Y-118316451D01*
X309768141Y-118275107D01*
X309857963Y-118215090D01*
X309971772Y-118154258D01*
X309986559Y-118129165D01*
X310199715Y-117986738D01*
X310566738Y-117619715D01*
X310709165Y-117406559D01*
X310734258Y-117391772D01*
X310789235Y-117286725D01*
X310855107Y-117188141D01*
X310909291Y-117057330D01*
X310974938Y-116931895D01*
X311008363Y-116818150D01*
X311053739Y-116708601D01*
X311081363Y-116569724D01*
X311121275Y-116433902D01*
X311131867Y-116315825D01*
X311155000Y-116199525D01*
X311155000Y-116057931D01*
X311167648Y-115916929D01*
X311155000Y-115799051D01*
X311155000Y-115680475D01*
X311127376Y-115541599D01*
X311112273Y-115400841D01*
X311076873Y-115287700D01*
X311053739Y-115171399D01*
X310999552Y-115040580D01*
X310957279Y-114905474D01*
X310896451Y-114791671D01*
X310855107Y-114691859D01*
X310795090Y-114602037D01*
X310734258Y-114488228D01*
X310709165Y-114473441D01*
X310566738Y-114260285D01*
X310540177Y-114233724D01*
X310625820Y-114279502D01*
X310745518Y-114315812D01*
X310870000Y-114328072D01*
X325270000Y-114328072D01*
X325394482Y-114315812D01*
X325514180Y-114279502D01*
X325624494Y-114220537D01*
X325721185Y-114141185D01*
X325800537Y-114044494D01*
X325859502Y-113934180D01*
X325895812Y-113814482D01*
X325908072Y-113690000D01*
X325908072Y-107190000D01*
X325895812Y-107065518D01*
X325859502Y-106945820D01*
X325800537Y-106835506D01*
X325721185Y-106738815D01*
X325624494Y-106659463D01*
X325514180Y-106600498D01*
X325394482Y-106564188D01*
X325270000Y-106551928D01*
X324270000Y-106551928D01*
X324145518Y-106564188D01*
X324025820Y-106600498D01*
X323915506Y-106659463D01*
X323818815Y-106738815D01*
X323739463Y-106835506D01*
X323680498Y-106945820D01*
X323644188Y-107065518D01*
X323631928Y-107190000D01*
X323631928Y-112051928D01*
X312508072Y-112051928D01*
X312508072Y-107190000D01*
X312495812Y-107065518D01*
X312459502Y-106945820D01*
X312400537Y-106835506D01*
X312321185Y-106738815D01*
X312224494Y-106659463D01*
X312114180Y-106600498D01*
X311994482Y-106564188D01*
X311870000Y-106551928D01*
X310870000Y-106551928D01*
X310745518Y-106564188D01*
X310625820Y-106600498D01*
X310515506Y-106659463D01*
X310418815Y-106738815D01*
X310339463Y-106835506D01*
X310280498Y-106945820D01*
X310244188Y-107065518D01*
X310231928Y-107190000D01*
X310231928Y-113690000D01*
X310244188Y-113814482D01*
X310280498Y-113934180D01*
X310326276Y-114019823D01*
X310199715Y-113893262D01*
X309986559Y-113750835D01*
X309971772Y-113725742D01*
X309866725Y-113670765D01*
X309768141Y-113604893D01*
X309637330Y-113550709D01*
X309511895Y-113485062D01*
X309398150Y-113451637D01*
X309288601Y-113406261D01*
X309149724Y-113378637D01*
X309013902Y-113338725D01*
X308895825Y-113328133D01*
X308779525Y-113305000D01*
X308637931Y-113305000D01*
X308496929Y-113292352D01*
X308379051Y-113305000D01*
X308260475Y-113305000D01*
X308121599Y-113332624D01*
X307980841Y-113347727D01*
X307867700Y-113383127D01*
X307751399Y-113406261D01*
X307620580Y-113460448D01*
X307485474Y-113502721D01*
X307371671Y-113563549D01*
X307271859Y-113604893D01*
X307182037Y-113664910D01*
X307068228Y-113725742D01*
X307053441Y-113750835D01*
X306840285Y-113893262D01*
X306813915Y-113919632D01*
X306845812Y-113814482D01*
X306858072Y-113690000D01*
X306858072Y-107190000D01*
X306845812Y-107065518D01*
X306809502Y-106945820D01*
X306750537Y-106835506D01*
X306671185Y-106738815D01*
X306574494Y-106659463D01*
X306464180Y-106600498D01*
X306344482Y-106564188D01*
X306220000Y-106551928D01*
X305220000Y-106551928D01*
X305095518Y-106564188D01*
X304975820Y-106600498D01*
X304865506Y-106659463D01*
X304768815Y-106738815D01*
X304689463Y-106835506D01*
X304630498Y-106945820D01*
X304594188Y-107065518D01*
X304581928Y-107190000D01*
X304581928Y-112051928D01*
X293458072Y-112051928D01*
X293458072Y-107190000D01*
X293445812Y-107065518D01*
X293409502Y-106945820D01*
X293350537Y-106835506D01*
X293271185Y-106738815D01*
X293174494Y-106659463D01*
X293064180Y-106600498D01*
X292944482Y-106564188D01*
X292820000Y-106551928D01*
X291820000Y-106551928D01*
X291695518Y-106564188D01*
X291575820Y-106600498D01*
X291465506Y-106659463D01*
X291368815Y-106738815D01*
X291289463Y-106835506D01*
X291230498Y-106945820D01*
X291194188Y-107065518D01*
X291181928Y-107190000D01*
X287808072Y-107190000D01*
X287795812Y-107065518D01*
X287759502Y-106945820D01*
X287700537Y-106835506D01*
X287621185Y-106738815D01*
X287524494Y-106659463D01*
X287414180Y-106600498D01*
X287294482Y-106564188D01*
X287170000Y-106551928D01*
X286170000Y-106551928D01*
X286045518Y-106564188D01*
X285925820Y-106600498D01*
X285815506Y-106659463D01*
X285718815Y-106738815D01*
X285639463Y-106835506D01*
X285580498Y-106945820D01*
X285544188Y-107065518D01*
X285531928Y-107190000D01*
X285531928Y-112051928D01*
X274408072Y-112051928D01*
X274408072Y-107190000D01*
X274395812Y-107065518D01*
X274359502Y-106945820D01*
X274300537Y-106835506D01*
X274221185Y-106738815D01*
X274124494Y-106659463D01*
X274014180Y-106600498D01*
X273894482Y-106564188D01*
X273770000Y-106551928D01*
X272770000Y-106551928D01*
X272645518Y-106564188D01*
X272525820Y-106600498D01*
X272415506Y-106659463D01*
X272318815Y-106738815D01*
X272239463Y-106835506D01*
X272180498Y-106945820D01*
X272144188Y-107065518D01*
X272131928Y-107190000D01*
X268758072Y-107190000D01*
X268745812Y-107065518D01*
X268709502Y-106945820D01*
X268650537Y-106835506D01*
X268571185Y-106738815D01*
X268474494Y-106659463D01*
X268364180Y-106600498D01*
X268244482Y-106564188D01*
X268120000Y-106551928D01*
X267120000Y-106551928D01*
X266995518Y-106564188D01*
X266875820Y-106600498D01*
X266765506Y-106659463D01*
X266668815Y-106738815D01*
X266589463Y-106835506D01*
X266530498Y-106945820D01*
X266494188Y-107065518D01*
X266481928Y-107190000D01*
X266481928Y-112051928D01*
X255358072Y-112051928D01*
X255358072Y-107190000D01*
X255345812Y-107065518D01*
X255309502Y-106945820D01*
X255250537Y-106835506D01*
X255171185Y-106738815D01*
X255074494Y-106659463D01*
X254964180Y-106600498D01*
X254844482Y-106564188D01*
X254720000Y-106551928D01*
X253720000Y-106551928D01*
X253595518Y-106564188D01*
X253475820Y-106600498D01*
X253365506Y-106659463D01*
X253268815Y-106738815D01*
X253189463Y-106835506D01*
X253130498Y-106945820D01*
X253094188Y-107065518D01*
X253081928Y-107190000D01*
X252055000Y-107190000D01*
X252055000Y-99290000D01*
X253081928Y-99290000D01*
X253081928Y-105790000D01*
X253094188Y-105914482D01*
X253130498Y-106034180D01*
X253189463Y-106144494D01*
X253268815Y-106241185D01*
X253365506Y-106320537D01*
X253475820Y-106379502D01*
X253595518Y-106415812D01*
X253720000Y-106428072D01*
X254720000Y-106428072D01*
X254844482Y-106415812D01*
X254964180Y-106379502D01*
X255074494Y-106320537D01*
X255171185Y-106241185D01*
X255250537Y-106144494D01*
X255309502Y-106034180D01*
X255345812Y-105914482D01*
X255358072Y-105790000D01*
X255358072Y-100928072D01*
X266481928Y-100928072D01*
X266481928Y-105790000D01*
X266494188Y-105914482D01*
X266530498Y-106034180D01*
X266589463Y-106144494D01*
X266668815Y-106241185D01*
X266765506Y-106320537D01*
X266875820Y-106379502D01*
X266995518Y-106415812D01*
X267120000Y-106428072D01*
X268120000Y-106428072D01*
X268244482Y-106415812D01*
X268364180Y-106379502D01*
X268474494Y-106320537D01*
X268571185Y-106241185D01*
X268650537Y-106144494D01*
X268709502Y-106034180D01*
X268745812Y-105914482D01*
X268758072Y-105790000D01*
X268758072Y-99290000D01*
X272131928Y-99290000D01*
X272131928Y-105790000D01*
X272144188Y-105914482D01*
X272180498Y-106034180D01*
X272239463Y-106144494D01*
X272318815Y-106241185D01*
X272415506Y-106320537D01*
X272525820Y-106379502D01*
X272645518Y-106415812D01*
X272770000Y-106428072D01*
X273770000Y-106428072D01*
X273894482Y-106415812D01*
X274014180Y-106379502D01*
X274124494Y-106320537D01*
X274221185Y-106241185D01*
X274300537Y-106144494D01*
X274359502Y-106034180D01*
X274395812Y-105914482D01*
X274408072Y-105790000D01*
X274408072Y-100928072D01*
X285531928Y-100928072D01*
X285531928Y-105790000D01*
X285544188Y-105914482D01*
X285580498Y-106034180D01*
X285639463Y-106144494D01*
X285718815Y-106241185D01*
X285815506Y-106320537D01*
X285925820Y-106379502D01*
X286045518Y-106415812D01*
X286170000Y-106428072D01*
X287170000Y-106428072D01*
X287294482Y-106415812D01*
X287414180Y-106379502D01*
X287524494Y-106320537D01*
X287621185Y-106241185D01*
X287700537Y-106144494D01*
X287759502Y-106034180D01*
X287795812Y-105914482D01*
X287808072Y-105790000D01*
X287808072Y-99290000D01*
X291181928Y-99290000D01*
X291181928Y-105790000D01*
X291194188Y-105914482D01*
X291230498Y-106034180D01*
X291289463Y-106144494D01*
X291368815Y-106241185D01*
X291465506Y-106320537D01*
X291575820Y-106379502D01*
X291695518Y-106415812D01*
X291820000Y-106428072D01*
X292820000Y-106428072D01*
X292944482Y-106415812D01*
X293064180Y-106379502D01*
X293174494Y-106320537D01*
X293271185Y-106241185D01*
X293350537Y-106144494D01*
X293409502Y-106034180D01*
X293445812Y-105914482D01*
X293458072Y-105790000D01*
X293458072Y-100928072D01*
X304581928Y-100928072D01*
X304581928Y-105790000D01*
X304594188Y-105914482D01*
X304630498Y-106034180D01*
X304689463Y-106144494D01*
X304768815Y-106241185D01*
X304865506Y-106320537D01*
X304975820Y-106379502D01*
X305095518Y-106415812D01*
X305220000Y-106428072D01*
X306220000Y-106428072D01*
X306344482Y-106415812D01*
X306464180Y-106379502D01*
X306574494Y-106320537D01*
X306671185Y-106241185D01*
X306750537Y-106144494D01*
X306809502Y-106034180D01*
X306845812Y-105914482D01*
X306858072Y-105790000D01*
X306858072Y-99290000D01*
X310231928Y-99290000D01*
X310231928Y-105790000D01*
X310244188Y-105914482D01*
X310280498Y-106034180D01*
X310339463Y-106144494D01*
X310418815Y-106241185D01*
X310515506Y-106320537D01*
X310625820Y-106379502D01*
X310745518Y-106415812D01*
X310870000Y-106428072D01*
X311870000Y-106428072D01*
X311994482Y-106415812D01*
X312114180Y-106379502D01*
X312224494Y-106320537D01*
X312321185Y-106241185D01*
X312400537Y-106144494D01*
X312459502Y-106034180D01*
X312495812Y-105914482D01*
X312508072Y-105790000D01*
X312508072Y-100928072D01*
X323631928Y-100928072D01*
X323631928Y-105790000D01*
X323644188Y-105914482D01*
X323680498Y-106034180D01*
X323739463Y-106144494D01*
X323818815Y-106241185D01*
X323915506Y-106320537D01*
X324025820Y-106379502D01*
X324145518Y-106415812D01*
X324270000Y-106428072D01*
X325270000Y-106428072D01*
X325394482Y-106415812D01*
X325514180Y-106379502D01*
X325624494Y-106320537D01*
X325721185Y-106241185D01*
X325800537Y-106144494D01*
X325859502Y-106034180D01*
X325895812Y-105914482D01*
X325908072Y-105790000D01*
X325908072Y-99290000D01*
X325895812Y-99165518D01*
X325859502Y-99045820D01*
X325800537Y-98935506D01*
X325721185Y-98838815D01*
X325624494Y-98759463D01*
X325514180Y-98700498D01*
X325394482Y-98664188D01*
X325270000Y-98651928D01*
X310870000Y-98651928D01*
X310745518Y-98664188D01*
X310625820Y-98700498D01*
X310515506Y-98759463D01*
X310418815Y-98838815D01*
X310339463Y-98935506D01*
X310280498Y-99045820D01*
X310244188Y-99165518D01*
X310231928Y-99290000D01*
X306858072Y-99290000D01*
X306845812Y-99165518D01*
X306809502Y-99045820D01*
X306750537Y-98935506D01*
X306671185Y-98838815D01*
X306574494Y-98759463D01*
X306464180Y-98700498D01*
X306344482Y-98664188D01*
X306220000Y-98651928D01*
X291820000Y-98651928D01*
X291695518Y-98664188D01*
X291575820Y-98700498D01*
X291465506Y-98759463D01*
X291368815Y-98838815D01*
X291289463Y-98935506D01*
X291230498Y-99045820D01*
X291194188Y-99165518D01*
X291181928Y-99290000D01*
X287808072Y-99290000D01*
X287795812Y-99165518D01*
X287759502Y-99045820D01*
X287700537Y-98935506D01*
X287621185Y-98838815D01*
X287524494Y-98759463D01*
X287414180Y-98700498D01*
X287294482Y-98664188D01*
X287170000Y-98651928D01*
X272770000Y-98651928D01*
X272645518Y-98664188D01*
X272525820Y-98700498D01*
X272415506Y-98759463D01*
X272318815Y-98838815D01*
X272239463Y-98935506D01*
X272180498Y-99045820D01*
X272144188Y-99165518D01*
X272131928Y-99290000D01*
X268758072Y-99290000D01*
X268745812Y-99165518D01*
X268709502Y-99045820D01*
X268650537Y-98935506D01*
X268571185Y-98838815D01*
X268474494Y-98759463D01*
X268364180Y-98700498D01*
X268244482Y-98664188D01*
X268120000Y-98651928D01*
X253720000Y-98651928D01*
X253595518Y-98664188D01*
X253475820Y-98700498D01*
X253365506Y-98759463D01*
X253268815Y-98838815D01*
X253189463Y-98935506D01*
X253130498Y-99045820D01*
X253094188Y-99165518D01*
X253081928Y-99290000D01*
X252055000Y-99290000D01*
X252055000Y-99173504D01*
X252088028Y-98836660D01*
X252176122Y-98544877D01*
X252319214Y-98275761D01*
X252511855Y-98039560D01*
X252746698Y-97845281D01*
X253014811Y-97700313D01*
X253305976Y-97610182D01*
X253640711Y-97575000D01*
X325286496Y-97575000D01*
X325623340Y-97608028D01*
M02*
