G04 #@! TF.GenerationSoftware,KiCad,Pcbnew,(5.0.1)-3*
G04 #@! TF.CreationDate,2020-04-26T02:33:59+05:00*
G04 #@! TF.ProjectId,hybrid_plate,6879627269645F706C6174652E6B6963,rev?*
G04 #@! TF.SameCoordinates,Original*
G04 #@! TF.FileFunction,Copper,L2,Bot,Signal*
G04 #@! TF.FilePolarity,Positive*
%FSLAX46Y46*%
G04 Gerber Fmt 4.6, Leading zero omitted, Abs format (unit mm)*
G04 Created by KiCad (PCBNEW (5.0.1)-3) date 26.04.2020 2:33:59*
%MOMM*%
%LPD*%
G01*
G04 APERTURE LIST*
G04 #@! TA.AperFunction,ComponentPad*
%ADD10C,1.000000*%
G04 #@! TD*
G04 #@! TA.AperFunction,Conductor*
%ADD11C,0.150000*%
G04 #@! TD*
G04 #@! TA.AperFunction,ComponentPad*
%ADD12C,4.000000*%
G04 #@! TD*
G04 #@! TA.AperFunction,NonConductor*
%ADD13C,0.254000*%
G04 #@! TD*
G04 APERTURE END LIST*
D10*
G04 #@! TO.P,REF\002A\002A,1*
G04 #@! TO.N,N/C*
X292320000Y-167590000D03*
D11*
G04 #@! TD*
G04 #@! TO.N,N/C*
G04 #@! TO.C,REF\002A\002A*
G36*
X292820000Y-170840000D02*
X291820000Y-170840000D01*
X291820000Y-164340000D01*
X292820000Y-164340000D01*
X292820000Y-170840000D01*
X292820000Y-170840000D01*
G37*
D10*
G04 #@! TO.P,REF\002A\002A,1*
G04 #@! TO.N,N/C*
X292320000Y-159690000D03*
D11*
G04 #@! TD*
G04 #@! TO.N,N/C*
G04 #@! TO.C,REF\002A\002A*
G36*
X292820000Y-162940000D02*
X291820000Y-162940000D01*
X291820000Y-156440000D01*
X292820000Y-156440000D01*
X292820000Y-162940000D01*
X292820000Y-162940000D01*
G37*
D10*
G04 #@! TO.P,REF\002A\002A,1*
G04 #@! TO.N,N/C*
X305720000Y-167590000D03*
D11*
G04 #@! TD*
G04 #@! TO.N,N/C*
G04 #@! TO.C,REF\002A\002A*
G36*
X305220000Y-164340000D02*
X306220000Y-164340000D01*
X306220000Y-170840000D01*
X305220000Y-170840000D01*
X305220000Y-164340000D01*
X305220000Y-164340000D01*
G37*
D10*
G04 #@! TO.P,REF\002A\002A,1*
G04 #@! TO.N,N/C*
X299020000Y-156940000D03*
D11*
G04 #@! TD*
G04 #@! TO.N,N/C*
G04 #@! TO.C,REF\002A\002A*
G36*
X306020000Y-156440000D02*
X306020000Y-157440000D01*
X292020000Y-157440000D01*
X292020000Y-156440000D01*
X306020000Y-156440000D01*
X306020000Y-156440000D01*
G37*
D10*
G04 #@! TO.P,REF\002A\002A,1*
G04 #@! TO.N,N/C*
X299020000Y-170340000D03*
D11*
G04 #@! TD*
G04 #@! TO.N,N/C*
G04 #@! TO.C,REF\002A\002A*
G36*
X292020000Y-170840000D02*
X292020000Y-169840000D01*
X306020000Y-169840000D01*
X306020000Y-170840000D01*
X292020000Y-170840000D01*
X292020000Y-170840000D01*
G37*
D10*
G04 #@! TO.P,REF\002A\002A,1*
G04 #@! TO.N,N/C*
X305720000Y-159690000D03*
D11*
G04 #@! TD*
G04 #@! TO.N,N/C*
G04 #@! TO.C,REF\002A\002A*
G36*
X305220000Y-156440000D02*
X306220000Y-156440000D01*
X306220000Y-162940000D01*
X305220000Y-162940000D01*
X305220000Y-156440000D01*
X305220000Y-156440000D01*
G37*
D10*
G04 #@! TO.P,REF\002A\002A,1*
G04 #@! TO.N,N/C*
X273270000Y-167590000D03*
D11*
G04 #@! TD*
G04 #@! TO.N,N/C*
G04 #@! TO.C,REF\002A\002A*
G36*
X273770000Y-170840000D02*
X272770000Y-170840000D01*
X272770000Y-164340000D01*
X273770000Y-164340000D01*
X273770000Y-170840000D01*
X273770000Y-170840000D01*
G37*
D10*
G04 #@! TO.P,REF\002A\002A,1*
G04 #@! TO.N,N/C*
X273270000Y-159690000D03*
D11*
G04 #@! TD*
G04 #@! TO.N,N/C*
G04 #@! TO.C,REF\002A\002A*
G36*
X273770000Y-162940000D02*
X272770000Y-162940000D01*
X272770000Y-156440000D01*
X273770000Y-156440000D01*
X273770000Y-162940000D01*
X273770000Y-162940000D01*
G37*
D10*
G04 #@! TO.P,REF\002A\002A,1*
G04 #@! TO.N,N/C*
X286670000Y-167590000D03*
D11*
G04 #@! TD*
G04 #@! TO.N,N/C*
G04 #@! TO.C,REF\002A\002A*
G36*
X286170000Y-164340000D02*
X287170000Y-164340000D01*
X287170000Y-170840000D01*
X286170000Y-170840000D01*
X286170000Y-164340000D01*
X286170000Y-164340000D01*
G37*
D10*
G04 #@! TO.P,REF\002A\002A,1*
G04 #@! TO.N,N/C*
X279970000Y-156940000D03*
D11*
G04 #@! TD*
G04 #@! TO.N,N/C*
G04 #@! TO.C,REF\002A\002A*
G36*
X286970000Y-156440000D02*
X286970000Y-157440000D01*
X272970000Y-157440000D01*
X272970000Y-156440000D01*
X286970000Y-156440000D01*
X286970000Y-156440000D01*
G37*
D10*
G04 #@! TO.P,REF\002A\002A,1*
G04 #@! TO.N,N/C*
X279970000Y-170340000D03*
D11*
G04 #@! TD*
G04 #@! TO.N,N/C*
G04 #@! TO.C,REF\002A\002A*
G36*
X272970000Y-170840000D02*
X272970000Y-169840000D01*
X286970000Y-169840000D01*
X286970000Y-170840000D01*
X272970000Y-170840000D01*
X272970000Y-170840000D01*
G37*
D10*
G04 #@! TO.P,REF\002A\002A,1*
G04 #@! TO.N,N/C*
X286670000Y-159690000D03*
D11*
G04 #@! TD*
G04 #@! TO.N,N/C*
G04 #@! TO.C,REF\002A\002A*
G36*
X286170000Y-156440000D02*
X287170000Y-156440000D01*
X287170000Y-162940000D01*
X286170000Y-162940000D01*
X286170000Y-156440000D01*
X286170000Y-156440000D01*
G37*
D10*
G04 #@! TO.P,REF\002A\002A,1*
G04 #@! TO.N,N/C*
X254220000Y-167590000D03*
D11*
G04 #@! TD*
G04 #@! TO.N,N/C*
G04 #@! TO.C,REF\002A\002A*
G36*
X254720000Y-170840000D02*
X253720000Y-170840000D01*
X253720000Y-164340000D01*
X254720000Y-164340000D01*
X254720000Y-170840000D01*
X254720000Y-170840000D01*
G37*
D10*
G04 #@! TO.P,REF\002A\002A,1*
G04 #@! TO.N,N/C*
X254220000Y-159690000D03*
D11*
G04 #@! TD*
G04 #@! TO.N,N/C*
G04 #@! TO.C,REF\002A\002A*
G36*
X254720000Y-162940000D02*
X253720000Y-162940000D01*
X253720000Y-156440000D01*
X254720000Y-156440000D01*
X254720000Y-162940000D01*
X254720000Y-162940000D01*
G37*
D10*
G04 #@! TO.P,REF\002A\002A,1*
G04 #@! TO.N,N/C*
X267620000Y-167590000D03*
D11*
G04 #@! TD*
G04 #@! TO.N,N/C*
G04 #@! TO.C,REF\002A\002A*
G36*
X267120000Y-164340000D02*
X268120000Y-164340000D01*
X268120000Y-170840000D01*
X267120000Y-170840000D01*
X267120000Y-164340000D01*
X267120000Y-164340000D01*
G37*
D10*
G04 #@! TO.P,REF\002A\002A,1*
G04 #@! TO.N,N/C*
X260920000Y-156940000D03*
D11*
G04 #@! TD*
G04 #@! TO.N,N/C*
G04 #@! TO.C,REF\002A\002A*
G36*
X267920000Y-156440000D02*
X267920000Y-157440000D01*
X253920000Y-157440000D01*
X253920000Y-156440000D01*
X267920000Y-156440000D01*
X267920000Y-156440000D01*
G37*
D10*
G04 #@! TO.P,REF\002A\002A,1*
G04 #@! TO.N,N/C*
X260920000Y-170340000D03*
D11*
G04 #@! TD*
G04 #@! TO.N,N/C*
G04 #@! TO.C,REF\002A\002A*
G36*
X253920000Y-170840000D02*
X253920000Y-169840000D01*
X267920000Y-169840000D01*
X267920000Y-170840000D01*
X253920000Y-170840000D01*
X253920000Y-170840000D01*
G37*
D10*
G04 #@! TO.P,REF\002A\002A,1*
G04 #@! TO.N,N/C*
X267620000Y-159690000D03*
D11*
G04 #@! TD*
G04 #@! TO.N,N/C*
G04 #@! TO.C,REF\002A\002A*
G36*
X267120000Y-156440000D02*
X268120000Y-156440000D01*
X268120000Y-162940000D01*
X267120000Y-162940000D01*
X267120000Y-156440000D01*
X267120000Y-156440000D01*
G37*
D10*
G04 #@! TO.P,REF\002A\002A,1*
G04 #@! TO.N,N/C*
X311370000Y-167590000D03*
D11*
G04 #@! TD*
G04 #@! TO.N,N/C*
G04 #@! TO.C,REF\002A\002A*
G36*
X311870000Y-170840000D02*
X310870000Y-170840000D01*
X310870000Y-164340000D01*
X311870000Y-164340000D01*
X311870000Y-170840000D01*
X311870000Y-170840000D01*
G37*
D10*
G04 #@! TO.P,REF\002A\002A,1*
G04 #@! TO.N,N/C*
X311370000Y-159690000D03*
D11*
G04 #@! TD*
G04 #@! TO.N,N/C*
G04 #@! TO.C,REF\002A\002A*
G36*
X311870000Y-162940000D02*
X310870000Y-162940000D01*
X310870000Y-156440000D01*
X311870000Y-156440000D01*
X311870000Y-162940000D01*
X311870000Y-162940000D01*
G37*
D10*
G04 #@! TO.P,REF\002A\002A,1*
G04 #@! TO.N,N/C*
X324770000Y-167590000D03*
D11*
G04 #@! TD*
G04 #@! TO.N,N/C*
G04 #@! TO.C,REF\002A\002A*
G36*
X324270000Y-164340000D02*
X325270000Y-164340000D01*
X325270000Y-170840000D01*
X324270000Y-170840000D01*
X324270000Y-164340000D01*
X324270000Y-164340000D01*
G37*
D10*
G04 #@! TO.P,REF\002A\002A,1*
G04 #@! TO.N,N/C*
X318070000Y-156940000D03*
D11*
G04 #@! TD*
G04 #@! TO.N,N/C*
G04 #@! TO.C,REF\002A\002A*
G36*
X325070000Y-156440000D02*
X325070000Y-157440000D01*
X311070000Y-157440000D01*
X311070000Y-156440000D01*
X325070000Y-156440000D01*
X325070000Y-156440000D01*
G37*
D10*
G04 #@! TO.P,REF\002A\002A,1*
G04 #@! TO.N,N/C*
X318070000Y-170340000D03*
D11*
G04 #@! TD*
G04 #@! TO.N,N/C*
G04 #@! TO.C,REF\002A\002A*
G36*
X311070000Y-170840000D02*
X311070000Y-169840000D01*
X325070000Y-169840000D01*
X325070000Y-170840000D01*
X311070000Y-170840000D01*
X311070000Y-170840000D01*
G37*
D10*
G04 #@! TO.P,REF\002A\002A,1*
G04 #@! TO.N,N/C*
X324770000Y-159690000D03*
D11*
G04 #@! TD*
G04 #@! TO.N,N/C*
G04 #@! TO.C,REF\002A\002A*
G36*
X324270000Y-156440000D02*
X325270000Y-156440000D01*
X325270000Y-162940000D01*
X324270000Y-162940000D01*
X324270000Y-156440000D01*
X324270000Y-156440000D01*
G37*
D10*
G04 #@! TO.P,REF\002A\002A,1*
G04 #@! TO.N,N/C*
X311370000Y-148540000D03*
D11*
G04 #@! TD*
G04 #@! TO.N,N/C*
G04 #@! TO.C,REF\002A\002A*
G36*
X311870000Y-151790000D02*
X310870000Y-151790000D01*
X310870000Y-145290000D01*
X311870000Y-145290000D01*
X311870000Y-151790000D01*
X311870000Y-151790000D01*
G37*
D10*
G04 #@! TO.P,REF\002A\002A,1*
G04 #@! TO.N,N/C*
X311370000Y-140640000D03*
D11*
G04 #@! TD*
G04 #@! TO.N,N/C*
G04 #@! TO.C,REF\002A\002A*
G36*
X311870000Y-143890000D02*
X310870000Y-143890000D01*
X310870000Y-137390000D01*
X311870000Y-137390000D01*
X311870000Y-143890000D01*
X311870000Y-143890000D01*
G37*
D10*
G04 #@! TO.P,REF\002A\002A,1*
G04 #@! TO.N,N/C*
X324770000Y-148540000D03*
D11*
G04 #@! TD*
G04 #@! TO.N,N/C*
G04 #@! TO.C,REF\002A\002A*
G36*
X324270000Y-145290000D02*
X325270000Y-145290000D01*
X325270000Y-151790000D01*
X324270000Y-151790000D01*
X324270000Y-145290000D01*
X324270000Y-145290000D01*
G37*
D10*
G04 #@! TO.P,REF\002A\002A,1*
G04 #@! TO.N,N/C*
X318070000Y-137890000D03*
D11*
G04 #@! TD*
G04 #@! TO.N,N/C*
G04 #@! TO.C,REF\002A\002A*
G36*
X325070000Y-137390000D02*
X325070000Y-138390000D01*
X311070000Y-138390000D01*
X311070000Y-137390000D01*
X325070000Y-137390000D01*
X325070000Y-137390000D01*
G37*
D10*
G04 #@! TO.P,REF\002A\002A,1*
G04 #@! TO.N,N/C*
X318070000Y-151290000D03*
D11*
G04 #@! TD*
G04 #@! TO.N,N/C*
G04 #@! TO.C,REF\002A\002A*
G36*
X311070000Y-151790000D02*
X311070000Y-150790000D01*
X325070000Y-150790000D01*
X325070000Y-151790000D01*
X311070000Y-151790000D01*
X311070000Y-151790000D01*
G37*
D10*
G04 #@! TO.P,REF\002A\002A,1*
G04 #@! TO.N,N/C*
X324770000Y-140640000D03*
D11*
G04 #@! TD*
G04 #@! TO.N,N/C*
G04 #@! TO.C,REF\002A\002A*
G36*
X324270000Y-137390000D02*
X325270000Y-137390000D01*
X325270000Y-143890000D01*
X324270000Y-143890000D01*
X324270000Y-137390000D01*
X324270000Y-137390000D01*
G37*
D10*
G04 #@! TO.P,REF\002A\002A,1*
G04 #@! TO.N,N/C*
X292320000Y-148540000D03*
D11*
G04 #@! TD*
G04 #@! TO.N,N/C*
G04 #@! TO.C,REF\002A\002A*
G36*
X292820000Y-151790000D02*
X291820000Y-151790000D01*
X291820000Y-145290000D01*
X292820000Y-145290000D01*
X292820000Y-151790000D01*
X292820000Y-151790000D01*
G37*
D10*
G04 #@! TO.P,REF\002A\002A,1*
G04 #@! TO.N,N/C*
X292320000Y-140640000D03*
D11*
G04 #@! TD*
G04 #@! TO.N,N/C*
G04 #@! TO.C,REF\002A\002A*
G36*
X292820000Y-143890000D02*
X291820000Y-143890000D01*
X291820000Y-137390000D01*
X292820000Y-137390000D01*
X292820000Y-143890000D01*
X292820000Y-143890000D01*
G37*
D10*
G04 #@! TO.P,REF\002A\002A,1*
G04 #@! TO.N,N/C*
X305720000Y-148540000D03*
D11*
G04 #@! TD*
G04 #@! TO.N,N/C*
G04 #@! TO.C,REF\002A\002A*
G36*
X305220000Y-145290000D02*
X306220000Y-145290000D01*
X306220000Y-151790000D01*
X305220000Y-151790000D01*
X305220000Y-145290000D01*
X305220000Y-145290000D01*
G37*
D10*
G04 #@! TO.P,REF\002A\002A,1*
G04 #@! TO.N,N/C*
X299020000Y-137890000D03*
D11*
G04 #@! TD*
G04 #@! TO.N,N/C*
G04 #@! TO.C,REF\002A\002A*
G36*
X306020000Y-137390000D02*
X306020000Y-138390000D01*
X292020000Y-138390000D01*
X292020000Y-137390000D01*
X306020000Y-137390000D01*
X306020000Y-137390000D01*
G37*
D10*
G04 #@! TO.P,REF\002A\002A,1*
G04 #@! TO.N,N/C*
X299020000Y-151290000D03*
D11*
G04 #@! TD*
G04 #@! TO.N,N/C*
G04 #@! TO.C,REF\002A\002A*
G36*
X292020000Y-151790000D02*
X292020000Y-150790000D01*
X306020000Y-150790000D01*
X306020000Y-151790000D01*
X292020000Y-151790000D01*
X292020000Y-151790000D01*
G37*
D10*
G04 #@! TO.P,REF\002A\002A,1*
G04 #@! TO.N,N/C*
X305720000Y-140640000D03*
D11*
G04 #@! TD*
G04 #@! TO.N,N/C*
G04 #@! TO.C,REF\002A\002A*
G36*
X305220000Y-137390000D02*
X306220000Y-137390000D01*
X306220000Y-143890000D01*
X305220000Y-143890000D01*
X305220000Y-137390000D01*
X305220000Y-137390000D01*
G37*
D10*
G04 #@! TO.P,REF\002A\002A,1*
G04 #@! TO.N,N/C*
X273270000Y-148540000D03*
D11*
G04 #@! TD*
G04 #@! TO.N,N/C*
G04 #@! TO.C,REF\002A\002A*
G36*
X273770000Y-151790000D02*
X272770000Y-151790000D01*
X272770000Y-145290000D01*
X273770000Y-145290000D01*
X273770000Y-151790000D01*
X273770000Y-151790000D01*
G37*
D10*
G04 #@! TO.P,REF\002A\002A,1*
G04 #@! TO.N,N/C*
X273270000Y-140640000D03*
D11*
G04 #@! TD*
G04 #@! TO.N,N/C*
G04 #@! TO.C,REF\002A\002A*
G36*
X273770000Y-143890000D02*
X272770000Y-143890000D01*
X272770000Y-137390000D01*
X273770000Y-137390000D01*
X273770000Y-143890000D01*
X273770000Y-143890000D01*
G37*
D10*
G04 #@! TO.P,REF\002A\002A,1*
G04 #@! TO.N,N/C*
X286670000Y-148540000D03*
D11*
G04 #@! TD*
G04 #@! TO.N,N/C*
G04 #@! TO.C,REF\002A\002A*
G36*
X286170000Y-145290000D02*
X287170000Y-145290000D01*
X287170000Y-151790000D01*
X286170000Y-151790000D01*
X286170000Y-145290000D01*
X286170000Y-145290000D01*
G37*
D10*
G04 #@! TO.P,REF\002A\002A,1*
G04 #@! TO.N,N/C*
X279970000Y-137890000D03*
D11*
G04 #@! TD*
G04 #@! TO.N,N/C*
G04 #@! TO.C,REF\002A\002A*
G36*
X286970000Y-137390000D02*
X286970000Y-138390000D01*
X272970000Y-138390000D01*
X272970000Y-137390000D01*
X286970000Y-137390000D01*
X286970000Y-137390000D01*
G37*
D10*
G04 #@! TO.P,REF\002A\002A,1*
G04 #@! TO.N,N/C*
X279970000Y-151290000D03*
D11*
G04 #@! TD*
G04 #@! TO.N,N/C*
G04 #@! TO.C,REF\002A\002A*
G36*
X272970000Y-151790000D02*
X272970000Y-150790000D01*
X286970000Y-150790000D01*
X286970000Y-151790000D01*
X272970000Y-151790000D01*
X272970000Y-151790000D01*
G37*
D10*
G04 #@! TO.P,REF\002A\002A,1*
G04 #@! TO.N,N/C*
X286670000Y-140640000D03*
D11*
G04 #@! TD*
G04 #@! TO.N,N/C*
G04 #@! TO.C,REF\002A\002A*
G36*
X286170000Y-137390000D02*
X287170000Y-137390000D01*
X287170000Y-143890000D01*
X286170000Y-143890000D01*
X286170000Y-137390000D01*
X286170000Y-137390000D01*
G37*
D10*
G04 #@! TO.P,REF\002A\002A,1*
G04 #@! TO.N,N/C*
X254220000Y-148540000D03*
D11*
G04 #@! TD*
G04 #@! TO.N,N/C*
G04 #@! TO.C,REF\002A\002A*
G36*
X254720000Y-151790000D02*
X253720000Y-151790000D01*
X253720000Y-145290000D01*
X254720000Y-145290000D01*
X254720000Y-151790000D01*
X254720000Y-151790000D01*
G37*
D10*
G04 #@! TO.P,REF\002A\002A,1*
G04 #@! TO.N,N/C*
X254220000Y-140640000D03*
D11*
G04 #@! TD*
G04 #@! TO.N,N/C*
G04 #@! TO.C,REF\002A\002A*
G36*
X254720000Y-143890000D02*
X253720000Y-143890000D01*
X253720000Y-137390000D01*
X254720000Y-137390000D01*
X254720000Y-143890000D01*
X254720000Y-143890000D01*
G37*
D10*
G04 #@! TO.P,REF\002A\002A,1*
G04 #@! TO.N,N/C*
X267620000Y-148540000D03*
D11*
G04 #@! TD*
G04 #@! TO.N,N/C*
G04 #@! TO.C,REF\002A\002A*
G36*
X267120000Y-145290000D02*
X268120000Y-145290000D01*
X268120000Y-151790000D01*
X267120000Y-151790000D01*
X267120000Y-145290000D01*
X267120000Y-145290000D01*
G37*
D10*
G04 #@! TO.P,REF\002A\002A,1*
G04 #@! TO.N,N/C*
X260920000Y-137890000D03*
D11*
G04 #@! TD*
G04 #@! TO.N,N/C*
G04 #@! TO.C,REF\002A\002A*
G36*
X267920000Y-137390000D02*
X267920000Y-138390000D01*
X253920000Y-138390000D01*
X253920000Y-137390000D01*
X267920000Y-137390000D01*
X267920000Y-137390000D01*
G37*
D10*
G04 #@! TO.P,REF\002A\002A,1*
G04 #@! TO.N,N/C*
X260920000Y-151290000D03*
D11*
G04 #@! TD*
G04 #@! TO.N,N/C*
G04 #@! TO.C,REF\002A\002A*
G36*
X253920000Y-151790000D02*
X253920000Y-150790000D01*
X267920000Y-150790000D01*
X267920000Y-151790000D01*
X253920000Y-151790000D01*
X253920000Y-151790000D01*
G37*
D10*
G04 #@! TO.P,REF\002A\002A,1*
G04 #@! TO.N,N/C*
X267620000Y-140640000D03*
D11*
G04 #@! TD*
G04 #@! TO.N,N/C*
G04 #@! TO.C,REF\002A\002A*
G36*
X267120000Y-137390000D02*
X268120000Y-137390000D01*
X268120000Y-143890000D01*
X267120000Y-143890000D01*
X267120000Y-137390000D01*
X267120000Y-137390000D01*
G37*
D10*
G04 #@! TO.P,REF\002A\002A,1*
G04 #@! TO.N,N/C*
X254220000Y-129490000D03*
D11*
G04 #@! TD*
G04 #@! TO.N,N/C*
G04 #@! TO.C,REF\002A\002A*
G36*
X254720000Y-132740000D02*
X253720000Y-132740000D01*
X253720000Y-126240000D01*
X254720000Y-126240000D01*
X254720000Y-132740000D01*
X254720000Y-132740000D01*
G37*
D10*
G04 #@! TO.P,REF\002A\002A,1*
G04 #@! TO.N,N/C*
X254220000Y-121590000D03*
D11*
G04 #@! TD*
G04 #@! TO.N,N/C*
G04 #@! TO.C,REF\002A\002A*
G36*
X254720000Y-124840000D02*
X253720000Y-124840000D01*
X253720000Y-118340000D01*
X254720000Y-118340000D01*
X254720000Y-124840000D01*
X254720000Y-124840000D01*
G37*
D10*
G04 #@! TO.P,REF\002A\002A,1*
G04 #@! TO.N,N/C*
X267620000Y-129490000D03*
D11*
G04 #@! TD*
G04 #@! TO.N,N/C*
G04 #@! TO.C,REF\002A\002A*
G36*
X267120000Y-126240000D02*
X268120000Y-126240000D01*
X268120000Y-132740000D01*
X267120000Y-132740000D01*
X267120000Y-126240000D01*
X267120000Y-126240000D01*
G37*
D10*
G04 #@! TO.P,REF\002A\002A,1*
G04 #@! TO.N,N/C*
X260920000Y-118840000D03*
D11*
G04 #@! TD*
G04 #@! TO.N,N/C*
G04 #@! TO.C,REF\002A\002A*
G36*
X267920000Y-118340000D02*
X267920000Y-119340000D01*
X253920000Y-119340000D01*
X253920000Y-118340000D01*
X267920000Y-118340000D01*
X267920000Y-118340000D01*
G37*
D10*
G04 #@! TO.P,REF\002A\002A,1*
G04 #@! TO.N,N/C*
X260920000Y-132240000D03*
D11*
G04 #@! TD*
G04 #@! TO.N,N/C*
G04 #@! TO.C,REF\002A\002A*
G36*
X253920000Y-132740000D02*
X253920000Y-131740000D01*
X267920000Y-131740000D01*
X267920000Y-132740000D01*
X253920000Y-132740000D01*
X253920000Y-132740000D01*
G37*
D10*
G04 #@! TO.P,REF\002A\002A,1*
G04 #@! TO.N,N/C*
X267620000Y-121590000D03*
D11*
G04 #@! TD*
G04 #@! TO.N,N/C*
G04 #@! TO.C,REF\002A\002A*
G36*
X267120000Y-118340000D02*
X268120000Y-118340000D01*
X268120000Y-124840000D01*
X267120000Y-124840000D01*
X267120000Y-118340000D01*
X267120000Y-118340000D01*
G37*
D10*
G04 #@! TO.P,REF\002A\002A,1*
G04 #@! TO.N,N/C*
X273270000Y-129490000D03*
D11*
G04 #@! TD*
G04 #@! TO.N,N/C*
G04 #@! TO.C,REF\002A\002A*
G36*
X273770000Y-132740000D02*
X272770000Y-132740000D01*
X272770000Y-126240000D01*
X273770000Y-126240000D01*
X273770000Y-132740000D01*
X273770000Y-132740000D01*
G37*
D10*
G04 #@! TO.P,REF\002A\002A,1*
G04 #@! TO.N,N/C*
X273270000Y-121590000D03*
D11*
G04 #@! TD*
G04 #@! TO.N,N/C*
G04 #@! TO.C,REF\002A\002A*
G36*
X273770000Y-124840000D02*
X272770000Y-124840000D01*
X272770000Y-118340000D01*
X273770000Y-118340000D01*
X273770000Y-124840000D01*
X273770000Y-124840000D01*
G37*
D10*
G04 #@! TO.P,REF\002A\002A,1*
G04 #@! TO.N,N/C*
X286670000Y-129490000D03*
D11*
G04 #@! TD*
G04 #@! TO.N,N/C*
G04 #@! TO.C,REF\002A\002A*
G36*
X286170000Y-126240000D02*
X287170000Y-126240000D01*
X287170000Y-132740000D01*
X286170000Y-132740000D01*
X286170000Y-126240000D01*
X286170000Y-126240000D01*
G37*
D10*
G04 #@! TO.P,REF\002A\002A,1*
G04 #@! TO.N,N/C*
X279970000Y-118840000D03*
D11*
G04 #@! TD*
G04 #@! TO.N,N/C*
G04 #@! TO.C,REF\002A\002A*
G36*
X286970000Y-118340000D02*
X286970000Y-119340000D01*
X272970000Y-119340000D01*
X272970000Y-118340000D01*
X286970000Y-118340000D01*
X286970000Y-118340000D01*
G37*
D10*
G04 #@! TO.P,REF\002A\002A,1*
G04 #@! TO.N,N/C*
X279970000Y-132240000D03*
D11*
G04 #@! TD*
G04 #@! TO.N,N/C*
G04 #@! TO.C,REF\002A\002A*
G36*
X272970000Y-132740000D02*
X272970000Y-131740000D01*
X286970000Y-131740000D01*
X286970000Y-132740000D01*
X272970000Y-132740000D01*
X272970000Y-132740000D01*
G37*
D10*
G04 #@! TO.P,REF\002A\002A,1*
G04 #@! TO.N,N/C*
X286670000Y-121590000D03*
D11*
G04 #@! TD*
G04 #@! TO.N,N/C*
G04 #@! TO.C,REF\002A\002A*
G36*
X286170000Y-118340000D02*
X287170000Y-118340000D01*
X287170000Y-124840000D01*
X286170000Y-124840000D01*
X286170000Y-118340000D01*
X286170000Y-118340000D01*
G37*
D10*
G04 #@! TO.P,REF\002A\002A,1*
G04 #@! TO.N,N/C*
X292320000Y-129490000D03*
D11*
G04 #@! TD*
G04 #@! TO.N,N/C*
G04 #@! TO.C,REF\002A\002A*
G36*
X292820000Y-132740000D02*
X291820000Y-132740000D01*
X291820000Y-126240000D01*
X292820000Y-126240000D01*
X292820000Y-132740000D01*
X292820000Y-132740000D01*
G37*
D10*
G04 #@! TO.P,REF\002A\002A,1*
G04 #@! TO.N,N/C*
X292320000Y-121590000D03*
D11*
G04 #@! TD*
G04 #@! TO.N,N/C*
G04 #@! TO.C,REF\002A\002A*
G36*
X292820000Y-124840000D02*
X291820000Y-124840000D01*
X291820000Y-118340000D01*
X292820000Y-118340000D01*
X292820000Y-124840000D01*
X292820000Y-124840000D01*
G37*
D10*
G04 #@! TO.P,REF\002A\002A,1*
G04 #@! TO.N,N/C*
X305720000Y-129490000D03*
D11*
G04 #@! TD*
G04 #@! TO.N,N/C*
G04 #@! TO.C,REF\002A\002A*
G36*
X305220000Y-126240000D02*
X306220000Y-126240000D01*
X306220000Y-132740000D01*
X305220000Y-132740000D01*
X305220000Y-126240000D01*
X305220000Y-126240000D01*
G37*
D10*
G04 #@! TO.P,REF\002A\002A,1*
G04 #@! TO.N,N/C*
X299020000Y-118840000D03*
D11*
G04 #@! TD*
G04 #@! TO.N,N/C*
G04 #@! TO.C,REF\002A\002A*
G36*
X306020000Y-118340000D02*
X306020000Y-119340000D01*
X292020000Y-119340000D01*
X292020000Y-118340000D01*
X306020000Y-118340000D01*
X306020000Y-118340000D01*
G37*
D10*
G04 #@! TO.P,REF\002A\002A,1*
G04 #@! TO.N,N/C*
X299020000Y-132240000D03*
D11*
G04 #@! TD*
G04 #@! TO.N,N/C*
G04 #@! TO.C,REF\002A\002A*
G36*
X292020000Y-132740000D02*
X292020000Y-131740000D01*
X306020000Y-131740000D01*
X306020000Y-132740000D01*
X292020000Y-132740000D01*
X292020000Y-132740000D01*
G37*
D10*
G04 #@! TO.P,REF\002A\002A,1*
G04 #@! TO.N,N/C*
X305720000Y-121590000D03*
D11*
G04 #@! TD*
G04 #@! TO.N,N/C*
G04 #@! TO.C,REF\002A\002A*
G36*
X305220000Y-118340000D02*
X306220000Y-118340000D01*
X306220000Y-124840000D01*
X305220000Y-124840000D01*
X305220000Y-118340000D01*
X305220000Y-118340000D01*
G37*
D10*
G04 #@! TO.P,REF\002A\002A,1*
G04 #@! TO.N,N/C*
X311370000Y-129490000D03*
D11*
G04 #@! TD*
G04 #@! TO.N,N/C*
G04 #@! TO.C,REF\002A\002A*
G36*
X311870000Y-132740000D02*
X310870000Y-132740000D01*
X310870000Y-126240000D01*
X311870000Y-126240000D01*
X311870000Y-132740000D01*
X311870000Y-132740000D01*
G37*
D10*
G04 #@! TO.P,REF\002A\002A,1*
G04 #@! TO.N,N/C*
X311370000Y-121590000D03*
D11*
G04 #@! TD*
G04 #@! TO.N,N/C*
G04 #@! TO.C,REF\002A\002A*
G36*
X311870000Y-124840000D02*
X310870000Y-124840000D01*
X310870000Y-118340000D01*
X311870000Y-118340000D01*
X311870000Y-124840000D01*
X311870000Y-124840000D01*
G37*
D10*
G04 #@! TO.P,REF\002A\002A,1*
G04 #@! TO.N,N/C*
X324770000Y-129490000D03*
D11*
G04 #@! TD*
G04 #@! TO.N,N/C*
G04 #@! TO.C,REF\002A\002A*
G36*
X324270000Y-126240000D02*
X325270000Y-126240000D01*
X325270000Y-132740000D01*
X324270000Y-132740000D01*
X324270000Y-126240000D01*
X324270000Y-126240000D01*
G37*
D10*
G04 #@! TO.P,REF\002A\002A,1*
G04 #@! TO.N,N/C*
X318070000Y-118840000D03*
D11*
G04 #@! TD*
G04 #@! TO.N,N/C*
G04 #@! TO.C,REF\002A\002A*
G36*
X325070000Y-118340000D02*
X325070000Y-119340000D01*
X311070000Y-119340000D01*
X311070000Y-118340000D01*
X325070000Y-118340000D01*
X325070000Y-118340000D01*
G37*
D10*
G04 #@! TO.P,REF\002A\002A,1*
G04 #@! TO.N,N/C*
X318070000Y-132240000D03*
D11*
G04 #@! TD*
G04 #@! TO.N,N/C*
G04 #@! TO.C,REF\002A\002A*
G36*
X311070000Y-132740000D02*
X311070000Y-131740000D01*
X325070000Y-131740000D01*
X325070000Y-132740000D01*
X311070000Y-132740000D01*
X311070000Y-132740000D01*
G37*
D10*
G04 #@! TO.P,REF\002A\002A,1*
G04 #@! TO.N,N/C*
X324770000Y-121590000D03*
D11*
G04 #@! TD*
G04 #@! TO.N,N/C*
G04 #@! TO.C,REF\002A\002A*
G36*
X324270000Y-118340000D02*
X325270000Y-118340000D01*
X325270000Y-124840000D01*
X324270000Y-124840000D01*
X324270000Y-118340000D01*
X324270000Y-118340000D01*
G37*
D10*
G04 #@! TO.P,REF\002A\002A,1*
G04 #@! TO.N,N/C*
X311370000Y-110440000D03*
D11*
G04 #@! TD*
G04 #@! TO.N,N/C*
G04 #@! TO.C,REF\002A\002A*
G36*
X311870000Y-113690000D02*
X310870000Y-113690000D01*
X310870000Y-107190000D01*
X311870000Y-107190000D01*
X311870000Y-113690000D01*
X311870000Y-113690000D01*
G37*
D10*
G04 #@! TO.P,REF\002A\002A,1*
G04 #@! TO.N,N/C*
X311370000Y-102540000D03*
D11*
G04 #@! TD*
G04 #@! TO.N,N/C*
G04 #@! TO.C,REF\002A\002A*
G36*
X311870000Y-105790000D02*
X310870000Y-105790000D01*
X310870000Y-99290000D01*
X311870000Y-99290000D01*
X311870000Y-105790000D01*
X311870000Y-105790000D01*
G37*
D10*
G04 #@! TO.P,REF\002A\002A,1*
G04 #@! TO.N,N/C*
X324770000Y-110440000D03*
D11*
G04 #@! TD*
G04 #@! TO.N,N/C*
G04 #@! TO.C,REF\002A\002A*
G36*
X324270000Y-107190000D02*
X325270000Y-107190000D01*
X325270000Y-113690000D01*
X324270000Y-113690000D01*
X324270000Y-107190000D01*
X324270000Y-107190000D01*
G37*
D10*
G04 #@! TO.P,REF\002A\002A,1*
G04 #@! TO.N,N/C*
X318070000Y-99790000D03*
D11*
G04 #@! TD*
G04 #@! TO.N,N/C*
G04 #@! TO.C,REF\002A\002A*
G36*
X325070000Y-99290000D02*
X325070000Y-100290000D01*
X311070000Y-100290000D01*
X311070000Y-99290000D01*
X325070000Y-99290000D01*
X325070000Y-99290000D01*
G37*
D10*
G04 #@! TO.P,REF\002A\002A,1*
G04 #@! TO.N,N/C*
X318070000Y-113190000D03*
D11*
G04 #@! TD*
G04 #@! TO.N,N/C*
G04 #@! TO.C,REF\002A\002A*
G36*
X311070000Y-113690000D02*
X311070000Y-112690000D01*
X325070000Y-112690000D01*
X325070000Y-113690000D01*
X311070000Y-113690000D01*
X311070000Y-113690000D01*
G37*
D10*
G04 #@! TO.P,REF\002A\002A,1*
G04 #@! TO.N,N/C*
X324770000Y-102540000D03*
D11*
G04 #@! TD*
G04 #@! TO.N,N/C*
G04 #@! TO.C,REF\002A\002A*
G36*
X324270000Y-99290000D02*
X325270000Y-99290000D01*
X325270000Y-105790000D01*
X324270000Y-105790000D01*
X324270000Y-99290000D01*
X324270000Y-99290000D01*
G37*
D10*
G04 #@! TO.P,REF\002A\002A,1*
G04 #@! TO.N,N/C*
X292320000Y-110440000D03*
D11*
G04 #@! TD*
G04 #@! TO.N,N/C*
G04 #@! TO.C,REF\002A\002A*
G36*
X292820000Y-113690000D02*
X291820000Y-113690000D01*
X291820000Y-107190000D01*
X292820000Y-107190000D01*
X292820000Y-113690000D01*
X292820000Y-113690000D01*
G37*
D10*
G04 #@! TO.P,REF\002A\002A,1*
G04 #@! TO.N,N/C*
X292320000Y-102540000D03*
D11*
G04 #@! TD*
G04 #@! TO.N,N/C*
G04 #@! TO.C,REF\002A\002A*
G36*
X292820000Y-105790000D02*
X291820000Y-105790000D01*
X291820000Y-99290000D01*
X292820000Y-99290000D01*
X292820000Y-105790000D01*
X292820000Y-105790000D01*
G37*
D10*
G04 #@! TO.P,REF\002A\002A,1*
G04 #@! TO.N,N/C*
X305720000Y-110440000D03*
D11*
G04 #@! TD*
G04 #@! TO.N,N/C*
G04 #@! TO.C,REF\002A\002A*
G36*
X305220000Y-107190000D02*
X306220000Y-107190000D01*
X306220000Y-113690000D01*
X305220000Y-113690000D01*
X305220000Y-107190000D01*
X305220000Y-107190000D01*
G37*
D10*
G04 #@! TO.P,REF\002A\002A,1*
G04 #@! TO.N,N/C*
X299020000Y-99790000D03*
D11*
G04 #@! TD*
G04 #@! TO.N,N/C*
G04 #@! TO.C,REF\002A\002A*
G36*
X306020000Y-99290000D02*
X306020000Y-100290000D01*
X292020000Y-100290000D01*
X292020000Y-99290000D01*
X306020000Y-99290000D01*
X306020000Y-99290000D01*
G37*
D10*
G04 #@! TO.P,REF\002A\002A,1*
G04 #@! TO.N,N/C*
X299020000Y-113190000D03*
D11*
G04 #@! TD*
G04 #@! TO.N,N/C*
G04 #@! TO.C,REF\002A\002A*
G36*
X292020000Y-113690000D02*
X292020000Y-112690000D01*
X306020000Y-112690000D01*
X306020000Y-113690000D01*
X292020000Y-113690000D01*
X292020000Y-113690000D01*
G37*
D10*
G04 #@! TO.P,REF\002A\002A,1*
G04 #@! TO.N,N/C*
X305720000Y-102540000D03*
D11*
G04 #@! TD*
G04 #@! TO.N,N/C*
G04 #@! TO.C,REF\002A\002A*
G36*
X305220000Y-99290000D02*
X306220000Y-99290000D01*
X306220000Y-105790000D01*
X305220000Y-105790000D01*
X305220000Y-99290000D01*
X305220000Y-99290000D01*
G37*
D10*
G04 #@! TO.P,REF\002A\002A,1*
G04 #@! TO.N,N/C*
X273270000Y-110440000D03*
D11*
G04 #@! TD*
G04 #@! TO.N,N/C*
G04 #@! TO.C,REF\002A\002A*
G36*
X273770000Y-113690000D02*
X272770000Y-113690000D01*
X272770000Y-107190000D01*
X273770000Y-107190000D01*
X273770000Y-113690000D01*
X273770000Y-113690000D01*
G37*
D10*
G04 #@! TO.P,REF\002A\002A,1*
G04 #@! TO.N,N/C*
X273270000Y-102540000D03*
D11*
G04 #@! TD*
G04 #@! TO.N,N/C*
G04 #@! TO.C,REF\002A\002A*
G36*
X273770000Y-105790000D02*
X272770000Y-105790000D01*
X272770000Y-99290000D01*
X273770000Y-99290000D01*
X273770000Y-105790000D01*
X273770000Y-105790000D01*
G37*
D10*
G04 #@! TO.P,REF\002A\002A,1*
G04 #@! TO.N,N/C*
X286670000Y-110440000D03*
D11*
G04 #@! TD*
G04 #@! TO.N,N/C*
G04 #@! TO.C,REF\002A\002A*
G36*
X286170000Y-107190000D02*
X287170000Y-107190000D01*
X287170000Y-113690000D01*
X286170000Y-113690000D01*
X286170000Y-107190000D01*
X286170000Y-107190000D01*
G37*
D10*
G04 #@! TO.P,REF\002A\002A,1*
G04 #@! TO.N,N/C*
X279970000Y-99790000D03*
D11*
G04 #@! TD*
G04 #@! TO.N,N/C*
G04 #@! TO.C,REF\002A\002A*
G36*
X286970000Y-99290000D02*
X286970000Y-100290000D01*
X272970000Y-100290000D01*
X272970000Y-99290000D01*
X286970000Y-99290000D01*
X286970000Y-99290000D01*
G37*
D10*
G04 #@! TO.P,REF\002A\002A,1*
G04 #@! TO.N,N/C*
X279970000Y-113190000D03*
D11*
G04 #@! TD*
G04 #@! TO.N,N/C*
G04 #@! TO.C,REF\002A\002A*
G36*
X272970000Y-113690000D02*
X272970000Y-112690000D01*
X286970000Y-112690000D01*
X286970000Y-113690000D01*
X272970000Y-113690000D01*
X272970000Y-113690000D01*
G37*
D10*
G04 #@! TO.P,REF\002A\002A,1*
G04 #@! TO.N,N/C*
X286670000Y-102540000D03*
D11*
G04 #@! TD*
G04 #@! TO.N,N/C*
G04 #@! TO.C,REF\002A\002A*
G36*
X286170000Y-99290000D02*
X287170000Y-99290000D01*
X287170000Y-105790000D01*
X286170000Y-105790000D01*
X286170000Y-99290000D01*
X286170000Y-99290000D01*
G37*
D10*
G04 #@! TO.P,REF\002A\002A,1*
G04 #@! TO.N,N/C*
X267620000Y-102540000D03*
D11*
G04 #@! TD*
G04 #@! TO.N,N/C*
G04 #@! TO.C,REF\002A\002A*
G36*
X267120000Y-99290000D02*
X268120000Y-99290000D01*
X268120000Y-105790000D01*
X267120000Y-105790000D01*
X267120000Y-99290000D01*
X267120000Y-99290000D01*
G37*
D10*
G04 #@! TO.P,REF\002A\002A,1*
G04 #@! TO.N,N/C*
X260920000Y-113190000D03*
D11*
G04 #@! TD*
G04 #@! TO.N,N/C*
G04 #@! TO.C,REF\002A\002A*
G36*
X253920000Y-113690000D02*
X253920000Y-112690000D01*
X267920000Y-112690000D01*
X267920000Y-113690000D01*
X253920000Y-113690000D01*
X253920000Y-113690000D01*
G37*
D10*
G04 #@! TO.P,REF\002A\002A,1*
G04 #@! TO.N,N/C*
X260920000Y-99790000D03*
D11*
G04 #@! TD*
G04 #@! TO.N,N/C*
G04 #@! TO.C,REF\002A\002A*
G36*
X267920000Y-99290000D02*
X267920000Y-100290000D01*
X253920000Y-100290000D01*
X253920000Y-99290000D01*
X267920000Y-99290000D01*
X267920000Y-99290000D01*
G37*
D10*
G04 #@! TO.P,REF\002A\002A,1*
G04 #@! TO.N,N/C*
X267620000Y-110440000D03*
D11*
G04 #@! TD*
G04 #@! TO.N,N/C*
G04 #@! TO.C,REF\002A\002A*
G36*
X267120000Y-107190000D02*
X268120000Y-107190000D01*
X268120000Y-113690000D01*
X267120000Y-113690000D01*
X267120000Y-107190000D01*
X267120000Y-107190000D01*
G37*
D10*
G04 #@! TO.P,REF\002A\002A,1*
G04 #@! TO.N,N/C*
X254220000Y-102540000D03*
D11*
G04 #@! TD*
G04 #@! TO.N,N/C*
G04 #@! TO.C,REF\002A\002A*
G36*
X254720000Y-105790000D02*
X253720000Y-105790000D01*
X253720000Y-99290000D01*
X254720000Y-99290000D01*
X254720000Y-105790000D01*
X254720000Y-105790000D01*
G37*
D10*
G04 #@! TO.P,REF\002A\002A,1*
G04 #@! TO.N,N/C*
X254220000Y-110440000D03*
D11*
G04 #@! TD*
G04 #@! TO.N,N/C*
G04 #@! TO.C,REF\002A\002A*
G36*
X254720000Y-113690000D02*
X253720000Y-113690000D01*
X253720000Y-107190000D01*
X254720000Y-107190000D01*
X254720000Y-113690000D01*
X254720000Y-113690000D01*
G37*
D12*
G04 #@! TO.P,REF\002A\002A,1*
G04 #@! TO.N,N/C*
X265657500Y-115940000D03*
G04 #@! TD*
G04 #@! TO.P,REF\002A\002A,1*
G04 #@! TO.N,N/C*
X308520000Y-115940000D03*
G04 #@! TD*
G04 #@! TO.P,REF\002A\002A,1*
G04 #@! TO.N,N/C*
X308520000Y-154040000D03*
G04 #@! TD*
G04 #@! TO.P,REF\002A\002A,1*
G04 #@! TO.N,N/C*
X270420000Y-154040000D03*
G04 #@! TD*
D13*
G36*
X325723525Y-97634036D02*
X326083565Y-97783171D01*
X326676831Y-98376437D01*
X326825964Y-98736475D01*
X326885000Y-99184900D01*
X326885001Y-170795092D01*
X326825964Y-171243525D01*
X326747542Y-171432852D01*
X325912853Y-172267541D01*
X325723525Y-172345964D01*
X325275100Y-172405000D01*
X253664900Y-172405000D01*
X253216475Y-172345964D01*
X252856437Y-172196831D01*
X252263171Y-171603565D01*
X252114036Y-171243525D01*
X252055000Y-170795100D01*
X252055000Y-164340000D01*
X253072560Y-164340000D01*
X253072560Y-170840000D01*
X253121843Y-171087765D01*
X253262191Y-171297809D01*
X253472235Y-171438157D01*
X253720000Y-171487440D01*
X268120000Y-171487440D01*
X268367765Y-171438157D01*
X268577809Y-171297809D01*
X268718157Y-171087765D01*
X268767440Y-170840000D01*
X268767440Y-164340000D01*
X272122560Y-164340000D01*
X272122560Y-170840000D01*
X272171843Y-171087765D01*
X272312191Y-171297809D01*
X272522235Y-171438157D01*
X272770000Y-171487440D01*
X287170000Y-171487440D01*
X287417765Y-171438157D01*
X287627809Y-171297809D01*
X287768157Y-171087765D01*
X287817440Y-170840000D01*
X287817440Y-164340000D01*
X291172560Y-164340000D01*
X291172560Y-170840000D01*
X291221843Y-171087765D01*
X291362191Y-171297809D01*
X291572235Y-171438157D01*
X291820000Y-171487440D01*
X306220000Y-171487440D01*
X306467765Y-171438157D01*
X306677809Y-171297809D01*
X306818157Y-171087765D01*
X306867440Y-170840000D01*
X306867440Y-164340000D01*
X310222560Y-164340000D01*
X310222560Y-170840000D01*
X310271843Y-171087765D01*
X310412191Y-171297809D01*
X310622235Y-171438157D01*
X310870000Y-171487440D01*
X325270000Y-171487440D01*
X325517765Y-171438157D01*
X325727809Y-171297809D01*
X325868157Y-171087765D01*
X325917440Y-170840000D01*
X325917440Y-164340000D01*
X325868157Y-164092235D01*
X325727809Y-163882191D01*
X325517765Y-163741843D01*
X325270000Y-163692560D01*
X324270000Y-163692560D01*
X324022235Y-163741843D01*
X323812191Y-163882191D01*
X323671843Y-164092235D01*
X323622560Y-164340000D01*
X323622560Y-169192560D01*
X312517440Y-169192560D01*
X312517440Y-164340000D01*
X312468157Y-164092235D01*
X312327809Y-163882191D01*
X312117765Y-163741843D01*
X311870000Y-163692560D01*
X310870000Y-163692560D01*
X310622235Y-163741843D01*
X310412191Y-163882191D01*
X310271843Y-164092235D01*
X310222560Y-164340000D01*
X306867440Y-164340000D01*
X306818157Y-164092235D01*
X306677809Y-163882191D01*
X306467765Y-163741843D01*
X306220000Y-163692560D01*
X305220000Y-163692560D01*
X304972235Y-163741843D01*
X304762191Y-163882191D01*
X304621843Y-164092235D01*
X304572560Y-164340000D01*
X304572560Y-169192560D01*
X293467440Y-169192560D01*
X293467440Y-164340000D01*
X293418157Y-164092235D01*
X293277809Y-163882191D01*
X293067765Y-163741843D01*
X292820000Y-163692560D01*
X291820000Y-163692560D01*
X291572235Y-163741843D01*
X291362191Y-163882191D01*
X291221843Y-164092235D01*
X291172560Y-164340000D01*
X287817440Y-164340000D01*
X287768157Y-164092235D01*
X287627809Y-163882191D01*
X287417765Y-163741843D01*
X287170000Y-163692560D01*
X286170000Y-163692560D01*
X285922235Y-163741843D01*
X285712191Y-163882191D01*
X285571843Y-164092235D01*
X285522560Y-164340000D01*
X285522560Y-169192560D01*
X274417440Y-169192560D01*
X274417440Y-164340000D01*
X274368157Y-164092235D01*
X274227809Y-163882191D01*
X274017765Y-163741843D01*
X273770000Y-163692560D01*
X272770000Y-163692560D01*
X272522235Y-163741843D01*
X272312191Y-163882191D01*
X272171843Y-164092235D01*
X272122560Y-164340000D01*
X268767440Y-164340000D01*
X268718157Y-164092235D01*
X268577809Y-163882191D01*
X268367765Y-163741843D01*
X268120000Y-163692560D01*
X267120000Y-163692560D01*
X266872235Y-163741843D01*
X266662191Y-163882191D01*
X266521843Y-164092235D01*
X266472560Y-164340000D01*
X266472560Y-169192560D01*
X255367440Y-169192560D01*
X255367440Y-164340000D01*
X255318157Y-164092235D01*
X255177809Y-163882191D01*
X254967765Y-163741843D01*
X254720000Y-163692560D01*
X253720000Y-163692560D01*
X253472235Y-163741843D01*
X253262191Y-163882191D01*
X253121843Y-164092235D01*
X253072560Y-164340000D01*
X252055000Y-164340000D01*
X252055000Y-156440000D01*
X253072560Y-156440000D01*
X253072560Y-162940000D01*
X253121843Y-163187765D01*
X253262191Y-163397809D01*
X253472235Y-163538157D01*
X253720000Y-163587440D01*
X254720000Y-163587440D01*
X254967765Y-163538157D01*
X255177809Y-163397809D01*
X255318157Y-163187765D01*
X255367440Y-162940000D01*
X255367440Y-158087440D01*
X266472560Y-158087440D01*
X266472560Y-162940000D01*
X266521843Y-163187765D01*
X266662191Y-163397809D01*
X266872235Y-163538157D01*
X267120000Y-163587440D01*
X268120000Y-163587440D01*
X268367765Y-163538157D01*
X268577809Y-163397809D01*
X268718157Y-163187765D01*
X268767440Y-162940000D01*
X268767440Y-156440000D01*
X268718157Y-156192235D01*
X268577809Y-155982191D01*
X268367765Y-155841843D01*
X268120000Y-155792560D01*
X253720000Y-155792560D01*
X253472235Y-155841843D01*
X253262191Y-155982191D01*
X253121843Y-156192235D01*
X253072560Y-156440000D01*
X252055000Y-156440000D01*
X252055000Y-145290000D01*
X253072560Y-145290000D01*
X253072560Y-151790000D01*
X253121843Y-152037765D01*
X253262191Y-152247809D01*
X253472235Y-152388157D01*
X253720000Y-152437440D01*
X268120000Y-152437440D01*
X268339834Y-152393713D01*
X268186155Y-152547392D01*
X268180175Y-152561829D01*
X268174257Y-152565353D01*
X267981496Y-153041483D01*
X267785000Y-153515866D01*
X267785000Y-153526838D01*
X267780881Y-153537012D01*
X267785000Y-154050655D01*
X267785000Y-154564134D01*
X267789199Y-154574271D01*
X267789287Y-154585247D01*
X268174257Y-155514647D01*
X268180175Y-155518171D01*
X268186155Y-155532608D01*
X268927392Y-156273845D01*
X268941829Y-156279825D01*
X268945353Y-156285743D01*
X269421483Y-156478504D01*
X269895866Y-156675000D01*
X269906838Y-156675000D01*
X269917012Y-156679119D01*
X270430655Y-156675000D01*
X270944134Y-156675000D01*
X270954271Y-156670801D01*
X270965247Y-156670713D01*
X271522237Y-156440000D01*
X272122560Y-156440000D01*
X272122560Y-162940000D01*
X272171843Y-163187765D01*
X272312191Y-163397809D01*
X272522235Y-163538157D01*
X272770000Y-163587440D01*
X273770000Y-163587440D01*
X274017765Y-163538157D01*
X274227809Y-163397809D01*
X274368157Y-163187765D01*
X274417440Y-162940000D01*
X274417440Y-158087440D01*
X285522560Y-158087440D01*
X285522560Y-162940000D01*
X285571843Y-163187765D01*
X285712191Y-163397809D01*
X285922235Y-163538157D01*
X286170000Y-163587440D01*
X287170000Y-163587440D01*
X287417765Y-163538157D01*
X287627809Y-163397809D01*
X287768157Y-163187765D01*
X287817440Y-162940000D01*
X287817440Y-156440000D01*
X291172560Y-156440000D01*
X291172560Y-162940000D01*
X291221843Y-163187765D01*
X291362191Y-163397809D01*
X291572235Y-163538157D01*
X291820000Y-163587440D01*
X292820000Y-163587440D01*
X293067765Y-163538157D01*
X293277809Y-163397809D01*
X293418157Y-163187765D01*
X293467440Y-162940000D01*
X293467440Y-158087440D01*
X304572560Y-158087440D01*
X304572560Y-162940000D01*
X304621843Y-163187765D01*
X304762191Y-163397809D01*
X304972235Y-163538157D01*
X305220000Y-163587440D01*
X306220000Y-163587440D01*
X306467765Y-163538157D01*
X306677809Y-163397809D01*
X306818157Y-163187765D01*
X306867440Y-162940000D01*
X306867440Y-156440000D01*
X306818157Y-156192235D01*
X306677809Y-155982191D01*
X306467765Y-155841843D01*
X306220000Y-155792560D01*
X291820000Y-155792560D01*
X291572235Y-155841843D01*
X291362191Y-155982191D01*
X291221843Y-156192235D01*
X291172560Y-156440000D01*
X287817440Y-156440000D01*
X287768157Y-156192235D01*
X287627809Y-155982191D01*
X287417765Y-155841843D01*
X287170000Y-155792560D01*
X272770000Y-155792560D01*
X272522235Y-155841843D01*
X272312191Y-155982191D01*
X272171843Y-156192235D01*
X272122560Y-156440000D01*
X271522237Y-156440000D01*
X271894647Y-156285743D01*
X271898171Y-156279825D01*
X271912608Y-156273845D01*
X272653845Y-155532608D01*
X272659825Y-155518171D01*
X272665743Y-155514647D01*
X272858504Y-155038517D01*
X273055000Y-154564134D01*
X273055000Y-154553162D01*
X273059119Y-154542988D01*
X273055000Y-154029345D01*
X273055000Y-153515866D01*
X273050801Y-153505729D01*
X273050713Y-153494753D01*
X272665743Y-152565353D01*
X272659825Y-152561829D01*
X272653845Y-152547392D01*
X272438981Y-152332528D01*
X272522235Y-152388157D01*
X272770000Y-152437440D01*
X287170000Y-152437440D01*
X287417765Y-152388157D01*
X287627809Y-152247809D01*
X287768157Y-152037765D01*
X287817440Y-151790000D01*
X287817440Y-145290000D01*
X291172560Y-145290000D01*
X291172560Y-151790000D01*
X291221843Y-152037765D01*
X291362191Y-152247809D01*
X291572235Y-152388157D01*
X291820000Y-152437440D01*
X306220000Y-152437440D01*
X306439834Y-152393713D01*
X306286155Y-152547392D01*
X306280175Y-152561829D01*
X306274257Y-152565353D01*
X306081496Y-153041483D01*
X305885000Y-153515866D01*
X305885000Y-153526838D01*
X305880881Y-153537012D01*
X305885000Y-154050655D01*
X305885000Y-154564134D01*
X305889199Y-154574271D01*
X305889287Y-154585247D01*
X306274257Y-155514647D01*
X306280175Y-155518171D01*
X306286155Y-155532608D01*
X307027392Y-156273845D01*
X307041829Y-156279825D01*
X307045353Y-156285743D01*
X307521483Y-156478504D01*
X307995866Y-156675000D01*
X308006838Y-156675000D01*
X308017012Y-156679119D01*
X308530655Y-156675000D01*
X309044134Y-156675000D01*
X309054271Y-156670801D01*
X309065247Y-156670713D01*
X309622237Y-156440000D01*
X310222560Y-156440000D01*
X310222560Y-162940000D01*
X310271843Y-163187765D01*
X310412191Y-163397809D01*
X310622235Y-163538157D01*
X310870000Y-163587440D01*
X311870000Y-163587440D01*
X312117765Y-163538157D01*
X312327809Y-163397809D01*
X312468157Y-163187765D01*
X312517440Y-162940000D01*
X312517440Y-158087440D01*
X323622560Y-158087440D01*
X323622560Y-162940000D01*
X323671843Y-163187765D01*
X323812191Y-163397809D01*
X324022235Y-163538157D01*
X324270000Y-163587440D01*
X325270000Y-163587440D01*
X325517765Y-163538157D01*
X325727809Y-163397809D01*
X325868157Y-163187765D01*
X325917440Y-162940000D01*
X325917440Y-156440000D01*
X325868157Y-156192235D01*
X325727809Y-155982191D01*
X325517765Y-155841843D01*
X325270000Y-155792560D01*
X310870000Y-155792560D01*
X310622235Y-155841843D01*
X310412191Y-155982191D01*
X310271843Y-156192235D01*
X310222560Y-156440000D01*
X309622237Y-156440000D01*
X309994647Y-156285743D01*
X309998171Y-156279825D01*
X310012608Y-156273845D01*
X310753845Y-155532608D01*
X310759825Y-155518171D01*
X310765743Y-155514647D01*
X310958504Y-155038517D01*
X311155000Y-154564134D01*
X311155000Y-154553162D01*
X311159119Y-154542988D01*
X311155000Y-154029345D01*
X311155000Y-153515866D01*
X311150801Y-153505729D01*
X311150713Y-153494753D01*
X310765743Y-152565353D01*
X310759825Y-152561829D01*
X310753845Y-152547392D01*
X310538981Y-152332528D01*
X310622235Y-152388157D01*
X310870000Y-152437440D01*
X325270000Y-152437440D01*
X325517765Y-152388157D01*
X325727809Y-152247809D01*
X325868157Y-152037765D01*
X325917440Y-151790000D01*
X325917440Y-145290000D01*
X325868157Y-145042235D01*
X325727809Y-144832191D01*
X325517765Y-144691843D01*
X325270000Y-144642560D01*
X324270000Y-144642560D01*
X324022235Y-144691843D01*
X323812191Y-144832191D01*
X323671843Y-145042235D01*
X323622560Y-145290000D01*
X323622560Y-150142560D01*
X312517440Y-150142560D01*
X312517440Y-145290000D01*
X312468157Y-145042235D01*
X312327809Y-144832191D01*
X312117765Y-144691843D01*
X311870000Y-144642560D01*
X310870000Y-144642560D01*
X310622235Y-144691843D01*
X310412191Y-144832191D01*
X310271843Y-145042235D01*
X310222560Y-145290000D01*
X310222560Y-151790000D01*
X310271843Y-152037765D01*
X310327472Y-152121019D01*
X310012608Y-151806155D01*
X309998171Y-151800175D01*
X309994647Y-151794257D01*
X309518517Y-151601496D01*
X309044134Y-151405000D01*
X309033162Y-151405000D01*
X309022988Y-151400881D01*
X308509345Y-151405000D01*
X307995866Y-151405000D01*
X307985729Y-151409199D01*
X307974753Y-151409287D01*
X307045353Y-151794257D01*
X307041829Y-151800175D01*
X307027392Y-151806155D01*
X306823713Y-152009834D01*
X306867440Y-151790000D01*
X306867440Y-145290000D01*
X306818157Y-145042235D01*
X306677809Y-144832191D01*
X306467765Y-144691843D01*
X306220000Y-144642560D01*
X305220000Y-144642560D01*
X304972235Y-144691843D01*
X304762191Y-144832191D01*
X304621843Y-145042235D01*
X304572560Y-145290000D01*
X304572560Y-150142560D01*
X293467440Y-150142560D01*
X293467440Y-145290000D01*
X293418157Y-145042235D01*
X293277809Y-144832191D01*
X293067765Y-144691843D01*
X292820000Y-144642560D01*
X291820000Y-144642560D01*
X291572235Y-144691843D01*
X291362191Y-144832191D01*
X291221843Y-145042235D01*
X291172560Y-145290000D01*
X287817440Y-145290000D01*
X287768157Y-145042235D01*
X287627809Y-144832191D01*
X287417765Y-144691843D01*
X287170000Y-144642560D01*
X286170000Y-144642560D01*
X285922235Y-144691843D01*
X285712191Y-144832191D01*
X285571843Y-145042235D01*
X285522560Y-145290000D01*
X285522560Y-150142560D01*
X274417440Y-150142560D01*
X274417440Y-145290000D01*
X274368157Y-145042235D01*
X274227809Y-144832191D01*
X274017765Y-144691843D01*
X273770000Y-144642560D01*
X272770000Y-144642560D01*
X272522235Y-144691843D01*
X272312191Y-144832191D01*
X272171843Y-145042235D01*
X272122560Y-145290000D01*
X272122560Y-151790000D01*
X272171843Y-152037765D01*
X272227472Y-152121019D01*
X271912608Y-151806155D01*
X271898171Y-151800175D01*
X271894647Y-151794257D01*
X271418517Y-151601496D01*
X270944134Y-151405000D01*
X270933162Y-151405000D01*
X270922988Y-151400881D01*
X270409345Y-151405000D01*
X269895866Y-151405000D01*
X269885729Y-151409199D01*
X269874753Y-151409287D01*
X268945353Y-151794257D01*
X268941829Y-151800175D01*
X268927392Y-151806155D01*
X268723713Y-152009834D01*
X268767440Y-151790000D01*
X268767440Y-145290000D01*
X268718157Y-145042235D01*
X268577809Y-144832191D01*
X268367765Y-144691843D01*
X268120000Y-144642560D01*
X267120000Y-144642560D01*
X266872235Y-144691843D01*
X266662191Y-144832191D01*
X266521843Y-145042235D01*
X266472560Y-145290000D01*
X266472560Y-150142560D01*
X255367440Y-150142560D01*
X255367440Y-145290000D01*
X255318157Y-145042235D01*
X255177809Y-144832191D01*
X254967765Y-144691843D01*
X254720000Y-144642560D01*
X253720000Y-144642560D01*
X253472235Y-144691843D01*
X253262191Y-144832191D01*
X253121843Y-145042235D01*
X253072560Y-145290000D01*
X252055000Y-145290000D01*
X252055000Y-137390000D01*
X253072560Y-137390000D01*
X253072560Y-143890000D01*
X253121843Y-144137765D01*
X253262191Y-144347809D01*
X253472235Y-144488157D01*
X253720000Y-144537440D01*
X254720000Y-144537440D01*
X254967765Y-144488157D01*
X255177809Y-144347809D01*
X255318157Y-144137765D01*
X255367440Y-143890000D01*
X255367440Y-139037440D01*
X266472560Y-139037440D01*
X266472560Y-143890000D01*
X266521843Y-144137765D01*
X266662191Y-144347809D01*
X266872235Y-144488157D01*
X267120000Y-144537440D01*
X268120000Y-144537440D01*
X268367765Y-144488157D01*
X268577809Y-144347809D01*
X268718157Y-144137765D01*
X268767440Y-143890000D01*
X268767440Y-137390000D01*
X272122560Y-137390000D01*
X272122560Y-143890000D01*
X272171843Y-144137765D01*
X272312191Y-144347809D01*
X272522235Y-144488157D01*
X272770000Y-144537440D01*
X273770000Y-144537440D01*
X274017765Y-144488157D01*
X274227809Y-144347809D01*
X274368157Y-144137765D01*
X274417440Y-143890000D01*
X274417440Y-139037440D01*
X285522560Y-139037440D01*
X285522560Y-143890000D01*
X285571843Y-144137765D01*
X285712191Y-144347809D01*
X285922235Y-144488157D01*
X286170000Y-144537440D01*
X287170000Y-144537440D01*
X287417765Y-144488157D01*
X287627809Y-144347809D01*
X287768157Y-144137765D01*
X287817440Y-143890000D01*
X287817440Y-137390000D01*
X291172560Y-137390000D01*
X291172560Y-143890000D01*
X291221843Y-144137765D01*
X291362191Y-144347809D01*
X291572235Y-144488157D01*
X291820000Y-144537440D01*
X292820000Y-144537440D01*
X293067765Y-144488157D01*
X293277809Y-144347809D01*
X293418157Y-144137765D01*
X293467440Y-143890000D01*
X293467440Y-139037440D01*
X304572560Y-139037440D01*
X304572560Y-143890000D01*
X304621843Y-144137765D01*
X304762191Y-144347809D01*
X304972235Y-144488157D01*
X305220000Y-144537440D01*
X306220000Y-144537440D01*
X306467765Y-144488157D01*
X306677809Y-144347809D01*
X306818157Y-144137765D01*
X306867440Y-143890000D01*
X306867440Y-137390000D01*
X310222560Y-137390000D01*
X310222560Y-143890000D01*
X310271843Y-144137765D01*
X310412191Y-144347809D01*
X310622235Y-144488157D01*
X310870000Y-144537440D01*
X311870000Y-144537440D01*
X312117765Y-144488157D01*
X312327809Y-144347809D01*
X312468157Y-144137765D01*
X312517440Y-143890000D01*
X312517440Y-139037440D01*
X323622560Y-139037440D01*
X323622560Y-143890000D01*
X323671843Y-144137765D01*
X323812191Y-144347809D01*
X324022235Y-144488157D01*
X324270000Y-144537440D01*
X325270000Y-144537440D01*
X325517765Y-144488157D01*
X325727809Y-144347809D01*
X325868157Y-144137765D01*
X325917440Y-143890000D01*
X325917440Y-137390000D01*
X325868157Y-137142235D01*
X325727809Y-136932191D01*
X325517765Y-136791843D01*
X325270000Y-136742560D01*
X310870000Y-136742560D01*
X310622235Y-136791843D01*
X310412191Y-136932191D01*
X310271843Y-137142235D01*
X310222560Y-137390000D01*
X306867440Y-137390000D01*
X306818157Y-137142235D01*
X306677809Y-136932191D01*
X306467765Y-136791843D01*
X306220000Y-136742560D01*
X291820000Y-136742560D01*
X291572235Y-136791843D01*
X291362191Y-136932191D01*
X291221843Y-137142235D01*
X291172560Y-137390000D01*
X287817440Y-137390000D01*
X287768157Y-137142235D01*
X287627809Y-136932191D01*
X287417765Y-136791843D01*
X287170000Y-136742560D01*
X272770000Y-136742560D01*
X272522235Y-136791843D01*
X272312191Y-136932191D01*
X272171843Y-137142235D01*
X272122560Y-137390000D01*
X268767440Y-137390000D01*
X268718157Y-137142235D01*
X268577809Y-136932191D01*
X268367765Y-136791843D01*
X268120000Y-136742560D01*
X253720000Y-136742560D01*
X253472235Y-136791843D01*
X253262191Y-136932191D01*
X253121843Y-137142235D01*
X253072560Y-137390000D01*
X252055000Y-137390000D01*
X252055000Y-126240000D01*
X253072560Y-126240000D01*
X253072560Y-132740000D01*
X253121843Y-132987765D01*
X253262191Y-133197809D01*
X253472235Y-133338157D01*
X253720000Y-133387440D01*
X268120000Y-133387440D01*
X268367765Y-133338157D01*
X268577809Y-133197809D01*
X268718157Y-132987765D01*
X268767440Y-132740000D01*
X268767440Y-126240000D01*
X272122560Y-126240000D01*
X272122560Y-132740000D01*
X272171843Y-132987765D01*
X272312191Y-133197809D01*
X272522235Y-133338157D01*
X272770000Y-133387440D01*
X287170000Y-133387440D01*
X287417765Y-133338157D01*
X287627809Y-133197809D01*
X287768157Y-132987765D01*
X287817440Y-132740000D01*
X287817440Y-126240000D01*
X291172560Y-126240000D01*
X291172560Y-132740000D01*
X291221843Y-132987765D01*
X291362191Y-133197809D01*
X291572235Y-133338157D01*
X291820000Y-133387440D01*
X306220000Y-133387440D01*
X306467765Y-133338157D01*
X306677809Y-133197809D01*
X306818157Y-132987765D01*
X306867440Y-132740000D01*
X306867440Y-126240000D01*
X310222560Y-126240000D01*
X310222560Y-132740000D01*
X310271843Y-132987765D01*
X310412191Y-133197809D01*
X310622235Y-133338157D01*
X310870000Y-133387440D01*
X325270000Y-133387440D01*
X325517765Y-133338157D01*
X325727809Y-133197809D01*
X325868157Y-132987765D01*
X325917440Y-132740000D01*
X325917440Y-126240000D01*
X325868157Y-125992235D01*
X325727809Y-125782191D01*
X325517765Y-125641843D01*
X325270000Y-125592560D01*
X324270000Y-125592560D01*
X324022235Y-125641843D01*
X323812191Y-125782191D01*
X323671843Y-125992235D01*
X323622560Y-126240000D01*
X323622560Y-131092560D01*
X312517440Y-131092560D01*
X312517440Y-126240000D01*
X312468157Y-125992235D01*
X312327809Y-125782191D01*
X312117765Y-125641843D01*
X311870000Y-125592560D01*
X310870000Y-125592560D01*
X310622235Y-125641843D01*
X310412191Y-125782191D01*
X310271843Y-125992235D01*
X310222560Y-126240000D01*
X306867440Y-126240000D01*
X306818157Y-125992235D01*
X306677809Y-125782191D01*
X306467765Y-125641843D01*
X306220000Y-125592560D01*
X305220000Y-125592560D01*
X304972235Y-125641843D01*
X304762191Y-125782191D01*
X304621843Y-125992235D01*
X304572560Y-126240000D01*
X304572560Y-131092560D01*
X293467440Y-131092560D01*
X293467440Y-126240000D01*
X293418157Y-125992235D01*
X293277809Y-125782191D01*
X293067765Y-125641843D01*
X292820000Y-125592560D01*
X291820000Y-125592560D01*
X291572235Y-125641843D01*
X291362191Y-125782191D01*
X291221843Y-125992235D01*
X291172560Y-126240000D01*
X287817440Y-126240000D01*
X287768157Y-125992235D01*
X287627809Y-125782191D01*
X287417765Y-125641843D01*
X287170000Y-125592560D01*
X286170000Y-125592560D01*
X285922235Y-125641843D01*
X285712191Y-125782191D01*
X285571843Y-125992235D01*
X285522560Y-126240000D01*
X285522560Y-131092560D01*
X274417440Y-131092560D01*
X274417440Y-126240000D01*
X274368157Y-125992235D01*
X274227809Y-125782191D01*
X274017765Y-125641843D01*
X273770000Y-125592560D01*
X272770000Y-125592560D01*
X272522235Y-125641843D01*
X272312191Y-125782191D01*
X272171843Y-125992235D01*
X272122560Y-126240000D01*
X268767440Y-126240000D01*
X268718157Y-125992235D01*
X268577809Y-125782191D01*
X268367765Y-125641843D01*
X268120000Y-125592560D01*
X267120000Y-125592560D01*
X266872235Y-125641843D01*
X266662191Y-125782191D01*
X266521843Y-125992235D01*
X266472560Y-126240000D01*
X266472560Y-131092560D01*
X255367440Y-131092560D01*
X255367440Y-126240000D01*
X255318157Y-125992235D01*
X255177809Y-125782191D01*
X254967765Y-125641843D01*
X254720000Y-125592560D01*
X253720000Y-125592560D01*
X253472235Y-125641843D01*
X253262191Y-125782191D01*
X253121843Y-125992235D01*
X253072560Y-126240000D01*
X252055000Y-126240000D01*
X252055000Y-107190000D01*
X253072560Y-107190000D01*
X253072560Y-113690000D01*
X253121843Y-113937765D01*
X253262191Y-114147809D01*
X253472235Y-114288157D01*
X253720000Y-114337440D01*
X263533607Y-114337440D01*
X263423655Y-114447392D01*
X263417675Y-114461829D01*
X263411757Y-114465353D01*
X263218996Y-114941483D01*
X263022500Y-115415866D01*
X263022500Y-115426838D01*
X263018381Y-115437012D01*
X263022500Y-115950655D01*
X263022500Y-116464134D01*
X263026699Y-116474271D01*
X263026787Y-116485247D01*
X263411757Y-117414647D01*
X263417675Y-117418171D01*
X263423655Y-117432608D01*
X263683607Y-117692560D01*
X253720000Y-117692560D01*
X253472235Y-117741843D01*
X253262191Y-117882191D01*
X253121843Y-118092235D01*
X253072560Y-118340000D01*
X253072560Y-124840000D01*
X253121843Y-125087765D01*
X253262191Y-125297809D01*
X253472235Y-125438157D01*
X253720000Y-125487440D01*
X254720000Y-125487440D01*
X254967765Y-125438157D01*
X255177809Y-125297809D01*
X255318157Y-125087765D01*
X255367440Y-124840000D01*
X255367440Y-119987440D01*
X266472560Y-119987440D01*
X266472560Y-124840000D01*
X266521843Y-125087765D01*
X266662191Y-125297809D01*
X266872235Y-125438157D01*
X267120000Y-125487440D01*
X268120000Y-125487440D01*
X268367765Y-125438157D01*
X268577809Y-125297809D01*
X268718157Y-125087765D01*
X268767440Y-124840000D01*
X268767440Y-118340000D01*
X272122560Y-118340000D01*
X272122560Y-124840000D01*
X272171843Y-125087765D01*
X272312191Y-125297809D01*
X272522235Y-125438157D01*
X272770000Y-125487440D01*
X273770000Y-125487440D01*
X274017765Y-125438157D01*
X274227809Y-125297809D01*
X274368157Y-125087765D01*
X274417440Y-124840000D01*
X274417440Y-119987440D01*
X285522560Y-119987440D01*
X285522560Y-124840000D01*
X285571843Y-125087765D01*
X285712191Y-125297809D01*
X285922235Y-125438157D01*
X286170000Y-125487440D01*
X287170000Y-125487440D01*
X287417765Y-125438157D01*
X287627809Y-125297809D01*
X287768157Y-125087765D01*
X287817440Y-124840000D01*
X287817440Y-118340000D01*
X291172560Y-118340000D01*
X291172560Y-124840000D01*
X291221843Y-125087765D01*
X291362191Y-125297809D01*
X291572235Y-125438157D01*
X291820000Y-125487440D01*
X292820000Y-125487440D01*
X293067765Y-125438157D01*
X293277809Y-125297809D01*
X293418157Y-125087765D01*
X293467440Y-124840000D01*
X293467440Y-119987440D01*
X304572560Y-119987440D01*
X304572560Y-124840000D01*
X304621843Y-125087765D01*
X304762191Y-125297809D01*
X304972235Y-125438157D01*
X305220000Y-125487440D01*
X306220000Y-125487440D01*
X306467765Y-125438157D01*
X306677809Y-125297809D01*
X306818157Y-125087765D01*
X306867440Y-124840000D01*
X306867440Y-118340000D01*
X306818157Y-118092235D01*
X306677809Y-117882191D01*
X306467765Y-117741843D01*
X306220000Y-117692560D01*
X291820000Y-117692560D01*
X291572235Y-117741843D01*
X291362191Y-117882191D01*
X291221843Y-118092235D01*
X291172560Y-118340000D01*
X287817440Y-118340000D01*
X287768157Y-118092235D01*
X287627809Y-117882191D01*
X287417765Y-117741843D01*
X287170000Y-117692560D01*
X272770000Y-117692560D01*
X272522235Y-117741843D01*
X272312191Y-117882191D01*
X272171843Y-118092235D01*
X272122560Y-118340000D01*
X268767440Y-118340000D01*
X268718157Y-118092235D01*
X268577809Y-117882191D01*
X268367765Y-117741843D01*
X268120000Y-117692560D01*
X267631393Y-117692560D01*
X267891345Y-117432608D01*
X267897325Y-117418171D01*
X267903243Y-117414647D01*
X268096004Y-116938517D01*
X268292500Y-116464134D01*
X268292500Y-116453162D01*
X268296619Y-116442988D01*
X268292500Y-115929345D01*
X268292500Y-115415866D01*
X268288301Y-115405729D01*
X268288213Y-115394753D01*
X267903243Y-114465353D01*
X267897325Y-114461829D01*
X267891345Y-114447392D01*
X267781393Y-114337440D01*
X268120000Y-114337440D01*
X268367765Y-114288157D01*
X268577809Y-114147809D01*
X268718157Y-113937765D01*
X268767440Y-113690000D01*
X268767440Y-107190000D01*
X272122560Y-107190000D01*
X272122560Y-113690000D01*
X272171843Y-113937765D01*
X272312191Y-114147809D01*
X272522235Y-114288157D01*
X272770000Y-114337440D01*
X287170000Y-114337440D01*
X287417765Y-114288157D01*
X287627809Y-114147809D01*
X287768157Y-113937765D01*
X287817440Y-113690000D01*
X287817440Y-107190000D01*
X291172560Y-107190000D01*
X291172560Y-113690000D01*
X291221843Y-113937765D01*
X291362191Y-114147809D01*
X291572235Y-114288157D01*
X291820000Y-114337440D01*
X306220000Y-114337440D01*
X306439834Y-114293713D01*
X306286155Y-114447392D01*
X306280175Y-114461829D01*
X306274257Y-114465353D01*
X306081496Y-114941483D01*
X305885000Y-115415866D01*
X305885000Y-115426838D01*
X305880881Y-115437012D01*
X305885000Y-115950655D01*
X305885000Y-116464134D01*
X305889199Y-116474271D01*
X305889287Y-116485247D01*
X306274257Y-117414647D01*
X306280175Y-117418171D01*
X306286155Y-117432608D01*
X307027392Y-118173845D01*
X307041829Y-118179825D01*
X307045353Y-118185743D01*
X307521483Y-118378504D01*
X307995866Y-118575000D01*
X308006838Y-118575000D01*
X308017012Y-118579119D01*
X308530655Y-118575000D01*
X309044134Y-118575000D01*
X309054271Y-118570801D01*
X309065247Y-118570713D01*
X309622237Y-118340000D01*
X310222560Y-118340000D01*
X310222560Y-124840000D01*
X310271843Y-125087765D01*
X310412191Y-125297809D01*
X310622235Y-125438157D01*
X310870000Y-125487440D01*
X311870000Y-125487440D01*
X312117765Y-125438157D01*
X312327809Y-125297809D01*
X312468157Y-125087765D01*
X312517440Y-124840000D01*
X312517440Y-119987440D01*
X323622560Y-119987440D01*
X323622560Y-124840000D01*
X323671843Y-125087765D01*
X323812191Y-125297809D01*
X324022235Y-125438157D01*
X324270000Y-125487440D01*
X325270000Y-125487440D01*
X325517765Y-125438157D01*
X325727809Y-125297809D01*
X325868157Y-125087765D01*
X325917440Y-124840000D01*
X325917440Y-118340000D01*
X325868157Y-118092235D01*
X325727809Y-117882191D01*
X325517765Y-117741843D01*
X325270000Y-117692560D01*
X310870000Y-117692560D01*
X310622235Y-117741843D01*
X310412191Y-117882191D01*
X310271843Y-118092235D01*
X310222560Y-118340000D01*
X309622237Y-118340000D01*
X309994647Y-118185743D01*
X309998171Y-118179825D01*
X310012608Y-118173845D01*
X310753845Y-117432608D01*
X310759825Y-117418171D01*
X310765743Y-117414647D01*
X310958504Y-116938517D01*
X311155000Y-116464134D01*
X311155000Y-116453162D01*
X311159119Y-116442988D01*
X311155000Y-115929345D01*
X311155000Y-115415866D01*
X311150801Y-115405729D01*
X311150713Y-115394753D01*
X310765743Y-114465353D01*
X310759825Y-114461829D01*
X310753845Y-114447392D01*
X310538981Y-114232528D01*
X310622235Y-114288157D01*
X310870000Y-114337440D01*
X325270000Y-114337440D01*
X325517765Y-114288157D01*
X325727809Y-114147809D01*
X325868157Y-113937765D01*
X325917440Y-113690000D01*
X325917440Y-107190000D01*
X325868157Y-106942235D01*
X325727809Y-106732191D01*
X325517765Y-106591843D01*
X325270000Y-106542560D01*
X324270000Y-106542560D01*
X324022235Y-106591843D01*
X323812191Y-106732191D01*
X323671843Y-106942235D01*
X323622560Y-107190000D01*
X323622560Y-112042560D01*
X312517440Y-112042560D01*
X312517440Y-107190000D01*
X312468157Y-106942235D01*
X312327809Y-106732191D01*
X312117765Y-106591843D01*
X311870000Y-106542560D01*
X310870000Y-106542560D01*
X310622235Y-106591843D01*
X310412191Y-106732191D01*
X310271843Y-106942235D01*
X310222560Y-107190000D01*
X310222560Y-113690000D01*
X310271843Y-113937765D01*
X310327472Y-114021019D01*
X310012608Y-113706155D01*
X309998171Y-113700175D01*
X309994647Y-113694257D01*
X309518517Y-113501496D01*
X309044134Y-113305000D01*
X309033162Y-113305000D01*
X309022988Y-113300881D01*
X308509345Y-113305000D01*
X307995866Y-113305000D01*
X307985729Y-113309199D01*
X307974753Y-113309287D01*
X307045353Y-113694257D01*
X307041829Y-113700175D01*
X307027392Y-113706155D01*
X306823713Y-113909834D01*
X306867440Y-113690000D01*
X306867440Y-107190000D01*
X306818157Y-106942235D01*
X306677809Y-106732191D01*
X306467765Y-106591843D01*
X306220000Y-106542560D01*
X305220000Y-106542560D01*
X304972235Y-106591843D01*
X304762191Y-106732191D01*
X304621843Y-106942235D01*
X304572560Y-107190000D01*
X304572560Y-112042560D01*
X293467440Y-112042560D01*
X293467440Y-107190000D01*
X293418157Y-106942235D01*
X293277809Y-106732191D01*
X293067765Y-106591843D01*
X292820000Y-106542560D01*
X291820000Y-106542560D01*
X291572235Y-106591843D01*
X291362191Y-106732191D01*
X291221843Y-106942235D01*
X291172560Y-107190000D01*
X287817440Y-107190000D01*
X287768157Y-106942235D01*
X287627809Y-106732191D01*
X287417765Y-106591843D01*
X287170000Y-106542560D01*
X286170000Y-106542560D01*
X285922235Y-106591843D01*
X285712191Y-106732191D01*
X285571843Y-106942235D01*
X285522560Y-107190000D01*
X285522560Y-112042560D01*
X274417440Y-112042560D01*
X274417440Y-107190000D01*
X274368157Y-106942235D01*
X274227809Y-106732191D01*
X274017765Y-106591843D01*
X273770000Y-106542560D01*
X272770000Y-106542560D01*
X272522235Y-106591843D01*
X272312191Y-106732191D01*
X272171843Y-106942235D01*
X272122560Y-107190000D01*
X268767440Y-107190000D01*
X268718157Y-106942235D01*
X268577809Y-106732191D01*
X268367765Y-106591843D01*
X268120000Y-106542560D01*
X267120000Y-106542560D01*
X266872235Y-106591843D01*
X266662191Y-106732191D01*
X266521843Y-106942235D01*
X266472560Y-107190000D01*
X266472560Y-112042560D01*
X255367440Y-112042560D01*
X255367440Y-107190000D01*
X255318157Y-106942235D01*
X255177809Y-106732191D01*
X254967765Y-106591843D01*
X254720000Y-106542560D01*
X253720000Y-106542560D01*
X253472235Y-106591843D01*
X253262191Y-106732191D01*
X253121843Y-106942235D01*
X253072560Y-107190000D01*
X252055000Y-107190000D01*
X252055000Y-99290000D01*
X253072560Y-99290000D01*
X253072560Y-105790000D01*
X253121843Y-106037765D01*
X253262191Y-106247809D01*
X253472235Y-106388157D01*
X253720000Y-106437440D01*
X254720000Y-106437440D01*
X254967765Y-106388157D01*
X255177809Y-106247809D01*
X255318157Y-106037765D01*
X255367440Y-105790000D01*
X255367440Y-100937440D01*
X266472560Y-100937440D01*
X266472560Y-105790000D01*
X266521843Y-106037765D01*
X266662191Y-106247809D01*
X266872235Y-106388157D01*
X267120000Y-106437440D01*
X268120000Y-106437440D01*
X268367765Y-106388157D01*
X268577809Y-106247809D01*
X268718157Y-106037765D01*
X268767440Y-105790000D01*
X268767440Y-99290000D01*
X272122560Y-99290000D01*
X272122560Y-105790000D01*
X272171843Y-106037765D01*
X272312191Y-106247809D01*
X272522235Y-106388157D01*
X272770000Y-106437440D01*
X273770000Y-106437440D01*
X274017765Y-106388157D01*
X274227809Y-106247809D01*
X274368157Y-106037765D01*
X274417440Y-105790000D01*
X274417440Y-100937440D01*
X285522560Y-100937440D01*
X285522560Y-105790000D01*
X285571843Y-106037765D01*
X285712191Y-106247809D01*
X285922235Y-106388157D01*
X286170000Y-106437440D01*
X287170000Y-106437440D01*
X287417765Y-106388157D01*
X287627809Y-106247809D01*
X287768157Y-106037765D01*
X287817440Y-105790000D01*
X287817440Y-99290000D01*
X291172560Y-99290000D01*
X291172560Y-105790000D01*
X291221843Y-106037765D01*
X291362191Y-106247809D01*
X291572235Y-106388157D01*
X291820000Y-106437440D01*
X292820000Y-106437440D01*
X293067765Y-106388157D01*
X293277809Y-106247809D01*
X293418157Y-106037765D01*
X293467440Y-105790000D01*
X293467440Y-100937440D01*
X304572560Y-100937440D01*
X304572560Y-105790000D01*
X304621843Y-106037765D01*
X304762191Y-106247809D01*
X304972235Y-106388157D01*
X305220000Y-106437440D01*
X306220000Y-106437440D01*
X306467765Y-106388157D01*
X306677809Y-106247809D01*
X306818157Y-106037765D01*
X306867440Y-105790000D01*
X306867440Y-99290000D01*
X310222560Y-99290000D01*
X310222560Y-105790000D01*
X310271843Y-106037765D01*
X310412191Y-106247809D01*
X310622235Y-106388157D01*
X310870000Y-106437440D01*
X311870000Y-106437440D01*
X312117765Y-106388157D01*
X312327809Y-106247809D01*
X312468157Y-106037765D01*
X312517440Y-105790000D01*
X312517440Y-100937440D01*
X323622560Y-100937440D01*
X323622560Y-105790000D01*
X323671843Y-106037765D01*
X323812191Y-106247809D01*
X324022235Y-106388157D01*
X324270000Y-106437440D01*
X325270000Y-106437440D01*
X325517765Y-106388157D01*
X325727809Y-106247809D01*
X325868157Y-106037765D01*
X325917440Y-105790000D01*
X325917440Y-99290000D01*
X325868157Y-99042235D01*
X325727809Y-98832191D01*
X325517765Y-98691843D01*
X325270000Y-98642560D01*
X310870000Y-98642560D01*
X310622235Y-98691843D01*
X310412191Y-98832191D01*
X310271843Y-99042235D01*
X310222560Y-99290000D01*
X306867440Y-99290000D01*
X306818157Y-99042235D01*
X306677809Y-98832191D01*
X306467765Y-98691843D01*
X306220000Y-98642560D01*
X291820000Y-98642560D01*
X291572235Y-98691843D01*
X291362191Y-98832191D01*
X291221843Y-99042235D01*
X291172560Y-99290000D01*
X287817440Y-99290000D01*
X287768157Y-99042235D01*
X287627809Y-98832191D01*
X287417765Y-98691843D01*
X287170000Y-98642560D01*
X272770000Y-98642560D01*
X272522235Y-98691843D01*
X272312191Y-98832191D01*
X272171843Y-99042235D01*
X272122560Y-99290000D01*
X268767440Y-99290000D01*
X268718157Y-99042235D01*
X268577809Y-98832191D01*
X268367765Y-98691843D01*
X268120000Y-98642560D01*
X253720000Y-98642560D01*
X253472235Y-98691843D01*
X253262191Y-98832191D01*
X253121843Y-99042235D01*
X253072560Y-99290000D01*
X252055000Y-99290000D01*
X252055000Y-99184900D01*
X252114036Y-98736475D01*
X252269790Y-98360456D01*
X252517558Y-98037558D01*
X252840458Y-97789788D01*
X253216475Y-97634036D01*
X253664900Y-97575000D01*
X325275100Y-97575000D01*
X325723525Y-97634036D01*
X325723525Y-97634036D01*
G37*
X325723525Y-97634036D02*
X326083565Y-97783171D01*
X326676831Y-98376437D01*
X326825964Y-98736475D01*
X326885000Y-99184900D01*
X326885001Y-170795092D01*
X326825964Y-171243525D01*
X326747542Y-171432852D01*
X325912853Y-172267541D01*
X325723525Y-172345964D01*
X325275100Y-172405000D01*
X253664900Y-172405000D01*
X253216475Y-172345964D01*
X252856437Y-172196831D01*
X252263171Y-171603565D01*
X252114036Y-171243525D01*
X252055000Y-170795100D01*
X252055000Y-164340000D01*
X253072560Y-164340000D01*
X253072560Y-170840000D01*
X253121843Y-171087765D01*
X253262191Y-171297809D01*
X253472235Y-171438157D01*
X253720000Y-171487440D01*
X268120000Y-171487440D01*
X268367765Y-171438157D01*
X268577809Y-171297809D01*
X268718157Y-171087765D01*
X268767440Y-170840000D01*
X268767440Y-164340000D01*
X272122560Y-164340000D01*
X272122560Y-170840000D01*
X272171843Y-171087765D01*
X272312191Y-171297809D01*
X272522235Y-171438157D01*
X272770000Y-171487440D01*
X287170000Y-171487440D01*
X287417765Y-171438157D01*
X287627809Y-171297809D01*
X287768157Y-171087765D01*
X287817440Y-170840000D01*
X287817440Y-164340000D01*
X291172560Y-164340000D01*
X291172560Y-170840000D01*
X291221843Y-171087765D01*
X291362191Y-171297809D01*
X291572235Y-171438157D01*
X291820000Y-171487440D01*
X306220000Y-171487440D01*
X306467765Y-171438157D01*
X306677809Y-171297809D01*
X306818157Y-171087765D01*
X306867440Y-170840000D01*
X306867440Y-164340000D01*
X310222560Y-164340000D01*
X310222560Y-170840000D01*
X310271843Y-171087765D01*
X310412191Y-171297809D01*
X310622235Y-171438157D01*
X310870000Y-171487440D01*
X325270000Y-171487440D01*
X325517765Y-171438157D01*
X325727809Y-171297809D01*
X325868157Y-171087765D01*
X325917440Y-170840000D01*
X325917440Y-164340000D01*
X325868157Y-164092235D01*
X325727809Y-163882191D01*
X325517765Y-163741843D01*
X325270000Y-163692560D01*
X324270000Y-163692560D01*
X324022235Y-163741843D01*
X323812191Y-163882191D01*
X323671843Y-164092235D01*
X323622560Y-164340000D01*
X323622560Y-169192560D01*
X312517440Y-169192560D01*
X312517440Y-164340000D01*
X312468157Y-164092235D01*
X312327809Y-163882191D01*
X312117765Y-163741843D01*
X311870000Y-163692560D01*
X310870000Y-163692560D01*
X310622235Y-163741843D01*
X310412191Y-163882191D01*
X310271843Y-164092235D01*
X310222560Y-164340000D01*
X306867440Y-164340000D01*
X306818157Y-164092235D01*
X306677809Y-163882191D01*
X306467765Y-163741843D01*
X306220000Y-163692560D01*
X305220000Y-163692560D01*
X304972235Y-163741843D01*
X304762191Y-163882191D01*
X304621843Y-164092235D01*
X304572560Y-164340000D01*
X304572560Y-169192560D01*
X293467440Y-169192560D01*
X293467440Y-164340000D01*
X293418157Y-164092235D01*
X293277809Y-163882191D01*
X293067765Y-163741843D01*
X292820000Y-163692560D01*
X291820000Y-163692560D01*
X291572235Y-163741843D01*
X291362191Y-163882191D01*
X291221843Y-164092235D01*
X291172560Y-164340000D01*
X287817440Y-164340000D01*
X287768157Y-164092235D01*
X287627809Y-163882191D01*
X287417765Y-163741843D01*
X287170000Y-163692560D01*
X286170000Y-163692560D01*
X285922235Y-163741843D01*
X285712191Y-163882191D01*
X285571843Y-164092235D01*
X285522560Y-164340000D01*
X285522560Y-169192560D01*
X274417440Y-169192560D01*
X274417440Y-164340000D01*
X274368157Y-164092235D01*
X274227809Y-163882191D01*
X274017765Y-163741843D01*
X273770000Y-163692560D01*
X272770000Y-163692560D01*
X272522235Y-163741843D01*
X272312191Y-163882191D01*
X272171843Y-164092235D01*
X272122560Y-164340000D01*
X268767440Y-164340000D01*
X268718157Y-164092235D01*
X268577809Y-163882191D01*
X268367765Y-163741843D01*
X268120000Y-163692560D01*
X267120000Y-163692560D01*
X266872235Y-163741843D01*
X266662191Y-163882191D01*
X266521843Y-164092235D01*
X266472560Y-164340000D01*
X266472560Y-169192560D01*
X255367440Y-169192560D01*
X255367440Y-164340000D01*
X255318157Y-164092235D01*
X255177809Y-163882191D01*
X254967765Y-163741843D01*
X254720000Y-163692560D01*
X253720000Y-163692560D01*
X253472235Y-163741843D01*
X253262191Y-163882191D01*
X253121843Y-164092235D01*
X253072560Y-164340000D01*
X252055000Y-164340000D01*
X252055000Y-156440000D01*
X253072560Y-156440000D01*
X253072560Y-162940000D01*
X253121843Y-163187765D01*
X253262191Y-163397809D01*
X253472235Y-163538157D01*
X253720000Y-163587440D01*
X254720000Y-163587440D01*
X254967765Y-163538157D01*
X255177809Y-163397809D01*
X255318157Y-163187765D01*
X255367440Y-162940000D01*
X255367440Y-158087440D01*
X266472560Y-158087440D01*
X266472560Y-162940000D01*
X266521843Y-163187765D01*
X266662191Y-163397809D01*
X266872235Y-163538157D01*
X267120000Y-163587440D01*
X268120000Y-163587440D01*
X268367765Y-163538157D01*
X268577809Y-163397809D01*
X268718157Y-163187765D01*
X268767440Y-162940000D01*
X268767440Y-156440000D01*
X268718157Y-156192235D01*
X268577809Y-155982191D01*
X268367765Y-155841843D01*
X268120000Y-155792560D01*
X253720000Y-155792560D01*
X253472235Y-155841843D01*
X253262191Y-155982191D01*
X253121843Y-156192235D01*
X253072560Y-156440000D01*
X252055000Y-156440000D01*
X252055000Y-145290000D01*
X253072560Y-145290000D01*
X253072560Y-151790000D01*
X253121843Y-152037765D01*
X253262191Y-152247809D01*
X253472235Y-152388157D01*
X253720000Y-152437440D01*
X268120000Y-152437440D01*
X268339834Y-152393713D01*
X268186155Y-152547392D01*
X268180175Y-152561829D01*
X268174257Y-152565353D01*
X267981496Y-153041483D01*
X267785000Y-153515866D01*
X267785000Y-153526838D01*
X267780881Y-153537012D01*
X267785000Y-154050655D01*
X267785000Y-154564134D01*
X267789199Y-154574271D01*
X267789287Y-154585247D01*
X268174257Y-155514647D01*
X268180175Y-155518171D01*
X268186155Y-155532608D01*
X268927392Y-156273845D01*
X268941829Y-156279825D01*
X268945353Y-156285743D01*
X269421483Y-156478504D01*
X269895866Y-156675000D01*
X269906838Y-156675000D01*
X269917012Y-156679119D01*
X270430655Y-156675000D01*
X270944134Y-156675000D01*
X270954271Y-156670801D01*
X270965247Y-156670713D01*
X271522237Y-156440000D01*
X272122560Y-156440000D01*
X272122560Y-162940000D01*
X272171843Y-163187765D01*
X272312191Y-163397809D01*
X272522235Y-163538157D01*
X272770000Y-163587440D01*
X273770000Y-163587440D01*
X274017765Y-163538157D01*
X274227809Y-163397809D01*
X274368157Y-163187765D01*
X274417440Y-162940000D01*
X274417440Y-158087440D01*
X285522560Y-158087440D01*
X285522560Y-162940000D01*
X285571843Y-163187765D01*
X285712191Y-163397809D01*
X285922235Y-163538157D01*
X286170000Y-163587440D01*
X287170000Y-163587440D01*
X287417765Y-163538157D01*
X287627809Y-163397809D01*
X287768157Y-163187765D01*
X287817440Y-162940000D01*
X287817440Y-156440000D01*
X291172560Y-156440000D01*
X291172560Y-162940000D01*
X291221843Y-163187765D01*
X291362191Y-163397809D01*
X291572235Y-163538157D01*
X291820000Y-163587440D01*
X292820000Y-163587440D01*
X293067765Y-163538157D01*
X293277809Y-163397809D01*
X293418157Y-163187765D01*
X293467440Y-162940000D01*
X293467440Y-158087440D01*
X304572560Y-158087440D01*
X304572560Y-162940000D01*
X304621843Y-163187765D01*
X304762191Y-163397809D01*
X304972235Y-163538157D01*
X305220000Y-163587440D01*
X306220000Y-163587440D01*
X306467765Y-163538157D01*
X306677809Y-163397809D01*
X306818157Y-163187765D01*
X306867440Y-162940000D01*
X306867440Y-156440000D01*
X306818157Y-156192235D01*
X306677809Y-155982191D01*
X306467765Y-155841843D01*
X306220000Y-155792560D01*
X291820000Y-155792560D01*
X291572235Y-155841843D01*
X291362191Y-155982191D01*
X291221843Y-156192235D01*
X291172560Y-156440000D01*
X287817440Y-156440000D01*
X287768157Y-156192235D01*
X287627809Y-155982191D01*
X287417765Y-155841843D01*
X287170000Y-155792560D01*
X272770000Y-155792560D01*
X272522235Y-155841843D01*
X272312191Y-155982191D01*
X272171843Y-156192235D01*
X272122560Y-156440000D01*
X271522237Y-156440000D01*
X271894647Y-156285743D01*
X271898171Y-156279825D01*
X271912608Y-156273845D01*
X272653845Y-155532608D01*
X272659825Y-155518171D01*
X272665743Y-155514647D01*
X272858504Y-155038517D01*
X273055000Y-154564134D01*
X273055000Y-154553162D01*
X273059119Y-154542988D01*
X273055000Y-154029345D01*
X273055000Y-153515866D01*
X273050801Y-153505729D01*
X273050713Y-153494753D01*
X272665743Y-152565353D01*
X272659825Y-152561829D01*
X272653845Y-152547392D01*
X272438981Y-152332528D01*
X272522235Y-152388157D01*
X272770000Y-152437440D01*
X287170000Y-152437440D01*
X287417765Y-152388157D01*
X287627809Y-152247809D01*
X287768157Y-152037765D01*
X287817440Y-151790000D01*
X287817440Y-145290000D01*
X291172560Y-145290000D01*
X291172560Y-151790000D01*
X291221843Y-152037765D01*
X291362191Y-152247809D01*
X291572235Y-152388157D01*
X291820000Y-152437440D01*
X306220000Y-152437440D01*
X306439834Y-152393713D01*
X306286155Y-152547392D01*
X306280175Y-152561829D01*
X306274257Y-152565353D01*
X306081496Y-153041483D01*
X305885000Y-153515866D01*
X305885000Y-153526838D01*
X305880881Y-153537012D01*
X305885000Y-154050655D01*
X305885000Y-154564134D01*
X305889199Y-154574271D01*
X305889287Y-154585247D01*
X306274257Y-155514647D01*
X306280175Y-155518171D01*
X306286155Y-155532608D01*
X307027392Y-156273845D01*
X307041829Y-156279825D01*
X307045353Y-156285743D01*
X307521483Y-156478504D01*
X307995866Y-156675000D01*
X308006838Y-156675000D01*
X308017012Y-156679119D01*
X308530655Y-156675000D01*
X309044134Y-156675000D01*
X309054271Y-156670801D01*
X309065247Y-156670713D01*
X309622237Y-156440000D01*
X310222560Y-156440000D01*
X310222560Y-162940000D01*
X310271843Y-163187765D01*
X310412191Y-163397809D01*
X310622235Y-163538157D01*
X310870000Y-163587440D01*
X311870000Y-163587440D01*
X312117765Y-163538157D01*
X312327809Y-163397809D01*
X312468157Y-163187765D01*
X312517440Y-162940000D01*
X312517440Y-158087440D01*
X323622560Y-158087440D01*
X323622560Y-162940000D01*
X323671843Y-163187765D01*
X323812191Y-163397809D01*
X324022235Y-163538157D01*
X324270000Y-163587440D01*
X325270000Y-163587440D01*
X325517765Y-163538157D01*
X325727809Y-163397809D01*
X325868157Y-163187765D01*
X325917440Y-162940000D01*
X325917440Y-156440000D01*
X325868157Y-156192235D01*
X325727809Y-155982191D01*
X325517765Y-155841843D01*
X325270000Y-155792560D01*
X310870000Y-155792560D01*
X310622235Y-155841843D01*
X310412191Y-155982191D01*
X310271843Y-156192235D01*
X310222560Y-156440000D01*
X309622237Y-156440000D01*
X309994647Y-156285743D01*
X309998171Y-156279825D01*
X310012608Y-156273845D01*
X310753845Y-155532608D01*
X310759825Y-155518171D01*
X310765743Y-155514647D01*
X310958504Y-155038517D01*
X311155000Y-154564134D01*
X311155000Y-154553162D01*
X311159119Y-154542988D01*
X311155000Y-154029345D01*
X311155000Y-153515866D01*
X311150801Y-153505729D01*
X311150713Y-153494753D01*
X310765743Y-152565353D01*
X310759825Y-152561829D01*
X310753845Y-152547392D01*
X310538981Y-152332528D01*
X310622235Y-152388157D01*
X310870000Y-152437440D01*
X325270000Y-152437440D01*
X325517765Y-152388157D01*
X325727809Y-152247809D01*
X325868157Y-152037765D01*
X325917440Y-151790000D01*
X325917440Y-145290000D01*
X325868157Y-145042235D01*
X325727809Y-144832191D01*
X325517765Y-144691843D01*
X325270000Y-144642560D01*
X324270000Y-144642560D01*
X324022235Y-144691843D01*
X323812191Y-144832191D01*
X323671843Y-145042235D01*
X323622560Y-145290000D01*
X323622560Y-150142560D01*
X312517440Y-150142560D01*
X312517440Y-145290000D01*
X312468157Y-145042235D01*
X312327809Y-144832191D01*
X312117765Y-144691843D01*
X311870000Y-144642560D01*
X310870000Y-144642560D01*
X310622235Y-144691843D01*
X310412191Y-144832191D01*
X310271843Y-145042235D01*
X310222560Y-145290000D01*
X310222560Y-151790000D01*
X310271843Y-152037765D01*
X310327472Y-152121019D01*
X310012608Y-151806155D01*
X309998171Y-151800175D01*
X309994647Y-151794257D01*
X309518517Y-151601496D01*
X309044134Y-151405000D01*
X309033162Y-151405000D01*
X309022988Y-151400881D01*
X308509345Y-151405000D01*
X307995866Y-151405000D01*
X307985729Y-151409199D01*
X307974753Y-151409287D01*
X307045353Y-151794257D01*
X307041829Y-151800175D01*
X307027392Y-151806155D01*
X306823713Y-152009834D01*
X306867440Y-151790000D01*
X306867440Y-145290000D01*
X306818157Y-145042235D01*
X306677809Y-144832191D01*
X306467765Y-144691843D01*
X306220000Y-144642560D01*
X305220000Y-144642560D01*
X304972235Y-144691843D01*
X304762191Y-144832191D01*
X304621843Y-145042235D01*
X304572560Y-145290000D01*
X304572560Y-150142560D01*
X293467440Y-150142560D01*
X293467440Y-145290000D01*
X293418157Y-145042235D01*
X293277809Y-144832191D01*
X293067765Y-144691843D01*
X292820000Y-144642560D01*
X291820000Y-144642560D01*
X291572235Y-144691843D01*
X291362191Y-144832191D01*
X291221843Y-145042235D01*
X291172560Y-145290000D01*
X287817440Y-145290000D01*
X287768157Y-145042235D01*
X287627809Y-144832191D01*
X287417765Y-144691843D01*
X287170000Y-144642560D01*
X286170000Y-144642560D01*
X285922235Y-144691843D01*
X285712191Y-144832191D01*
X285571843Y-145042235D01*
X285522560Y-145290000D01*
X285522560Y-150142560D01*
X274417440Y-150142560D01*
X274417440Y-145290000D01*
X274368157Y-145042235D01*
X274227809Y-144832191D01*
X274017765Y-144691843D01*
X273770000Y-144642560D01*
X272770000Y-144642560D01*
X272522235Y-144691843D01*
X272312191Y-144832191D01*
X272171843Y-145042235D01*
X272122560Y-145290000D01*
X272122560Y-151790000D01*
X272171843Y-152037765D01*
X272227472Y-152121019D01*
X271912608Y-151806155D01*
X271898171Y-151800175D01*
X271894647Y-151794257D01*
X271418517Y-151601496D01*
X270944134Y-151405000D01*
X270933162Y-151405000D01*
X270922988Y-151400881D01*
X270409345Y-151405000D01*
X269895866Y-151405000D01*
X269885729Y-151409199D01*
X269874753Y-151409287D01*
X268945353Y-151794257D01*
X268941829Y-151800175D01*
X268927392Y-151806155D01*
X268723713Y-152009834D01*
X268767440Y-151790000D01*
X268767440Y-145290000D01*
X268718157Y-145042235D01*
X268577809Y-144832191D01*
X268367765Y-144691843D01*
X268120000Y-144642560D01*
X267120000Y-144642560D01*
X266872235Y-144691843D01*
X266662191Y-144832191D01*
X266521843Y-145042235D01*
X266472560Y-145290000D01*
X266472560Y-150142560D01*
X255367440Y-150142560D01*
X255367440Y-145290000D01*
X255318157Y-145042235D01*
X255177809Y-144832191D01*
X254967765Y-144691843D01*
X254720000Y-144642560D01*
X253720000Y-144642560D01*
X253472235Y-144691843D01*
X253262191Y-144832191D01*
X253121843Y-145042235D01*
X253072560Y-145290000D01*
X252055000Y-145290000D01*
X252055000Y-137390000D01*
X253072560Y-137390000D01*
X253072560Y-143890000D01*
X253121843Y-144137765D01*
X253262191Y-144347809D01*
X253472235Y-144488157D01*
X253720000Y-144537440D01*
X254720000Y-144537440D01*
X254967765Y-144488157D01*
X255177809Y-144347809D01*
X255318157Y-144137765D01*
X255367440Y-143890000D01*
X255367440Y-139037440D01*
X266472560Y-139037440D01*
X266472560Y-143890000D01*
X266521843Y-144137765D01*
X266662191Y-144347809D01*
X266872235Y-144488157D01*
X267120000Y-144537440D01*
X268120000Y-144537440D01*
X268367765Y-144488157D01*
X268577809Y-144347809D01*
X268718157Y-144137765D01*
X268767440Y-143890000D01*
X268767440Y-137390000D01*
X272122560Y-137390000D01*
X272122560Y-143890000D01*
X272171843Y-144137765D01*
X272312191Y-144347809D01*
X272522235Y-144488157D01*
X272770000Y-144537440D01*
X273770000Y-144537440D01*
X274017765Y-144488157D01*
X274227809Y-144347809D01*
X274368157Y-144137765D01*
X274417440Y-143890000D01*
X274417440Y-139037440D01*
X285522560Y-139037440D01*
X285522560Y-143890000D01*
X285571843Y-144137765D01*
X285712191Y-144347809D01*
X285922235Y-144488157D01*
X286170000Y-144537440D01*
X287170000Y-144537440D01*
X287417765Y-144488157D01*
X287627809Y-144347809D01*
X287768157Y-144137765D01*
X287817440Y-143890000D01*
X287817440Y-137390000D01*
X291172560Y-137390000D01*
X291172560Y-143890000D01*
X291221843Y-144137765D01*
X291362191Y-144347809D01*
X291572235Y-144488157D01*
X291820000Y-144537440D01*
X292820000Y-144537440D01*
X293067765Y-144488157D01*
X293277809Y-144347809D01*
X293418157Y-144137765D01*
X293467440Y-143890000D01*
X293467440Y-139037440D01*
X304572560Y-139037440D01*
X304572560Y-143890000D01*
X304621843Y-144137765D01*
X304762191Y-144347809D01*
X304972235Y-144488157D01*
X305220000Y-144537440D01*
X306220000Y-144537440D01*
X306467765Y-144488157D01*
X306677809Y-144347809D01*
X306818157Y-144137765D01*
X306867440Y-143890000D01*
X306867440Y-137390000D01*
X310222560Y-137390000D01*
X310222560Y-143890000D01*
X310271843Y-144137765D01*
X310412191Y-144347809D01*
X310622235Y-144488157D01*
X310870000Y-144537440D01*
X311870000Y-144537440D01*
X312117765Y-144488157D01*
X312327809Y-144347809D01*
X312468157Y-144137765D01*
X312517440Y-143890000D01*
X312517440Y-139037440D01*
X323622560Y-139037440D01*
X323622560Y-143890000D01*
X323671843Y-144137765D01*
X323812191Y-144347809D01*
X324022235Y-144488157D01*
X324270000Y-144537440D01*
X325270000Y-144537440D01*
X325517765Y-144488157D01*
X325727809Y-144347809D01*
X325868157Y-144137765D01*
X325917440Y-143890000D01*
X325917440Y-137390000D01*
X325868157Y-137142235D01*
X325727809Y-136932191D01*
X325517765Y-136791843D01*
X325270000Y-136742560D01*
X310870000Y-136742560D01*
X310622235Y-136791843D01*
X310412191Y-136932191D01*
X310271843Y-137142235D01*
X310222560Y-137390000D01*
X306867440Y-137390000D01*
X306818157Y-137142235D01*
X306677809Y-136932191D01*
X306467765Y-136791843D01*
X306220000Y-136742560D01*
X291820000Y-136742560D01*
X291572235Y-136791843D01*
X291362191Y-136932191D01*
X291221843Y-137142235D01*
X291172560Y-137390000D01*
X287817440Y-137390000D01*
X287768157Y-137142235D01*
X287627809Y-136932191D01*
X287417765Y-136791843D01*
X287170000Y-136742560D01*
X272770000Y-136742560D01*
X272522235Y-136791843D01*
X272312191Y-136932191D01*
X272171843Y-137142235D01*
X272122560Y-137390000D01*
X268767440Y-137390000D01*
X268718157Y-137142235D01*
X268577809Y-136932191D01*
X268367765Y-136791843D01*
X268120000Y-136742560D01*
X253720000Y-136742560D01*
X253472235Y-136791843D01*
X253262191Y-136932191D01*
X253121843Y-137142235D01*
X253072560Y-137390000D01*
X252055000Y-137390000D01*
X252055000Y-126240000D01*
X253072560Y-126240000D01*
X253072560Y-132740000D01*
X253121843Y-132987765D01*
X253262191Y-133197809D01*
X253472235Y-133338157D01*
X253720000Y-133387440D01*
X268120000Y-133387440D01*
X268367765Y-133338157D01*
X268577809Y-133197809D01*
X268718157Y-132987765D01*
X268767440Y-132740000D01*
X268767440Y-126240000D01*
X272122560Y-126240000D01*
X272122560Y-132740000D01*
X272171843Y-132987765D01*
X272312191Y-133197809D01*
X272522235Y-133338157D01*
X272770000Y-133387440D01*
X287170000Y-133387440D01*
X287417765Y-133338157D01*
X287627809Y-133197809D01*
X287768157Y-132987765D01*
X287817440Y-132740000D01*
X287817440Y-126240000D01*
X291172560Y-126240000D01*
X291172560Y-132740000D01*
X291221843Y-132987765D01*
X291362191Y-133197809D01*
X291572235Y-133338157D01*
X291820000Y-133387440D01*
X306220000Y-133387440D01*
X306467765Y-133338157D01*
X306677809Y-133197809D01*
X306818157Y-132987765D01*
X306867440Y-132740000D01*
X306867440Y-126240000D01*
X310222560Y-126240000D01*
X310222560Y-132740000D01*
X310271843Y-132987765D01*
X310412191Y-133197809D01*
X310622235Y-133338157D01*
X310870000Y-133387440D01*
X325270000Y-133387440D01*
X325517765Y-133338157D01*
X325727809Y-133197809D01*
X325868157Y-132987765D01*
X325917440Y-132740000D01*
X325917440Y-126240000D01*
X325868157Y-125992235D01*
X325727809Y-125782191D01*
X325517765Y-125641843D01*
X325270000Y-125592560D01*
X324270000Y-125592560D01*
X324022235Y-125641843D01*
X323812191Y-125782191D01*
X323671843Y-125992235D01*
X323622560Y-126240000D01*
X323622560Y-131092560D01*
X312517440Y-131092560D01*
X312517440Y-126240000D01*
X312468157Y-125992235D01*
X312327809Y-125782191D01*
X312117765Y-125641843D01*
X311870000Y-125592560D01*
X310870000Y-125592560D01*
X310622235Y-125641843D01*
X310412191Y-125782191D01*
X310271843Y-125992235D01*
X310222560Y-126240000D01*
X306867440Y-126240000D01*
X306818157Y-125992235D01*
X306677809Y-125782191D01*
X306467765Y-125641843D01*
X306220000Y-125592560D01*
X305220000Y-125592560D01*
X304972235Y-125641843D01*
X304762191Y-125782191D01*
X304621843Y-125992235D01*
X304572560Y-126240000D01*
X304572560Y-131092560D01*
X293467440Y-131092560D01*
X293467440Y-126240000D01*
X293418157Y-125992235D01*
X293277809Y-125782191D01*
X293067765Y-125641843D01*
X292820000Y-125592560D01*
X291820000Y-125592560D01*
X291572235Y-125641843D01*
X291362191Y-125782191D01*
X291221843Y-125992235D01*
X291172560Y-126240000D01*
X287817440Y-126240000D01*
X287768157Y-125992235D01*
X287627809Y-125782191D01*
X287417765Y-125641843D01*
X287170000Y-125592560D01*
X286170000Y-125592560D01*
X285922235Y-125641843D01*
X285712191Y-125782191D01*
X285571843Y-125992235D01*
X285522560Y-126240000D01*
X285522560Y-131092560D01*
X274417440Y-131092560D01*
X274417440Y-126240000D01*
X274368157Y-125992235D01*
X274227809Y-125782191D01*
X274017765Y-125641843D01*
X273770000Y-125592560D01*
X272770000Y-125592560D01*
X272522235Y-125641843D01*
X272312191Y-125782191D01*
X272171843Y-125992235D01*
X272122560Y-126240000D01*
X268767440Y-126240000D01*
X268718157Y-125992235D01*
X268577809Y-125782191D01*
X268367765Y-125641843D01*
X268120000Y-125592560D01*
X267120000Y-125592560D01*
X266872235Y-125641843D01*
X266662191Y-125782191D01*
X266521843Y-125992235D01*
X266472560Y-126240000D01*
X266472560Y-131092560D01*
X255367440Y-131092560D01*
X255367440Y-126240000D01*
X255318157Y-125992235D01*
X255177809Y-125782191D01*
X254967765Y-125641843D01*
X254720000Y-125592560D01*
X253720000Y-125592560D01*
X253472235Y-125641843D01*
X253262191Y-125782191D01*
X253121843Y-125992235D01*
X253072560Y-126240000D01*
X252055000Y-126240000D01*
X252055000Y-107190000D01*
X253072560Y-107190000D01*
X253072560Y-113690000D01*
X253121843Y-113937765D01*
X253262191Y-114147809D01*
X253472235Y-114288157D01*
X253720000Y-114337440D01*
X263533607Y-114337440D01*
X263423655Y-114447392D01*
X263417675Y-114461829D01*
X263411757Y-114465353D01*
X263218996Y-114941483D01*
X263022500Y-115415866D01*
X263022500Y-115426838D01*
X263018381Y-115437012D01*
X263022500Y-115950655D01*
X263022500Y-116464134D01*
X263026699Y-116474271D01*
X263026787Y-116485247D01*
X263411757Y-117414647D01*
X263417675Y-117418171D01*
X263423655Y-117432608D01*
X263683607Y-117692560D01*
X253720000Y-117692560D01*
X253472235Y-117741843D01*
X253262191Y-117882191D01*
X253121843Y-118092235D01*
X253072560Y-118340000D01*
X253072560Y-124840000D01*
X253121843Y-125087765D01*
X253262191Y-125297809D01*
X253472235Y-125438157D01*
X253720000Y-125487440D01*
X254720000Y-125487440D01*
X254967765Y-125438157D01*
X255177809Y-125297809D01*
X255318157Y-125087765D01*
X255367440Y-124840000D01*
X255367440Y-119987440D01*
X266472560Y-119987440D01*
X266472560Y-124840000D01*
X266521843Y-125087765D01*
X266662191Y-125297809D01*
X266872235Y-125438157D01*
X267120000Y-125487440D01*
X268120000Y-125487440D01*
X268367765Y-125438157D01*
X268577809Y-125297809D01*
X268718157Y-125087765D01*
X268767440Y-124840000D01*
X268767440Y-118340000D01*
X272122560Y-118340000D01*
X272122560Y-124840000D01*
X272171843Y-125087765D01*
X272312191Y-125297809D01*
X272522235Y-125438157D01*
X272770000Y-125487440D01*
X273770000Y-125487440D01*
X274017765Y-125438157D01*
X274227809Y-125297809D01*
X274368157Y-125087765D01*
X274417440Y-124840000D01*
X274417440Y-119987440D01*
X285522560Y-119987440D01*
X285522560Y-124840000D01*
X285571843Y-125087765D01*
X285712191Y-125297809D01*
X285922235Y-125438157D01*
X286170000Y-125487440D01*
X287170000Y-125487440D01*
X287417765Y-125438157D01*
X287627809Y-125297809D01*
X287768157Y-125087765D01*
X287817440Y-124840000D01*
X287817440Y-118340000D01*
X291172560Y-118340000D01*
X291172560Y-124840000D01*
X291221843Y-125087765D01*
X291362191Y-125297809D01*
X291572235Y-125438157D01*
X291820000Y-125487440D01*
X292820000Y-125487440D01*
X293067765Y-125438157D01*
X293277809Y-125297809D01*
X293418157Y-125087765D01*
X293467440Y-124840000D01*
X293467440Y-119987440D01*
X304572560Y-119987440D01*
X304572560Y-124840000D01*
X304621843Y-125087765D01*
X304762191Y-125297809D01*
X304972235Y-125438157D01*
X305220000Y-125487440D01*
X306220000Y-125487440D01*
X306467765Y-125438157D01*
X306677809Y-125297809D01*
X306818157Y-125087765D01*
X306867440Y-124840000D01*
X306867440Y-118340000D01*
X306818157Y-118092235D01*
X306677809Y-117882191D01*
X306467765Y-117741843D01*
X306220000Y-117692560D01*
X291820000Y-117692560D01*
X291572235Y-117741843D01*
X291362191Y-117882191D01*
X291221843Y-118092235D01*
X291172560Y-118340000D01*
X287817440Y-118340000D01*
X287768157Y-118092235D01*
X287627809Y-117882191D01*
X287417765Y-117741843D01*
X287170000Y-117692560D01*
X272770000Y-117692560D01*
X272522235Y-117741843D01*
X272312191Y-117882191D01*
X272171843Y-118092235D01*
X272122560Y-118340000D01*
X268767440Y-118340000D01*
X268718157Y-118092235D01*
X268577809Y-117882191D01*
X268367765Y-117741843D01*
X268120000Y-117692560D01*
X267631393Y-117692560D01*
X267891345Y-117432608D01*
X267897325Y-117418171D01*
X267903243Y-117414647D01*
X268096004Y-116938517D01*
X268292500Y-116464134D01*
X268292500Y-116453162D01*
X268296619Y-116442988D01*
X268292500Y-115929345D01*
X268292500Y-115415866D01*
X268288301Y-115405729D01*
X268288213Y-115394753D01*
X267903243Y-114465353D01*
X267897325Y-114461829D01*
X267891345Y-114447392D01*
X267781393Y-114337440D01*
X268120000Y-114337440D01*
X268367765Y-114288157D01*
X268577809Y-114147809D01*
X268718157Y-113937765D01*
X268767440Y-113690000D01*
X268767440Y-107190000D01*
X272122560Y-107190000D01*
X272122560Y-113690000D01*
X272171843Y-113937765D01*
X272312191Y-114147809D01*
X272522235Y-114288157D01*
X272770000Y-114337440D01*
X287170000Y-114337440D01*
X287417765Y-114288157D01*
X287627809Y-114147809D01*
X287768157Y-113937765D01*
X287817440Y-113690000D01*
X287817440Y-107190000D01*
X291172560Y-107190000D01*
X291172560Y-113690000D01*
X291221843Y-113937765D01*
X291362191Y-114147809D01*
X291572235Y-114288157D01*
X291820000Y-114337440D01*
X306220000Y-114337440D01*
X306439834Y-114293713D01*
X306286155Y-114447392D01*
X306280175Y-114461829D01*
X306274257Y-114465353D01*
X306081496Y-114941483D01*
X305885000Y-115415866D01*
X305885000Y-115426838D01*
X305880881Y-115437012D01*
X305885000Y-115950655D01*
X305885000Y-116464134D01*
X305889199Y-116474271D01*
X305889287Y-116485247D01*
X306274257Y-117414647D01*
X306280175Y-117418171D01*
X306286155Y-117432608D01*
X307027392Y-118173845D01*
X307041829Y-118179825D01*
X307045353Y-118185743D01*
X307521483Y-118378504D01*
X307995866Y-118575000D01*
X308006838Y-118575000D01*
X308017012Y-118579119D01*
X308530655Y-118575000D01*
X309044134Y-118575000D01*
X309054271Y-118570801D01*
X309065247Y-118570713D01*
X309622237Y-118340000D01*
X310222560Y-118340000D01*
X310222560Y-124840000D01*
X310271843Y-125087765D01*
X310412191Y-125297809D01*
X310622235Y-125438157D01*
X310870000Y-125487440D01*
X311870000Y-125487440D01*
X312117765Y-125438157D01*
X312327809Y-125297809D01*
X312468157Y-125087765D01*
X312517440Y-124840000D01*
X312517440Y-119987440D01*
X323622560Y-119987440D01*
X323622560Y-124840000D01*
X323671843Y-125087765D01*
X323812191Y-125297809D01*
X324022235Y-125438157D01*
X324270000Y-125487440D01*
X325270000Y-125487440D01*
X325517765Y-125438157D01*
X325727809Y-125297809D01*
X325868157Y-125087765D01*
X325917440Y-124840000D01*
X325917440Y-118340000D01*
X325868157Y-118092235D01*
X325727809Y-117882191D01*
X325517765Y-117741843D01*
X325270000Y-117692560D01*
X310870000Y-117692560D01*
X310622235Y-117741843D01*
X310412191Y-117882191D01*
X310271843Y-118092235D01*
X310222560Y-118340000D01*
X309622237Y-118340000D01*
X309994647Y-118185743D01*
X309998171Y-118179825D01*
X310012608Y-118173845D01*
X310753845Y-117432608D01*
X310759825Y-117418171D01*
X310765743Y-117414647D01*
X310958504Y-116938517D01*
X311155000Y-116464134D01*
X311155000Y-116453162D01*
X311159119Y-116442988D01*
X311155000Y-115929345D01*
X311155000Y-115415866D01*
X311150801Y-115405729D01*
X311150713Y-115394753D01*
X310765743Y-114465353D01*
X310759825Y-114461829D01*
X310753845Y-114447392D01*
X310538981Y-114232528D01*
X310622235Y-114288157D01*
X310870000Y-114337440D01*
X325270000Y-114337440D01*
X325517765Y-114288157D01*
X325727809Y-114147809D01*
X325868157Y-113937765D01*
X325917440Y-113690000D01*
X325917440Y-107190000D01*
X325868157Y-106942235D01*
X325727809Y-106732191D01*
X325517765Y-106591843D01*
X325270000Y-106542560D01*
X324270000Y-106542560D01*
X324022235Y-106591843D01*
X323812191Y-106732191D01*
X323671843Y-106942235D01*
X323622560Y-107190000D01*
X323622560Y-112042560D01*
X312517440Y-112042560D01*
X312517440Y-107190000D01*
X312468157Y-106942235D01*
X312327809Y-106732191D01*
X312117765Y-106591843D01*
X311870000Y-106542560D01*
X310870000Y-106542560D01*
X310622235Y-106591843D01*
X310412191Y-106732191D01*
X310271843Y-106942235D01*
X310222560Y-107190000D01*
X310222560Y-113690000D01*
X310271843Y-113937765D01*
X310327472Y-114021019D01*
X310012608Y-113706155D01*
X309998171Y-113700175D01*
X309994647Y-113694257D01*
X309518517Y-113501496D01*
X309044134Y-113305000D01*
X309033162Y-113305000D01*
X309022988Y-113300881D01*
X308509345Y-113305000D01*
X307995866Y-113305000D01*
X307985729Y-113309199D01*
X307974753Y-113309287D01*
X307045353Y-113694257D01*
X307041829Y-113700175D01*
X307027392Y-113706155D01*
X306823713Y-113909834D01*
X306867440Y-113690000D01*
X306867440Y-107190000D01*
X306818157Y-106942235D01*
X306677809Y-106732191D01*
X306467765Y-106591843D01*
X306220000Y-106542560D01*
X305220000Y-106542560D01*
X304972235Y-106591843D01*
X304762191Y-106732191D01*
X304621843Y-106942235D01*
X304572560Y-107190000D01*
X304572560Y-112042560D01*
X293467440Y-112042560D01*
X293467440Y-107190000D01*
X293418157Y-106942235D01*
X293277809Y-106732191D01*
X293067765Y-106591843D01*
X292820000Y-106542560D01*
X291820000Y-106542560D01*
X291572235Y-106591843D01*
X291362191Y-106732191D01*
X291221843Y-106942235D01*
X291172560Y-107190000D01*
X287817440Y-107190000D01*
X287768157Y-106942235D01*
X287627809Y-106732191D01*
X287417765Y-106591843D01*
X287170000Y-106542560D01*
X286170000Y-106542560D01*
X285922235Y-106591843D01*
X285712191Y-106732191D01*
X285571843Y-106942235D01*
X285522560Y-107190000D01*
X285522560Y-112042560D01*
X274417440Y-112042560D01*
X274417440Y-107190000D01*
X274368157Y-106942235D01*
X274227809Y-106732191D01*
X274017765Y-106591843D01*
X273770000Y-106542560D01*
X272770000Y-106542560D01*
X272522235Y-106591843D01*
X272312191Y-106732191D01*
X272171843Y-106942235D01*
X272122560Y-107190000D01*
X268767440Y-107190000D01*
X268718157Y-106942235D01*
X268577809Y-106732191D01*
X268367765Y-106591843D01*
X268120000Y-106542560D01*
X267120000Y-106542560D01*
X266872235Y-106591843D01*
X266662191Y-106732191D01*
X266521843Y-106942235D01*
X266472560Y-107190000D01*
X266472560Y-112042560D01*
X255367440Y-112042560D01*
X255367440Y-107190000D01*
X255318157Y-106942235D01*
X255177809Y-106732191D01*
X254967765Y-106591843D01*
X254720000Y-106542560D01*
X253720000Y-106542560D01*
X253472235Y-106591843D01*
X253262191Y-106732191D01*
X253121843Y-106942235D01*
X253072560Y-107190000D01*
X252055000Y-107190000D01*
X252055000Y-99290000D01*
X253072560Y-99290000D01*
X253072560Y-105790000D01*
X253121843Y-106037765D01*
X253262191Y-106247809D01*
X253472235Y-106388157D01*
X253720000Y-106437440D01*
X254720000Y-106437440D01*
X254967765Y-106388157D01*
X255177809Y-106247809D01*
X255318157Y-106037765D01*
X255367440Y-105790000D01*
X255367440Y-100937440D01*
X266472560Y-100937440D01*
X266472560Y-105790000D01*
X266521843Y-106037765D01*
X266662191Y-106247809D01*
X266872235Y-106388157D01*
X267120000Y-106437440D01*
X268120000Y-106437440D01*
X268367765Y-106388157D01*
X268577809Y-106247809D01*
X268718157Y-106037765D01*
X268767440Y-105790000D01*
X268767440Y-99290000D01*
X272122560Y-99290000D01*
X272122560Y-105790000D01*
X272171843Y-106037765D01*
X272312191Y-106247809D01*
X272522235Y-106388157D01*
X272770000Y-106437440D01*
X273770000Y-106437440D01*
X274017765Y-106388157D01*
X274227809Y-106247809D01*
X274368157Y-106037765D01*
X274417440Y-105790000D01*
X274417440Y-100937440D01*
X285522560Y-100937440D01*
X285522560Y-105790000D01*
X285571843Y-106037765D01*
X285712191Y-106247809D01*
X285922235Y-106388157D01*
X286170000Y-106437440D01*
X287170000Y-106437440D01*
X287417765Y-106388157D01*
X287627809Y-106247809D01*
X287768157Y-106037765D01*
X287817440Y-105790000D01*
X287817440Y-99290000D01*
X291172560Y-99290000D01*
X291172560Y-105790000D01*
X291221843Y-106037765D01*
X291362191Y-106247809D01*
X291572235Y-106388157D01*
X291820000Y-106437440D01*
X292820000Y-106437440D01*
X293067765Y-106388157D01*
X293277809Y-106247809D01*
X293418157Y-106037765D01*
X293467440Y-105790000D01*
X293467440Y-100937440D01*
X304572560Y-100937440D01*
X304572560Y-105790000D01*
X304621843Y-106037765D01*
X304762191Y-106247809D01*
X304972235Y-106388157D01*
X305220000Y-106437440D01*
X306220000Y-106437440D01*
X306467765Y-106388157D01*
X306677809Y-106247809D01*
X306818157Y-106037765D01*
X306867440Y-105790000D01*
X306867440Y-99290000D01*
X310222560Y-99290000D01*
X310222560Y-105790000D01*
X310271843Y-106037765D01*
X310412191Y-106247809D01*
X310622235Y-106388157D01*
X310870000Y-106437440D01*
X311870000Y-106437440D01*
X312117765Y-106388157D01*
X312327809Y-106247809D01*
X312468157Y-106037765D01*
X312517440Y-105790000D01*
X312517440Y-100937440D01*
X323622560Y-100937440D01*
X323622560Y-105790000D01*
X323671843Y-106037765D01*
X323812191Y-106247809D01*
X324022235Y-106388157D01*
X324270000Y-106437440D01*
X325270000Y-106437440D01*
X325517765Y-106388157D01*
X325727809Y-106247809D01*
X325868157Y-106037765D01*
X325917440Y-105790000D01*
X325917440Y-99290000D01*
X325868157Y-99042235D01*
X325727809Y-98832191D01*
X325517765Y-98691843D01*
X325270000Y-98642560D01*
X310870000Y-98642560D01*
X310622235Y-98691843D01*
X310412191Y-98832191D01*
X310271843Y-99042235D01*
X310222560Y-99290000D01*
X306867440Y-99290000D01*
X306818157Y-99042235D01*
X306677809Y-98832191D01*
X306467765Y-98691843D01*
X306220000Y-98642560D01*
X291820000Y-98642560D01*
X291572235Y-98691843D01*
X291362191Y-98832191D01*
X291221843Y-99042235D01*
X291172560Y-99290000D01*
X287817440Y-99290000D01*
X287768157Y-99042235D01*
X287627809Y-98832191D01*
X287417765Y-98691843D01*
X287170000Y-98642560D01*
X272770000Y-98642560D01*
X272522235Y-98691843D01*
X272312191Y-98832191D01*
X272171843Y-99042235D01*
X272122560Y-99290000D01*
X268767440Y-99290000D01*
X268718157Y-99042235D01*
X268577809Y-98832191D01*
X268367765Y-98691843D01*
X268120000Y-98642560D01*
X253720000Y-98642560D01*
X253472235Y-98691843D01*
X253262191Y-98832191D01*
X253121843Y-99042235D01*
X253072560Y-99290000D01*
X252055000Y-99290000D01*
X252055000Y-99184900D01*
X252114036Y-98736475D01*
X252269790Y-98360456D01*
X252517558Y-98037558D01*
X252840458Y-97789788D01*
X253216475Y-97634036D01*
X253664900Y-97575000D01*
X325275100Y-97575000D01*
X325723525Y-97634036D01*
M02*
