G04 #@! TF.GenerationSoftware,KiCad,Pcbnew,(5.0.1)-3*
G04 #@! TF.CreationDate,2020-04-26T02:33:59+05:00*
G04 #@! TF.ProjectId,hybrid_plate,6879627269645F706C6174652E6B6963,rev?*
G04 #@! TF.SameCoordinates,Original*
G04 #@! TF.FileFunction,Soldermask,Top*
G04 #@! TF.FilePolarity,Negative*
%FSLAX46Y46*%
G04 Gerber Fmt 4.6, Leading zero omitted, Abs format (unit mm)*
G04 Created by KiCad (PCBNEW (5.0.1)-3) date 26.04.2020 2:33:59*
%MOMM*%
%LPD*%
G01*
G04 APERTURE LIST*
%ADD10C,0.150000*%
G04 APERTURE END LIST*
D10*
G36*
X311869999Y-164339999D02*
X311869998Y-164339999D01*
X311870000Y-164340000D01*
X311870001Y-164340001D01*
X311870605Y-164346137D01*
X311870605Y-169714395D01*
X311873007Y-169738781D01*
X311880120Y-169762230D01*
X311891671Y-169783841D01*
X311907217Y-169802783D01*
X311926159Y-169818329D01*
X311947770Y-169829880D01*
X311971219Y-169836993D01*
X311995605Y-169839395D01*
X324144395Y-169839395D01*
X324168781Y-169836993D01*
X324192230Y-169829880D01*
X324213841Y-169818329D01*
X324232783Y-169802783D01*
X324248329Y-169783841D01*
X324259880Y-169762230D01*
X324266993Y-169738781D01*
X324269395Y-169714395D01*
X324269395Y-164346137D01*
X324269999Y-164340001D01*
X324270000Y-164340000D01*
X324270002Y-164339999D01*
X324270001Y-164339999D01*
X324276137Y-164339395D01*
X325263863Y-164339395D01*
X325269999Y-164339999D01*
X325269998Y-164339999D01*
X325270000Y-164340000D01*
X325270001Y-164340001D01*
X325270605Y-164346137D01*
X325270605Y-170833863D01*
X325270001Y-170839999D01*
X325269999Y-170840001D01*
X325263863Y-170840605D01*
X310876137Y-170840605D01*
X310870001Y-170840001D01*
X310869999Y-170839999D01*
X310869395Y-170833863D01*
X310869395Y-164346137D01*
X310869999Y-164340001D01*
X310870000Y-164340000D01*
X310870002Y-164339999D01*
X310870001Y-164339999D01*
X310876137Y-164339395D01*
X311863863Y-164339395D01*
X311869999Y-164339999D01*
X311869999Y-164339999D01*
G37*
G36*
X292819999Y-164339999D02*
X292819998Y-164339999D01*
X292820000Y-164340000D01*
X292820001Y-164340001D01*
X292820605Y-164346137D01*
X292820605Y-169714395D01*
X292823007Y-169738781D01*
X292830120Y-169762230D01*
X292841671Y-169783841D01*
X292857217Y-169802783D01*
X292876159Y-169818329D01*
X292897770Y-169829880D01*
X292921219Y-169836993D01*
X292945605Y-169839395D01*
X305094395Y-169839395D01*
X305118781Y-169836993D01*
X305142230Y-169829880D01*
X305163841Y-169818329D01*
X305182783Y-169802783D01*
X305198329Y-169783841D01*
X305209880Y-169762230D01*
X305216993Y-169738781D01*
X305219395Y-169714395D01*
X305219395Y-164346137D01*
X305219999Y-164340001D01*
X305220000Y-164340000D01*
X305220002Y-164339999D01*
X305220001Y-164339999D01*
X305226137Y-164339395D01*
X306213863Y-164339395D01*
X306219999Y-164339999D01*
X306219998Y-164339999D01*
X306220000Y-164340000D01*
X306220001Y-164340001D01*
X306220605Y-164346137D01*
X306220605Y-170833863D01*
X306220001Y-170839999D01*
X306219999Y-170840001D01*
X306213863Y-170840605D01*
X291826137Y-170840605D01*
X291820001Y-170840001D01*
X291819999Y-170839999D01*
X291819395Y-170833863D01*
X291819395Y-164346137D01*
X291819999Y-164340001D01*
X291820000Y-164340000D01*
X291820002Y-164339999D01*
X291820001Y-164339999D01*
X291826137Y-164339395D01*
X292813863Y-164339395D01*
X292819999Y-164339999D01*
X292819999Y-164339999D01*
G37*
G36*
X273769999Y-164339999D02*
X273769998Y-164339999D01*
X273770000Y-164340000D01*
X273770001Y-164340001D01*
X273770605Y-164346137D01*
X273770605Y-169714395D01*
X273773007Y-169738781D01*
X273780120Y-169762230D01*
X273791671Y-169783841D01*
X273807217Y-169802783D01*
X273826159Y-169818329D01*
X273847770Y-169829880D01*
X273871219Y-169836993D01*
X273895605Y-169839395D01*
X286044395Y-169839395D01*
X286068781Y-169836993D01*
X286092230Y-169829880D01*
X286113841Y-169818329D01*
X286132783Y-169802783D01*
X286148329Y-169783841D01*
X286159880Y-169762230D01*
X286166993Y-169738781D01*
X286169395Y-169714395D01*
X286169395Y-164346137D01*
X286169999Y-164340001D01*
X286170000Y-164340000D01*
X286170002Y-164339999D01*
X286170001Y-164339999D01*
X286176137Y-164339395D01*
X287163863Y-164339395D01*
X287169999Y-164339999D01*
X287169998Y-164339999D01*
X287170000Y-164340000D01*
X287170001Y-164340001D01*
X287170605Y-164346137D01*
X287170605Y-170833863D01*
X287170001Y-170839999D01*
X287169999Y-170840001D01*
X287163863Y-170840605D01*
X272776137Y-170840605D01*
X272770001Y-170840001D01*
X272769999Y-170839999D01*
X272769395Y-170833863D01*
X272769395Y-164346137D01*
X272769999Y-164340001D01*
X272770000Y-164340000D01*
X272770002Y-164339999D01*
X272770001Y-164339999D01*
X272776137Y-164339395D01*
X273763863Y-164339395D01*
X273769999Y-164339999D01*
X273769999Y-164339999D01*
G37*
G36*
X254719999Y-164339999D02*
X254719998Y-164339999D01*
X254720000Y-164340000D01*
X254720001Y-164340001D01*
X254720605Y-164346137D01*
X254720605Y-169714395D01*
X254723007Y-169738781D01*
X254730120Y-169762230D01*
X254741671Y-169783841D01*
X254757217Y-169802783D01*
X254776159Y-169818329D01*
X254797770Y-169829880D01*
X254821219Y-169836993D01*
X254845605Y-169839395D01*
X266994395Y-169839395D01*
X267018781Y-169836993D01*
X267042230Y-169829880D01*
X267063841Y-169818329D01*
X267082783Y-169802783D01*
X267098329Y-169783841D01*
X267109880Y-169762230D01*
X267116993Y-169738781D01*
X267119395Y-169714395D01*
X267119395Y-164346137D01*
X267119999Y-164340001D01*
X267120001Y-164339999D01*
X267126137Y-164339395D01*
X268113863Y-164339395D01*
X268119999Y-164339999D01*
X268119998Y-164339999D01*
X268120000Y-164340000D01*
X268120001Y-164340001D01*
X268120605Y-164346137D01*
X268120605Y-170833863D01*
X268120001Y-170839999D01*
X268119999Y-170840001D01*
X268113863Y-170840605D01*
X253726137Y-170840605D01*
X253720001Y-170840001D01*
X253719999Y-170839999D01*
X253719395Y-170833863D01*
X253719395Y-164346137D01*
X253719999Y-164340001D01*
X253720001Y-164339999D01*
X253726137Y-164339395D01*
X254713863Y-164339395D01*
X254719999Y-164339999D01*
X254719999Y-164339999D01*
G37*
G36*
X325269999Y-156439999D02*
X325269998Y-156439999D01*
X325270000Y-156440000D01*
X325270001Y-156440001D01*
X325270605Y-156446137D01*
X325270605Y-162933863D01*
X325270001Y-162939999D01*
X325269999Y-162940001D01*
X325263863Y-162940605D01*
X324276137Y-162940605D01*
X324270001Y-162940001D01*
X324269999Y-162939999D01*
X324269395Y-162933863D01*
X324269395Y-157565605D01*
X324266993Y-157541219D01*
X324259880Y-157517770D01*
X324248329Y-157496159D01*
X324232783Y-157477217D01*
X324213841Y-157461671D01*
X324192230Y-157450120D01*
X324168781Y-157443007D01*
X324144395Y-157440605D01*
X311995605Y-157440605D01*
X311971219Y-157443007D01*
X311947770Y-157450120D01*
X311926159Y-157461671D01*
X311907217Y-157477217D01*
X311891671Y-157496159D01*
X311880120Y-157517770D01*
X311873007Y-157541219D01*
X311870605Y-157565605D01*
X311870605Y-162933863D01*
X311870001Y-162939999D01*
X311869999Y-162940001D01*
X311863863Y-162940605D01*
X310876137Y-162940605D01*
X310870001Y-162940001D01*
X310869999Y-162939999D01*
X310869395Y-162933863D01*
X310869395Y-156446137D01*
X310869999Y-156440001D01*
X310870000Y-156440000D01*
X310870002Y-156439999D01*
X310870001Y-156439999D01*
X310876137Y-156439395D01*
X325263863Y-156439395D01*
X325269999Y-156439999D01*
X325269999Y-156439999D01*
G37*
G36*
X306219999Y-156439999D02*
X306219998Y-156439999D01*
X306220000Y-156440000D01*
X306220001Y-156440001D01*
X306220605Y-156446137D01*
X306220605Y-162933863D01*
X306220001Y-162939999D01*
X306219999Y-162940001D01*
X306213863Y-162940605D01*
X305226137Y-162940605D01*
X305220001Y-162940001D01*
X305219999Y-162939999D01*
X305219395Y-162933863D01*
X305219395Y-157565605D01*
X305216993Y-157541219D01*
X305209880Y-157517770D01*
X305198329Y-157496159D01*
X305182783Y-157477217D01*
X305163841Y-157461671D01*
X305142230Y-157450120D01*
X305118781Y-157443007D01*
X305094395Y-157440605D01*
X292945605Y-157440605D01*
X292921219Y-157443007D01*
X292897770Y-157450120D01*
X292876159Y-157461671D01*
X292857217Y-157477217D01*
X292841671Y-157496159D01*
X292830120Y-157517770D01*
X292823007Y-157541219D01*
X292820605Y-157565605D01*
X292820605Y-162933863D01*
X292820001Y-162939999D01*
X292819999Y-162940001D01*
X292813863Y-162940605D01*
X291826137Y-162940605D01*
X291820001Y-162940001D01*
X291819999Y-162939999D01*
X291819395Y-162933863D01*
X291819395Y-156446137D01*
X291819999Y-156440001D01*
X291820000Y-156440000D01*
X291820002Y-156439999D01*
X291820001Y-156439999D01*
X291826137Y-156439395D01*
X306213863Y-156439395D01*
X306219999Y-156439999D01*
X306219999Y-156439999D01*
G37*
G36*
X287169999Y-156439999D02*
X287169998Y-156439999D01*
X287170000Y-156440000D01*
X287170001Y-156440001D01*
X287170605Y-156446137D01*
X287170605Y-162933863D01*
X287170001Y-162939999D01*
X287169999Y-162940001D01*
X287163863Y-162940605D01*
X286176137Y-162940605D01*
X286170001Y-162940001D01*
X286169999Y-162939999D01*
X286169395Y-162933863D01*
X286169395Y-157565605D01*
X286166993Y-157541219D01*
X286159880Y-157517770D01*
X286148329Y-157496159D01*
X286132783Y-157477217D01*
X286113841Y-157461671D01*
X286092230Y-157450120D01*
X286068781Y-157443007D01*
X286044395Y-157440605D01*
X273895605Y-157440605D01*
X273871219Y-157443007D01*
X273847770Y-157450120D01*
X273826159Y-157461671D01*
X273807217Y-157477217D01*
X273791671Y-157496159D01*
X273780120Y-157517770D01*
X273773007Y-157541219D01*
X273770605Y-157565605D01*
X273770605Y-162933863D01*
X273770001Y-162939999D01*
X273769999Y-162940001D01*
X273763863Y-162940605D01*
X272776137Y-162940605D01*
X272770001Y-162940001D01*
X272769999Y-162939999D01*
X272769395Y-162933863D01*
X272769395Y-156446137D01*
X272769999Y-156440001D01*
X272770000Y-156440000D01*
X272770002Y-156439999D01*
X272770001Y-156439999D01*
X272776137Y-156439395D01*
X287163863Y-156439395D01*
X287169999Y-156439999D01*
X287169999Y-156439999D01*
G37*
G36*
X268119999Y-156439999D02*
X268119998Y-156439999D01*
X268120000Y-156440000D01*
X268120001Y-156440001D01*
X268120605Y-156446137D01*
X268120605Y-162933863D01*
X268120001Y-162939999D01*
X268119999Y-162940001D01*
X268113863Y-162940605D01*
X267126137Y-162940605D01*
X267120001Y-162940001D01*
X267119999Y-162939999D01*
X267119395Y-162933863D01*
X267119395Y-157565605D01*
X267116993Y-157541219D01*
X267109880Y-157517770D01*
X267098329Y-157496159D01*
X267082783Y-157477217D01*
X267063841Y-157461671D01*
X267042230Y-157450120D01*
X267018781Y-157443007D01*
X266994395Y-157440605D01*
X254845605Y-157440605D01*
X254821219Y-157443007D01*
X254797770Y-157450120D01*
X254776159Y-157461671D01*
X254757217Y-157477217D01*
X254741671Y-157496159D01*
X254730120Y-157517770D01*
X254723007Y-157541219D01*
X254720605Y-157565605D01*
X254720605Y-162933863D01*
X254720001Y-162939999D01*
X254719999Y-162940001D01*
X254713863Y-162940605D01*
X253726137Y-162940605D01*
X253720001Y-162940001D01*
X253719999Y-162939999D01*
X253719395Y-162933863D01*
X253719395Y-156446137D01*
X253719999Y-156440001D01*
X253720001Y-156439999D01*
X253726137Y-156439395D01*
X268113863Y-156439395D01*
X268119999Y-156439999D01*
X268119999Y-156439999D01*
G37*
G36*
X309103378Y-152116859D02*
X309467354Y-152267622D01*
X309794929Y-152486501D01*
X310073499Y-152765071D01*
X310292378Y-153092646D01*
X310443141Y-153456622D01*
X310520000Y-153843016D01*
X310520000Y-154236984D01*
X310443141Y-154623378D01*
X310292378Y-154987354D01*
X310073499Y-155314929D01*
X309794929Y-155593499D01*
X309467354Y-155812378D01*
X309103378Y-155963141D01*
X308716984Y-156040000D01*
X308323016Y-156040000D01*
X307936622Y-155963141D01*
X307572646Y-155812378D01*
X307245071Y-155593499D01*
X306966501Y-155314929D01*
X306747622Y-154987354D01*
X306596859Y-154623378D01*
X306520000Y-154236984D01*
X306520000Y-153843016D01*
X306596859Y-153456622D01*
X306747622Y-153092646D01*
X306966501Y-152765071D01*
X307245071Y-152486501D01*
X307572646Y-152267622D01*
X307936622Y-152116859D01*
X308323016Y-152040000D01*
X308716984Y-152040000D01*
X309103378Y-152116859D01*
X309103378Y-152116859D01*
G37*
G36*
X271003378Y-152116859D02*
X271367354Y-152267622D01*
X271694929Y-152486501D01*
X271973499Y-152765071D01*
X272192378Y-153092646D01*
X272343141Y-153456622D01*
X272420000Y-153843016D01*
X272420000Y-154236984D01*
X272343141Y-154623378D01*
X272192378Y-154987354D01*
X271973499Y-155314929D01*
X271694929Y-155593499D01*
X271367354Y-155812378D01*
X271003378Y-155963141D01*
X270616984Y-156040000D01*
X270223016Y-156040000D01*
X269836622Y-155963141D01*
X269472646Y-155812378D01*
X269145071Y-155593499D01*
X268866501Y-155314929D01*
X268647622Y-154987354D01*
X268496859Y-154623378D01*
X268420000Y-154236984D01*
X268420000Y-153843016D01*
X268496859Y-153456622D01*
X268647622Y-153092646D01*
X268866501Y-152765071D01*
X269145071Y-152486501D01*
X269472646Y-152267622D01*
X269836622Y-152116859D01*
X270223016Y-152040000D01*
X270616984Y-152040000D01*
X271003378Y-152116859D01*
X271003378Y-152116859D01*
G37*
G36*
X292819999Y-145289999D02*
X292819998Y-145289999D01*
X292820000Y-145290000D01*
X292820001Y-145290001D01*
X292820605Y-145296137D01*
X292820605Y-150664395D01*
X292823007Y-150688781D01*
X292830120Y-150712230D01*
X292841671Y-150733841D01*
X292857217Y-150752783D01*
X292876159Y-150768329D01*
X292897770Y-150779880D01*
X292921219Y-150786993D01*
X292945605Y-150789395D01*
X305094395Y-150789395D01*
X305118781Y-150786993D01*
X305142230Y-150779880D01*
X305163841Y-150768329D01*
X305182783Y-150752783D01*
X305198329Y-150733841D01*
X305209880Y-150712230D01*
X305216993Y-150688781D01*
X305219395Y-150664395D01*
X305219395Y-145296137D01*
X305219999Y-145290001D01*
X305220000Y-145290000D01*
X305220002Y-145289999D01*
X305220001Y-145289999D01*
X305226137Y-145289395D01*
X306213863Y-145289395D01*
X306219999Y-145289999D01*
X306219998Y-145289999D01*
X306220000Y-145290000D01*
X306220001Y-145290001D01*
X306220605Y-145296137D01*
X306220605Y-151783863D01*
X306220001Y-151789999D01*
X306219999Y-151790001D01*
X306213863Y-151790605D01*
X291826137Y-151790605D01*
X291820001Y-151790001D01*
X291819999Y-151789999D01*
X291819395Y-151783863D01*
X291819395Y-145296137D01*
X291819999Y-145290001D01*
X291820000Y-145290000D01*
X291820002Y-145289999D01*
X291820001Y-145289999D01*
X291826137Y-145289395D01*
X292813863Y-145289395D01*
X292819999Y-145289999D01*
X292819999Y-145289999D01*
G37*
G36*
X273769999Y-145289999D02*
X273769998Y-145289999D01*
X273770000Y-145290000D01*
X273770001Y-145290001D01*
X273770605Y-145296137D01*
X273770605Y-150664395D01*
X273773007Y-150688781D01*
X273780120Y-150712230D01*
X273791671Y-150733841D01*
X273807217Y-150752783D01*
X273826159Y-150768329D01*
X273847770Y-150779880D01*
X273871219Y-150786993D01*
X273895605Y-150789395D01*
X286044395Y-150789395D01*
X286068781Y-150786993D01*
X286092230Y-150779880D01*
X286113841Y-150768329D01*
X286132783Y-150752783D01*
X286148329Y-150733841D01*
X286159880Y-150712230D01*
X286166993Y-150688781D01*
X286169395Y-150664395D01*
X286169395Y-145296137D01*
X286169999Y-145290001D01*
X286170000Y-145290000D01*
X286170002Y-145289999D01*
X286170001Y-145289999D01*
X286176137Y-145289395D01*
X287163863Y-145289395D01*
X287169999Y-145289999D01*
X287169998Y-145289999D01*
X287170000Y-145290000D01*
X287170001Y-145290001D01*
X287170605Y-145296137D01*
X287170605Y-151783863D01*
X287170001Y-151789999D01*
X287169999Y-151790001D01*
X287163863Y-151790605D01*
X272776137Y-151790605D01*
X272770001Y-151790001D01*
X272769999Y-151789999D01*
X272769395Y-151783863D01*
X272769395Y-145296137D01*
X272769999Y-145290001D01*
X272770000Y-145290000D01*
X272770002Y-145289999D01*
X272770001Y-145289999D01*
X272776137Y-145289395D01*
X273763863Y-145289395D01*
X273769999Y-145289999D01*
X273769999Y-145289999D01*
G37*
G36*
X254719999Y-145289999D02*
X254719998Y-145289999D01*
X254720000Y-145290000D01*
X254720001Y-145290001D01*
X254720605Y-145296137D01*
X254720605Y-150664395D01*
X254723007Y-150688781D01*
X254730120Y-150712230D01*
X254741671Y-150733841D01*
X254757217Y-150752783D01*
X254776159Y-150768329D01*
X254797770Y-150779880D01*
X254821219Y-150786993D01*
X254845605Y-150789395D01*
X266994395Y-150789395D01*
X267018781Y-150786993D01*
X267042230Y-150779880D01*
X267063841Y-150768329D01*
X267082783Y-150752783D01*
X267098329Y-150733841D01*
X267109880Y-150712230D01*
X267116993Y-150688781D01*
X267119395Y-150664395D01*
X267119395Y-145296137D01*
X267119999Y-145290001D01*
X267120001Y-145289999D01*
X267126137Y-145289395D01*
X268113863Y-145289395D01*
X268119999Y-145289999D01*
X268119998Y-145289999D01*
X268120000Y-145290000D01*
X268120001Y-145290001D01*
X268120605Y-145296137D01*
X268120605Y-151783863D01*
X268120001Y-151789999D01*
X268119999Y-151790001D01*
X268113863Y-151790605D01*
X253726137Y-151790605D01*
X253720001Y-151790001D01*
X253719999Y-151789999D01*
X253719395Y-151783863D01*
X253719395Y-145296137D01*
X253719999Y-145290001D01*
X253720001Y-145289999D01*
X253726137Y-145289395D01*
X254713863Y-145289395D01*
X254719999Y-145289999D01*
X254719999Y-145289999D01*
G37*
G36*
X311869999Y-145289999D02*
X311869998Y-145289999D01*
X311870000Y-145290000D01*
X311870001Y-145290001D01*
X311870605Y-145296137D01*
X311870605Y-150664395D01*
X311873007Y-150688781D01*
X311880120Y-150712230D01*
X311891671Y-150733841D01*
X311907217Y-150752783D01*
X311926159Y-150768329D01*
X311947770Y-150779880D01*
X311971219Y-150786993D01*
X311995605Y-150789395D01*
X324144395Y-150789395D01*
X324168781Y-150786993D01*
X324192230Y-150779880D01*
X324213841Y-150768329D01*
X324232783Y-150752783D01*
X324248329Y-150733841D01*
X324259880Y-150712230D01*
X324266993Y-150688781D01*
X324269395Y-150664395D01*
X324269395Y-145296137D01*
X324269999Y-145290001D01*
X324270000Y-145290000D01*
X324270002Y-145289999D01*
X324270001Y-145289999D01*
X324276137Y-145289395D01*
X325263863Y-145289395D01*
X325269999Y-145289999D01*
X325269998Y-145289999D01*
X325270000Y-145290000D01*
X325270001Y-145290001D01*
X325270605Y-145296137D01*
X325270605Y-151783863D01*
X325270001Y-151789999D01*
X325269999Y-151790001D01*
X325263863Y-151790605D01*
X310876137Y-151790605D01*
X310870001Y-151790001D01*
X310869999Y-151789999D01*
X310869395Y-151783863D01*
X310869395Y-145296137D01*
X310869999Y-145290001D01*
X310870000Y-145290000D01*
X310870002Y-145289999D01*
X310870001Y-145289999D01*
X310876137Y-145289395D01*
X311863863Y-145289395D01*
X311869999Y-145289999D01*
X311869999Y-145289999D01*
G37*
G36*
X325269999Y-137389999D02*
X325269998Y-137389999D01*
X325270000Y-137390000D01*
X325270001Y-137390001D01*
X325270605Y-137396137D01*
X325270605Y-143883863D01*
X325270001Y-143889999D01*
X325269999Y-143890001D01*
X325263863Y-143890605D01*
X324276137Y-143890605D01*
X324270001Y-143890001D01*
X324269999Y-143889999D01*
X324269395Y-143883863D01*
X324269395Y-138515605D01*
X324266993Y-138491219D01*
X324259880Y-138467770D01*
X324248329Y-138446159D01*
X324232783Y-138427217D01*
X324213841Y-138411671D01*
X324192230Y-138400120D01*
X324168781Y-138393007D01*
X324144395Y-138390605D01*
X311995605Y-138390605D01*
X311971219Y-138393007D01*
X311947770Y-138400120D01*
X311926159Y-138411671D01*
X311907217Y-138427217D01*
X311891671Y-138446159D01*
X311880120Y-138467770D01*
X311873007Y-138491219D01*
X311870605Y-138515605D01*
X311870605Y-143883863D01*
X311870001Y-143889999D01*
X311869999Y-143890001D01*
X311863863Y-143890605D01*
X310876137Y-143890605D01*
X310870001Y-143890001D01*
X310869999Y-143889999D01*
X310869395Y-143883863D01*
X310869395Y-137396137D01*
X310869999Y-137390001D01*
X310870000Y-137390000D01*
X310870002Y-137389999D01*
X310870001Y-137389999D01*
X310876137Y-137389395D01*
X325263863Y-137389395D01*
X325269999Y-137389999D01*
X325269999Y-137389999D01*
G37*
G36*
X268119999Y-137389999D02*
X268119998Y-137389999D01*
X268120000Y-137390000D01*
X268120001Y-137390001D01*
X268120605Y-137396137D01*
X268120605Y-143883863D01*
X268120001Y-143889999D01*
X268119999Y-143890001D01*
X268113863Y-143890605D01*
X267126137Y-143890605D01*
X267120001Y-143890001D01*
X267119999Y-143889999D01*
X267119395Y-143883863D01*
X267119395Y-138515605D01*
X267116993Y-138491219D01*
X267109880Y-138467770D01*
X267098329Y-138446159D01*
X267082783Y-138427217D01*
X267063841Y-138411671D01*
X267042230Y-138400120D01*
X267018781Y-138393007D01*
X266994395Y-138390605D01*
X254845605Y-138390605D01*
X254821219Y-138393007D01*
X254797770Y-138400120D01*
X254776159Y-138411671D01*
X254757217Y-138427217D01*
X254741671Y-138446159D01*
X254730120Y-138467770D01*
X254723007Y-138491219D01*
X254720605Y-138515605D01*
X254720605Y-143883863D01*
X254720001Y-143889999D01*
X254719999Y-143890001D01*
X254713863Y-143890605D01*
X253726137Y-143890605D01*
X253720001Y-143890001D01*
X253719999Y-143889999D01*
X253719395Y-143883863D01*
X253719395Y-137396137D01*
X253719999Y-137390001D01*
X253720001Y-137389999D01*
X253726137Y-137389395D01*
X268113863Y-137389395D01*
X268119999Y-137389999D01*
X268119999Y-137389999D01*
G37*
G36*
X287169999Y-137389999D02*
X287169998Y-137389999D01*
X287170000Y-137390000D01*
X287170001Y-137390001D01*
X287170605Y-137396137D01*
X287170605Y-143883863D01*
X287170001Y-143889999D01*
X287169999Y-143890001D01*
X287163863Y-143890605D01*
X286176137Y-143890605D01*
X286170001Y-143890001D01*
X286169999Y-143889999D01*
X286169395Y-143883863D01*
X286169395Y-138515605D01*
X286166993Y-138491219D01*
X286159880Y-138467770D01*
X286148329Y-138446159D01*
X286132783Y-138427217D01*
X286113841Y-138411671D01*
X286092230Y-138400120D01*
X286068781Y-138393007D01*
X286044395Y-138390605D01*
X273895605Y-138390605D01*
X273871219Y-138393007D01*
X273847770Y-138400120D01*
X273826159Y-138411671D01*
X273807217Y-138427217D01*
X273791671Y-138446159D01*
X273780120Y-138467770D01*
X273773007Y-138491219D01*
X273770605Y-138515605D01*
X273770605Y-143883863D01*
X273770001Y-143889999D01*
X273769999Y-143890001D01*
X273763863Y-143890605D01*
X272776137Y-143890605D01*
X272770001Y-143890001D01*
X272769999Y-143889999D01*
X272769395Y-143883863D01*
X272769395Y-137396137D01*
X272769999Y-137390001D01*
X272770000Y-137390000D01*
X272770002Y-137389999D01*
X272770001Y-137389999D01*
X272776137Y-137389395D01*
X287163863Y-137389395D01*
X287169999Y-137389999D01*
X287169999Y-137389999D01*
G37*
G36*
X306219999Y-137389999D02*
X306219998Y-137389999D01*
X306220000Y-137390000D01*
X306220001Y-137390001D01*
X306220605Y-137396137D01*
X306220605Y-143883863D01*
X306220001Y-143889999D01*
X306219999Y-143890001D01*
X306213863Y-143890605D01*
X305226137Y-143890605D01*
X305220001Y-143890001D01*
X305219999Y-143889999D01*
X305219395Y-143883863D01*
X305219395Y-138515605D01*
X305216993Y-138491219D01*
X305209880Y-138467770D01*
X305198329Y-138446159D01*
X305182783Y-138427217D01*
X305163841Y-138411671D01*
X305142230Y-138400120D01*
X305118781Y-138393007D01*
X305094395Y-138390605D01*
X292945605Y-138390605D01*
X292921219Y-138393007D01*
X292897770Y-138400120D01*
X292876159Y-138411671D01*
X292857217Y-138427217D01*
X292841671Y-138446159D01*
X292830120Y-138467770D01*
X292823007Y-138491219D01*
X292820605Y-138515605D01*
X292820605Y-143883863D01*
X292820001Y-143889999D01*
X292819999Y-143890001D01*
X292813863Y-143890605D01*
X291826137Y-143890605D01*
X291820001Y-143890001D01*
X291819999Y-143889999D01*
X291819395Y-143883863D01*
X291819395Y-137396137D01*
X291819999Y-137390001D01*
X291820000Y-137390000D01*
X291820002Y-137389999D01*
X291820001Y-137389999D01*
X291826137Y-137389395D01*
X306213863Y-137389395D01*
X306219999Y-137389999D01*
X306219999Y-137389999D01*
G37*
G36*
X311869999Y-126239999D02*
X311869998Y-126239999D01*
X311870000Y-126240000D01*
X311870001Y-126240001D01*
X311870605Y-126246137D01*
X311870605Y-131614395D01*
X311873007Y-131638781D01*
X311880120Y-131662230D01*
X311891671Y-131683841D01*
X311907217Y-131702783D01*
X311926159Y-131718329D01*
X311947770Y-131729880D01*
X311971219Y-131736993D01*
X311995605Y-131739395D01*
X324144395Y-131739395D01*
X324168781Y-131736993D01*
X324192230Y-131729880D01*
X324213841Y-131718329D01*
X324232783Y-131702783D01*
X324248329Y-131683841D01*
X324259880Y-131662230D01*
X324266993Y-131638781D01*
X324269395Y-131614395D01*
X324269395Y-126246137D01*
X324269999Y-126240001D01*
X324270000Y-126240000D01*
X324270002Y-126239999D01*
X324270001Y-126239999D01*
X324276137Y-126239395D01*
X325263863Y-126239395D01*
X325269999Y-126239999D01*
X325269998Y-126239999D01*
X325270000Y-126240000D01*
X325270001Y-126240001D01*
X325270605Y-126246137D01*
X325270605Y-132733863D01*
X325270001Y-132739999D01*
X325269999Y-132740001D01*
X325263863Y-132740605D01*
X310876137Y-132740605D01*
X310870001Y-132740001D01*
X310869999Y-132739999D01*
X310869395Y-132733863D01*
X310869395Y-126246137D01*
X310869999Y-126240001D01*
X310870000Y-126240000D01*
X310870002Y-126239999D01*
X310870001Y-126239999D01*
X310876137Y-126239395D01*
X311863863Y-126239395D01*
X311869999Y-126239999D01*
X311869999Y-126239999D01*
G37*
G36*
X292819999Y-126239999D02*
X292819998Y-126239999D01*
X292820000Y-126240000D01*
X292820001Y-126240001D01*
X292820605Y-126246137D01*
X292820605Y-131614395D01*
X292823007Y-131638781D01*
X292830120Y-131662230D01*
X292841671Y-131683841D01*
X292857217Y-131702783D01*
X292876159Y-131718329D01*
X292897770Y-131729880D01*
X292921219Y-131736993D01*
X292945605Y-131739395D01*
X305094395Y-131739395D01*
X305118781Y-131736993D01*
X305142230Y-131729880D01*
X305163841Y-131718329D01*
X305182783Y-131702783D01*
X305198329Y-131683841D01*
X305209880Y-131662230D01*
X305216993Y-131638781D01*
X305219395Y-131614395D01*
X305219395Y-126246137D01*
X305219999Y-126240001D01*
X305220000Y-126240000D01*
X305220002Y-126239999D01*
X305220001Y-126239999D01*
X305226137Y-126239395D01*
X306213863Y-126239395D01*
X306219999Y-126239999D01*
X306219998Y-126239999D01*
X306220000Y-126240000D01*
X306220001Y-126240001D01*
X306220605Y-126246137D01*
X306220605Y-132733863D01*
X306220001Y-132739999D01*
X306219999Y-132740001D01*
X306213863Y-132740605D01*
X291826137Y-132740605D01*
X291820001Y-132740001D01*
X291819999Y-132739999D01*
X291819395Y-132733863D01*
X291819395Y-126246137D01*
X291819999Y-126240001D01*
X291820000Y-126240000D01*
X291820002Y-126239999D01*
X291820001Y-126239999D01*
X291826137Y-126239395D01*
X292813863Y-126239395D01*
X292819999Y-126239999D01*
X292819999Y-126239999D01*
G37*
G36*
X273769999Y-126239999D02*
X273769998Y-126239999D01*
X273770000Y-126240000D01*
X273770001Y-126240001D01*
X273770605Y-126246137D01*
X273770605Y-131614395D01*
X273773007Y-131638781D01*
X273780120Y-131662230D01*
X273791671Y-131683841D01*
X273807217Y-131702783D01*
X273826159Y-131718329D01*
X273847770Y-131729880D01*
X273871219Y-131736993D01*
X273895605Y-131739395D01*
X286044395Y-131739395D01*
X286068781Y-131736993D01*
X286092230Y-131729880D01*
X286113841Y-131718329D01*
X286132783Y-131702783D01*
X286148329Y-131683841D01*
X286159880Y-131662230D01*
X286166993Y-131638781D01*
X286169395Y-131614395D01*
X286169395Y-126246137D01*
X286169999Y-126240001D01*
X286170000Y-126240000D01*
X286170002Y-126239999D01*
X286170001Y-126239999D01*
X286176137Y-126239395D01*
X287163863Y-126239395D01*
X287169999Y-126239999D01*
X287169998Y-126239999D01*
X287170000Y-126240000D01*
X287170001Y-126240001D01*
X287170605Y-126246137D01*
X287170605Y-132733863D01*
X287170001Y-132739999D01*
X287169999Y-132740001D01*
X287163863Y-132740605D01*
X272776137Y-132740605D01*
X272770001Y-132740001D01*
X272769999Y-132739999D01*
X272769395Y-132733863D01*
X272769395Y-126246137D01*
X272769999Y-126240001D01*
X272770000Y-126240000D01*
X272770002Y-126239999D01*
X272770001Y-126239999D01*
X272776137Y-126239395D01*
X273763863Y-126239395D01*
X273769999Y-126239999D01*
X273769999Y-126239999D01*
G37*
G36*
X254719999Y-126239999D02*
X254719998Y-126239999D01*
X254720000Y-126240000D01*
X254720001Y-126240001D01*
X254720605Y-126246137D01*
X254720605Y-131614395D01*
X254723007Y-131638781D01*
X254730120Y-131662230D01*
X254741671Y-131683841D01*
X254757217Y-131702783D01*
X254776159Y-131718329D01*
X254797770Y-131729880D01*
X254821219Y-131736993D01*
X254845605Y-131739395D01*
X266994395Y-131739395D01*
X267018781Y-131736993D01*
X267042230Y-131729880D01*
X267063841Y-131718329D01*
X267082783Y-131702783D01*
X267098329Y-131683841D01*
X267109880Y-131662230D01*
X267116993Y-131638781D01*
X267119395Y-131614395D01*
X267119395Y-126246137D01*
X267119999Y-126240001D01*
X267120001Y-126239999D01*
X267126137Y-126239395D01*
X268113863Y-126239395D01*
X268119999Y-126239999D01*
X268119998Y-126239999D01*
X268120000Y-126240000D01*
X268120001Y-126240001D01*
X268120605Y-126246137D01*
X268120605Y-132733863D01*
X268120001Y-132739999D01*
X268119999Y-132740001D01*
X268113863Y-132740605D01*
X253726137Y-132740605D01*
X253720001Y-132740001D01*
X253719999Y-132739999D01*
X253719395Y-132733863D01*
X253719395Y-126246137D01*
X253719999Y-126240001D01*
X253720001Y-126239999D01*
X253726137Y-126239395D01*
X254713863Y-126239395D01*
X254719999Y-126239999D01*
X254719999Y-126239999D01*
G37*
G36*
X325269999Y-118339999D02*
X325269998Y-118339999D01*
X325270000Y-118340000D01*
X325270001Y-118340001D01*
X325270605Y-118346137D01*
X325270605Y-124833863D01*
X325270001Y-124839999D01*
X325269999Y-124840001D01*
X325263863Y-124840605D01*
X324276137Y-124840605D01*
X324270001Y-124840001D01*
X324269999Y-124839999D01*
X324269395Y-124833863D01*
X324269395Y-119465605D01*
X324266993Y-119441219D01*
X324259880Y-119417770D01*
X324248329Y-119396159D01*
X324232783Y-119377217D01*
X324213841Y-119361671D01*
X324192230Y-119350120D01*
X324168781Y-119343007D01*
X324144395Y-119340605D01*
X311995605Y-119340605D01*
X311971219Y-119343007D01*
X311947770Y-119350120D01*
X311926159Y-119361671D01*
X311907217Y-119377217D01*
X311891671Y-119396159D01*
X311880120Y-119417770D01*
X311873007Y-119441219D01*
X311870605Y-119465605D01*
X311870605Y-124833863D01*
X311870001Y-124839999D01*
X311869999Y-124840001D01*
X311863863Y-124840605D01*
X310876137Y-124840605D01*
X310870001Y-124840001D01*
X310869999Y-124839999D01*
X310869395Y-124833863D01*
X310869395Y-118346137D01*
X310869999Y-118340001D01*
X310870000Y-118340000D01*
X310870002Y-118339999D01*
X310870001Y-118339999D01*
X310876137Y-118339395D01*
X325263863Y-118339395D01*
X325269999Y-118339999D01*
X325269999Y-118339999D01*
G37*
G36*
X268119999Y-118339999D02*
X268119998Y-118339999D01*
X268120000Y-118340000D01*
X268120001Y-118340001D01*
X268120605Y-118346137D01*
X268120605Y-124833863D01*
X268120001Y-124839999D01*
X268119999Y-124840001D01*
X268113863Y-124840605D01*
X267126137Y-124840605D01*
X267120001Y-124840001D01*
X267119999Y-124839999D01*
X267119395Y-124833863D01*
X267119395Y-119465605D01*
X267116993Y-119441219D01*
X267109880Y-119417770D01*
X267098329Y-119396159D01*
X267082783Y-119377217D01*
X267063841Y-119361671D01*
X267042230Y-119350120D01*
X267018781Y-119343007D01*
X266994395Y-119340605D01*
X254845605Y-119340605D01*
X254821219Y-119343007D01*
X254797770Y-119350120D01*
X254776159Y-119361671D01*
X254757217Y-119377217D01*
X254741671Y-119396159D01*
X254730120Y-119417770D01*
X254723007Y-119441219D01*
X254720605Y-119465605D01*
X254720605Y-124833863D01*
X254720001Y-124839999D01*
X254719999Y-124840001D01*
X254713863Y-124840605D01*
X253726137Y-124840605D01*
X253720001Y-124840001D01*
X253719999Y-124839999D01*
X253719395Y-124833863D01*
X253719395Y-118346137D01*
X253719999Y-118340001D01*
X253720001Y-118339999D01*
X253726137Y-118339395D01*
X268113863Y-118339395D01*
X268119999Y-118339999D01*
X268119999Y-118339999D01*
G37*
G36*
X306219999Y-118339999D02*
X306219998Y-118339999D01*
X306220000Y-118340000D01*
X306220001Y-118340001D01*
X306220605Y-118346137D01*
X306220605Y-124833863D01*
X306220001Y-124839999D01*
X306219999Y-124840001D01*
X306213863Y-124840605D01*
X305226137Y-124840605D01*
X305220001Y-124840001D01*
X305219999Y-124839999D01*
X305219395Y-124833863D01*
X305219395Y-119465605D01*
X305216993Y-119441219D01*
X305209880Y-119417770D01*
X305198329Y-119396159D01*
X305182783Y-119377217D01*
X305163841Y-119361671D01*
X305142230Y-119350120D01*
X305118781Y-119343007D01*
X305094395Y-119340605D01*
X292945605Y-119340605D01*
X292921219Y-119343007D01*
X292897770Y-119350120D01*
X292876159Y-119361671D01*
X292857217Y-119377217D01*
X292841671Y-119396159D01*
X292830120Y-119417770D01*
X292823007Y-119441219D01*
X292820605Y-119465605D01*
X292820605Y-124833863D01*
X292820001Y-124839999D01*
X292819999Y-124840001D01*
X292813863Y-124840605D01*
X291826137Y-124840605D01*
X291820001Y-124840001D01*
X291819999Y-124839999D01*
X291819395Y-124833863D01*
X291819395Y-118346137D01*
X291819999Y-118340001D01*
X291820000Y-118340000D01*
X291820002Y-118339999D01*
X291820001Y-118339999D01*
X291826137Y-118339395D01*
X306213863Y-118339395D01*
X306219999Y-118339999D01*
X306219999Y-118339999D01*
G37*
G36*
X287169999Y-118339999D02*
X287169998Y-118339999D01*
X287170000Y-118340000D01*
X287170001Y-118340001D01*
X287170605Y-118346137D01*
X287170605Y-124833863D01*
X287170001Y-124839999D01*
X287169999Y-124840001D01*
X287163863Y-124840605D01*
X286176137Y-124840605D01*
X286170001Y-124840001D01*
X286169999Y-124839999D01*
X286169395Y-124833863D01*
X286169395Y-119465605D01*
X286166993Y-119441219D01*
X286159880Y-119417770D01*
X286148329Y-119396159D01*
X286132783Y-119377217D01*
X286113841Y-119361671D01*
X286092230Y-119350120D01*
X286068781Y-119343007D01*
X286044395Y-119340605D01*
X273895605Y-119340605D01*
X273871219Y-119343007D01*
X273847770Y-119350120D01*
X273826159Y-119361671D01*
X273807217Y-119377217D01*
X273791671Y-119396159D01*
X273780120Y-119417770D01*
X273773007Y-119441219D01*
X273770605Y-119465605D01*
X273770605Y-124833863D01*
X273770001Y-124839999D01*
X273769999Y-124840001D01*
X273763863Y-124840605D01*
X272776137Y-124840605D01*
X272770001Y-124840001D01*
X272769999Y-124839999D01*
X272769395Y-124833863D01*
X272769395Y-118346137D01*
X272769999Y-118340001D01*
X272770000Y-118340000D01*
X272770002Y-118339999D01*
X272770001Y-118339999D01*
X272776137Y-118339395D01*
X287163863Y-118339395D01*
X287169999Y-118339999D01*
X287169999Y-118339999D01*
G37*
G36*
X254719999Y-107189999D02*
X254719998Y-107189999D01*
X254720000Y-107190000D01*
X254720001Y-107190001D01*
X254720605Y-107196137D01*
X254720605Y-112564395D01*
X254723007Y-112588781D01*
X254730120Y-112612230D01*
X254741671Y-112633841D01*
X254757217Y-112652783D01*
X254776159Y-112668329D01*
X254797770Y-112679880D01*
X254821219Y-112686993D01*
X254845605Y-112689395D01*
X266994395Y-112689395D01*
X267018781Y-112686993D01*
X267042230Y-112679880D01*
X267063841Y-112668329D01*
X267082783Y-112652783D01*
X267098329Y-112633841D01*
X267109880Y-112612230D01*
X267116993Y-112588781D01*
X267119395Y-112564395D01*
X267119395Y-107196137D01*
X267119999Y-107190001D01*
X267120001Y-107189999D01*
X267126137Y-107189395D01*
X268113863Y-107189395D01*
X268119999Y-107189999D01*
X268119998Y-107189999D01*
X268120000Y-107190000D01*
X268120001Y-107190001D01*
X268120605Y-107196137D01*
X268120605Y-113683863D01*
X268120001Y-113689999D01*
X268119999Y-113690001D01*
X268113863Y-113690605D01*
X265869836Y-113690605D01*
X265845450Y-113693007D01*
X265822001Y-113700120D01*
X265800390Y-113711671D01*
X265781448Y-113727217D01*
X265765902Y-113746159D01*
X265754351Y-113767770D01*
X265747238Y-113791219D01*
X265744836Y-113815605D01*
X265747238Y-113839991D01*
X265754351Y-113863440D01*
X265765902Y-113885051D01*
X265781448Y-113903993D01*
X265800390Y-113919539D01*
X265822001Y-113931090D01*
X265845450Y-113938203D01*
X266240878Y-114016859D01*
X266604854Y-114167622D01*
X266932429Y-114386501D01*
X267210999Y-114665071D01*
X267429878Y-114992646D01*
X267580641Y-115356622D01*
X267657500Y-115743016D01*
X267657500Y-116136984D01*
X267580641Y-116523378D01*
X267429878Y-116887354D01*
X267210999Y-117214929D01*
X266932429Y-117493499D01*
X266604854Y-117712378D01*
X266240878Y-117863141D01*
X265854484Y-117940000D01*
X265460516Y-117940000D01*
X265074122Y-117863141D01*
X264710146Y-117712378D01*
X264382571Y-117493499D01*
X264104001Y-117214929D01*
X263885122Y-116887354D01*
X263734359Y-116523378D01*
X263657500Y-116136984D01*
X263657500Y-115743016D01*
X263734359Y-115356622D01*
X263885122Y-114992646D01*
X264104001Y-114665071D01*
X264382571Y-114386501D01*
X264710146Y-114167622D01*
X265074122Y-114016859D01*
X265469550Y-113938203D01*
X265493000Y-113931090D01*
X265514610Y-113919539D01*
X265533552Y-113903993D01*
X265549098Y-113885051D01*
X265560649Y-113863440D01*
X265567762Y-113839991D01*
X265570164Y-113815605D01*
X265567762Y-113791219D01*
X265560649Y-113767769D01*
X265549098Y-113746159D01*
X265533552Y-113727217D01*
X265514610Y-113711671D01*
X265492999Y-113700120D01*
X265469550Y-113693007D01*
X265445164Y-113690605D01*
X253726137Y-113690605D01*
X253720001Y-113690001D01*
X253719999Y-113689999D01*
X253719395Y-113683863D01*
X253719395Y-107196137D01*
X253719999Y-107190001D01*
X253720001Y-107189999D01*
X253726137Y-107189395D01*
X254713863Y-107189395D01*
X254719999Y-107189999D01*
X254719999Y-107189999D01*
G37*
G36*
X309103378Y-114016859D02*
X309467354Y-114167622D01*
X309794929Y-114386501D01*
X310073499Y-114665071D01*
X310292378Y-114992646D01*
X310443141Y-115356622D01*
X310520000Y-115743016D01*
X310520000Y-116136984D01*
X310443141Y-116523378D01*
X310292378Y-116887354D01*
X310073499Y-117214929D01*
X309794929Y-117493499D01*
X309467354Y-117712378D01*
X309103378Y-117863141D01*
X308716984Y-117940000D01*
X308323016Y-117940000D01*
X307936622Y-117863141D01*
X307572646Y-117712378D01*
X307245071Y-117493499D01*
X306966501Y-117214929D01*
X306747622Y-116887354D01*
X306596859Y-116523378D01*
X306520000Y-116136984D01*
X306520000Y-115743016D01*
X306596859Y-115356622D01*
X306747622Y-114992646D01*
X306966501Y-114665071D01*
X307245071Y-114386501D01*
X307572646Y-114167622D01*
X307936622Y-114016859D01*
X308323016Y-113940000D01*
X308716984Y-113940000D01*
X309103378Y-114016859D01*
X309103378Y-114016859D01*
G37*
G36*
X311869999Y-107189999D02*
X311869998Y-107189999D01*
X311870000Y-107190000D01*
X311870001Y-107190001D01*
X311870605Y-107196137D01*
X311870605Y-112564395D01*
X311873007Y-112588781D01*
X311880120Y-112612230D01*
X311891671Y-112633841D01*
X311907217Y-112652783D01*
X311926159Y-112668329D01*
X311947770Y-112679880D01*
X311971219Y-112686993D01*
X311995605Y-112689395D01*
X324144395Y-112689395D01*
X324168781Y-112686993D01*
X324192230Y-112679880D01*
X324213841Y-112668329D01*
X324232783Y-112652783D01*
X324248329Y-112633841D01*
X324259880Y-112612230D01*
X324266993Y-112588781D01*
X324269395Y-112564395D01*
X324269395Y-107196137D01*
X324269999Y-107190001D01*
X324270000Y-107190000D01*
X324270002Y-107189999D01*
X324270001Y-107189999D01*
X324276137Y-107189395D01*
X325263863Y-107189395D01*
X325269999Y-107189999D01*
X325269998Y-107189999D01*
X325270000Y-107190000D01*
X325270001Y-107190001D01*
X325270605Y-107196137D01*
X325270605Y-113683863D01*
X325270001Y-113689999D01*
X325269999Y-113690001D01*
X325263863Y-113690605D01*
X310876137Y-113690605D01*
X310870001Y-113690001D01*
X310869999Y-113689999D01*
X310869395Y-113683863D01*
X310869395Y-107196137D01*
X310869999Y-107190001D01*
X310870000Y-107190000D01*
X310870002Y-107189999D01*
X310870001Y-107189999D01*
X310876137Y-107189395D01*
X311863863Y-107189395D01*
X311869999Y-107189999D01*
X311869999Y-107189999D01*
G37*
G36*
X292819999Y-107189999D02*
X292819998Y-107189999D01*
X292820000Y-107190000D01*
X292820001Y-107190001D01*
X292820605Y-107196137D01*
X292820605Y-112564395D01*
X292823007Y-112588781D01*
X292830120Y-112612230D01*
X292841671Y-112633841D01*
X292857217Y-112652783D01*
X292876159Y-112668329D01*
X292897770Y-112679880D01*
X292921219Y-112686993D01*
X292945605Y-112689395D01*
X305094395Y-112689395D01*
X305118781Y-112686993D01*
X305142230Y-112679880D01*
X305163841Y-112668329D01*
X305182783Y-112652783D01*
X305198329Y-112633841D01*
X305209880Y-112612230D01*
X305216993Y-112588781D01*
X305219395Y-112564395D01*
X305219395Y-107196137D01*
X305219999Y-107190001D01*
X305220000Y-107190000D01*
X305220002Y-107189999D01*
X305220001Y-107189999D01*
X305226137Y-107189395D01*
X306213863Y-107189395D01*
X306219999Y-107189999D01*
X306219998Y-107189999D01*
X306220000Y-107190000D01*
X306220001Y-107190001D01*
X306220605Y-107196137D01*
X306220605Y-113683863D01*
X306220001Y-113689999D01*
X306219999Y-113690001D01*
X306213863Y-113690605D01*
X291826137Y-113690605D01*
X291820001Y-113690001D01*
X291819999Y-113689999D01*
X291819395Y-113683863D01*
X291819395Y-107196137D01*
X291819999Y-107190001D01*
X291820000Y-107190000D01*
X291820002Y-107189999D01*
X291820001Y-107189999D01*
X291826137Y-107189395D01*
X292813863Y-107189395D01*
X292819999Y-107189999D01*
X292819999Y-107189999D01*
G37*
G36*
X273769999Y-107189999D02*
X273769998Y-107189999D01*
X273770000Y-107190000D01*
X273770001Y-107190001D01*
X273770605Y-107196137D01*
X273770605Y-112564395D01*
X273773007Y-112588781D01*
X273780120Y-112612230D01*
X273791671Y-112633841D01*
X273807217Y-112652783D01*
X273826159Y-112668329D01*
X273847770Y-112679880D01*
X273871219Y-112686993D01*
X273895605Y-112689395D01*
X286044395Y-112689395D01*
X286068781Y-112686993D01*
X286092230Y-112679880D01*
X286113841Y-112668329D01*
X286132783Y-112652783D01*
X286148329Y-112633841D01*
X286159880Y-112612230D01*
X286166993Y-112588781D01*
X286169395Y-112564395D01*
X286169395Y-107196137D01*
X286169999Y-107190001D01*
X286170000Y-107190000D01*
X286170002Y-107189999D01*
X286170001Y-107189999D01*
X286176137Y-107189395D01*
X287163863Y-107189395D01*
X287169999Y-107189999D01*
X287169998Y-107189999D01*
X287170000Y-107190000D01*
X287170001Y-107190001D01*
X287170605Y-107196137D01*
X287170605Y-113683863D01*
X287170001Y-113689999D01*
X287169999Y-113690001D01*
X287163863Y-113690605D01*
X272776137Y-113690605D01*
X272770001Y-113690001D01*
X272769999Y-113689999D01*
X272769395Y-113683863D01*
X272769395Y-107196137D01*
X272769999Y-107190001D01*
X272770000Y-107190000D01*
X272770002Y-107189999D01*
X272770001Y-107189999D01*
X272776137Y-107189395D01*
X273763863Y-107189395D01*
X273769999Y-107189999D01*
X273769999Y-107189999D01*
G37*
G36*
X325269999Y-99289999D02*
X325269998Y-99289999D01*
X325270000Y-99290000D01*
X325270001Y-99290001D01*
X325270605Y-99296137D01*
X325270605Y-105783863D01*
X325270001Y-105789999D01*
X325269999Y-105790001D01*
X325263863Y-105790605D01*
X324276137Y-105790605D01*
X324270001Y-105790001D01*
X324269999Y-105789999D01*
X324269395Y-105783863D01*
X324269395Y-100415605D01*
X324266993Y-100391219D01*
X324259880Y-100367770D01*
X324248329Y-100346159D01*
X324232783Y-100327217D01*
X324213841Y-100311671D01*
X324192230Y-100300120D01*
X324168781Y-100293007D01*
X324144395Y-100290605D01*
X311995605Y-100290605D01*
X311971219Y-100293007D01*
X311947770Y-100300120D01*
X311926159Y-100311671D01*
X311907217Y-100327217D01*
X311891671Y-100346159D01*
X311880120Y-100367770D01*
X311873007Y-100391219D01*
X311870605Y-100415605D01*
X311870605Y-105783863D01*
X311870001Y-105789999D01*
X311869999Y-105790001D01*
X311863863Y-105790605D01*
X310876137Y-105790605D01*
X310870001Y-105790001D01*
X310869999Y-105789999D01*
X310869395Y-105783863D01*
X310869395Y-99296137D01*
X310869999Y-99290001D01*
X310870000Y-99290000D01*
X310870002Y-99289999D01*
X310870001Y-99289999D01*
X310876137Y-99289395D01*
X325263863Y-99289395D01*
X325269999Y-99289999D01*
X325269999Y-99289999D01*
G37*
G36*
X306219999Y-99289999D02*
X306219998Y-99289999D01*
X306220000Y-99290000D01*
X306220001Y-99290001D01*
X306220605Y-99296137D01*
X306220605Y-105783863D01*
X306220001Y-105789999D01*
X306219999Y-105790001D01*
X306213863Y-105790605D01*
X305226137Y-105790605D01*
X305220001Y-105790001D01*
X305219999Y-105789999D01*
X305219395Y-105783863D01*
X305219395Y-100415605D01*
X305216993Y-100391219D01*
X305209880Y-100367770D01*
X305198329Y-100346159D01*
X305182783Y-100327217D01*
X305163841Y-100311671D01*
X305142230Y-100300120D01*
X305118781Y-100293007D01*
X305094395Y-100290605D01*
X292945605Y-100290605D01*
X292921219Y-100293007D01*
X292897770Y-100300120D01*
X292876159Y-100311671D01*
X292857217Y-100327217D01*
X292841671Y-100346159D01*
X292830120Y-100367770D01*
X292823007Y-100391219D01*
X292820605Y-100415605D01*
X292820605Y-105783863D01*
X292820001Y-105789999D01*
X292819999Y-105790001D01*
X292813863Y-105790605D01*
X291826137Y-105790605D01*
X291820001Y-105790001D01*
X291819999Y-105789999D01*
X291819395Y-105783863D01*
X291819395Y-99296137D01*
X291819999Y-99290001D01*
X291820000Y-99290000D01*
X291820002Y-99289999D01*
X291820001Y-99289999D01*
X291826137Y-99289395D01*
X306213863Y-99289395D01*
X306219999Y-99289999D01*
X306219999Y-99289999D01*
G37*
G36*
X268119999Y-99289999D02*
X268119998Y-99289999D01*
X268120000Y-99290000D01*
X268120001Y-99290001D01*
X268120605Y-99296137D01*
X268120605Y-105783863D01*
X268120001Y-105789999D01*
X268119999Y-105790001D01*
X268113863Y-105790605D01*
X267126137Y-105790605D01*
X267120001Y-105790001D01*
X267119999Y-105789999D01*
X267119395Y-105783863D01*
X267119395Y-100415605D01*
X267116993Y-100391219D01*
X267109880Y-100367770D01*
X267098329Y-100346159D01*
X267082783Y-100327217D01*
X267063841Y-100311671D01*
X267042230Y-100300120D01*
X267018781Y-100293007D01*
X266994395Y-100290605D01*
X254845605Y-100290605D01*
X254821219Y-100293007D01*
X254797770Y-100300120D01*
X254776159Y-100311671D01*
X254757217Y-100327217D01*
X254741671Y-100346159D01*
X254730120Y-100367770D01*
X254723007Y-100391219D01*
X254720605Y-100415605D01*
X254720605Y-105783863D01*
X254720001Y-105789999D01*
X254719999Y-105790001D01*
X254713863Y-105790605D01*
X253726137Y-105790605D01*
X253720001Y-105790001D01*
X253719999Y-105789999D01*
X253719395Y-105783863D01*
X253719395Y-99296137D01*
X253719999Y-99290001D01*
X253720001Y-99289999D01*
X253726137Y-99289395D01*
X268113863Y-99289395D01*
X268119999Y-99289999D01*
X268119999Y-99289999D01*
G37*
G36*
X287169999Y-99289999D02*
X287169998Y-99289999D01*
X287170000Y-99290000D01*
X287170001Y-99290001D01*
X287170605Y-99296137D01*
X287170605Y-105783863D01*
X287170001Y-105789999D01*
X287169999Y-105790001D01*
X287163863Y-105790605D01*
X286176137Y-105790605D01*
X286170001Y-105790001D01*
X286169999Y-105789999D01*
X286169395Y-105783863D01*
X286169395Y-100415605D01*
X286166993Y-100391219D01*
X286159880Y-100367770D01*
X286148329Y-100346159D01*
X286132783Y-100327217D01*
X286113841Y-100311671D01*
X286092230Y-100300120D01*
X286068781Y-100293007D01*
X286044395Y-100290605D01*
X273895605Y-100290605D01*
X273871219Y-100293007D01*
X273847770Y-100300120D01*
X273826159Y-100311671D01*
X273807217Y-100327217D01*
X273791671Y-100346159D01*
X273780120Y-100367770D01*
X273773007Y-100391219D01*
X273770605Y-100415605D01*
X273770605Y-105783863D01*
X273770001Y-105789999D01*
X273769999Y-105790001D01*
X273763863Y-105790605D01*
X272776137Y-105790605D01*
X272770001Y-105790001D01*
X272769999Y-105789999D01*
X272769395Y-105783863D01*
X272769395Y-99296137D01*
X272769999Y-99290001D01*
X272770000Y-99290000D01*
X272770002Y-99289999D01*
X272770001Y-99289999D01*
X272776137Y-99289395D01*
X287163863Y-99289395D01*
X287169999Y-99289999D01*
X287169999Y-99289999D01*
G37*
M02*
