M48
;DRILL file {KiCad (5.0.1)-3} date 26.04.2020 2:34:03
;FORMAT={-:-/ absolute / inch / decimal}
FMAT,2
INCH,TZ
T1C0.0197
T2C0.0866
%
G90
G05
M72
T2
X12.1465Y-6.0646
X12.1465Y-4.5646
X10.459Y-4.5646
X10.6465Y-6.0646
T1
X10.7587Y-3.9287G85X10.7587Y-4.1453
G05
X10.7587Y-4.2398G85X10.7587Y-4.4563
G05
X10.7665Y-3.9287G85X11.2783Y-3.9287
G05
X11.2783Y-4.4563G85X10.7665Y-4.4563
G05
X11.2862Y-4.1453G85X11.2862Y-3.9287
G05
X11.2862Y-4.4563G85X11.2862Y-4.2398
G05
X10.7587Y-4.6787G85X10.7587Y-4.8953
G05
X10.7587Y-4.9898G85X10.7587Y-5.2063
G05
X10.7665Y-4.6787G85X11.2783Y-4.6787
G05
X11.2783Y-5.2063G85X10.7665Y-5.2063
G05
X11.2862Y-4.8953G85X11.2862Y-4.6787
G05
X11.2862Y-5.2063G85X11.2862Y-4.9898
G05
X12.2587Y-4.6787G85X12.2587Y-4.8953
G05
X12.2587Y-4.9898G85X12.2587Y-5.2063
G05
X12.2665Y-4.6787G85X12.7783Y-4.6787
G05
X12.7783Y-5.2063G85X12.2665Y-5.2063
G05
X12.7862Y-4.8953G85X12.7862Y-4.6787
G05
X12.7862Y-5.2063G85X12.7862Y-4.9898
G05
X10.0087Y-3.9287G85X10.0087Y-4.1453
G05
X10.0087Y-4.2398G85X10.0087Y-4.4563
G05
X10.0165Y-3.9287G85X10.5283Y-3.9287
G05
X10.5283Y-4.4563G85X10.0165Y-4.4563
G05
X10.5362Y-4.1453G85X10.5362Y-3.9287
G05
X10.5362Y-4.4563G85X10.5362Y-4.2398
G05
X11.5087Y-3.9287G85X11.5087Y-4.1453
G05
X11.5087Y-4.2398G85X11.5087Y-4.4563
G05
X11.5165Y-3.9287G85X12.0283Y-3.9287
G05
X12.0283Y-4.4563G85X11.5165Y-4.4563
G05
X12.0362Y-4.1453G85X12.0362Y-3.9287
G05
X12.0362Y-4.4563G85X12.0362Y-4.2398
G05
X11.5087Y-5.4287G85X11.5087Y-5.6453
G05
X11.5087Y-5.7398G85X11.5087Y-5.9563
G05
X11.5165Y-5.4287G85X12.0283Y-5.4287
G05
X12.0283Y-5.9563G85X11.5165Y-5.9563
G05
X12.0362Y-5.6453G85X12.0362Y-5.4287
G05
X12.0362Y-5.9563G85X12.0362Y-5.7398
G05
X11.5087Y-6.1787G85X11.5087Y-6.3953
G05
X11.5087Y-6.4898G85X11.5087Y-6.7063
G05
X11.5165Y-6.1787G85X12.0283Y-6.1787
G05
X12.0283Y-6.7063G85X11.5165Y-6.7063
G05
X12.0362Y-6.3953G85X12.0362Y-6.1787
G05
X12.0362Y-6.7063G85X12.0362Y-6.4898
G05
X12.2587Y-3.9287G85X12.2587Y-4.1453
G05
X12.2587Y-4.2398G85X12.2587Y-4.4563
G05
X12.2665Y-3.9287G85X12.7783Y-3.9287
G05
X12.7783Y-4.4563G85X12.2665Y-4.4563
G05
X12.7862Y-4.1453G85X12.7862Y-3.9287
G05
X12.7862Y-4.4563G85X12.7862Y-4.2398
G05
X10.0087Y-4.6787G85X10.0087Y-4.8953
G05
X10.0087Y-4.9898G85X10.0087Y-5.2063
G05
X10.0165Y-4.6787G85X10.5283Y-4.6787
G05
X10.5283Y-5.2063G85X10.0165Y-5.2063
G05
X10.5362Y-4.8953G85X10.5362Y-4.6787
G05
X10.5362Y-5.2063G85X10.5362Y-4.9898
G05
X11.5087Y-4.6787G85X11.5087Y-4.8953
G05
X11.5087Y-4.9898G85X11.5087Y-5.2063
G05
X11.5165Y-4.6787G85X12.0283Y-4.6787
G05
X12.0283Y-5.2063G85X11.5165Y-5.2063
G05
X12.0362Y-4.8953G85X12.0362Y-4.6787
G05
X12.0362Y-5.2063G85X12.0362Y-4.9898
G05
X10.7587Y-5.4287G85X10.7587Y-5.6453
G05
X10.7587Y-5.7398G85X10.7587Y-5.9563
G05
X10.7665Y-5.4287G85X11.2783Y-5.4287
G05
X11.2783Y-5.9563G85X10.7665Y-5.9563
G05
X11.2862Y-5.6453G85X11.2862Y-5.4287
G05
X11.2862Y-5.9563G85X11.2862Y-5.7398
G05
X10.0087Y-5.4287G85X10.0087Y-5.6453
G05
X10.0087Y-5.7398G85X10.0087Y-5.9563
G05
X10.0165Y-5.4287G85X10.5283Y-5.4287
G05
X10.5283Y-5.9563G85X10.0165Y-5.9563
G05
X10.5362Y-5.6453G85X10.5362Y-5.4287
G05
X10.5362Y-5.9563G85X10.5362Y-5.7398
G05
X10.7587Y-6.1787G85X10.7587Y-6.3953
G05
X10.7587Y-6.4898G85X10.7587Y-6.7063
G05
X10.7665Y-6.1787G85X11.2783Y-6.1787
G05
X11.2783Y-6.7063G85X10.7665Y-6.7063
G05
X11.2862Y-6.3953G85X11.2862Y-6.1787
G05
X11.2862Y-6.7063G85X11.2862Y-6.4898
G05
X12.2587Y-5.4287G85X12.2587Y-5.6453
G05
X12.2587Y-5.7398G85X12.2587Y-5.9563
G05
X12.2665Y-5.4287G85X12.7783Y-5.4287
G05
X12.7783Y-5.9563G85X12.2665Y-5.9563
G05
X12.7862Y-5.6453G85X12.7862Y-5.4287
G05
X12.7862Y-5.9563G85X12.7862Y-5.7398
G05
X12.2587Y-6.1787G85X12.2587Y-6.3953
G05
X12.2587Y-6.4898G85X12.2587Y-6.7063
G05
X12.2665Y-6.1787G85X12.7783Y-6.1787
G05
X12.7783Y-6.7063G85X12.2665Y-6.7063
G05
X12.7862Y-6.3953G85X12.7862Y-6.1787
G05
X12.7862Y-6.7063G85X12.7862Y-6.4898
G05
X10.0087Y-6.1787G85X10.0087Y-6.3953
G05
X10.0087Y-6.4898G85X10.0087Y-6.7063
G05
X10.0165Y-6.1787G85X10.5283Y-6.1787
G05
X10.5283Y-6.7063G85X10.0165Y-6.7063
G05
X10.5362Y-6.3953G85X10.5362Y-6.1787
G05
X10.5362Y-6.7063G85X10.5362Y-6.4898
G05
T0
M30
